<?xml version="1.0" standalone="no"?>
<!DOCTYPE svg PUBLIC "-//W3C//DTD SVG 1.1//EN" "http://www.w3.org/Graphics/SVG/1.1/DTD/svg11.dtd" >
<svg xmlns="http://www.w3.org/2000/svg" xmlns:xlink="http://www.w3.org/1999/xlink" version="1.1">
<metadata>
Created by FontForge 20170731 at Wed Jan  8 19:45:39 2020
 By Aleksey,,,
Copyright (c) 2015, Impallari Type (www.impallari.com)
</metadata>
<defs>
<font id="PublicSans-Bold" horiz-adv-x="0" >
  <font-face 
    font-family="Public Sans"
    font-weight="700"
    font-stretch="normal"
    units-per-em="2000"
    panose-1="0 0 0 0 0 0 0 0 0 0"
    ascent="1600"
    descent="-400"
    x-height="1034"
    cap-height="1446"
    bbox="-334 -480 2598 2238.38"
    underline-thickness="140"
    underline-position="-650"
    unicode-range="U+000D-FB02"
  />
<missing-glyph horiz-adv-x="1315" 
d="M1153 -266q0 -30 -15.5 -43t-49.5 -13h-873q-30 0 -41.5 11.5t-11.5 36.5v1880q0 22 10.5 34t27.5 12h918q35 0 35 -42v-1876zM1022 1554h-687l716 -1666v1632q0 15 -8 24.5t-21 9.5zM308 -224h670l-714 1657v-1617q0 -20 10 -30t34 -10z" />
    <glyph glyph-name="fi" unicode="fi" horiz-adv-x="1327" 
d="M752 1034v-203h-218v-831h-293v831h-191v203h191v149q0 125 74 194t208 69h237l2 -194h-137q-55 0 -76 -27t-21 -91v-100h224zM1202 1445v-263h-284v263h284zM1200 1034v-1034h-279v1034h279z" />
    <glyph glyph-name="fl" unicode="fl" horiz-adv-x="1451" 
d="M1248 -18q-64 0 -114.5 9.5t-85 25t-59 40t-38 49t-21.5 58.5t-10 61.5t-2 64.5v1196h286v-1160q0 -61 26.5 -95t90.5 -41l49 -3v-180q-71 -25 -122 -25zM752 1034v-203h-218v-831h-293v831h-191v203h191v149q0 125 74 194t208 69h237l2 -194h-137q-55 0 -76 -27t-21 -91
v-100h224z" />
    <glyph glyph-name="colon_one_eight_F_colon.liga" unicode="&#x3a;&#x31;&#x38;F&#x3a;" horiz-adv-x="1561" 
d="M43 1522h1476q22 0 22 -24v-1472q0 -12 -6.5 -19t-15.5 -7h-1476q-22 0 -22 26v1472q0 24 22 24zM755 468q71 0 121.5 51t50.5 121q0 89 -74 140q52 49 52 116q0 62 -44.5 106t-105.5 44q-65 0 -108.5 -44t-43.5 -106t54 -116q-74 -49 -74 -140q0 -71 50 -121.5
t122 -50.5zM499 486v544q0 10 -8 10h-136q-6 0 -6 -10v-52q0 -8 6 -8h74v-484q0 -8 6 -8h56q8 0 8 8zM1237 978v52q0 10 -8 10h-210q-8 0 -8 -10v-544q0 -8 8 -8h52q12 0 12 8v248h122q6 0 6 8v50q0 10 -6 10h-122v168h146q8 0 8 8zM755 816q-35 0 -59.5 22.5t-24.5 57.5
q0 34 24.5 58t59.5 24t58.5 -24t23.5 -58q0 -35 -23.5 -57.5t-58.5 -22.5zM755 742q43 0 72.5 -29t29.5 -73q0 -42 -29.5 -72t-72.5 -30q-42 0 -72 30t-30 72q0 43 30 72.5t72 29.5z" />
    <glyph glyph-name="colon_f_l_a_g_two_colon.liga" unicode="&#x3a;flag&#x32;&#x3a;" horiz-adv-x="2334" 
d="M101 1522h2132v-1520h-2132v1520zM2109 1396h-1070v-106h1070v106zM289 1288v-118h126v118h-126zM761 1288v-118h122v118h-122zM527 1170v-116h122v116h-122zM1039 1056h1070v110h-1070v-110zM293 1054v-118h122v118h-122zM761 1054v-118h122v118h-122zM527 936v-116h122
v116h-122zM1039 822h1070v110h-1070v-110zM293 820v-118h122v118h-122zM761 820v-118h122v118h-122zM1039 588h1070v110h-1070v-110zM223 354h1886v110h-1887zM225 126h1884v104h-1885z" />
    <glyph glyph-name="colon_f_l_a_g_colon.liga" unicode="&#x3a;flag&#x3a;" horiz-adv-x="2334" 
d="M101 1522h2132v-1520h-2132v1520zM1037 820h1080v116h-1080v118h1080v116h-1080v118h1080v116h-1900v-818h1900v116h-1080v118zM803 1288h116v-118h-116v118zM335 1288h116v-118h-116v118zM569 1170h116v-116h-116v116zM335 1054h116v-118h-116v118zM803 1054h116v-118
h-116v118zM569 936h116v-116h-116v116zM335 820h116v-118h-116v118zM803 820h116v-118h-116v118zM217 352h1900v116h-1900v-116zM217 118h1900v116h-1900v-116z" />
    <glyph glyph-name=".notdef" horiz-adv-x="1315" 
d="M1153 -266q0 -30 -15.5 -43t-49.5 -13h-873q-30 0 -41.5 11.5t-11.5 36.5v1880q0 22 10.5 34t27.5 12h918q35 0 35 -42v-1876zM1022 1554h-687l716 -1666v1632q0 15 -8 24.5t-21 9.5zM308 -224h670l-714 1657v-1617q0 -20 10 -30t34 -10z" />
    <glyph glyph-name="uni0000" horiz-adv-x="53" 
 />
    <glyph glyph-name="uni0000" horiz-adv-x="53" 
 />
    <glyph glyph-name="nonmarkingreturn" horiz-adv-x="666" 
 />
    <glyph glyph-name="CR" unicode="&#xd;" horiz-adv-x="476" 
 />
    <glyph glyph-name="space" unicode=" " horiz-adv-x="451" 
 />
    <glyph glyph-name="exclam" unicode="!" horiz-adv-x="564" 
d="M443 1446l-77 -1000h-183l-82 1000h342zM431 312v-312h-319v312h319z" />
    <glyph glyph-name="quotedbl" unicode="&#x22;" horiz-adv-x="959" 
d="M847 1446l-77 -560h-145l-76 560h298zM410 1446l-77 -560h-145l-76 560h298z" />
    <glyph glyph-name="numbersign" unicode="#" horiz-adv-x="1232" 
d="M1099 602v-152h-236l-67 -455l-154 21l65 434h-269l-67 -455l-152 21l65 434h-228v152h250l39 258h-225v152h247l66 437l151 -15l-63 -422h270l65 437l153 -15l-63 -422h217v-152h-239l-38 -258h213zM461 602h269l38 258h-269z" />
    <glyph glyph-name="dollar" unicode="$" horiz-adv-x="1361" 
d="M582 1653h253v-199q187 -33 295.5 -149.5t106.5 -273.5l-295 -5q-14 102 -67 154t-163 52q-118 0 -187.5 -48.5t-69.5 -128.5q0 -64 43.5 -100.5t159.5 -66.5l233 -57q372 -89 372 -438q0 -163 -116.5 -271t-317.5 -134v-179h-252v178q-210 24 -334 129t-144 291l304 6
q23 -98 102.5 -150t200.5 -52q108 0 177.5 51t69.5 129q0 77 -49 117.5t-159 65.5l-237 51q-171 35 -267.5 134.5t-98.5 261.5q-1 173 120.5 288.5t319.5 145.5v198z" />
    <glyph glyph-name="percent" unicode="%" horiz-adv-x="1878" 
d="M459 1468q154 0 258.5 -119.5t104.5 -294.5q0 -173 -103.5 -289.5t-259.5 -116.5t-261 116.5t-105 289.5q0 174 106 294t260 120zM1491 1462l-972 -1470l-172 3l975 1467h169zM457 796q150 0 150 258q0 127 -38 197t-112 70t-111.5 -70.5t-37.5 -196.5q0 -124 37 -191
t112 -67zM1408 802q155 0 259.5 -120t104.5 -294q0 -173 -104 -290.5t-260 -117.5t-261.5 117.5t-105.5 290.5q0 174 106 294t261 120zM1406 131q75 0 112.5 67t37.5 188q0 126 -38.5 196.5t-111.5 70.5t-110.5 -71t-37.5 -196q0 -121 37 -188t111 -67z" />
    <glyph glyph-name="ampersand" unicode="&#x26;" horiz-adv-x="1567" 
d="M711 1468q123 0 223.5 -39t160 -111t59.5 -164q0 -198 -320 -386l226 -266q83 188 98 319h299q-18 -62 -52 -134.5t-60.5 -117t-78.5 -127t-68 -108.5l286 -334h-335l-124 142q-208 -152 -465 -152q-231 0 -348.5 101t-117.5 272q0 97 42 175.5t118.5 140.5t203.5 129
q-49 54 -72 82.5t-51 71t-39 82.5t-11 86q0 145 119.5 241.5t306.5 96.5zM725 1290q-69 -1 -110.5 -41t-41.5 -99q0 -85 99 -192l41 -43q104 65 144.5 117t40.5 109q0 75 -50 113t-123 36zM601 642q-201 -114 -180 -263q9 -77 71.5 -121.5t139.5 -44.5q61 0 132 26.5
t121 73.5z" />
    <glyph glyph-name="quotesingle" unicode="'" horiz-adv-x="522" 
d="M410 1446l-77 -560h-145l-76 560h298z" />
    <glyph glyph-name="parenleft" unicode="(" horiz-adv-x="666" 
d="M610 1482q-108 -203 -169 -432t-61 -460q0 -221 55 -431.5t167 -444.5h-205q-139 234 -208.5 436.5t-69.5 441.5q0 240 75.5 467.5t208.5 422.5h207z" />
    <glyph glyph-name="parenright" unicode=")" horiz-adv-x="673" 
d="M24 1482h206q133 -195 209 -422.5t76 -467.5t-69.5 -442t-209.5 -436h-205q112 235 167.5 445t55.5 431q0 231 -61 459.5t-169 432.5z" />
    <glyph glyph-name="asterisk" unicode="*" horiz-adv-x="946" 
d="M634 654l-166 274l-167 -279l-157 109l207 247l-294 82l62 170l277 -121l-22 310h191l-27 -311l283 124l54 -170l-286 -83l202 -242z" />
    <glyph glyph-name="plus" unicode="+" horiz-adv-x="1177" 
d="M696 256h-213v365h-367v213h367v367h213v-367h365v-213h-365v-365z" />
    <glyph glyph-name="comma" unicode="," horiz-adv-x="554" 
d="M94 -280l116 272l-102 9v283h295v-249l-201 -315h-108z" />
    <glyph glyph-name="hyphen" unicode="-" horiz-adv-x="786" 
d="M666 621v-212l-546 -1v213h546z" />
    <glyph glyph-name="period" unicode="." horiz-adv-x="539" 
d="M99 0v318h320v-318h-320z" />
    <glyph glyph-name="slash" unicode="/" horiz-adv-x="762" 
d="M23 -37l506 1483h203l-505 -1483h-204z" />
    <glyph glyph-name="zero" unicode="0" horiz-adv-x="1289" 
d="M646 1466q261 0 408.5 -194.5t147.5 -551.5t-146.5 -549.5t-409.5 -192.5q-264 0 -411 192.5t-147 548.5q0 357 148.5 552t409.5 195zM646 217q131 0 190 116.5t59 385.5q0 274 -60 395.5t-190 121.5t-191.5 -122.5t-61.5 -394.5q0 -267 61 -384.5t193 -117.5z" />
    <glyph glyph-name="one" unicode="1" horiz-adv-x="856" 
d="M344 0v1083h-258v165q180 0 265 50.5t95 147.5h194v-1446h-296z" />
    <glyph glyph-name="two" unicode="2" horiz-adv-x="1270" 
d="M113 0v218q0 82 26 152t69.5 121t100.5 94.5t120 77.5t125.5 65.5t119.5 63t100.5 65t69.5 77t26 93.5q0 87 -61.5 142t-164.5 55q-113 0 -187.5 -64.5t-91.5 -188.5h-279q1 105 37 194t105 156.5t177.5 106t246.5 38.5q241 0 383 -120t142 -317q0 -104 -41 -187
t-106 -136.5t-143.5 -97t-157.5 -79.5t-144 -72t-106 -86t-41 -112v-13h737v-246h-1062z" />
    <glyph glyph-name="three" unicode="3" horiz-adv-x="1330" 
d="M97 1001q0 151 74 257.5t196.5 157t279.5 50.5q165 0 289 -41t198 -129.5t74 -217.5q0 -229 -264 -318q132 -36 215 -124t83 -226q0 -137 -82.5 -237t-216.5 -148t-303 -47q-259 1 -404 125t-148 344h281q20 -119 92.5 -176t181.5 -57q132 0 210 57t78 148t-77 146.5
t-201 58.5l-138 5v232l124 7q117 5 188 59.5t71 137.5q0 78 -72 126.5t-185 48.5t-185 -57.5t-80 -181.5h-279z" />
    <glyph glyph-name="four" unicode="4" horiz-adv-x="1312" 
d="M745 1446h287v-881h223v-245h-223v-320h-281l1 320h-666v240zM356 565h396v530z" />
    <glyph glyph-name="five" unicode="5" horiz-adv-x="1350" 
d="M239 1446h929l-11 -239h-687l-28 -349q81 45 153 65t159 20q223 0 365.5 -125t142.5 -345q0 -229 -152.5 -362t-411.5 -133q-210 0 -374.5 94.5t-235.5 245.5l228 135q65 -114 148 -177t204 -63q129 0 208.5 69t79.5 180q0 105 -78 175t-200 70q-71 0 -127 -19.5
t-126 -74.5q-14 -6 -19.5 -6t-20.5 7l-212 98z" />
    <glyph glyph-name="six" unicode="6" horiz-adv-x="1321" 
d="M695 1466q137 0 251 -48.5t187 -144.5t80 -224h-267q-53 186 -245 186q-155 0 -232 -129t-56 -342q49 71 137.5 111t191.5 40q220 0 355.5 -121.5t135.5 -321.5q0 -215 -153.5 -354.5t-396.5 -139.5q-276 0 -435.5 194.5t-159.5 522.5q0 358 161.5 564.5t445.5 206.5z
M674 697q-92 0 -171 -58.5t-79 -125.5q-1 -144 67.5 -227.5t181.5 -83.5q106 0 178.5 72.5t72.5 183.5q0 115 -69.5 177t-180.5 62z" />
    <glyph glyph-name="seven" unicode="7" horiz-adv-x="1252" 
d="M86 1446h1080v-239q-177 -222 -335.5 -594.5t-166.5 -612.5h-315q9 96 41.5 226.5t91 291.5t157.5 344t222 345h-775v239z" />
    <glyph glyph-name="eight" unicode="8" horiz-adv-x="1342" 
d="M670 1466q150 0 266.5 -46t185 -139.5t68.5 -221.5q0 -106 -58 -185t-153 -124q104 -22 189.5 -125.5t85.5 -223.5q0 -193 -160 -307.5t-424 -114.5t-423 114.5t-159 307.5q0 120 85.5 223.5t189.5 125.5q-96 45 -154.5 124t-58.5 185q0 128 69 221.5t185.5 139.5
t265.5 46zM670 863q102 0 165.5 54t63.5 148q0 93 -64 148.5t-165 55.5q-100 0 -164 -56t-64 -148q0 -93 63.5 -147.5t164.5 -54.5zM670 199q127 0 200 57t73 153q0 97 -73.5 157t-199.5 60q-124 0 -197.5 -60.5t-73.5 -156.5t73 -153t198 -57z" />
    <glyph glyph-name="nine" unicode="9" horiz-adv-x="1318" 
d="M619 -22q-136 0 -252.5 51t-191 148t-82.5 221h278q18 -86 80.5 -137.5t155.5 -51.5q166 0 255.5 118.5t72.5 366.5q-44 -82 -132.5 -128.5t-207.5 -46.5q-223 0 -363 124.5t-140 332.5q0 215 150.5 352.5t393.5 137.5q276 0 435 -192.5t159 -520.5q0 -382 -160.5 -578.5
t-450.5 -196.5zM645 751q92 0 171 58.5t79 125.5q1 144 -67.5 227t-182.5 83q-104 0 -171.5 -71.5t-67.5 -184.5q0 -112 65.5 -175t173.5 -63z" />
    <glyph glyph-name="colon" unicode=":" horiz-adv-x="539" 
d="M419 1009v-313h-320v313h320zM419 318v-312h-320v312h320z" />
    <glyph glyph-name="semicolon" unicode=";" horiz-adv-x="557" 
d="M114 687v318h320v-318h-320zM99 -309l131 309h-113v314h320v-278l-219 -345h-119z" />
    <glyph glyph-name="less" unicode="&#x3c;" horiz-adv-x="1155" 
d="M1038 459v-251l-922 357v242l922 360v-251l-601 -232z" />
    <glyph glyph-name="equal" unicode="=" horiz-adv-x="1177" 
d="M1061 1025v-213l-945 -1v213zM1061 567v-213h-945v213h945z" />
    <glyph glyph-name="greater" unicode="&#x3e;" horiz-adv-x="1155" 
d="M117 459l602 225l-603 232v251l923 -360v-242l-922 -357v251z" />
    <glyph glyph-name="question" unicode="?" horiz-adv-x="1069" 
d="M22 1138q64 158 195.5 243t313.5 85q211 0 343.5 -98t132.5 -242q0 -66 -21.5 -123.5t-55.5 -100t-75 -82t-82 -78t-75 -79.5t-55.5 -95t-21.5 -116h-235q0 75 18.5 141.5t47.5 115t64 92t70.5 81t64.5 72.5t47.5 75t18.5 82q0 70 -53 112.5t-135 42.5t-154 -51.5
t-105 -136.5zM663 312v-312h-320v312h320z" />
    <glyph glyph-name="at" unicode="@" horiz-adv-x="1655" 
d="M1321 -69q-82 -66 -208 -108.5t-275 -42.5q-175 0 -320.5 57.5t-241 156.5t-148 231.5t-52.5 283.5q0 158 57 299.5t158.5 248t253.5 169t331 62.5q108 0 208.5 -22.5t191 -72t157.5 -121.5t106.5 -177.5t39.5 -233.5q0 -223 -107 -363t-277 -140q-144 0 -188 93
q-8 11 -12 11t-13 -11q-100 -121 -260 -121q-127 0 -211.5 95.5t-83.5 249.5q0 120 48 222.5t139 165.5t207 63q75 0 124 -26t88 -74q4 -5 9 -3.5t6 10.5l11 43h168l-72 -430q-11 -67 5 -95t55 -28q76 0 132 86t56 240q0 104 -29.5 187t-79 137t-118.5 89.5t-143 50.5
t-157 15q-155 0 -276 -49t-194.5 -134.5t-111.5 -195t-38 -237.5q0 -270 163.5 -425.5t450.5 -155.5q85 0 154.5 18t108 39t99.5 62zM634 495q0 -83 36 -135.5t103 -52.5q82 0 142.5 70.5t67.5 163.5q7 92 -35 151t-112 59q-85 0 -143.5 -74.5t-58.5 -181.5z" />
    <glyph glyph-name="A" unicode="A" horiz-adv-x="1453" 
d="M55 0l517 1446h309l517 -1446h-291l-118 335h-521l-120 -335h-293zM534 590h384l-191 575z" />
    <glyph glyph-name="B" unicode="B" horiz-adv-x="1369" 
d="M162 0v1446h524q281 0 420 -97t139 -282q0 -112 -57 -190.5t-194 -135.5q70 -19 122 -48.5t82.5 -63t49 -75.5t25 -80t6.5 -82q0 -201 -137 -296.5t-432 -95.5h-548zM453 848h279q62 0 113 18t84.5 60t33.5 103q0 91 -69 141t-182 50h-259v-372zM453 226h263
q129 0 198 52t69 143q0 93 -70 144t-181 51h-279v-390z" />
    <glyph glyph-name="C" unicode="C" horiz-adv-x="1436" 
d="M751 1466q241 0 404 -141.5t185 -357.5h-306q-21 118 -96 188.5t-196 70.5q-158 0 -241.5 -118t-83.5 -377q0 -511 325 -511q119 0 194.5 79.5t97.5 200.5h306q-14 -110 -50.5 -198.5t-103.5 -163.5t-177.5 -116.5t-257.5 -41.5q-301 0 -478 206t-177 549q0 341 175 536
t480 195z" />
    <glyph glyph-name="D" unicode="D" horiz-adv-x="1440" 
d="M162 1446q349 0 432 -2q194 -5 338.5 -56t234.5 -144.5t133.5 -221t43.5 -292.5q0 -170 -46.5 -304t-139 -229.5t-237.5 -146t-337 -50.5h-422v1446zM456 1210v-974h134q97 0 175.5 27t141.5 84t97.5 155t34.5 230q0 246 -116 362t-329 116h-138z" />
    <glyph glyph-name="E" unicode="E" horiz-adv-x="1269" 
d="M162 0v1446h993l-1 -246h-699v-351h607v-241h-609v-359l712 -1v-248h-1003z" />
    <glyph glyph-name="F" unicode="F" horiz-adv-x="1227" 
d="M162 1446h984l-1 -244h-689v-363h597v-239h-597v-600h-294v1446z" />
    <glyph glyph-name="G" unicode="G" horiz-adv-x="1518" 
d="M747 -20q-299 0 -475 200t-176 539q0 343 182.5 545t484.5 202q125 0 235 -42t185.5 -111.5t121 -159.5t49.5 -186h-308q-21 109 -98 180.5t-192 71.5q-155 0 -248.5 -120t-93.5 -372q0 -111 19.5 -197.5t52.5 -140.5t79.5 -89t96 -49t106.5 -14q61 0 114 21.5t87.5 55.5
t56 74t27.5 80l11 88h-299v202l605 -3v-755h-199v189q-33 -43 -66.5 -75.5t-84.5 -65t-120 -50.5t-153 -18z" />
    <glyph glyph-name="H" unicode="H" horiz-adv-x="1540" 
d="M1086 621h-633v-621h-291v1446h291v-580h633v580h292v-1446h-292v621z" />
    <glyph glyph-name="I" unicode="I" horiz-adv-x="615" 
d="M162 1446h291v-1446h-291v1446z" />
    <glyph glyph-name="J" unicode="J" horiz-adv-x="804" 
d="M674 402q0 -110 -16 -184t-56.5 -130t-113.5 -82t-184 -26q-126 0 -249 32l6 267q7 -2 30 -7.5t37.5 -9t38 -6.5t44.5 -3q98 0 134.5 51.5t36.5 175.5v966h292v-1044z" />
    <glyph glyph-name="K" unicode="K" horiz-adv-x="1434" 
d="M1380 0h-318l-383 673l-214 -258v-415h-303v1446h303v-662l527 662h335l-439 -560z" />
    <glyph glyph-name="L" unicode="L" horiz-adv-x="1155" 
d="M162 1446h294v-1199h628v-247h-922v1446z" />
    <glyph glyph-name="M" unicode="M" horiz-adv-x="1835" 
d="M162 0v1446h424l331 -1031l334 1031h423v-1446h-295v1106l-348 -1106h-229l-346 1101v-1101h-294z" />
    <glyph glyph-name="N" unicode="N" horiz-adv-x="1564" 
d="M1111 1446h292v-1446h-263l-687 995v-995h-291v1446h289l660 -957v957z" />
    <glyph glyph-name="O" unicode="O" horiz-adv-x="1521" 
d="M763 -20q-308 0 -487.5 198t-179.5 542q0 345 181 545.5t486 200.5q303 0 482.5 -200.5t179.5 -545.5q0 -343 -178 -541.5t-484 -198.5zM763 220q345 0 345 496q0 262 -90.5 386t-254.5 124t-255.5 -124.5t-91.5 -385.5q0 -255 91 -375.5t256 -120.5z" />
    <glyph glyph-name="P" unicode="P" horiz-adv-x="1305" 
d="M162 0v1446h532q159 0 283 -54t197 -162.5t73 -257.5q0 -214 -139.5 -335t-375.5 -121h-276v-516h-294zM453 742h271q109 0 179.5 70t70.5 175q0 106 -73 170.5t-181 64.5h-267v-480z" />
    <glyph glyph-name="Q" unicode="Q" horiz-adv-x="1546" 
d="M96 720q0 346 180.5 546t485.5 200t485 -200t180 -546q0 -398 -241 -599q24 -60 88.5 -95.5t146.5 -37.5v-234q-63 0 -110.5 4.5t-101.5 19t-98.5 40.5t-92 70t-91.5 106q-95 -14 -165 -14q-307 0 -486.5 197t-179.5 543zM417 716q0 -258 88 -377t257 -119q170 0 258 119
t88 378q0 509 -346 509q-345 0 -345 -510z" />
    <glyph glyph-name="R" unicode="R" horiz-adv-x="1392" 
d="M1284 0h-303l-235 557h-293v-557h-291v1446h610q250 0 373.5 -116.5t123.5 -315.5q0 -283 -254 -408zM720 782q116 0 185 62t69 163q0 98 -65.5 157t-167.5 59h-288v-441h267z" />
    <glyph glyph-name="S" unicode="S" horiz-adv-x="1387" 
d="M705 -20q-109 0 -211 27.5t-187 79.5t-140.5 136.5t-66.5 189.5h299q21 -97 103 -150.5t202 -53.5q126 0 209 47t83 135q0 76 -64 117.5t-181 65.5l-250 51q-168 32 -262.5 132.5t-96.5 263.5q-1 133 72.5 234.5t200 155t283.5 53.5q270 0 422 -123.5t155 -314.5h-293
q-22 206 -279 206q-116 0 -185.5 -49t-69.5 -128q0 -65 43.5 -103.5t155.5 -62.5l248 -51q101 -19 176 -58.5t115.5 -83.5t65 -102t31 -103t6.5 -98q0 -177 -163 -295t-421 -118z" />
    <glyph glyph-name="T" unicode="T" horiz-adv-x="1232" 
d="M38 1186v260h1157v-260h-427v-1186h-293v1186h-437z" />
    <glyph glyph-name="U" unicode="U" horiz-adv-x="1448" 
d="M1319 551q0 -276 -137.5 -423.5t-441.5 -147.5q-156 0 -268.5 39.5t-179.5 116.5t-98.5 181.5t-31.5 243.5v885h297v-907q0 -156 75 -233.5t206 -77.5t207.5 77t76.5 234v907h295v-895z" />
    <glyph glyph-name="V" unicode="V" horiz-adv-x="1407" 
d="M1369 1446l-500 -1446h-331l-500 1446h279l387 -1107l385 1107h280z" />
    <glyph glyph-name="W" unicode="W" horiz-adv-x="1937" 
d="M1899 1446l-427 -1446h-233l-272 945l-274 -945h-229l-426 1446h286l269 -955l269 955h211l272 -955l269 955h285z" />
    <glyph glyph-name="X" unicode="X" horiz-adv-x="1434" 
d="M1379 0h-364l-326 522l-320 -522h-314l481 734l-466 712h361l289 -468l286 468h310l-446 -674z" />
    <glyph glyph-name="Y" unicode="Y" horiz-adv-x="1335" 
d="M1316 1446l-503 -838v-608h-292v609l-502 837h316l333 -586l329 586h319z" />
    <glyph glyph-name="Z" unicode="Z" horiz-adv-x="1339" 
d="M108 0v142l734 1060h-685v244h1101v-136l-744 -1063h736v-247h-1142z" />
    <glyph glyph-name="bracketleft" unicode="[" horiz-adv-x="674" 
d="M148 1446h459v-165h-219v-1437h218v-166h-457z" />
    <glyph glyph-name="backslash" unicode="\" horiz-adv-x="762" 
d="M528 -37l-505 1483h204l505 -1483h-204z" />
    <glyph glyph-name="bracketright" unicode="]" horiz-adv-x="674" 
d="M526 1446l-1 -1768h-457v166h219l-1 1437h-218v165h458z" />
    <glyph glyph-name="asciicircum" unicode="^" horiz-adv-x="968" 
d="M681 245l-207 511l-208 -510h-197l311 736q19 44 56 61.5t75 1.5t58 -62l310 -738h-198z" />
    <glyph glyph-name="underscore" unicode="_" horiz-adv-x="1106" 
d="M983 -64v-212h-867v211z" />
    <glyph glyph-name="grave" unicode="`" horiz-adv-x="528" 
d="M312 1446l206 -291h-211l-296 291h301z" />
    <glyph glyph-name="a" unicode="a" horiz-adv-x="1133" 
d="M432 -20q-153 0 -251 84.5t-98 231.5q0 172 129 259.5t399 90.5l130 2v62q0 148 -171 147q-70 -1 -125 -32.5t-75 -98.5h-243q8 162 131.5 245t325.5 83q229 0 333 -84t104 -243v-727h-244l-24 178q-51 -108 -129 -153t-192 -45zM531 172q79 0 144 53.5t66 119.5v153
l-105 -2q-122 -2 -199 -42.5t-77 -128.5q0 -70 48.5 -111.5t122.5 -41.5z" />
    <glyph glyph-name="b" unicode="b" horiz-adv-x="1217" 
d="M701 -20q-73 0 -131.5 19.5t-97 54t-63 73.5t-39.5 85l-33 -212h-212v1486h293v-592q40 70 122.5 115t188.5 45q193 0 302.5 -140t109.5 -391t-114 -397t-326 -146zM637 190q101 0 160 82t59 255q0 157 -58 236t-163 79q-216 0 -217 -315q0 -180 53 -258.5t166 -78.5z
" />
    <glyph glyph-name="c" unicode="c" horiz-adv-x="1094" 
d="M575 1054q189 0 306.5 -112.5t129.5 -284.5h-243q-11 71 -59.5 123t-131.5 52q-105 0 -167 -81t-62 -236q0 -152 62.5 -240t172.5 -88q80 0 128.5 54.5t59.5 119.5h237q-10 -164 -128.5 -272.5t-304.5 -108.5q-220 0 -359.5 144.5t-139.5 388.5q0 242 137 391.5
t362 149.5z" />
    <glyph glyph-name="d" unicode="d" horiz-adv-x="1217" 
d="M516 -20q-208 0 -324 143t-116 400q0 247 107 389t304 142q106 0 189 -45t123 -115v592h293v-1486h-212l-33 212q-15 -46 -39.5 -85t-63 -73.5t-97 -54t-131.5 -19.5zM580 190q113 0 166 78.5t53 258.5q-3 315 -217 315q-102 0 -161.5 -76.5t-59.5 -238.5
q0 -168 58 -252.5t161 -84.5z" />
    <glyph glyph-name="e" unicode="e" horiz-adv-x="1153" 
d="M372 450q-1 -119 58 -189t163 -70q168 0 210 137h263q-17 -107 -88 -187.5t-170 -120.5t-208 -40q-232 0 -374.5 143t-142.5 382q0 157 58.5 280.5t173.5 196t270 72.5q231 0 356.5 -143t125.5 -382v-79h-695zM372 624h422q0 99 -54.5 162.5t-155.5 63.5
q-96 0 -154.5 -67.5t-57.5 -158.5z" />
    <glyph glyph-name="f" unicode="f" horiz-adv-x="793" 
d="M752 1034v-203h-218v-831h-293v831h-191v203h191v149q0 125 74 194t208 69h237l2 -194h-137q-55 0 -76 -27t-21 -91v-100h224z" />
    <glyph glyph-name="g" unicode="g" horiz-adv-x="1257" 
d="M605 -342q-270 0 -416.5 68.5t-146.5 185.5q0 40 18.5 73t47.5 54t55 34.5t52 23t28 10.5q-3 2 -20 11t-27.5 15.5t-27.5 20.5t-27 28t-17.5 35t-7.5 44q0 58 54.5 103.5t157.5 63.5q-100 46 -154.5 127.5t-54.5 170.5q0 150 137 237t353 87q99 0 168 -20.5t133 -60.5
q142 55 304 122l-2 -226l-178 -29q22 -58 22 -109q0 -144 -123.5 -243t-344.5 -99q-67 0 -102 4q-103 -5 -103 -43q0 -23 38.5 -31t142.5 -14q19 -1 92 -5.5t123 -7.5q185 -12 281 -91t96 -205q0 -151 -141.5 -242.5t-409.5 -91.5zM597 548q83 0 133 45.5t50 123.5
q0 81 -50 130t-133 49t-134 -49.5t-51 -129.5q0 -78 49.5 -123.5t135.5 -45.5zM652 -179q119 0 172.5 29t53.5 87q0 47 -40.5 76.5t-116.5 34.5l-237 16q-68 4 -112 -32t-44 -86q0 -65 78.5 -95t245.5 -30z" />
    <glyph glyph-name="h" unicode="h" horiz-adv-x="1185" 
d="M125 0v1486h290v-601q109 155 297 155q154 0 257.5 -88t103.5 -240v-712h-293v669q0 68 -49.5 106.5t-123.5 38.5q-78 0 -134 -41t-56 -113v-660h-292z" />
    <glyph glyph-name="i" unicode="i" horiz-adv-x="534" 
d="M409 1445v-263h-284v263h284zM407 1034v-1034h-279v1034h279z" />
    <glyph glyph-name="j" unicode="j" horiz-adv-x="577" 
d="M452 1445v-263h-298v263h298zM449 7q0 -172 -83.5 -255.5t-264.5 -83.5q-48 0 -81 7t-42 15l-9 7l-1 195l80 8q61 8 85.5 33.5t24.5 76.5v1024h291v-1027z" />
    <glyph glyph-name="k" unicode="k" horiz-adv-x="1159" 
d="M1124 0h-291l-279 446l-137 -146v-300h-292v1486h292v-881l380 429h314l-376 -412z" />
    <glyph glyph-name="l" unicode="l" horiz-adv-x="658" 
d="M455 -18q-64 0 -114.5 9.5t-85 25t-59 40t-38 49t-21.5 58.5t-10 61.5t-2 64.5v1196h286v-1160q0 -61 26.5 -95t90.5 -41l49 -3v-180q-71 -25 -122 -25z" />
    <glyph glyph-name="m" unicode="m" horiz-adv-x="1791" 
d="M125 0v1034h286v-146q113 166 327 166q84 0 165 -44t125 -122q53 74 135 120t178 46q62 0 118.5 -19.5t107.5 -61t81.5 -116.5t30.5 -175v-682h-292v646q0 87 -48 128.5t-118 41.5q-67 0 -121 -39t-54 -115v-662h-291v672q0 66 -50.5 105t-113.5 39q-67 0 -120.5 -40.5
t-53.5 -113.5v-662h-292z" />
    <glyph glyph-name="n" unicode="n" horiz-adv-x="1186" 
d="M125 0v1034h287v-146q97 155 300 155q73 0 136.5 -21t115 -63t81 -113t29.5 -164v-682h-292v646q0 81 -48.5 124.5t-123.5 43.5q-78 0 -135.5 -40t-57.5 -112v-662h-292z" />
    <glyph glyph-name="o" unicode="o" horiz-adv-x="1151" 
d="M576 -20q-229 0 -364.5 143.5t-135.5 387.5q0 246 136 394.5t365 148.5t364 -147.5t135 -395.5q0 -238 -134 -384.5t-366 -146.5zM577 197q108 0 160.5 91t52.5 233q0 65 -11 119.5t-34.5 100.5t-66.5 72t-101 26q-110 0 -163 -88t-53 -230q0 -64 11 -119.5t35 -103
t67.5 -74.5t102.5 -27z" />
    <glyph glyph-name="p" unicode="p" horiz-adv-x="1214" 
d="M125 -322v1356h293l1 -149q49 75 134 122t187 47q181 0 289.5 -133.5t108.5 -395.5q0 -270 -117 -407.5t-310 -137.5q-95 0 -171.5 49t-122.5 126v-477h-292zM641 194q100 0 162 82.5t62 246.5q0 148 -61 233.5t-163 85.5q-110 0 -167 -88.5t-57 -230.5q0 -139 58 -234
t166 -95z" />
    <glyph glyph-name="q" unicode="q" horiz-adv-x="1214" 
d="M1089 -322h-292v477q-46 -77 -122.5 -126t-171.5 -49q-90 0 -165.5 31t-135 94.5t-93 171t-33.5 248.5q0 257 106.5 393t291.5 136q102 0 187 -47t134 -122l2 149h292v-1356zM573 194q108 0 166.5 95t58.5 234q0 142 -57.5 230.5t-167.5 88.5q-99 0 -161.5 -83
t-62.5 -236q0 -159 60.5 -244t163.5 -85z" />
    <glyph glyph-name="r" unicode="r" horiz-adv-x="824" 
d="M125 0v1034h281v-245q38 122 123.5 193.5t204.5 71.5q33 0 45 -6v-278q-11 5 -44 7q-165 14 -241.5 -43t-76.5 -168v-566h-292z" />
    <glyph glyph-name="s" unicode="s" horiz-adv-x="1055" 
d="M541 -20q-84 0 -159 20t-139.5 60.5t-108.5 108.5t-57 157h252q19 -76 79.5 -111t131.5 -35q87 0 137 27t50 81q0 42 -30.5 67t-100.5 38l-182 38q-304 63 -305 296q-1 144 113.5 235.5t320.5 91.5q192 0 306 -85t116 -236h-244q-11 60 -59.5 92.5t-122.5 32.5
q-78 0 -125.5 -28t-47.5 -81q0 -40 39 -64t125 -41l168 -38q82 -20 140 -57t86.5 -81t40.5 -84t12 -80q0 -153 -119.5 -238.5t-316.5 -85.5z" />
    <glyph glyph-name="t" unicode="t" horiz-adv-x="833" 
d="M749 831h-230l2 -551q0 -54 20 -70t72 -16h139v-180q-58 -25 -181 -25q-100 0 -168.5 19.5t-106 58t-53 87t-15.5 114.5v563h-168v203h177l74 312h208v-311h230v-204z" />
    <glyph glyph-name="u" unicode="u" horiz-adv-x="1190" 
d="M506 -20q-73 0 -142 23t-126 64t-91.5 107t-34.5 145v715h292v-678q0 -74 48 -119t137 -45q86 0 136.5 44.5t50.5 124.5v673h289v-1034h-220l-34 205q-11 -52 -34.5 -92.5t-53.5 -65.5t-68 -40.5t-74 -21t-75 -5.5z" />
    <glyph glyph-name="v" unicode="v" horiz-adv-x="1041" 
d="M1015 1034l-388 -1034h-212l-388 1034h264l226 -659h8l223 659h267z" />
    <glyph glyph-name="w" unicode="w" horiz-adv-x="1585" 
d="M1552 1034l-340 -1034h-233l-192 626l-193 -626h-226l-335 1034h259l198 -641h7l190 641h209l192 -641h8l192 641h264z" />
    <glyph glyph-name="x" unicode="x" horiz-adv-x="1176" 
d="M1141 0h-306l-247 337l-247 -337h-306l397 539l-363 495h306l215 -290l214 290h305l-366 -495z" />
    <glyph glyph-name="y" unicode="y" horiz-adv-x="1126" 
d="M287 -330q-63 0 -111.5 9t-65.5 17l-17 9v186l103 -4q49 -3 87 3.5t58 15t36.5 27t20 25.5t10.5 24q1 3 2 4l19 57l-402 991h289l248 -674l250 674h286l-419 -1040q-40 -97 -84 -161.5t-94 -99.5t-101 -49t-115 -14z" />
    <glyph glyph-name="z" unicode="z" horiz-adv-x="993" 
d="M63 0v163l510 667h-484v204h838v-163l-511 -667h514v-204h-867z" />
    <glyph glyph-name="braceleft" unicode="{" horiz-adv-x="769" 
d="M250 1210q0 75 46 130t114 80.5t146 25.5h145v-165h-87q-78 0 -101 -26t-23 -78v-396q-3 -96 -64.5 -145.5t-145.5 -58.5q-8 -1 -11 -3.5t-0.5 -5.5t11.5 -4q39 -3 72 -14.5t65.5 -34.5t52 -65.5t20.5 -100.5v-400q0 -57 27 -81t97 -24h87v-166h-140q-82 0 -151 26
t-114.5 81.5t-45.5 131.5v407q0 76 -57 124.5t-169 48.5v147q118 1 172 46t54 135v385z" />
    <glyph glyph-name="bar" unicode="|" horiz-adv-x="537" 
d="M375 -322h-213v1974h213v-1974z" />
    <glyph glyph-name="braceright" unicode="}" horiz-adv-x="768" 
d="M480 1210v-385q0 -90 54 -135t172 -46v-147q-112 0 -169 -48.5t-57 -124.5v-407q0 -113 -91.5 -176t-219.5 -63h-140v166h87q70 0 97 24t27 81v400q2 58 21.5 100.5t51.5 65.5t65.5 34.5t72.5 14.5q9 1 11.5 4t-0.5 5.5t-11 3.5q-39 4 -73.5 17t-66 36t-50.5 62t-21 89
v396q0 52 -23 78t-101 26h-87v165h145q78 0 146 -25.5t114 -80.5t46 -130z" />
    <glyph glyph-name="asciitilde" unicode="~" horiz-adv-x="1224" 
d="M1097 755q-49 -87 -126.5 -134t-166.5 -47q-54 0 -108 19t-91 42.5t-85.5 42.5t-92.5 19q-36 0 -68.5 -11t-63 -34.5t-50 -43t-49.5 -53.5l-83 147q87 90 157 134.5t159 44.5q54 0 108 -19t90.5 -42.5t83 -42.5t88.5 -19q126 0 213 142z" />
    <glyph glyph-name="uni00A0" unicode="&#xa0;" horiz-adv-x="451" 
 />
    <glyph glyph-name="exclamdown" unicode="&#xa1;" horiz-adv-x="565" 
d="M431 722h-319v312h319v-312zM444 -322h-343l82 908h182z" />
    <glyph glyph-name="cent" unicode="&#xa2;" horiz-adv-x="1122" 
d="M697 0h-193v210q-181 31 -291 170.5t-110 354.5q0 213 108.5 357t292.5 176v178h193v-178q149 -28 239.5 -134t101.5 -255h-243q-11 71 -59 123t-131 52q-106 0 -168 -81t-62 -236q0 -152 62.5 -240t172.5 -88q81 0 129 54.5t59 119.5h237q-8 -141 -99 -243.5
t-239 -129.5v-210z" />
    <glyph glyph-name="sterling" unicode="&#xa3;" horiz-adv-x="1296" 
d="M41 0v242h68q79 0 125 50.5t46 155.5q0 76 -21 229h-204v162h171l-20 181q-14 104 17.5 190.5t96 141t152 84.5t185.5 30q162 0 285.5 -76t181.5 -211l-254 -78q-33 72 -70.5 102.5t-98.5 30.5q-73 0 -118 -45t-45 -124q0 -73 32 -225h293v-162h-270q11 -138 -5 -211
q-10 -79 -38 -127.5t-78 -95.5h269q96 0 145 35.5t81 124.5l247 -54q-97 -350 -451 -350h-722z" />
    <glyph glyph-name="currency" unicode="&#xa4;" horiz-adv-x="1156" 
d="M574 294q-123 0 -227 62q-18 12 -31 -3l-119 -119l-122 126l132 130q-70 110 -70 237q0 123 60 220q9 19 -3 31l-118 118l122 127l134 -135q112 73 235 73q126 0 230 -65q13 -8 23 2l111 112l122 -125l-122 -121q72 -111 72 -236q0 -131 -66 -227q-6 -9 0 -16l117 -113
l-122 -125l-121 121q-116 -74 -237 -74zM571 487q102 0 171 71.5t69 169.5q0 97 -69 169t-171 72q-101 0 -171 -72t-70 -169q0 -98 70 -169.5t171 -71.5z" />
    <glyph glyph-name="yen" unicode="&#xa5;" horiz-adv-x="1318" 
d="M1130 383v-158h-299v-225h-332v224h-298v158h298v155h-298v159h242l-454 750h378l329 -579l326 579h307l-462 -750l263 1v-160h-299v-155z" />
    <glyph glyph-name="brokenbar" unicode="&#xa6;" horiz-adv-x="537" 
d="M375 837h-213v815h213v-815zM375 -322h-213v816h213v-816z" />
    <glyph glyph-name="section" unicode="&#xa7;" horiz-adv-x="1025" 
d="M515 -155q-164 0 -287.5 66.5t-171.5 165.5l179 90q104 -144 275 -144q81 0 130.5 28t49.5 81q0 42 -34.5 75t-122.5 67l-153 57q-161 61 -232 134.5t-71 185.5q0 90 46.5 157t129.5 105q-89 53 -125.5 112t-36.5 133q0 134 109.5 221t293.5 87q146 0 259 -64t161 -156
l-180 -88q-53 60 -107 95t-124 35q-71 0 -111.5 -28t-40.5 -75q0 -66 112 -109l156 -60q170 -65 244 -141.5t74 -191.5q0 -167 -163 -260q92 -51 133.5 -111.5t41.5 -142.5q0 -146 -114.5 -235t-319.5 -89zM568 515q60 -6 97.5 32.5t32.5 95.5q-5 45 -39 79t-114 64l-89 35
q-65 -5 -104 -42t-39 -86q0 -45 31 -73t125 -65z" />
    <glyph glyph-name="dieresis" unicode="&#xa8;" horiz-adv-x="762" 
d="M476 1184l3 238h273l-2 -238h-274zM10 1184l3 238h273l-2 -238h-274z" />
    <glyph glyph-name="copyright" unicode="&#xa9;" horiz-adv-x="1661" 
d="M823 -20q-202 0 -372.5 99t-270 270t-99.5 375q0 150 58.5 287.5t158 237t237 158.5t288.5 59t289 -59t237.5 -158.5t158.5 -237t59 -287.5q0 -203 -100 -374.5t-271 -270.5t-373 -99zM823 143q122 0 226 41t179.5 115.5t118 184t42.5 240.5q0 260 -159.5 421t-406.5 161
q-250 0 -407.5 -160.5t-157.5 -421.5q0 -264 157 -422.5t408 -158.5zM829 1142q135 0 225 -76.5t124 -182.5l-203 -23q-22 59 -53.5 94t-85.5 35q-79 0 -125 -66.5t-46 -193.5q0 -131 48.5 -197t134.5 -66q65 0 107 36t77 103l146 -37q-14 -41 -40 -81.5t-67 -81.5
t-104 -66.5t-138 -25.5q-175 0 -287 115t-112 297q0 185 112.5 301t286.5 116z" />
    <glyph glyph-name="ordfeminine" unicode="&#xaa;" horiz-adv-x="813" 
d="M297 794q-102 0 -158 49.5t-56 134.5q0 97 91 157.5t249 65.5l77 4v43q0 95 -105 95q-92 0 -133 -84l-163 36q39 87 108 128t195 41q148 -1 213.5 -53.5t65.5 -153.5v-251q0 -104 7 -141l14 -59h-187l-15 70q-56 -44 -100.5 -63t-102.5 -19zM369 913q59 0 99 35
q32 29 32 58v97l-64 -3q-79 -3 -123 -32.5t-44 -78.5q0 -35 27 -55.5t73 -20.5z" />
    <glyph glyph-name="guillemotleft" unicode="&#xab;" horiz-adv-x="999" 
d="M711 502l162 -373h-154l-238 373l237 389h156zM330 502l162 -373h-154l-237 373l236 389h156z" />
    <glyph glyph-name="logicalnot" unicode="&#xac;" horiz-adv-x="1177" 
d="M1061 834v-515h-237l-1 302h-707v213h945z" />
    <glyph glyph-name="uni00AD" unicode="&#xad;" horiz-adv-x="786" 
d="M666 621v-212l-546 -1v213h546z" />
    <glyph glyph-name="registered" unicode="&#xae;" horiz-adv-x="1105" 
d="M547 536q-128 0 -235 62t-169 168.5t-62 233.5t62 234t169 169.5t235 62.5q192 0 328 -136.5t136 -329.5t-136 -328.5t-328 -135.5zM547 652q152 0 244.5 95t92.5 253t-92.5 254t-244.5 96q-155 0 -247.5 -95.5t-92.5 -254.5t92.5 -253.5t247.5 -94.5zM359 767v461h216
q83 0 129.5 -32t46.5 -91q0 -87 -93 -124l91 -214h-126l-70 202h-80v-202h-114zM473 1050h97q27 0 44.5 12.5t17.5 35.5t-18 36.5t-50 13.5h-91v-98z" />
    <glyph glyph-name="macron" unicode="&#xaf;" horiz-adv-x="786" 
d="M738 1392v-187h-703v187h703z" />
    <glyph glyph-name="degree" unicode="&#xb0;" horiz-adv-x="948" 
d="M802 1336q0 -146 -95 -240.5t-240 -94.5t-239.5 94t-94.5 241q0 146 94.5 241.5t239.5 95.5q144 0 239.5 -95.5t95.5 -241.5zM626 1334q0 75 -44 121.5t-119 46.5q-73 0 -117.5 -47t-42.5 -121q2 -76 45 -122.5t117 -46.5t117.5 46.5t43.5 122.5z" />
    <glyph glyph-name="plusminus" unicode="&#xb1;" horiz-adv-x="1177" 
d="M696 427h-213v364h-367v213h367v367h213v-367l365 1v-213l-365 -1v-364zM1061 283v-211l-945 -1v212h945z" />
    <glyph glyph-name="uni00B2" unicode="&#xb2;" horiz-adv-x="784" 
d="M59 747v138q0 66 26 119.5t68 89t92.5 65.5t101.5 54.5t93 49.5t68 58t26 72q0 54 -38 88t-102 34q-70 0 -117 -40.5t-56 -118.5h-179q1 138 93 225.5t264 87.5q152 0 241 -75.5t89 -199.5q0 -65 -25.5 -117.5t-66.5 -86t-90 -61t-98.5 -50t-90.5 -45t-66.5 -53.5
t-25.5 -69v-7h462v-158h-669z" />
    <glyph glyph-name="uni00B3" unicode="&#xb3;" horiz-adv-x="850" 
d="M67 1376q0 141 96.5 217.5t250.5 76.5q160 0 256.5 -61.5t96.5 -182.5q0 -142 -163 -199q81 -23 132.5 -78t51.5 -142q0 -129 -107.5 -200.5t-271.5 -70.5t-255 79.5t-92 216.5h179q24 -145 170 -145q83 0 131 35t48 91q0 55 -46.5 90t-126.5 37l-87 3v149l79 4
q71 3 115.5 36.5t44.5 85.5q0 48 -44.5 77.5t-113.5 29.5q-71 0 -116 -35.5t-49 -113.5h-179z" />
    <glyph glyph-name="acute" unicode="&#xb4;" horiz-adv-x="528" 
d="M216 1446h301l-297 -291h-210z" />
    <glyph glyph-name="uni00B5" unicode="&#xb5;" horiz-adv-x="1208" 
d="M112 -330v1390h299v-659q0 -61 47.5 -101t118.5 -40q65 0 117 37t86 102v661h303l-5 -1060h-292v164q-102 -102 -200 -117q-100 -15 -175 23v-400h-299z" />
    <glyph glyph-name="paragraph" unicode="&#xb6;" horiz-adv-x="1198" 
d="M1086 1281h-125v-1447h-179v1447h-116v-1447h-180v764q-178 13 -294 123.5t-116 295.5q0 88 30.5 165.5t88 136.5t146.5 93t200 34h545v-165z" />
    <glyph glyph-name="periodcentered" unicode="&#xb7;" horiz-adv-x="518" 
d="M398 872v-287h-299v287h299z" />
    <glyph glyph-name="cedilla" unicode="&#xb8;" horiz-adv-x="546" 
d="M499 -263q0 -74 -69.5 -118t-169.5 -44q-142 0 -230 54l40 98q77 -49 154 -49q47 0 73.5 16.5t26.5 45.5q0 40 -39.5 60.5t-130.5 21.5q-14 0 -17 3t1 16l73 169h130l-45 -117q104 -2 153.5 -48.5t49.5 -107.5z" />
    <glyph glyph-name="uni00B9" unicode="&#xb9;" horiz-adv-x="513" 
d="M204 744v679h-162v106q112 0 165.5 31.5t60.5 93.5h126v-910h-190z" />
    <glyph glyph-name="ordmasculine" unicode="&#xba;" horiz-adv-x="806" 
d="M403 1465q147 0 237.5 -94t90.5 -244q0 -147 -90.5 -239.5t-237.5 -92.5q-148 0 -237.5 92.5t-89.5 239.5q0 151 92 244.5t235 93.5zM403 1340q-133 0 -133 -208q0 -209 133 -209q134 0 134 209q0 208 -134 208z" />
    <glyph glyph-name="guillemotright" unicode="&#xbb;" horiz-adv-x="1022" 
d="M285 502l-163 389h155l236 -389l-236 -373h-154zM666 502l-165 389h157l236 -389l-236 -373h-156z" />
    <glyph glyph-name="onequarter" unicode="&#xbc;" horiz-adv-x="1662" 
d="M1370 1462l-972 -1470l-172 3l975 1467h169zM204 536v679h-162v106q112 0 165.5 31.5t60.5 93.5h126v-910h-190zM1297 912h183v-553h140v-156h-140v-201h-180l1 201h-417v152zM1057 359h244v326z" />
    <glyph glyph-name="onehalf" unicode="&#xbd;" horiz-adv-x="1803" 
d="M1370 1462l-972 -1470l-172 3l975 1467h169zM204 536v679h-162v106q112 0 165.5 31.5t60.5 93.5h126v-910h-190zM1077 -1v138q0 66 26 119.5t68 89t92.5 65.5t101.5 54.5t93 49.5t68 58t26 72q0 54 -38 88t-102 34q-69 0 -116 -40.5t-57 -118.5h-178q0 138 92 225.5
t264 87.5q152 0 241 -75.5t89 -199.5q0 -65 -25.5 -117.5t-66 -86t-90 -61t-99 -50t-90 -45t-66 -53.5t-25.5 -69v-7h462v-158h-670z" />
    <glyph glyph-name="threequarters" unicode="&#xbe;" horiz-adv-x="1919" 
d="M1627 1462l-972 -1470l-172 3l975 1467h169zM67 1166q0 141 96.5 217.5t250.5 76.5q160 0 256.5 -61.5t96.5 -182.5q0 -142 -163 -199q81 -23 132.5 -78t51.5 -142q0 -129 -107.5 -200.5t-271.5 -70.5t-255 79.5t-92 216.5h179q24 -145 170 -145q83 0 131 35t48 91
q0 55 -46.5 90t-126.5 37l-87 3v149l79 4q71 3 115.5 36.5t44.5 85.5q0 48 -44.5 77.5t-113.5 29.5q-71 0 -116 -35.5t-49 -113.5h-179zM1553 912h184v-553h140v-156h-140v-201h-180l1 201h-417v152zM1314 359h244v326z" />
    <glyph glyph-name="questiondown" unicode="&#xbf;" horiz-adv-x="1087" 
d="M411 722v312h320v-312h-320zM1052 -12q-65 -159 -196 -244.5t-314 -85.5q-227 0 -351 96.5t-124 245.5q0 65 21 119.5t55 93t75 72t82 65t75 65.5t55 79.5t21 100.5h236q0 -68 -18.5 -126.5t-47.5 -100t-64 -78t-70.5 -68t-64.5 -62t-47.5 -67.5t-18.5 -78
q0 -66 53.5 -108t135.5 -42t154.5 51t103.5 131z" />
    <glyph glyph-name="Agrave" unicode="&#xc0;" horiz-adv-x="1453" 
d="M620 1858l206 -291h-210l-297 291h301zM55 0l517 1446h309l517 -1446h-291l-118 335h-521l-120 -335h-293zM534 590h384l-191 575z" />
    <glyph glyph-name="Aacute" unicode="&#xc1;" horiz-adv-x="1453" 
d="M827 1858h301l-297 -291h-210zM55 0l517 1446h309l517 -1446h-291l-118 335h-521l-120 -335h-293zM534 590h384l-191 575z" />
    <glyph glyph-name="Acircumflex" unicode="&#xc2;" horiz-adv-x="1453" 
d="M856 1567l-132 140l-146 -140h-217l265 259h201l257 -259h-228zM55 0l517 1446h309l517 -1446h-291l-118 335h-521l-120 -335h-293zM534 590h384l-191 575z" />
    <glyph glyph-name="Atilde" unicode="&#xc3;" horiz-adv-x="1453" 
d="M1077 1682q-84 -70 -202 -70q-57 0 -146.5 27.5t-139.5 27.5q-48 0 -81.5 -14.5t-75.5 -49.5l-45 153q42 44 86 67.5t106 23.5q59 0 156.5 -30.5t139.5 -30.5q75 0 166 69zM55 0l517 1446h309l517 -1446h-291l-118 335h-521l-120 -335h-293zM534 590h384l-191 575z" />
    <glyph glyph-name="Adieresis" unicode="&#xc4;" horiz-adv-x="1453" 
d="M822 1596l3 238h273l-3 -238h-273zM356 1596l3 238h273l-3 -238h-273zM55 0l517 1446h309l517 -1446h-291l-118 335h-521l-120 -335h-293zM534 590h384l-191 575z" />
    <glyph glyph-name="Aring" unicode="&#xc5;" horiz-adv-x="1453" 
d="M945 1764q0 -91 -63.5 -154t-154.5 -63t-154 64t-63 157q0 88 63.5 149t153.5 61q91 0 154.5 -62.5t63.5 -151.5zM824 1763q0 43 -28.5 71t-70.5 28q-41 0 -71.5 -28.5t-30.5 -70.5q0 -41 30.5 -71.5t71.5 -30.5t70 30.5t29 71.5zM55 0l517 1446h309l517 -1446h-291
l-118 335h-521l-120 -335h-293zM534 590h384l-191 575z" />
    <glyph glyph-name="AE" unicode="&#xc6;" horiz-adv-x="2080" 
d="M1976 244v-244h-1039v338h-466l-178 -338h-293l774 1446h1181l-1 -243h-685v-355h593v-240h-593v-364h707zM937 590v665l-356 -665h356z" />
    <glyph glyph-name="Ccedilla" unicode="&#xc7;" horiz-adv-x="1436" 
d="M983 -263q0 -74 -69.5 -118t-169.5 -44q-142 0 -230 54l40 98q77 -49 154 -49q47 0 73.5 16.5t26.5 45.5q0 40 -39.5 60.5t-130.5 21.5q-14 0 -17 3t1 16l62 142q-273 24 -430.5 226.5t-157.5 525.5q0 341 175 536t480 195q241 0 404 -141.5t185 -357.5h-306
q-21 118 -96 188.5t-196 70.5q-158 0 -241.5 -118t-83.5 -377q0 -511 325 -511q119 0 194.5 79.5t97.5 200.5h306q-13 -104 -46.5 -189t-93.5 -158t-158 -117.5t-228 -53.5l-34 -89q104 -2 153.5 -48.5t49.5 -107.5z" />
    <glyph glyph-name="Egrave" unicode="&#xc8;" horiz-adv-x="1269" 
d="M553 1858l206 -291h-210l-297 291h301zM162 0v1446h993l-1 -246h-699v-351h607v-241h-609v-359l712 -1v-248h-1003z" />
    <glyph glyph-name="Eacute" unicode="&#xc9;" horiz-adv-x="1269" 
d="M760 1858h301l-297 -291h-210zM162 0v1446h993l-1 -246h-699v-351h607v-241h-609v-359l712 -1v-248h-1003z" />
    <glyph glyph-name="Ecircumflex" unicode="&#xca;" horiz-adv-x="1269" 
d="M790 1567l-131 140l-147 -140h-216l264 259h201l258 -259h-229zM162 0v1446h993l-1 -246h-699v-351h607v-241h-609v-359l712 -1v-248h-1003z" />
    <glyph glyph-name="Edieresis" unicode="&#xcb;" horiz-adv-x="1269" 
d="M755 1596l3 238h273l-3 -238h-273zM289 1596l3 238h273l-3 -238h-273zM162 0v1446h993l-1 -246h-699v-351h607v-241h-609v-359l712 -1v-248h-1003z" />
    <glyph glyph-name="Igrave" unicode="&#xcc;" horiz-adv-x="615" 
d="M202 1858l206 -291h-210l-297 291h301zM162 1446h291v-1446h-291v1446z" />
    <glyph glyph-name="Iacute" unicode="&#xcd;" horiz-adv-x="615" 
d="M409 1858h300l-296 -291h-210zM162 1446h291v-1446h-291v1446z" />
    <glyph glyph-name="Icircumflex" unicode="&#xce;" horiz-adv-x="615" 
d="M439 1567l-132 140l-146 -140h-216l264 259h201l258 -259h-229zM162 1446h291v-1446h-291v1446z" />
    <glyph glyph-name="Idieresis" unicode="&#xcf;" horiz-adv-x="615" 
d="M404 1596l2 238h274l-3 -238h-273zM-62 1596l2 238h274l-3 -238h-273zM162 1446h291v-1446h-291v1446z" />
    <glyph glyph-name="Eth" unicode="&#xd0;" horiz-adv-x="1498" 
d="M219 1446q350 0 433 -2q194 -5 338.5 -56t234.5 -144.5t133.5 -221t43.5 -292.5q0 -170 -46.5 -304t-139 -229.5t-237.5 -146t-337 -50.5h-423v612h-149v213h149v621zM804 825v-213h-290v-376h134q97 0 175.5 27t141 84t97 155t34.5 230q0 246 -115.5 362t-328.5 116
h-138v-385h290z" />
    <glyph glyph-name="Ntilde" unicode="&#xd1;" horiz-adv-x="1564" 
d="M1132 1682q-84 -70 -202 -70q-57 0 -147 27.5t-140 27.5q-47 0 -81 -15t-76 -49l-44 153q42 44 86 67.5t106 23.5q59 0 156 -30.5t139 -30.5q74 0 167 69zM1111 1446h292v-1446h-263l-687 995v-995h-291v1446h289l660 -957v957z" />
    <glyph glyph-name="Ograve" unicode="&#xd2;" horiz-adv-x="1521" 
d="M655 1858l206 -291h-210l-296 291h300zM763 -20q-308 0 -487.5 198t-179.5 542q0 345 181 545.5t486 200.5q303 0 482.5 -200.5t179.5 -545.5q0 -343 -178 -541.5t-484 -198.5zM763 220q345 0 345 496q0 262 -90.5 386t-254.5 124t-255.5 -124.5t-91.5 -385.5
q0 -255 91 -375.5t256 -120.5z" />
    <glyph glyph-name="Oacute" unicode="&#xd3;" horiz-adv-x="1521" 
d="M862 1858h301l-297 -291h-210zM763 -20q-308 0 -487.5 198t-179.5 542q0 345 181 545.5t486 200.5q303 0 482.5 -200.5t179.5 -545.5q0 -343 -178 -541.5t-484 -198.5zM763 220q345 0 345 496q0 262 -90.5 386t-254.5 124t-255.5 -124.5t-91.5 -385.5q0 -255 91 -375.5
t256 -120.5z" />
    <glyph glyph-name="Ocircumflex" unicode="&#xd4;" horiz-adv-x="1521" 
d="M892 1567l-131 140l-147 -140h-216l264 259h202l257 -259h-229zM763 -20q-308 0 -487.5 198t-179.5 542q0 345 181 545.5t486 200.5q303 0 482.5 -200.5t179.5 -545.5q0 -343 -178 -541.5t-484 -198.5zM763 220q345 0 345 496q0 262 -90.5 386t-254.5 124t-255.5 -124.5
t-91.5 -385.5q0 -255 91 -375.5t256 -120.5z" />
    <glyph glyph-name="Otilde" unicode="&#xd5;" horiz-adv-x="1521" 
d="M1112 1682q-82 -70 -201 -70q-57 0 -147 27.5t-140 27.5q-48 0 -81.5 -14.5t-75.5 -49.5l-45 153q43 44 87 67.5t106 23.5q59 0 156 -30.5t139 -30.5q75 0 166 69zM763 -20q-308 0 -487.5 198t-179.5 542q0 345 181 545.5t486 200.5q303 0 482.5 -200.5t179.5 -545.5
q0 -343 -178 -541.5t-484 -198.5zM763 220q345 0 345 496q0 262 -90.5 386t-254.5 124t-255.5 -124.5t-91.5 -385.5q0 -255 91 -375.5t256 -120.5z" />
    <glyph glyph-name="Odieresis" unicode="&#xd6;" horiz-adv-x="1521" 
d="M857 1596l3 238h273l-2 -238h-274zM391 1596l3 238h273l-2 -238h-274zM763 -20q-308 0 -487.5 198t-179.5 542q0 345 181 545.5t486 200.5q303 0 482.5 -200.5t179.5 -545.5q0 -343 -178 -541.5t-484 -198.5zM763 220q345 0 345 496q0 262 -90.5 386t-254.5 124
t-255.5 -124.5t-91.5 -385.5q0 -255 91 -375.5t256 -120.5z" />
    <glyph glyph-name="multiply" unicode="&#xd7;" horiz-adv-x="1153" 
d="M267 269l-149 151l307 307l-309 309l149 151l310 -309l310 310l151 -151l-310 -310l308 -307l-151 -151l-308 307z" />
    <glyph glyph-name="Oslash" unicode="&#xd8;" horiz-adv-x="1552" 
d="M172 -27l-129 131l167 172q-106 178 -106 443q0 346 180 546.5t486 200.5q271 0 443 -161l162 166l127 -129l-174 -182q105 -179 105 -440q0 -343 -178.5 -541.5t-485.5 -198.5q-267 0 -439 153zM476 538l534 566q-76 130 -240 130q-140 0 -215.5 -96.5t-90.5 -297.5
q-11 -144 12 -302zM771 215q135 0 208 86.5t89 268.5q15 146 -8 327l-531 -564q78 -118 242 -118z" />
    <glyph glyph-name="Ugrave" unicode="&#xd9;" horiz-adv-x="1448" 
d="M634 1858l206 -291h-210l-296 291h300zM1319 551q0 -276 -137.5 -423.5t-441.5 -147.5q-156 0 -268.5 39.5t-179.5 116.5t-98.5 181.5t-31.5 243.5v885h297v-907q0 -156 75 -233.5t206 -77.5t207.5 77t76.5 234v907h295v-895z" />
    <glyph glyph-name="Uacute" unicode="&#xda;" horiz-adv-x="1448" 
d="M841 1858h301l-297 -291h-210zM1319 551q0 -276 -137.5 -423.5t-441.5 -147.5q-156 0 -268.5 39.5t-179.5 116.5t-98.5 181.5t-31.5 243.5v885h297v-907q0 -156 75 -233.5t206 -77.5t207.5 77t76.5 234v907h295v-895z" />
    <glyph glyph-name="Ucircumflex" unicode="&#xdb;" horiz-adv-x="1448" 
d="M871 1567l-131 140l-147 -140h-216l264 259h202l257 -259h-229zM1319 551q0 -276 -137.5 -423.5t-441.5 -147.5q-156 0 -268.5 39.5t-179.5 116.5t-98.5 181.5t-31.5 243.5v885h297v-907q0 -156 75 -233.5t206 -77.5t207.5 77t76.5 234v907h295v-895z" />
    <glyph glyph-name="Udieresis" unicode="&#xdc;" horiz-adv-x="1448" 
d="M836 1596l3 238h273l-2 -238h-274zM370 1596l3 238h273l-2 -238h-274zM1319 551q0 -276 -137.5 -423.5t-441.5 -147.5q-156 0 -268.5 39.5t-179.5 116.5t-98.5 181.5t-31.5 243.5v885h297v-907q0 -156 75 -233.5t206 -77.5t207.5 77t76.5 234v907h295v-895z" />
    <glyph glyph-name="Yacute" unicode="&#xdd;" horiz-adv-x="1335" 
d="M801 1859h301l-296 -291h-211zM1316 1446l-503 -838v-608h-292v609l-502 837h316l333 -586l329 586h319z" />
    <glyph glyph-name="Thorn" unicode="&#xde;" horiz-adv-x="1361" 
d="M1303 737q0 -140 -71.5 -239.5t-194 -148.5t-283.5 -49h-298v-300h-294v1446h294v-277h294q251 0 402 -110.5t151 -321.5zM998 737q0 92 -73 141.5t-176 49.5l-293 1v-388h298q64 0 117.5 20t90 65.5t36.5 110.5z" />
    <glyph glyph-name="germandbls" unicode="&#xdf;" horiz-adv-x="1255" 
d="M629 1446q198 0 302.5 -79.5t104.5 -216.5q0 -103 -61.5 -167t-198.5 -123q-33 -17 -45 -28t-12 -28q0 -18 12 -27.5t46 -20.5q157 -66 218 -105q158 -100 178 -259q4 -26 4 -55q0 -171 -115 -264t-308 -93q-161 0 -268 67l87 180q32 -20 48.5 -29t51.5 -19.5t71 -10.5
q76 0 123.5 36t47.5 102q0 28 -10.5 50.5t-23.5 37.5t-43 31.5t-51.5 25.5t-65.5 26q-100 41 -158 101.5t-58 157.5q0 70 33.5 121.5t98.5 99.5q10 8 31.5 25.5t32.5 26.5t27 26t24 30t14 31.5t6 38.5q0 54 -41.5 88t-115.5 34q-94 0 -148 -57t-54 -156v-1044h-286l-2 989
q2 94 31 173.5t87 144.5t156.5 102t229.5 37z" />
    <glyph glyph-name="agrave" unicode="&#xe0;" horiz-adv-x="1133" 
d="M480 1446l206 -291h-210l-297 291h301zM432 -20q-153 0 -251 84.5t-98 231.5q0 172 129 259.5t399 90.5l130 2v62q0 148 -171 147q-70 -1 -125 -32.5t-75 -98.5h-243q8 162 131.5 245t325.5 83q229 0 333 -84t104 -243v-727h-244l-24 178q-51 -108 -129 -153t-192 -45z
M531 172q79 0 144 53.5t66 119.5v153l-105 -2q-122 -2 -199 -42.5t-77 -128.5q0 -70 48.5 -111.5t122.5 -41.5z" />
    <glyph glyph-name="aacute" unicode="&#xe1;" horiz-adv-x="1133" 
d="M687 1446h300l-296 -291h-210zM432 -20q-153 0 -251 84.5t-98 231.5q0 172 129 259.5t399 90.5l130 2v62q0 148 -171 147q-70 -1 -125 -32.5t-75 -98.5h-243q8 162 131.5 245t325.5 83q229 0 333 -84t104 -243v-727h-244l-24 178q-51 -108 -129 -153t-192 -45zM531 172
q79 0 144 53.5t66 119.5v153l-105 -2q-122 -2 -199 -42.5t-77 -128.5q0 -70 48.5 -111.5t122.5 -41.5z" />
    <glyph glyph-name="acircumflex" unicode="&#xe2;" horiz-adv-x="1133" 
d="M717 1155l-132 140l-146 -140h-216l264 259h201l258 -259h-229zM432 -20q-153 0 -251 84.5t-98 231.5q0 172 129 259.5t399 90.5l130 2v62q0 148 -171 147q-70 -1 -125 -32.5t-75 -98.5h-243q8 162 131.5 245t325.5 83q229 0 333 -84t104 -243v-727h-244l-24 178
q-51 -108 -129 -153t-192 -45zM531 172q79 0 144 53.5t66 119.5v153l-105 -2q-122 -2 -199 -42.5t-77 -128.5q0 -70 48.5 -111.5t122.5 -41.5z" />
    <glyph glyph-name="atilde" unicode="&#xe3;" horiz-adv-x="1133" 
d="M937 1270q-84 -70 -202 -70q-57 0 -146.5 27.5t-139.5 27.5q-48 0 -81.5 -14.5t-75.5 -49.5l-45 153q42 44 86 67.5t106 23.5q59 0 156 -30.5t139 -30.5q76 0 167 69zM432 -20q-153 0 -251 84.5t-98 231.5q0 172 129 259.5t399 90.5l130 2v62q0 148 -171 147
q-70 -1 -125 -32.5t-75 -98.5h-243q8 162 131.5 245t325.5 83q229 0 333 -84t104 -243v-727h-244l-24 178q-51 -108 -129 -153t-192 -45zM531 172q79 0 144 53.5t66 119.5v153l-105 -2q-122 -2 -199 -42.5t-77 -128.5q0 -70 48.5 -111.5t122.5 -41.5z" />
    <glyph glyph-name="adieresis" unicode="&#xe4;" horiz-adv-x="1133" 
d="M682 1184l2 238h274l-3 -238h-273zM216 1184l2 238h274l-3 -238h-273zM432 -20q-153 0 -251 84.5t-98 231.5q0 172 129 259.5t399 90.5l130 2v62q0 148 -171 147q-70 -1 -125 -32.5t-75 -98.5h-243q8 162 131.5 245t325.5 83q229 0 333 -84t104 -243v-727h-244l-24 178
q-51 -108 -129 -153t-192 -45zM531 172q79 0 144 53.5t66 119.5v153l-105 -2q-122 -2 -199 -42.5t-77 -128.5q0 -70 48.5 -111.5t122.5 -41.5z" />
    <glyph glyph-name="aring" unicode="&#xe5;" horiz-adv-x="1133" 
d="M805 1352q0 -91 -63.5 -154t-154.5 -63q-92 0 -155 64t-63 157q0 88 64 149t154 61q91 0 154.5 -62.5t63.5 -151.5zM684 1351q0 43 -28.5 71t-70.5 28t-72 -28.5t-30 -70.5q0 -41 30.5 -71.5t71.5 -30.5t70 30.5t29 71.5zM432 -20q-153 0 -251 84.5t-98 231.5
q0 172 129 259.5t399 90.5l130 2v62q0 148 -171 147q-70 -1 -125 -32.5t-75 -98.5h-243q8 162 131.5 245t325.5 83q229 0 333 -84t104 -243v-727h-244l-24 178q-51 -108 -129 -153t-192 -45zM531 172q79 0 144 53.5t66 119.5v153l-105 -2q-122 -2 -199 -42.5t-77 -128.5
q0 -70 48.5 -111.5t122.5 -41.5z" />
    <glyph glyph-name="ae" unicode="&#xe6;" horiz-adv-x="1827" 
d="M432 -20q-153 0 -251 84.5t-98 231.5q0 172 129 259.5t400 90.5l130 2v62q0 72 -45 110t-127 37q-69 -1 -124.5 -33.5t-75.5 -97.5h-243q8 157 133 242.5t324 85.5q247 0 357 -108q129 108 318 108q231 0 356.5 -143t125.5 -382v-79h-694q-2 -119 57 -189t163 -70
q168 0 210 137h263q-17 -107 -88 -187.5t-169.5 -120.5t-208.5 -40q-142 0 -254 56.5t-179 159.5q-37 -103 -142.5 -159.5t-266.5 -56.5zM1046 624h422q0 99 -54 162.5t-155 63.5q-97 0 -155.5 -67.5t-57.5 -158.5zM531 172q88 0 148.5 58.5t62.5 129.5v138l-106 -2
q-122 -2 -199 -42.5t-77 -128.5q0 -70 48.5 -111.5t122.5 -41.5z" />
    <glyph glyph-name="ccedilla" unicode="&#xe7;" horiz-adv-x="1094" 
d="M804 -263q0 -74 -69.5 -118t-169.5 -44q-142 0 -230 54l40 98q79 -49 154 -49q47 0 73.5 16.5t26.5 45.5q0 40 -39 60.5t-130 21.5q-14 0 -17.5 3t0.5 16l63 143q-193 23 -311.5 164t-118.5 365q0 242 137 391.5t362 149.5q189 0 306.5 -112.5t129.5 -284.5h-243
q-11 71 -59.5 123t-131.5 52q-105 0 -167 -81t-62 -236q0 -152 62.5 -240t172.5 -88q80 0 128.5 54.5t59.5 119.5h237q-9 -149 -110 -254.5t-262 -123.5l-34 -90q103 -2 152.5 -48.5t49.5 -107.5z" />
    <glyph glyph-name="egrave" unicode="&#xe8;" horiz-adv-x="1153" 
d="M479 1446l206 -291h-210l-296 291h300zM372 450q-1 -119 58 -189t163 -70q168 0 210 137h263q-17 -107 -88 -187.5t-170 -120.5t-208 -40q-232 0 -374.5 143t-142.5 382q0 157 58.5 280.5t173.5 196t270 72.5q231 0 356.5 -143t125.5 -382v-79h-695zM372 624h422
q0 99 -54.5 162.5t-155.5 63.5q-96 0 -154.5 -67.5t-57.5 -158.5z" />
    <glyph glyph-name="eacute" unicode="&#xe9;" horiz-adv-x="1153" 
d="M686 1446h301l-297 -291h-210zM372 450q-1 -119 58 -189t163 -70q168 0 210 137h263q-17 -107 -88 -187.5t-170 -120.5t-208 -40q-232 0 -374.5 143t-142.5 382q0 157 58.5 280.5t173.5 196t270 72.5q231 0 356.5 -143t125.5 -382v-79h-695zM372 624h422
q0 99 -54.5 162.5t-155.5 63.5q-96 0 -154.5 -67.5t-57.5 -158.5z" />
    <glyph glyph-name="ecircumflex" unicode="&#xea;" horiz-adv-x="1153" 
d="M716 1155l-131 140l-147 -140h-216l264 259h202l257 -259h-229zM372 450q-1 -119 58 -189t163 -70q168 0 210 137h263q-17 -107 -88 -187.5t-170 -120.5t-208 -40q-232 0 -374.5 143t-142.5 382q0 157 58.5 280.5t173.5 196t270 72.5q231 0 356.5 -143t125.5 -382v-79
h-695zM372 624h422q0 99 -54.5 162.5t-155.5 63.5q-96 0 -154.5 -67.5t-57.5 -158.5z" />
    <glyph glyph-name="edieresis" unicode="&#xeb;" horiz-adv-x="1153" 
d="M681 1184l3 238h273l-2 -238h-274zM215 1184l3 238h273l-2 -238h-274zM372 450q-1 -119 58 -189t163 -70q168 0 210 137h263q-17 -107 -88 -187.5t-170 -120.5t-208 -40q-232 0 -374.5 143t-142.5 382q0 157 58.5 280.5t173.5 196t270 72.5q231 0 356.5 -143t125.5 -382
v-79h-695zM372 624h422q0 99 -54.5 162.5t-155.5 63.5q-96 0 -154.5 -67.5t-57.5 -158.5z" />
    <glyph glyph-name="igrave" unicode="&#xec;" horiz-adv-x="529" 
d="M162 1446l206 -291h-210l-297 291h301zM404 1034v-1034h-279v1034h279z" />
    <glyph glyph-name="iacute" unicode="&#xed;" horiz-adv-x="529" 
d="M297 1446h287l-219 -291l-212 2zM404 1034v-1034h-279v1034h279z" />
    <glyph glyph-name="icircumflex" unicode="&#xee;" horiz-adv-x="529" 
d="M399 1155l-131 140l-147 -140h-216l264 259h201l258 -259h-229zM404 1034v-1034h-279v1034h279z" />
    <glyph glyph-name="idieresis" unicode="&#xef;" horiz-adv-x="768" 
d="M479 1180l2 238h274l-3 -238h-273zM13 1180l2 238h274l-3 -238h-273zM516 1034v-1034h-280v1034h280z" />
    <glyph glyph-name="eth" unicode="&#xf0;" horiz-adv-x="1190" 
d="M595 -20q-229 0 -374 147.5t-145 371.5q0 125 40 227.5t108.5 167t156 99.5t185.5 35q233 0 344 -178q-61 187 -184 331l-388 -126v188l241 79q-40 31 -81.5 59t-84 53.5t-55.5 34.5l346 12q66 -35 118 -80l219 71v-187l-90 -30q166 -251 163 -709q-2 -254 -143.5 -410
t-375.5 -156zM584 197q76 0 127 50.5t71 120.5t20 153q0 68 -11.5 123t-36 100t-68 70t-102.5 25q-58 0 -102.5 -26t-70 -71.5t-38 -101t-12.5 -119.5q0 -82 21 -152.5t73 -121t129 -50.5z" />
    <glyph glyph-name="ntilde" unicode="&#xf1;" horiz-adv-x="1186" 
d="M955 1270q-84 -70 -202 -70q-57 0 -146.5 27.5t-139.5 27.5q-48 0 -81.5 -14.5t-75.5 -49.5l-45 153q42 44 86 67.5t106 23.5q59 0 156.5 -30.5t139.5 -30.5q75 0 166 69zM125 0v1034h287v-146q97 155 300 155q73 0 136.5 -21t115 -63t81 -113t29.5 -164v-682h-292v646
q0 81 -48.5 124.5t-123.5 43.5q-78 0 -135.5 -40t-57.5 -112v-662h-292z" />
    <glyph glyph-name="ograve" unicode="&#xf2;" horiz-adv-x="1151" 
d="M470 1446l206 -291h-211l-296 291h301zM576 -20q-229 0 -364.5 143.5t-135.5 387.5q0 246 136 394.5t365 148.5t364 -147.5t135 -395.5q0 -238 -134 -384.5t-366 -146.5zM577 197q108 0 160.5 91t52.5 233q0 65 -11 119.5t-34.5 100.5t-66.5 72t-101 26q-110 0 -163 -88
t-53 -230q0 -64 11 -119.5t35 -103t67.5 -74.5t102.5 -27z" />
    <glyph glyph-name="oacute" unicode="&#xf3;" horiz-adv-x="1151" 
d="M676 1446h301l-296 -291h-211zM576 -20q-229 0 -364.5 143.5t-135.5 387.5q0 246 136 394.5t365 148.5t364 -147.5t135 -395.5q0 -238 -134 -384.5t-366 -146.5zM577 197q108 0 160.5 91t52.5 233q0 65 -11 119.5t-34.5 100.5t-66.5 72t-101 26q-110 0 -163 -88t-53 -230
q0 -64 11 -119.5t35 -103t67.5 -74.5t102.5 -27z" />
    <glyph glyph-name="ocircumflex" unicode="&#xf4;" horiz-adv-x="1151" 
d="M707 1155l-132 140l-146 -140h-217l265 259h201l257 -259h-228zM576 -20q-229 0 -364.5 143.5t-135.5 387.5q0 246 136 394.5t365 148.5t364 -147.5t135 -395.5q0 -238 -134 -384.5t-366 -146.5zM577 197q108 0 160.5 91t52.5 233q0 65 -11 119.5t-34.5 100.5t-66.5 72
t-101 26q-110 0 -163 -88t-53 -230q0 -64 11 -119.5t35 -103t67.5 -74.5t102.5 -27z" />
    <glyph glyph-name="otilde" unicode="&#xf5;" horiz-adv-x="1151" 
d="M927 1270q-84 -70 -202 -70q-57 0 -147 27.5t-140 27.5q-47 0 -81 -15t-76 -49l-44 153q42 44 86 67.5t106 23.5q59 0 156 -30.5t139 -30.5q74 0 167 69zM576 -20q-229 0 -364.5 143.5t-135.5 387.5q0 246 136 394.5t365 148.5t364 -147.5t135 -395.5q0 -238 -134 -384.5
t-366 -146.5zM577 197q108 0 160.5 91t52.5 233q0 65 -11 119.5t-34.5 100.5t-66.5 72t-101 26q-110 0 -163 -88t-53 -230q0 -64 11 -119.5t35 -103t67.5 -74.5t102.5 -27z" />
    <glyph glyph-name="odieresis" unicode="&#xf6;" horiz-adv-x="1151" 
d="M671 1184l3 238h274l-3 -238h-274zM205 1184l3 238h274l-3 -238h-274zM576 -20q-229 0 -364.5 143.5t-135.5 387.5q0 246 136 394.5t365 148.5t364 -147.5t135 -395.5q0 -238 -134 -384.5t-366 -146.5zM577 197q108 0 160.5 91t52.5 233q0 65 -11 119.5t-34.5 100.5
t-66.5 72t-101 26q-110 0 -163 -88t-53 -230q0 -64 11 -119.5t35 -103t67.5 -74.5t102.5 -27z" />
    <glyph glyph-name="divide" unicode="&#xf7;" horiz-adv-x="1177" 
d="M742 1268v-293h-304v293h304zM1061 834v-213h-945v213h945zM742 480v-293h-304v293h304z" />
    <glyph glyph-name="oslash" unicode="&#xf8;" horiz-adv-x="1223" 
d="M625 -20q-215 0 -349 128l-129 -123l-96 103l140 133q-66 123 -66 290q0 246 136 394.5t365 148.5q198 0 327 -112l111 104l95 -102l-115 -109q81 -136 81 -324q0 -238 -134 -384.5t-366 -146.5zM410 521q0 -45 6 -88l357 339q-54 67 -147 67q-110 0 -163 -88t-53 -230z
M626 197q108 0 161 91t53 233q0 61 -10 111l-366 -347q56 -88 162 -88z" />
    <glyph glyph-name="ugrave" unicode="&#xf9;" horiz-adv-x="1190" 
d="M485 1446l206 -291h-211l-296 291h301zM506 -20q-73 0 -142 23t-126 64t-91.5 107t-34.5 145v715h292v-678q0 -74 48 -119t137 -45q86 0 136.5 44.5t50.5 124.5v673h289v-1034h-220l-34 205q-11 -52 -34.5 -92.5t-53.5 -65.5t-68 -40.5t-74 -21t-75 -5.5z" />
    <glyph glyph-name="uacute" unicode="&#xfa;" horiz-adv-x="1190" 
d="M691 1446h301l-296 -291h-211zM506 -20q-73 0 -142 23t-126 64t-91.5 107t-34.5 145v715h292v-678q0 -74 48 -119t137 -45q86 0 136.5 44.5t50.5 124.5v673h289v-1034h-220l-34 205q-11 -52 -34.5 -92.5t-53.5 -65.5t-68 -40.5t-74 -21t-75 -5.5z" />
    <glyph glyph-name="ucircumflex" unicode="&#xfb;" horiz-adv-x="1190" 
d="M722 1155l-132 140l-146 -140h-217l265 259h201l257 -259h-228zM506 -20q-73 0 -142 23t-126 64t-91.5 107t-34.5 145v715h292v-678q0 -74 48 -119t137 -45q86 0 136.5 44.5t50.5 124.5v673h289v-1034h-220l-34 205q-11 -52 -34.5 -92.5t-53.5 -65.5t-68 -40.5t-74 -21
t-75 -5.5z" />
    <glyph glyph-name="udieresis" unicode="&#xfc;" horiz-adv-x="1190" 
d="M686 1184l3 238h274l-3 -238h-274zM220 1184l3 238h274l-3 -238h-274zM506 -20q-73 0 -142 23t-126 64t-91.5 107t-34.5 145v715h292v-678q0 -74 48 -119t137 -45q86 0 136.5 44.5t50.5 124.5v673h289v-1034h-220l-34 205q-11 -52 -34.5 -92.5t-53.5 -65.5t-68 -40.5
t-74 -21t-75 -5.5z" />
    <glyph glyph-name="yacute" unicode="&#xfd;" horiz-adv-x="1126" 
d="M664 1446h300l-296 -291h-210zM287 -330q-63 0 -111.5 9t-65.5 17l-17 9v186l103 -4q49 -3 87 3.5t58 15t36.5 27t20 25.5t10.5 24q1 3 2 4l19 57l-402 991h289l248 -674l250 674h286l-419 -1040q-40 -97 -84 -161.5t-94 -99.5t-101 -49t-115 -14z" />
    <glyph glyph-name="thorn" unicode="&#xfe;" horiz-adv-x="1208" 
d="M417 1446v-543q63 70 134 110.5t180 40.5q179 0 290.5 -135t111.5 -394q0 -270 -115 -407.5t-304 -137.5q-153 0 -262 99q-21 19 -28 17.5t-7 -28.5v-390h-292v1768h292zM417 265q88 -100 191 -100q228 0 228 366q0 337 -224 337q-82 0 -138.5 -48.5t-56.5 -110.5v-444z
" />
    <glyph glyph-name="ydieresis" unicode="&#xff;" horiz-adv-x="1126" 
d="M659 1184l2 238h274l-3 -238h-273zM193 1184l2 238h274l-3 -238h-273zM287 -330q-63 0 -111.5 9t-65.5 17l-17 9v186l103 -4q49 -3 87 3.5t58 15t36.5 27t20 25.5t10.5 24q1 3 2 4l19 57l-402 991h289l248 -674l250 674h286l-419 -1040q-40 -97 -84 -161.5t-94 -99.5
t-101 -49t-115 -14z" />
    <glyph glyph-name="Amacron" unicode="&#x100;" horiz-adv-x="1453" 
d="M1078 1804v-187h-703v187h703zM55 0l517 1446h309l517 -1446h-291l-118 335h-521l-120 -335h-293zM534 590h384l-191 575z" />
    <glyph glyph-name="amacron" unicode="&#x101;" horiz-adv-x="1133" 
d="M938 1392v-187h-703v187h703zM432 -20q-153 0 -251 84.5t-98 231.5q0 172 129 259.5t399 90.5l130 2v62q0 148 -171 147q-70 -1 -125 -32.5t-75 -98.5h-243q8 162 131.5 245t325.5 83q229 0 333 -84t104 -243v-727h-244l-24 178q-51 -108 -129 -153t-192 -45zM531 172
q79 0 144 53.5t66 119.5v153l-105 -2q-122 -2 -199 -42.5t-77 -128.5q0 -70 48.5 -111.5t122.5 -41.5z" />
    <glyph glyph-name="Abreve" unicode="&#x102;" horiz-adv-x="1453" 
d="M1078 1821q-25 -121 -122.5 -188t-229.5 -67q-131 0 -228 66.5t-122 188.5h185q16 -50 59 -81t106 -31t107.5 31t60.5 81h184zM55 0l517 1446h309l517 -1446h-291l-118 335h-521l-120 -335h-293zM534 590h384l-191 575z" />
    <glyph glyph-name="abreve" unicode="&#x103;" horiz-adv-x="1133" 
d="M937 1409q-25 -121 -122 -188t-229 -67q-131 0 -228 66.5t-122 188.5h184q16 -51 59.5 -81.5t106.5 -30.5q62 0 106.5 31t61.5 81h183zM432 -20q-153 0 -251 84.5t-98 231.5q0 172 129 259.5t399 90.5l130 2v62q0 148 -171 147q-70 -1 -125 -32.5t-75 -98.5h-243
q8 162 131.5 245t325.5 83q229 0 333 -84t104 -243v-727h-244l-24 178q-51 -108 -129 -153t-192 -45zM531 172q79 0 144 53.5t66 119.5v153l-105 -2q-122 -2 -199 -42.5t-77 -128.5q0 -70 48.5 -111.5t122.5 -41.5z" />
    <glyph glyph-name="Aogonek" unicode="&#x104;" horiz-adv-x="1453" 
d="M55 0l517 1446h309l516 -1443h1l-1 -1l1 -2h-7q-99 -37 -138.5 -69.5t-39.5 -73.5q0 -64 72 -64q70 0 145 44v-132q-31 -19 -89 -33.5t-121 -14.5q-103 0 -160.5 42.5t-57.5 121.5q0 57 36.5 100.5t132.5 78.5h-64l-118 335h-521l-120 -335h-293zM534 590h384l-191 575z
" />
    <glyph glyph-name="aogonek" unicode="&#x105;" horiz-adv-x="1133" 
d="M432 -20q-153 0 -251 84.5t-98 231.5q0 172 129 259.5t399 90.5l130 2v62q0 148 -171 147q-70 -1 -125 -32.5t-75 -98.5h-243q8 162 131.5 245t325.5 83q229 0 333 -84t104 -243v-727h-37q-87 -34 -122 -65t-35 -70q0 -64 72 -64q67 0 145 44v-132q-31 -19 -89 -33.5
t-121 -14.5q-104 0 -161 42t-57 122q0 55 34.5 98t125.5 78l-23 173q-51 -108 -129 -153t-192 -45zM531 172q79 0 144 53.5t66 119.5v153l-105 -2q-122 -2 -199 -42.5t-77 -128.5q0 -70 48.5 -111.5t122.5 -41.5z" />
    <glyph glyph-name="Cacute" unicode="&#x106;" horiz-adv-x="1436" 
d="M848 1858h301l-296 -291h-211zM751 1466q241 0 404 -141.5t185 -357.5h-306q-21 118 -96 188.5t-196 70.5q-158 0 -241.5 -118t-83.5 -377q0 -511 325 -511q119 0 194.5 79.5t97.5 200.5h306q-14 -110 -50.5 -198.5t-103.5 -163.5t-177.5 -116.5t-257.5 -41.5
q-301 0 -478 206t-177 549q0 341 175 536t480 195z" />
    <glyph glyph-name="cacute" unicode="&#x107;" horiz-adv-x="1094" 
d="M674 1446h301l-297 -291h-210zM575 1054q189 0 306.5 -112.5t129.5 -284.5h-243q-11 71 -59.5 123t-131.5 52q-105 0 -167 -81t-62 -236q0 -152 62.5 -240t172.5 -88q80 0 128.5 54.5t59.5 119.5h237q-10 -164 -128.5 -272.5t-304.5 -108.5q-220 0 -359.5 144.5
t-139.5 388.5q0 242 137 391.5t362 149.5z" />
    <glyph glyph-name="Ccircumflex" unicode="&#x108;" horiz-adv-x="1436" 
d="M879 1567l-132 140l-146 -140h-217l264 259h202l257 -259h-228zM751 1466q241 0 404 -141.5t185 -357.5h-306q-21 118 -96 188.5t-196 70.5q-158 0 -241.5 -118t-83.5 -377q0 -511 325 -511q119 0 194.5 79.5t97.5 200.5h306q-14 -110 -50.5 -198.5t-103.5 -163.5
t-177.5 -116.5t-257.5 -41.5q-301 0 -478 206t-177 549q0 341 175 536t480 195z" />
    <glyph glyph-name="ccircumflex" unicode="&#x109;" horiz-adv-x="1094" 
d="M704 1155l-131 140l-147 -140h-216l264 259h201l258 -259h-229zM575 1054q189 0 306.5 -112.5t129.5 -284.5h-243q-11 71 -59.5 123t-131.5 52q-105 0 -167 -81t-62 -236q0 -152 62.5 -240t172.5 -88q80 0 128.5 54.5t59.5 119.5h237q-10 -164 -128.5 -272.5
t-304.5 -108.5q-220 0 -359.5 144.5t-139.5 388.5q0 242 137 391.5t362 149.5z" />
    <glyph glyph-name="Cdotaccent" unicode="&#x10a;" horiz-adv-x="1436" 
d="M608 1596v238h279v-238h-279zM751 1466q241 0 404 -141.5t185 -357.5h-306q-21 118 -96 188.5t-196 70.5q-158 0 -241.5 -118t-83.5 -377q0 -511 325 -511q119 0 194.5 79.5t97.5 200.5h306q-14 -110 -50.5 -198.5t-103.5 -163.5t-177.5 -116.5t-257.5 -41.5
q-301 0 -478 206t-177 549q0 341 175 536t480 195z" />
    <glyph glyph-name="cdotaccent" unicode="&#x10b;" horiz-adv-x="1094" 
d="M434 1184v238h279v-238h-279zM575 1054q189 0 306.5 -112.5t129.5 -284.5h-243q-11 71 -59.5 123t-131.5 52q-105 0 -167 -81t-62 -236q0 -152 62.5 -240t172.5 -88q80 0 128.5 54.5t59.5 119.5h237q-10 -164 -128.5 -272.5t-304.5 -108.5q-220 0 -359.5 144.5
t-139.5 388.5q0 242 137 391.5t362 149.5z" />
    <glyph glyph-name="Ccaron" unicode="&#x10c;" horiz-adv-x="1436" 
d="M647 1567l-263 261h217l146 -150l132 150h228l-257 -261h-203zM751 1466q241 0 404 -141.5t185 -357.5h-306q-21 118 -96 188.5t-196 70.5q-158 0 -241.5 -118t-83.5 -377q0 -511 325 -511q119 0 194.5 79.5t97.5 200.5h306q-14 -110 -50.5 -198.5t-103.5 -163.5
t-177.5 -116.5t-257.5 -41.5q-301 0 -478 206t-177 549q0 341 175 536t480 195z" />
    <glyph glyph-name="ccaron" unicode="&#x10d;" horiz-adv-x="1094" 
d="M472 1155l-263 261h217l147 -150l131 150h229l-258 -261h-203zM575 1054q189 0 306.5 -112.5t129.5 -284.5h-243q-11 71 -59.5 123t-131.5 52q-105 0 -167 -81t-62 -236q0 -152 62.5 -240t172.5 -88q80 0 128.5 54.5t59.5 119.5h237q-10 -164 -128.5 -272.5
t-304.5 -108.5q-220 0 -359.5 144.5t-139.5 388.5q0 242 137 391.5t362 149.5z" />
    <glyph glyph-name="Dcaron" unicode="&#x10e;" horiz-adv-x="1440" 
d="M612 1567l-263 261h217l147 -150l131 150h229l-258 -261h-203zM162 1446q349 0 432 -2q194 -5 338.5 -56t234.5 -144.5t133.5 -221t43.5 -292.5q0 -170 -46.5 -304t-139 -229.5t-237.5 -146t-337 -50.5h-422v1446zM456 1210v-974h134q97 0 175.5 27t141.5 84t97.5 155
t34.5 230q0 246 -116 362t-329 116h-138z" />
    <glyph glyph-name="dcaron" unicode="&#x10f;" horiz-adv-x="1256" 
d="M516 -20q-208 0 -324 143t-116 400q0 247 107 389t304 142q106 0 189 -45t123 -115v592h293v-1486h-212l-33 212q-15 -46 -39.5 -85t-63 -73.5t-97 -54t-131.5 -19.5zM1210 1015l81 202l-71 12v222h199v-233l-85 -203h-124zM580 190q113 0 166 78.5t53 258.5
q-3 315 -217 315q-102 0 -161.5 -76.5t-59.5 -238.5q0 -168 58 -252.5t161 -84.5z" />
    <glyph glyph-name="Dcroat" unicode="&#x110;" horiz-adv-x="1498" 
d="M219 1446q350 0 433 -2q194 -5 338.5 -56t234.5 -144.5t133.5 -221t43.5 -292.5q0 -170 -46.5 -304t-139 -229.5t-237.5 -146t-337 -50.5h-423v612h-149v213h149v621zM804 825v-213h-290v-376h134q97 0 175.5 27t141 84t97 155t34.5 230q0 246 -115.5 362t-328.5 116
h-138v-385h290z" />
    <glyph glyph-name="dcroat" unicode="&#x111;" horiz-adv-x="1278" 
d="M516 -20q-208 0 -324 143t-116 400q0 247 107 389t304 142q106 0 189 -45t123 -115v266h-254v164h254v162h293v-162h126v-164h-126v-1160h-212l-33 212q-15 -46 -39.5 -85t-63 -73.5t-97 -54t-131.5 -19.5zM580 190q113 0 166 78.5t53 258.5q-3 315 -217 315
q-102 0 -161.5 -76.5t-59.5 -238.5q0 -168 58 -252.5t161 -84.5z" />
    <glyph glyph-name="Emacron" unicode="&#x112;" horiz-adv-x="1269" 
d="M1011 1804v-187h-703v187h703zM162 0v1446h993l-1 -246h-699v-351h607v-241h-609v-359l712 -1v-248h-1003z" />
    <glyph glyph-name="emacron" unicode="&#x113;" horiz-adv-x="1153" 
d="M937 1392v-187h-703v187h703zM372 450q-1 -119 58 -189t163 -70q168 0 210 137h263q-17 -107 -88 -187.5t-170 -120.5t-208 -40q-232 0 -374.5 143t-142.5 382q0 157 58.5 280.5t173.5 196t270 72.5q231 0 356.5 -143t125.5 -382v-79h-695zM372 624h422q0 99 -54.5 162.5
t-155.5 63.5q-96 0 -154.5 -67.5t-57.5 -158.5z" />
    <glyph glyph-name="Ebreve" unicode="&#x114;" horiz-adv-x="1269" 
d="M1011 1821q-25 -121 -122.5 -188t-229.5 -67q-131 0 -228 66.5t-122 188.5h184q16 -50 59.5 -81t106.5 -31q62 0 107 31t61 81h184zM162 0v1446h993l-1 -246h-699v-351h607v-241h-609v-359l712 -1v-248h-1003z" />
    <glyph glyph-name="ebreve" unicode="&#x115;" horiz-adv-x="1153" 
d="M937 1409q-25 -122 -122 -188.5t-230 -66.5q-131 0 -228 66.5t-122 188.5h185q16 -50 59 -81t106 -31t107.5 31t60.5 81h184zM372 450q-1 -119 58 -189t163 -70q168 0 210 137h263q-17 -107 -88 -187.5t-170 -120.5t-208 -40q-232 0 -374.5 143t-142.5 382
q0 157 58.5 280.5t173.5 196t270 72.5q231 0 356.5 -143t125.5 -382v-79h-695zM372 624h422q0 99 -54.5 162.5t-155.5 63.5q-96 0 -154.5 -67.5t-57.5 -158.5z" />
    <glyph glyph-name="Edotaccent" unicode="&#x116;" horiz-adv-x="1269" 
d="M520 1596v238h279v-238h-279zM162 0v1446h993l-1 -246h-699v-351h607v-241h-609v-359l712 -1v-248h-1003z" />
    <glyph glyph-name="edotaccent" unicode="&#x117;" horiz-adv-x="1153" 
d="M446 1184v238h279v-238h-279zM372 450q-1 -119 58 -189t163 -70q168 0 210 137h263q-17 -107 -88 -187.5t-170 -120.5t-208 -40q-232 0 -374.5 143t-142.5 382q0 157 58.5 280.5t173.5 196t270 72.5q231 0 356.5 -143t125.5 -382v-79h-695zM372 624h422q0 99 -54.5 162.5
t-155.5 63.5q-96 0 -154.5 -67.5t-57.5 -158.5z" />
    <glyph glyph-name="Eogonek" unicode="&#x118;" horiz-adv-x="1269" 
d="M162 0v1446h993l-1 -246h-699v-351h607v-241h-609v-359l712 -1v-239l29 -1q-103 -37 -144 -70t-41 -75q0 -64 72 -64q69 0 145 43v-132q-30 -19 -88.5 -33t-121.5 -14q-103 0 -160.5 42.5t-57.5 121.5q0 54 34 96.5t121 76.5h-791z" />
    <glyph glyph-name="eogonek" unicode="&#x119;" horiz-adv-x="1153" 
d="M458 -148q0 81 73 132q-204 21 -326 160.5t-122 360.5q0 157 58.5 280.5t173.5 196t270 72.5q231 0 356.5 -143t125.5 -382v-79h-695q-1 -119 58 -189t163 -70q168 0 210 137h263q-16 -99 -77 -174.5t-152 -119.5h17q-103 -38 -144 -71t-41 -75q0 -64 72 -64q67 0 145 44
v-132q-31 -19 -89.5 -33.5t-121.5 -14.5q-103 0 -160 42.5t-57 121.5zM372 624h422q0 99 -54.5 162.5t-155.5 63.5q-96 0 -154.5 -67.5t-57.5 -158.5z" />
    <glyph glyph-name="Ecaron" unicode="&#x11a;" horiz-adv-x="1269" 
d="M558 1567l-263 261h217l147 -150l131 150h229l-258 -261h-203zM162 0v1446h993l-1 -246h-699v-351h607v-241h-609v-359l712 -1v-248h-1003z" />
    <glyph glyph-name="ecaron" unicode="&#x11b;" horiz-adv-x="1137" 
d="M474 1155l-264 261h217l147 -150l131 150h229l-257 -261h-203zM372 450q-1 -119 58 -189t163 -70q168 0 210 137h263q-17 -107 -88 -187.5t-170 -120.5t-208 -40q-232 0 -374.5 143t-142.5 382q0 157 58.5 280.5t173.5 196t270 72.5q231 0 356.5 -143t125.5 -382v-79
h-695zM372 624h422q0 99 -54.5 162.5t-155.5 63.5q-96 0 -154.5 -67.5t-57.5 -158.5z" />
    <glyph glyph-name="Gcircumflex" unicode="&#x11c;" horiz-adv-x="1518" 
d="M885 1567l-131 140l-147 -140h-216l264 259h201l258 -259h-229zM747 -20q-299 0 -475 200t-176 539q0 343 182.5 545t484.5 202q125 0 235 -42t185.5 -111.5t121 -159.5t49.5 -186h-308q-21 109 -98 180.5t-192 71.5q-155 0 -248.5 -120t-93.5 -372q0 -111 19.5 -197.5
t52.5 -140.5t79.5 -89t96 -49t106.5 -14q61 0 114 21.5t87.5 55.5t56 74t27.5 80l11 88h-299v202l605 -3v-755h-199v189q-33 -43 -66.5 -75.5t-84.5 -65t-120 -50.5t-153 -18z" />
    <glyph glyph-name="gcircumflex" unicode="&#x11d;" horiz-adv-x="1257" 
d="M739 1155l-132 140l-146 -140h-217l264 259h202l257 -259h-228zM605 -342q-270 0 -416.5 68.5t-146.5 185.5q0 40 18.5 73t47.5 54t55 34.5t52 23t28 10.5q-3 2 -20 11t-27.5 15.5t-27.5 20.5t-27 28t-17.5 35t-7.5 44q0 58 54.5 103.5t157.5 63.5q-100 46 -154.5 127.5
t-54.5 170.5q0 150 137 237t353 87q99 0 168 -20.5t133 -60.5q142 55 304 122l-2 -226l-178 -29q22 -58 22 -109q0 -144 -123.5 -243t-344.5 -99q-67 0 -102 4q-103 -5 -103 -43q0 -23 38.5 -31t142.5 -14q19 -1 92 -5.5t123 -7.5q185 -12 281 -91t96 -205
q0 -151 -141.5 -242.5t-409.5 -91.5zM597 548q83 0 133 45.5t50 123.5q0 81 -50 130t-133 49t-134 -49.5t-51 -129.5q0 -78 49.5 -123.5t135.5 -45.5zM652 -179q119 0 172.5 29t53.5 87q0 47 -40.5 76.5t-116.5 34.5l-237 16q-68 4 -112 -32t-44 -86q0 -65 78.5 -95
t245.5 -30z" />
    <glyph glyph-name="Gbreve" unicode="&#x11e;" horiz-adv-x="1518" 
d="M1106 1821q-25 -121 -122.5 -188t-229.5 -67q-131 0 -228 66.5t-122 188.5h185q16 -50 59 -81t106 -31t107.5 31t60.5 81h184zM747 -20q-299 0 -475 200t-176 539q0 343 182.5 545t484.5 202q125 0 235 -42t185.5 -111.5t121 -159.5t49.5 -186h-308q-21 109 -98 180.5
t-192 71.5q-155 0 -248.5 -120t-93.5 -372q0 -111 19.5 -197.5t52.5 -140.5t79.5 -89t96 -49t106.5 -14q61 0 114 21.5t87.5 55.5t56 74t27.5 80l11 88h-299v202l605 -3v-755h-199v189q-33 -43 -66.5 -75.5t-84.5 -65t-120 -50.5t-153 -18z" />
    <glyph glyph-name="gbreve" unicode="&#x11f;" horiz-adv-x="1257" 
d="M959 1409q-25 -122 -122 -188.5t-229 -66.5q-131 0 -228 66.5t-122 188.5h184q16 -51 59.5 -81.5t106.5 -30.5q62 0 106.5 31t61.5 81h183zM605 -342q-270 0 -416.5 68.5t-146.5 185.5q0 40 18.5 73t47.5 54t55 34.5t52 23t28 10.5q-3 2 -20 11t-27.5 15.5t-27.5 20.5
t-27 28t-17.5 35t-7.5 44q0 58 54.5 103.5t157.5 63.5q-100 46 -154.5 127.5t-54.5 170.5q0 150 137 237t353 87q99 0 168 -20.5t133 -60.5q142 55 304 122l-2 -226l-178 -29q22 -58 22 -109q0 -144 -123.5 -243t-344.5 -99q-67 0 -102 4q-103 -5 -103 -43q0 -23 38.5 -31
t142.5 -14q19 -1 92 -5.5t123 -7.5q185 -12 281 -91t96 -205q0 -151 -141.5 -242.5t-409.5 -91.5zM597 548q83 0 133 45.5t50 123.5q0 81 -50 130t-133 49t-134 -49.5t-51 -129.5q0 -78 49.5 -123.5t135.5 -45.5zM652 -179q119 0 172.5 29t53.5 87q0 47 -40.5 76.5
t-116.5 34.5l-237 16q-68 4 -112 -32t-44 -86q0 -65 78.5 -95t245.5 -30z" />
    <glyph glyph-name="Gdotaccent" unicode="&#x120;" horiz-adv-x="1518" 
d="M615 1596v238h279v-238h-279zM747 -20q-299 0 -475 200t-176 539q0 343 182.5 545t484.5 202q125 0 235 -42t185.5 -111.5t121 -159.5t49.5 -186h-308q-21 109 -98 180.5t-192 71.5q-155 0 -248.5 -120t-93.5 -372q0 -111 19.5 -197.5t52.5 -140.5t79.5 -89t96 -49
t106.5 -14q61 0 114 21.5t87.5 55.5t56 74t27.5 80l11 88h-299v202l605 -3v-755h-199v189q-33 -43 -66.5 -75.5t-84.5 -65t-120 -50.5t-153 -18z" />
    <glyph glyph-name="gdotaccent" unicode="&#x121;" horiz-adv-x="1257" 
d="M468 1184v238h279v-238h-279zM605 -342q-270 0 -416.5 68.5t-146.5 185.5q0 40 18.5 73t47.5 54t55 34.5t52 23t28 10.5q-3 2 -20 11t-27.5 15.5t-27.5 20.5t-27 28t-17.5 35t-7.5 44q0 58 54.5 103.5t157.5 63.5q-100 46 -154.5 127.5t-54.5 170.5q0 150 137 237t353 87
q99 0 168 -20.5t133 -60.5q142 55 304 122l-2 -226l-178 -29q22 -58 22 -109q0 -144 -123.5 -243t-344.5 -99q-67 0 -102 4q-103 -5 -103 -43q0 -23 38.5 -31t142.5 -14q19 -1 92 -5.5t123 -7.5q185 -12 281 -91t96 -205q0 -151 -141.5 -242.5t-409.5 -91.5zM597 548
q83 0 133 45.5t50 123.5q0 81 -50 130t-133 49t-134 -49.5t-51 -129.5q0 -78 49.5 -123.5t135.5 -45.5zM652 -179q119 0 172.5 29t53.5 87q0 47 -40.5 76.5t-116.5 34.5l-237 16q-68 4 -112 -32t-44 -86q0 -65 78.5 -95t245.5 -30z" />
    <glyph glyph-name="uni0122" unicode="&#x122;" horiz-adv-x="1518" 
d="M747 -20q-299 0 -475 200t-176 539q0 343 182.5 545t484.5 202q125 0 235 -42t185.5 -111.5t121 -159.5t49.5 -186h-308q-21 109 -98 180.5t-192 71.5q-155 0 -248.5 -120t-93.5 -372q0 -111 19.5 -197.5t52.5 -140.5t79.5 -89t96 -49t106.5 -14q61 0 114 21.5t87.5 55.5
t56 74t27.5 80l11 88h-299v202l605 -3v-755h-199v189q-33 -43 -66.5 -75.5t-84.5 -65t-120 -50.5t-153 -18zM613 -440l91 149l-80 10v187h249v-156l-157 -190h-103z" />
    <glyph glyph-name="uni0123" unicode="&#x123;" horiz-adv-x="1257" 
d="M449 1188v202l114 156h110l-114 -170h99v-188h-209zM605 -342q-270 0 -416.5 68.5t-146.5 185.5q0 40 18.5 73t47.5 54t55 34.5t52 23t28 10.5q-3 2 -20 11t-27.5 15.5t-27.5 20.5t-27 28t-17.5 35t-7.5 44q0 58 54.5 103.5t157.5 63.5q-100 46 -154.5 127.5t-54.5 170.5
q0 150 137 237t353 87q99 0 168 -20.5t133 -60.5q142 55 304 122l-2 -226l-178 -29q22 -58 22 -109q0 -144 -123.5 -243t-344.5 -99q-67 0 -102 4q-103 -5 -103 -43q0 -23 38.5 -31t142.5 -14q19 -1 92 -5.5t123 -7.5q185 -12 281 -91t96 -205q0 -151 -141.5 -242.5
t-409.5 -91.5zM597 548q83 0 133 45.5t50 123.5q0 81 -50 130t-133 49t-134 -49.5t-51 -129.5q0 -78 49.5 -123.5t135.5 -45.5zM652 -179q119 0 172.5 29t53.5 87q0 47 -40.5 76.5t-116.5 34.5l-237 16q-68 4 -112 -32t-44 -86q0 -65 78.5 -95t245.5 -30z" />
    <glyph glyph-name="Hcircumflex" unicode="&#x124;" horiz-adv-x="1540" 
d="M901 1571l-132 140l-146 -140h-216l264 259h201l258 -259h-229zM1086 621h-633v-621h-291v1446h291v-580h633v580h292v-1446h-292v621z" />
    <glyph glyph-name="hcircumflex" unicode="&#x125;" horiz-adv-x="1185" 
d="M398 1567l-132 140l-146 -140h-217l264 259h202l257 -259h-228zM125 0v1486h290v-601q109 155 297 155q154 0 257.5 -88t103.5 -240v-712h-293v669q0 68 -49.5 106.5t-123.5 38.5q-78 0 -134 -41t-56 -113v-660h-292z" />
    <glyph glyph-name="Hbar" unicode="&#x126;" horiz-adv-x="1649" 
d="M1149 621h-633v-621h-292v1096h-190v164h190v186h292v-186h633v186h292v-186h174v-164h-174v-1096h-292v621zM516 866h633v230h-633v-230z" />
    <glyph glyph-name="hbar" unicode="&#x127;" horiz-adv-x="1237" 
d="M177 0v1160h-137v164h137v162h290v-162h246v-164h-246v-275q109 155 297 155q154 0 257.5 -88t103.5 -240v-712h-292v669q0 68 -49.5 106.5t-123.5 38.5q-78 0 -134.5 -40.5t-56.5 -113.5v-660h-292z" />
    <glyph glyph-name="Itilde" unicode="&#x128;" horiz-adv-x="615" 
d="M659 1682q-84 -70 -202 -70q-57 0 -146.5 27.5t-139.5 27.5q-48 0 -81.5 -14.5t-75.5 -49.5l-45 153q42 44 86 67.5t106 23.5q59 0 156 -30.5t139 -30.5q76 0 167 69zM162 1446h291v-1446h-291v1446z" />
    <glyph glyph-name="itilde" unicode="&#x129;" horiz-adv-x="680" 
d="M685 1270q-84 -70 -202 -70q-57 0 -146.5 27.5t-139.5 27.5q-48 0 -81.5 -14.5t-75.5 -49.5l-45 153q42 44 86 67.5t106 23.5q59 0 156 -30.5t140 -30.5q75 0 166 69zM470 1034v-1034h-279v1034h279z" />
    <glyph glyph-name="Imacron" unicode="&#x12a;" horiz-adv-x="615" 
d="M660 1804v-187h-703v187h703zM162 1446h291v-1446h-291v1446z" />
    <glyph glyph-name="imacron" unicode="&#x12b;" horiz-adv-x="701" 
d="M701 1392v-187h-703v187h703zM486 1034v-1034h-280v1034h280z" />
    <glyph glyph-name="Ibreve" unicode="&#x12c;" horiz-adv-x="615" 
d="M659 1821q-25 -121 -122 -188t-229 -67q-131 0 -228 66.5t-122 188.5h184q16 -51 59.5 -81.5t106.5 -30.5q62 0 106.5 31t61.5 81h183zM162 1446h291v-1446h-291v1446z" />
    <glyph glyph-name="ibreve" unicode="&#x12d;" horiz-adv-x="529" 
d="M619 1409q-25 -121 -122 -188t-229 -67q-131 0 -228 66.5t-122 188.5h184q16 -50 59.5 -81t106.5 -31q62 0 107 31t61 81h183zM404 1034v-1034h-279v1034h279z" />
    <glyph glyph-name="Iogonek" unicode="&#x12e;" horiz-adv-x="615" 
d="M55 -183q0 59 39 103t141 80h-73v1446h291v-1446h-51l49 -1q-103 -38 -144 -71t-41 -75q0 -64 72 -64t145 44v-132q-31 -19 -89 -33.5t-121 -14.5q-103 0 -160.5 42.5t-57.5 121.5z" />
    <glyph glyph-name="iogonek" unicode="&#x12f;" horiz-adv-x="529" 
d="M129 1184v238h279v-238h-279zM12 -173q0 55 33.5 97t119.5 76h-40v1034h279v-1025h4q-1 -1 -4 -1v-8h-19q-90 -35 -126 -66.5t-36 -70.5q0 -64 72 -64q67 0 145 44v-132q-31 -19 -89.5 -33.5t-121.5 -14.5q-103 0 -160 42.5t-57 121.5z" />
    <glyph glyph-name="Idotaccent" unicode="&#x130;" horiz-adv-x="615" 
d="M169 1596v238h279v-238h-279zM162 1446h291v-1446h-291v1446z" />
    <glyph glyph-name="dotlessi" unicode="&#x131;" horiz-adv-x="529" 
d="M404 1034v-1034h-279v1034h279z" />
    <glyph glyph-name="Jcircumflex" unicode="&#x134;" horiz-adv-x="804" 
d="M652 1567l-132 140l-146 -140h-217l265 259h201l257 -259h-228zM674 402q0 -110 -16 -184t-56.5 -130t-113.5 -82t-184 -26q-126 0 -249 32l6 267q7 -2 30 -7.5t37.5 -9t38 -6.5t44.5 -3q98 0 134.5 51.5t36.5 175.5v966h292v-1044z" />
    <glyph glyph-name="jcircumflex" unicode="&#x135;" horiz-adv-x="575" 
d="M434 1155l-132 140l-146 -140h-217l264 259h202l257 -259h-228zM450 7q0 -172 -84 -255.5t-266 -83.5q-49 0 -81 6.5t-41 12.5t-9 10l-1 195l79 8q61 8 86 33.5t25 76.5v1024h292v-1027z" />
    <glyph glyph-name="uni0136" unicode="&#x136;" horiz-adv-x="1434" 
d="M1380 0h-318l-383 673l-214 -258v-415h-303v1446h303v-662l527 662h335l-439 -560zM566 -440l91 149l-80 10v187h249v-156l-157 -190h-103z" />
    <glyph glyph-name="uni0137" unicode="&#x137;" horiz-adv-x="1159" 
d="M1124 0h-291l-279 446l-137 -146v-300h-292v1486h292v-881l380 429h314l-376 -412zM447 -440l92 149l-80 10v187h248v-156l-156 -190h-104z" />
    <glyph glyph-name="kgreenlandic" unicode="&#x138;" horiz-adv-x="1202" 
d="M1167 0h-334l-236 475l-180 -175v-300h-292v1034h292v-457l422 457h297l-344 -347z" />
    <glyph glyph-name="Lacute" unicode="&#x139;" horiz-adv-x="1155" 
d="M404 1858h300l-296 -291h-210zM162 1446h294v-1199h628v-247h-922v1446z" />
    <glyph glyph-name="lacute" unicode="&#x13a;" horiz-adv-x="658" 
d="M367 1940h301l-296 -291h-211zM455 -18q-64 0 -114.5 9.5t-85 25t-59 40t-38 49t-21.5 58.5t-10 61.5t-2 64.5v1196h286v-1160q0 -61 26.5 -95t90.5 -41l49 -3v-180q-71 -25 -122 -25z" />
    <glyph glyph-name="uni013B" unicode="&#x13b;" horiz-adv-x="1155" 
d="M162 1446h294v-1199h628v-247h-922v1446zM479 -440l92 149l-80 10v187h248v-156l-156 -190h-104z" />
    <glyph glyph-name="uni013C" unicode="&#x13c;" horiz-adv-x="658" 
d="M455 -18q-64 0 -114.5 9.5t-85 25t-59 40t-38 49t-21.5 58.5t-10 61.5t-2 64.5v1196h286v-1160q0 -61 26.5 -95t90.5 -41l49 -3v-180q-71 -25 -122 -25zM128 -440l92 150l-81 9v188h249v-156l-156 -191h-104z" />
    <glyph glyph-name="Lcaron" unicode="&#x13d;" horiz-adv-x="1155" 
d="M863 1014l81 201l-71 12v223h200v-233l-86 -203h-124zM162 1446h294v-1199h628v-247h-922v1446z" />
    <glyph glyph-name="lcaron" unicode="&#x13e;" horiz-adv-x="658" 
d="M455 -18q-64 0 -114.5 9.5t-85 25t-59 40t-38 49t-21.5 58.5t-10 61.5t-2 64.5v1196h286v-1160q0 -61 26.5 -95t90.5 -41l49 -3v-180q-71 -25 -122 -25zM524 1018l81 202l-71 12v222h200v-233l-86 -203h-124z" />
    <glyph glyph-name="Ldot" unicode="&#x13f;" horiz-adv-x="1155" 
d="M162 1446h294v-1199h628v-247h-922v1446zM1075 946v-288h-299v288h299z" />
    <glyph glyph-name="ldot" unicode="&#x140;" horiz-adv-x="831" 
d="M455 -18q-64 0 -114.5 9.5t-85 25t-59 40t-38 49t-21.5 58.5t-10 61.5t-2 64.5v1196h286v-1160q0 -61 26.5 -95t90.5 -41l49 -3v-180q-71 -25 -122 -25zM849 707v-287h-299v287h299z" />
    <glyph glyph-name="Lslash" unicode="&#x141;" horiz-adv-x="1180" 
d="M799 1016v-231l-319 -88v-450h628v-247h-922v615l-167 -47v242l167 44l1 592h293v-514z" />
    <glyph glyph-name="lslash" unicode="&#x142;" horiz-adv-x="742" 
d="M528 -18q-64 0 -114.5 9.5t-85 25t-59 40t-38 49t-21.5 58.5t-10 61.5t-2 64.5v104l-128 -92v250l128 90v844h286v-642l165 116v-238l-165 -120v-276q0 -61 26.5 -95t90.5 -41l48 -3v-180q-70 -25 -121 -25z" />
    <glyph glyph-name="Nacute" unicode="&#x143;" horiz-adv-x="1564" 
d="M881 1858h301l-296 -291h-211zM1111 1446h292v-1446h-263l-687 995v-995h-291v1446h289l660 -957v957z" />
    <glyph glyph-name="nacute" unicode="&#x144;" horiz-adv-x="1186" 
d="M705 1446h301l-297 -291h-210zM125 0v1034h287v-146q97 155 300 155q73 0 136.5 -21t115 -63t81 -113t29.5 -164v-682h-292v646q0 81 -48.5 124.5t-123.5 43.5q-78 0 -135.5 -40t-57.5 -112v-662h-292z" />
    <glyph glyph-name="uni0145" unicode="&#x145;" horiz-adv-x="1564" 
d="M1111 1446h292v-1446h-263l-687 995v-995h-291v1446h289l660 -957v957zM631 -440l91 149l-80 10v187h248v-156l-156 -190h-103z" />
    <glyph glyph-name="uni0146" unicode="&#x146;" horiz-adv-x="1186" 
d="M125 0v1034h287v-146q97 155 300 155q73 0 136.5 -21t115 -63t81 -113t29.5 -164v-682h-292v646q0 81 -48.5 124.5t-123.5 43.5q-78 0 -135.5 -40t-57.5 -112v-662h-292zM464 -440l91 149l-80 10v187h248v-156l-156 -190h-103z" />
    <glyph glyph-name="Ncaron" unicode="&#x147;" horiz-adv-x="1564" 
d="M680 1567l-263 261h217l146 -150l132 150h228l-257 -261h-203zM1111 1446h292v-1446h-263l-687 995v-995h-291v1446h289l660 -957v957z" />
    <glyph glyph-name="ncaron" unicode="&#x148;" horiz-adv-x="1186" 
d="M504 1155l-264 261h217l147 -150l131 150h229l-258 -261h-202zM125 0v1034h287v-146q97 155 300 155q73 0 136.5 -21t115 -63t81 -113t29.5 -164v-682h-292v646q0 81 -48.5 124.5t-123.5 43.5q-78 0 -135.5 -40t-57.5 -112v-662h-292z" />
    <glyph glyph-name="Eng" unicode="&#x14a;" horiz-adv-x="1567" 
d="M1403 -58q0 -110 -16 -184t-56.5 -130t-113.5 -82t-184 -26q-126 0 -249 32l6 267q7 -2 30 -7.5t37.5 -9t38 -6.5t44.5 -3q98 0 135 52t37 175v21l-659 954v-995h-291v1446h289l660 -957v957h292v-1321v-183z" />
    <glyph glyph-name="eng" unicode="&#x14b;" horiz-adv-x="1200" 
d="M733 -332q-49 0 -79 5.5t-36 10t-6 8.5v200l66 5q56 5 80.5 30t24.5 79v691q0 67 -37.5 105.5t-109.5 38.5q-117 0 -216 -125v-716h-295l4 1034h285v-160q89 90 174 135t178 45q141 0 225 -84t84 -223v-733q0 -161 -92.5 -253.5t-249.5 -92.5z" />
    <glyph glyph-name="Omacron" unicode="&#x14c;" horiz-adv-x="1521" 
d="M1113 1804v-187h-703v187h703zM763 -20q-308 0 -487.5 198t-179.5 542q0 345 181 545.5t486 200.5q303 0 482.5 -200.5t179.5 -545.5q0 -343 -178 -541.5t-484 -198.5zM763 220q345 0 345 496q0 262 -90.5 386t-254.5 124t-255.5 -124.5t-91.5 -385.5q0 -255 91 -375.5
t256 -120.5z" />
    <glyph glyph-name="omacron" unicode="&#x14d;" horiz-adv-x="1151" 
d="M928 1392v-187h-703v187h703zM576 -20q-229 0 -364.5 143.5t-135.5 387.5q0 246 136 394.5t365 148.5t364 -147.5t135 -395.5q0 -238 -134 -384.5t-366 -146.5zM577 197q108 0 160.5 91t52.5 233q0 65 -11 119.5t-34.5 100.5t-66.5 72t-101 26q-110 0 -163 -88t-53 -230
q0 -64 11 -119.5t35 -103t67.5 -74.5t102.5 -27z" />
    <glyph glyph-name="Obreve" unicode="&#x14e;" horiz-adv-x="1521" 
d="M1113 1821q-25 -122 -122 -188.5t-230 -66.5q-131 0 -228 66.5t-122 188.5h185q16 -50 59 -81t106 -31t107.5 31t60.5 81h184zM763 -20q-308 0 -487.5 198t-179.5 542q0 345 181 545.5t486 200.5q303 0 482.5 -200.5t179.5 -545.5q0 -343 -178 -541.5t-484 -198.5z
M763 220q345 0 345 496q0 262 -90.5 386t-254.5 124t-255.5 -124.5t-91.5 -385.5q0 -255 91 -375.5t256 -120.5z" />
    <glyph glyph-name="obreve" unicode="&#x14f;" horiz-adv-x="1151" 
d="M927 1409q-25 -121 -122 -188t-229 -67q-131 0 -228 66.5t-122 188.5h184q16 -51 59.5 -81.5t106.5 -30.5q62 0 106.5 31t61.5 81h183zM576 -20q-229 0 -364.5 143.5t-135.5 387.5q0 246 136 394.5t365 148.5t364 -147.5t135 -395.5q0 -238 -134 -384.5t-366 -146.5z
M577 197q108 0 160.5 91t52.5 233q0 65 -11 119.5t-34.5 100.5t-66.5 72t-101 26q-110 0 -163 -88t-53 -230q0 -64 11 -119.5t35 -103t67.5 -74.5t102.5 -27z" />
    <glyph glyph-name="Ohungarumlaut" unicode="&#x150;" horiz-adv-x="1521" 
d="M683 1858h266l-257 -291h-210zM1081 1858h276l-312 -291h-210zM763 -20q-308 0 -487.5 198t-179.5 542q0 345 181 545.5t486 200.5q303 0 482.5 -200.5t179.5 -545.5q0 -343 -178 -541.5t-484 -198.5zM763 220q345 0 345 496q0 262 -90.5 386t-254.5 124t-255.5 -124.5
t-91.5 -385.5q0 -255 91 -375.5t256 -120.5z" />
    <glyph glyph-name="ohungarumlaut" unicode="&#x151;" horiz-adv-x="1151" 
d="M497 1446h267l-257 -291h-211zM896 1446h275l-312 -291h-210zM576 -20q-229 0 -364.5 143.5t-135.5 387.5q0 246 136 394.5t365 148.5t364 -147.5t135 -395.5q0 -238 -134 -384.5t-366 -146.5zM577 197q108 0 160.5 91t52.5 233q0 65 -11 119.5t-34.5 100.5t-66.5 72
t-101 26q-110 0 -163 -88t-53 -230q0 -64 11 -119.5t35 -103t67.5 -74.5t102.5 -27z" />
    <glyph glyph-name="OE" unicode="&#x152;" horiz-adv-x="2254" 
d="M763 -20q-308 0 -487.5 198t-179.5 542q0 345 181 545.5t486 200.5q223 0 383 -112v92h994l-2 -246h-698v-351h606v-241h-608v-359l712 -1v-248h-1004v90q-159 -110 -383 -110zM763 220q345 0 345 496q0 262 -90.5 386t-254.5 124t-255.5 -124.5t-91.5 -385.5
q0 -255 91 -375.5t256 -120.5z" />
    <glyph glyph-name="oe" unicode="&#x153;" horiz-adv-x="1868" 
d="M576 -20q-229 0 -364.5 143.5t-135.5 387.5q0 246 136 394.5t365 148.5t363 -147q137 147 360 147q231 0 356.5 -143t125.5 -382v-79h-694q-1 -119 57.5 -189t162.5 -70q169 0 210 137h263q-17 -107 -88 -187.5t-169.5 -120.5t-208.5 -40q-233 0 -375 144
q-136 -144 -364 -144zM1087 624h422q0 99 -54 162.5t-155 63.5q-97 0 -155 -67.5t-58 -158.5zM577 197q108 0 160.5 91t52.5 233q0 65 -11 119.5t-34.5 100.5t-66.5 72t-101 26q-110 0 -163 -88t-53 -230q0 -64 11 -119.5t35 -103t67.5 -74.5t102.5 -27z" />
    <glyph glyph-name="Racute" unicode="&#x154;" horiz-adv-x="1392" 
d="M780 1858h301l-297 -291h-210zM1284 0h-303l-235 557h-293v-557h-291v1446h610q250 0 373.5 -116.5t123.5 -315.5q0 -283 -254 -408zM720 782q116 0 185 62t69 163q0 98 -65.5 157t-167.5 59h-288v-441h267z" />
    <glyph glyph-name="racute" unicode="&#x155;" horiz-adv-x="824" 
d="M548 1446h301l-296 -291h-211zM125 0v1034h281v-245q38 122 123.5 193.5t204.5 71.5q33 0 45 -6v-278q-11 5 -44 7q-165 14 -241.5 -43t-76.5 -168v-566h-292z" />
    <glyph glyph-name="uni0156" unicode="&#x156;" horiz-adv-x="1392" 
d="M1284 0h-303l-235 557h-293v-557h-291v1446h610q250 0 373.5 -116.5t123.5 -315.5q0 -283 -254 -408zM720 782q116 0 185 62t69 163q0 98 -65.5 157t-167.5 59h-288v-441h267zM562 -440l91 149l-80 10v187h249v-156l-156 -190h-104z" />
    <glyph glyph-name="uni0157" unicode="&#x157;" horiz-adv-x="824" 
d="M125 0v1034h281v-245q38 122 123.5 193.5t204.5 71.5q33 0 45 -6v-278q-11 5 -44 7q-165 14 -241.5 -43t-76.5 -168v-566h-292zM134 -440l91 149l-80 10v187h248v-156l-156 -190h-103z" />
    <glyph glyph-name="Rcaron" unicode="&#x158;" horiz-adv-x="1392" 
d="M578 1567l-263 261h217l147 -150l131 150h229l-258 -261h-203zM1284 0h-303l-235 557h-293v-557h-291v1446h610q250 0 373.5 -116.5t123.5 -315.5q0 -283 -254 -408zM720 782q116 0 185 62t69 163q0 98 -65.5 157t-167.5 59h-288v-441h267z" />
    <glyph glyph-name="rcaron" unicode="&#x159;" horiz-adv-x="824" 
d="M347 1155l-263 261h217l146 -150l132 150h228l-257 -261h-203zM125 0v1034h281v-245q38 122 123.5 193.5t204.5 71.5q33 0 45 -6v-278q-11 5 -44 7q-165 14 -241.5 -43t-76.5 -168v-566h-292z" />
    <glyph glyph-name="Sacute" unicode="&#x15a;" horiz-adv-x="1387" 
d="M797 1858h301l-296 -291h-211zM705 -20q-109 0 -211 27.5t-187 79.5t-140.5 136.5t-66.5 189.5h299q21 -97 103 -150.5t202 -53.5q126 0 209 47t83 135q0 76 -64 117.5t-181 65.5l-250 51q-168 32 -262.5 132.5t-96.5 263.5q-1 133 72.5 234.5t200 155t283.5 53.5
q270 0 422 -123.5t155 -314.5h-293q-22 206 -279 206q-116 0 -185.5 -49t-69.5 -128q0 -65 43.5 -103.5t155.5 -62.5l248 -51q101 -19 176 -58.5t115.5 -83.5t65 -102t31 -103t6.5 -98q0 -177 -163 -295t-421 -118z" />
    <glyph glyph-name="sacute" unicode="&#x15b;" horiz-adv-x="1055" 
d="M644 1446h301l-297 -291h-210zM541 -20q-84 0 -159 20t-139.5 60.5t-108.5 108.5t-57 157h252q19 -76 79.5 -111t131.5 -35q87 0 137 27t50 81q0 42 -30.5 67t-100.5 38l-182 38q-304 63 -305 296q-1 144 113.5 235.5t320.5 91.5q192 0 306 -85t116 -236h-244
q-11 60 -59.5 92.5t-122.5 32.5q-78 0 -125.5 -28t-47.5 -81q0 -40 39 -64t125 -41l168 -38q82 -20 140 -57t86.5 -81t40.5 -84t12 -80q0 -153 -119.5 -238.5t-316.5 -85.5z" />
    <glyph glyph-name="Scircumflex" unicode="&#x15c;" horiz-adv-x="1387" 
d="M828 1567l-132 140l-146 -140h-217l264 259h202l257 -259h-228zM705 -20q-109 0 -211 27.5t-187 79.5t-140.5 136.5t-66.5 189.5h299q21 -97 103 -150.5t202 -53.5q126 0 209 47t83 135q0 76 -64 117.5t-181 65.5l-250 51q-168 32 -262.5 132.5t-96.5 263.5
q-1 133 72.5 234.5t200 155t283.5 53.5q270 0 422 -123.5t155 -314.5h-293q-22 206 -279 206q-116 0 -185.5 -49t-69.5 -128q0 -65 43.5 -103.5t155.5 -62.5l248 -51q101 -19 176 -58.5t115.5 -83.5t65 -102t31 -103t6.5 -98q0 -177 -163 -295t-421 -118z" />
    <glyph glyph-name="scircumflex" unicode="&#x15d;" horiz-adv-x="1055" 
d="M674 1155l-131 140l-147 -140h-216l264 259h201l258 -259h-229zM541 -20q-84 0 -159 20t-139.5 60.5t-108.5 108.5t-57 157h252q19 -76 79.5 -111t131.5 -35q87 0 137 27t50 81q0 42 -30.5 67t-100.5 38l-182 38q-304 63 -305 296q-1 144 113.5 235.5t320.5 91.5
q192 0 306 -85t116 -236h-244q-11 60 -59.5 92.5t-122.5 32.5q-78 0 -125.5 -28t-47.5 -81q0 -40 39 -64t125 -41l168 -38q82 -20 140 -57t86.5 -81t40.5 -84t12 -80q0 -153 -119.5 -238.5t-316.5 -85.5z" />
    <glyph glyph-name="Scedilla" unicode="&#x15e;" horiz-adv-x="1387" 
d="M923 -263q0 -74 -69.5 -118t-169.5 -44q-142 0 -230 54l40 98q79 -49 155 -49q47 0 73 16.5t26 45.5q0 40 -39 60.5t-130 21.5q-14 0 -17.5 3t1.5 16l62 143q-99 9 -187.5 40.5t-161 83.5t-119.5 130.5t-57 174.5h299q21 -97 103 -150.5t202 -53.5q126 0 209 47t83 135
q0 76 -64 117.5t-181 65.5l-250 51q-168 32 -262.5 132.5t-96.5 263.5q-1 133 72.5 234.5t200 155t283.5 53.5q270 0 422 -123.5t155 -314.5h-293q-22 206 -279 206q-116 0 -185.5 -49t-69.5 -128q0 -65 43.5 -103.5t155.5 -62.5l248 -51q101 -19 176 -58.5t115.5 -83.5
t65 -102t31 -103.5t6.5 -98.5q0 -168 -148 -283.5t-387 -127.5l-33 -88q104 -2 153 -48.5t49 -107.5z" />
    <glyph glyph-name="scedilla" unicode="&#x15f;" horiz-adv-x="1055" 
d="M765 -263q0 -74 -70 -118t-170 -44q-142 0 -230 54l40 98q79 -49 155 -49q47 0 73 16.5t26 45.5q0 40 -39 60.5t-130 21.5q-14 0 -17.5 3t1.5 16l62 143q-152 18 -259 103.5t-130 238.5h252q19 -76 79.5 -111t131.5 -35q87 0 137 27t50 81q0 42 -30.5 67t-100.5 38
l-182 38q-304 63 -305 296q-1 144 113.5 235.5t320.5 91.5q192 0 306 -85t116 -236h-244q-11 60 -59.5 92.5t-122.5 32.5q-78 0 -125.5 -28t-47.5 -81q0 -40 39 -64t125 -41l168 -38q82 -20 140 -57t86.5 -81t40.5 -84t12 -80q0 -141 -103.5 -226t-277.5 -96l-34 -89
q104 -2 153.5 -48.5t49.5 -107.5z" />
    <glyph glyph-name="Scaron" unicode="&#x160;" horiz-adv-x="1387" 
d="M596 1567l-263 261h217l146 -150l132 150h228l-257 -261h-203zM705 -20q-109 0 -211 27.5t-187 79.5t-140.5 136.5t-66.5 189.5h299q21 -97 103 -150.5t202 -53.5q126 0 209 47t83 135q0 76 -64 117.5t-181 65.5l-250 51q-168 32 -262.5 132.5t-96.5 263.5
q-1 133 72.5 234.5t200 155t283.5 53.5q270 0 422 -123.5t155 -314.5h-293q-22 206 -279 206q-116 0 -185.5 -49t-69.5 -128q0 -65 43.5 -103.5t155.5 -62.5l248 -51q101 -19 176 -58.5t115.5 -83.5t65 -102t31 -103t6.5 -98q0 -177 -163 -295t-421 -118z" />
    <glyph glyph-name="scaron" unicode="&#x161;" horiz-adv-x="1055" 
d="M443 1155l-264 261h217l147 -150l131 150h229l-258 -261h-202zM541 -20q-84 0 -159 20t-139.5 60.5t-108.5 108.5t-57 157h252q19 -76 79.5 -111t131.5 -35q87 0 137 27t50 81q0 42 -30.5 67t-100.5 38l-182 38q-304 63 -305 296q-1 144 113.5 235.5t320.5 91.5
q192 0 306 -85t116 -236h-244q-11 60 -59.5 92.5t-122.5 32.5q-78 0 -125.5 -28t-47.5 -81q0 -40 39 -64t125 -41l168 -38q82 -20 140 -57t86.5 -81t40.5 -84t12 -80q0 -153 -119.5 -238.5t-316.5 -85.5z" />
    <glyph glyph-name="uni0162" unicode="&#x162;" horiz-adv-x="1232" 
d="M865 -262q0 -74 -69.5 -118t-169.5 -44q-142 0 -230 54l40 99q79 -50 154 -50q47 0 73.5 16.5t26.5 45.5q0 41 -39.5 61t-130.5 21q-14 0 -17 3t1 16l69 158h-98v1186h-437v260h1157v-260h-427v-1186h-66l-40 -106q104 -2 153.5 -48t49.5 -108z" />
    <glyph glyph-name="uni0163" unicode="&#x163;" horiz-adv-x="833" 
d="M716 -251q0 -74 -69.5 -118t-169.5 -44q-142 0 -230 54l40 99q81 -50 154 -50q47 0 73.5 16.5t26.5 45.5q0 41 -39 61t-130 21q-14 0 -17.5 3.5t0.5 15.5l66 151q-106 26 -149.5 92t-43.5 172v563h-168v203h177l74 312h208v-311h230v-204h-230l2 -551q0 -54 20 -70
t72 -16h139v-180q-58 -25 -181 -25h-25l-32 -84q103 -2 152.5 -48t49.5 -108z" />
    <glyph glyph-name="Tcaron" unicode="&#x164;" horiz-adv-x="1232" 
d="M533 1567l-263 261h217l147 -150l131 150h229l-258 -261h-203zM38 1186v260h1157v-260h-427v-1186h-293v1186h-437z" />
    <glyph glyph-name="tcaron" unicode="&#x165;" horiz-adv-x="900" 
d="M831 1010l81 202l-71 12v222h199v-233l-85 -203h-124zM749 831h-230l2 -551q0 -54 20 -70t72 -16h139v-180q-58 -25 -181 -25q-100 0 -168.5 19.5t-106 58t-53 87t-15.5 114.5v563h-168v203h177l74 312h208v-311h230v-204z" />
    <glyph glyph-name="Tbar" unicode="&#x166;" horiz-adv-x="1232" 
d="M38 1186v260h1157v-260h-427v-376h252v-214h-252v-596h-293v596h-265v214h265v376h-437z" />
    <glyph glyph-name="tbar" unicode="&#x167;" horiz-adv-x="867" 
d="M708 646v-166h-162l1 -200q0 -54 20 -70t72 -16h139v-180q-56 -25 -181 -25q-100 0 -168.5 19.5t-106 58t-53 87t-15.5 114.5v212h-184v166h184v185h-168v203h178l73 312h208v-311h230v-204h-230l1 -185h162z" />
    <glyph glyph-name="Utilde" unicode="&#x168;" horiz-adv-x="1448" 
d="M1091 1682q-82 -70 -201 -70q-57 0 -147 27.5t-140 27.5q-48 0 -81.5 -14.5t-75.5 -49.5l-45 153q43 44 87 67.5t106 23.5q59 0 156 -30.5t139 -30.5q75 0 166 69zM1319 551q0 -276 -137.5 -423.5t-441.5 -147.5q-156 0 -268.5 39.5t-179.5 116.5t-98.5 181.5
t-31.5 243.5v885h297v-907q0 -156 75 -233.5t206 -77.5t207.5 77t76.5 234v907h295v-895z" />
    <glyph glyph-name="utilde" unicode="&#x169;" horiz-adv-x="1190" 
d="M942 1270q-84 -70 -202 -70q-57 0 -147 27.5t-140 27.5q-47 0 -81 -15t-76 -49l-44 153q42 44 86 67.5t106 23.5q59 0 156 -30.5t139 -30.5q74 0 167 69zM506 -20q-73 0 -142 23t-126 64t-91.5 107t-34.5 145v715h292v-678q0 -74 48 -119t137 -45q86 0 136.5 44.5
t50.5 124.5v673h289v-1034h-220l-34 205q-11 -52 -34.5 -92.5t-53.5 -65.5t-68 -40.5t-74 -21t-75 -5.5z" />
    <glyph glyph-name="Umacron" unicode="&#x16a;" horiz-adv-x="1448" 
d="M1092 1804v-187h-703v187h703zM1319 551q0 -276 -137.5 -423.5t-441.5 -147.5q-156 0 -268.5 39.5t-179.5 116.5t-98.5 181.5t-31.5 243.5v885h297v-907q0 -156 75 -233.5t206 -77.5t207.5 77t76.5 234v907h295v-895z" />
    <glyph glyph-name="umacron" unicode="&#x16b;" horiz-adv-x="1190" 
d="M943 1392v-187h-703v187h703zM506 -20q-73 0 -142 23t-126 64t-91.5 107t-34.5 145v715h292v-678q0 -74 48 -119t137 -45q86 0 136.5 44.5t50.5 124.5v673h289v-1034h-220l-34 205q-11 -52 -34.5 -92.5t-53.5 -65.5t-68 -40.5t-74 -21t-75 -5.5z" />
    <glyph glyph-name="Ubreve" unicode="&#x16c;" horiz-adv-x="1448" 
d="M1092 1821q-25 -122 -122 -188.5t-230 -66.5q-131 0 -228 66.5t-122 188.5h185q16 -50 59 -81t106 -31t107.5 31t60.5 81h184zM1319 551q0 -276 -137.5 -423.5t-441.5 -147.5q-156 0 -268.5 39.5t-179.5 116.5t-98.5 181.5t-31.5 243.5v885h297v-907q0 -156 75 -233.5
t206 -77.5t207.5 77t76.5 234v907h295v-895z" />
    <glyph glyph-name="ubreve" unicode="&#x16d;" horiz-adv-x="1190" 
d="M942 1409q-25 -121 -122 -188t-229 -67q-131 0 -228 66.5t-122 188.5h184q16 -51 59.5 -81.5t106.5 -30.5q62 0 106.5 31t61.5 81h183zM506 -20q-73 0 -142 23t-126 64t-91.5 107t-34.5 145v715h292v-678q0 -74 48 -119t137 -45q86 0 136.5 44.5t50.5 124.5v673h289
v-1034h-220l-34 205q-11 -52 -34.5 -92.5t-53.5 -65.5t-68 -40.5t-74 -21t-75 -5.5z" />
    <glyph glyph-name="Uring" unicode="&#x16e;" horiz-adv-x="1448" 
d="M959 1764q0 -91 -63.5 -154t-154.5 -63t-154 64t-63 157q0 88 63.5 149t153.5 61q91 0 154.5 -62.5t63.5 -151.5zM838 1763q0 43 -28.5 71t-70.5 28q-41 0 -71 -28.5t-30 -70.5q0 -41 30.5 -71.5t70.5 -30.5q41 0 70 30.5t29 71.5zM1319 551q0 -276 -137.5 -423.5
t-441.5 -147.5q-156 0 -268.5 39.5t-179.5 116.5t-98.5 181.5t-31.5 243.5v885h297v-907q0 -156 75 -233.5t206 -77.5t207.5 77t76.5 234v907h295v-895z" />
    <glyph glyph-name="uring" unicode="&#x16f;" horiz-adv-x="1190" 
d="M810 1352q0 -91 -63.5 -154t-154.5 -63q-92 0 -155 64t-63 157q0 88 64 149t154 61q91 0 154.5 -62.5t63.5 -151.5zM689 1351q0 42 -28.5 70.5t-70.5 28.5t-72 -28.5t-30 -70.5q0 -41 30.5 -71.5t71.5 -30.5t70 30.5t29 71.5zM506 -20q-73 0 -142 23t-126 64t-91.5 107
t-34.5 145v715h292v-678q0 -74 48 -119t137 -45q86 0 136.5 44.5t50.5 124.5v673h289v-1034h-220l-34 205q-11 -52 -34.5 -92.5t-53.5 -65.5t-68 -40.5t-74 -21t-75 -5.5z" />
    <glyph glyph-name="Uhungarumlaut" unicode="&#x170;" horiz-adv-x="1448" 
d="M662 1858h266l-257 -291h-210zM1060 1858h276l-312 -291h-210zM1319 551q0 -276 -137.5 -423.5t-441.5 -147.5q-156 0 -268.5 39.5t-179.5 116.5t-98.5 181.5t-31.5 243.5v885h297v-907q0 -156 75 -233.5t206 -77.5t207.5 77t76.5 234v907h295v-895z" />
    <glyph glyph-name="uhungarumlaut" unicode="&#x171;" horiz-adv-x="1190" 
d="M512 1446h267l-257 -291h-211zM911 1446h275l-312 -291h-210zM506 -20q-73 0 -142 23t-126 64t-91.5 107t-34.5 145v715h292v-678q0 -74 48 -119t137 -45q86 0 136.5 44.5t50.5 124.5v673h289v-1034h-220l-34 205q-11 -52 -34.5 -92.5t-53.5 -65.5t-68 -40.5t-74 -21
t-75 -5.5z" />
    <glyph glyph-name="Uogonek" unicode="&#x172;" horiz-adv-x="1448" 
d="M530 -171q0 48 25 85.5t89 69.5q-254 23 -368 170.5t-114 406.5v885h297v-907q0 -156 75 -233.5t206 -77.5t207.5 77t76.5 234v907h295v-895q0 -245 -107.5 -389t-343.5 -174q-70 -31 -98.5 -59.5t-28.5 -63.5q0 -64 72 -64q70 0 145 44v-133q-31 -18 -89.5 -32.5
t-121.5 -14.5q-103 0 -160 42.5t-57 121.5z" />
    <glyph glyph-name="uogonek" unicode="&#x173;" horiz-adv-x="1190" 
d="M506 -20q-73 0 -142 23t-126 64t-91.5 107t-34.5 145v715h292v-678q0 -74 48 -119t137 -45q86 0 136.5 44.5t50.5 124.5v673h289v-1034h-32q-89 -35 -125 -66.5t-36 -70.5q0 -64 72 -64q67 0 145 44v-132q-31 -19 -89 -33.5t-121 -14.5q-104 0 -161 42.5t-57 122.5
q0 58 39.5 102.5t142.5 80.5l-32 194q-11 -52 -34.5 -92.5t-53.5 -65.5t-68 -40.5t-74 -21t-75 -5.5z" />
    <glyph glyph-name="Wcircumflex" unicode="&#x174;" horiz-adv-x="1937" 
d="M1098 1567l-132 140l-146 -140h-217l265 259h201l257 -259h-228zM1899 1446l-427 -1446h-233l-272 945l-274 -945h-229l-426 1446h286l269 -955l269 955h211l272 -955l269 955h285z" />
    <glyph glyph-name="wcircumflex" unicode="&#x175;" horiz-adv-x="1585" 
d="M931 1155l-132 140l-146 -140h-217l265 259h201l257 -259h-228zM1552 1034l-340 -1034h-233l-192 626l-193 -626h-226l-335 1034h259l198 -641h7l190 641h209l192 -641h8l192 641h264z" />
    <glyph glyph-name="Ycircumflex" unicode="&#x176;" horiz-adv-x="1335" 
d="M831 1568l-131 140l-146 -140h-217l264 260h202l257 -260h-229zM1316 1446l-503 -838v-608h-292v609l-502 837h316l333 -586l329 586h319z" />
    <glyph glyph-name="ycircumflex" unicode="&#x177;" horiz-adv-x="1126" 
d="M702 1155l-131 140l-147 -140h-216l264 259h201l258 -259h-229zM287 -330q-63 0 -111.5 9t-65.5 17l-17 9v186l103 -4q49 -3 87 3.5t58 15t36.5 27t20 25.5t10.5 24q1 3 2 4l19 57l-402 991h289l248 -674l250 674h286l-419 -1040q-40 -97 -84 -161.5t-94 -99.5t-101 -49
t-115 -14z" />
    <glyph glyph-name="Ydieresis" unicode="&#x178;" horiz-adv-x="1335" 
d="M796 1597l3 238h274l-3 -238h-274zM330 1597l3 238h274l-3 -238h-274zM1316 1446l-503 -838v-608h-292v609l-502 837h316l333 -586l329 586h319z" />
    <glyph glyph-name="Zacute" unicode="&#x179;" horiz-adv-x="1339" 
d="M821 1858h301l-296 -291h-211zM108 0v142l734 1060h-685v244h1101v-136l-744 -1063h736v-247h-1142z" />
    <glyph glyph-name="zacute" unicode="&#x17a;" horiz-adv-x="993" 
d="M600 1446h301l-296 -291h-211zM63 0v163l510 667h-484v204h838v-163l-511 -667h514v-204h-867z" />
    <glyph glyph-name="Zdotaccent" unicode="&#x17b;" horiz-adv-x="1339" 
d="M582 1596v238h278v-238h-278zM108 0v142l734 1060h-685v244h1101v-136l-744 -1063h736v-247h-1142z" />
    <glyph glyph-name="zdotaccent" unicode="&#x17c;" horiz-adv-x="993" 
d="M360 1184v238h279v-238h-279zM63 0v163l510 667h-484v204h838v-163l-511 -667h514v-204h-867z" />
    <glyph glyph-name="Zcaron" unicode="&#x17d;" horiz-adv-x="1339" 
d="M620 1567l-263 261h217l146 -150l132 150h228l-257 -261h-203zM108 0v142l734 1060h-685v244h1101v-136l-744 -1063h736v-247h-1142z" />
    <glyph glyph-name="zcaron" unicode="&#x17e;" horiz-adv-x="993" 
d="M399 1155l-264 261h218l146 -150l131 150h229l-257 -261h-203zM63 0v163l510 667h-484v204h838v-163l-511 -667h514v-204h-867z" />
    <glyph glyph-name="uni018F" unicode="&#x18f;" horiz-adv-x="1518" 
d="M757 -20q-149 0 -268 48t-207.5 146t-136.5 257t-48 370h977q0 187 -84.5 290t-238.5 103q-144 0 -235.5 -79t-91.5 -170h-328q0 70 29 143t87 140.5t136 120.5t184.5 85t224.5 32q313 0 489 -191.5t176 -539.5q0 -187 -49 -332.5t-138 -237t-209.5 -138.5t-268.5 -47z
M757 236q150 0 231 95.5t83 255.5l-618 2q0 -160 79.5 -256.5t224.5 -96.5z" />
    <glyph glyph-name="florin" unicode="&#x192;" horiz-adv-x="1038" 
d="M915 1034l-37 -203h-217l-157 -897q-22 -126 -108.5 -197.5t-220.5 -71.5h-230l29 196h119q60 1 88 30t41 108l147 832h-168l36 203h167l26 149q23 125 109 194t218 69h238l-32 -194h-132q-44 0 -79.5 -34.5t-44.5 -85.5l-17 -98h225z" />
    <glyph glyph-name="Ohorn" unicode="&#x1a0;" horiz-adv-x="1670" 
d="M763 -20q-308 0 -487.5 198t-179.5 542q0 345 181 545.5t486 200.5q297 0 475 -192q36 0 56 1.5t42.5 8t34.5 20t24 37t17.5 58.5t9.5 86h193q-2 -188 -62.5 -272t-212.5 -88q85 -172 85 -405q0 -343 -178 -541.5t-484 -198.5zM763 220q345 0 345 496q0 262 -90.5 386
t-254.5 124t-255.5 -124.5t-91.5 -385.5q0 -255 91 -375.5t256 -120.5z" />
    <glyph glyph-name="ohorn" unicode="&#x1a1;" horiz-adv-x="1282" 
d="M576 -20q-229 0 -364.5 143.5t-135.5 387.5q0 246 136 394.5t365 148.5q232 0 368 -152q55 1 82.5 15t45.5 59t25 137h192q-2 -182 -58.5 -266.5t-197.5 -93.5q42 -109 42 -242q0 -238 -134 -384.5t-366 -146.5zM577 197q108 0 160.5 91t52.5 233q0 65 -11 119.5
t-34.5 100.5t-66.5 72t-101 26q-110 0 -163 -88t-53 -230q0 -64 11 -119.5t35 -103t67.5 -74.5t102.5 -27z" />
    <glyph glyph-name="Uhorn" unicode="&#x1af;" horiz-adv-x="1721" 
d="M1319 551q0 -276 -137.5 -423.5t-441.5 -147.5q-156 0 -268.5 39.5t-179.5 116.5t-98.5 181.5t-31.5 243.5v885h297v-907q0 -156 75 -233.5t206 -77.5t207.5 77t76.5 234v907h295v-171q48 2 74 17.5t43 60.5t23 132h192q-1 -103 -17 -170.5t-54.5 -113t-102 -63
t-158.5 -12.5v-575z" />
    <glyph glyph-name="uhorn" unicode="&#x1b0;" horiz-adv-x="1420" 
d="M506 -20q-73 0 -142 23t-126 64t-91.5 107t-34.5 145v715h292v-678q0 -74 48 -119t137 -45q86 0 136.5 44.5t50.5 124.5v673h289v-132q41 1 65 8t43.5 29t29.5 63.5t15 110.5h193q-2 -207 -77 -289.5t-269 -69.5v-754h-220l-34 205q-11 -52 -34.5 -92.5t-53.5 -65.5
t-68 -40.5t-74 -21t-75 -5.5z" />
    <glyph glyph-name="uni01D4" unicode="&#x1d4;" horiz-adv-x="1190" 
d="M490 1155l-263 261h217l146 -150l132 150h228l-257 -261h-203zM506 -20q-73 0 -142 23t-126 64t-91.5 107t-34.5 145v715h292v-678q0 -74 48 -119t137 -45q86 0 136.5 44.5t50.5 124.5v673h289v-1034h-220l-34 205q-11 -52 -34.5 -92.5t-53.5 -65.5t-68 -40.5t-74 -21
t-75 -5.5z" />
    <glyph glyph-name="uni01EA" unicode="&#x1ea;" horiz-adv-x="1521" 
d="M568 -174q0 101 118 157q-275 26 -432.5 220.5t-157.5 516.5q0 345 181 545.5t486 200.5q303 0 482.5 -200.5t179.5 -545.5q0 -286 -126 -474t-351 -244q-94 -36 -131.5 -68t-37.5 -72q0 -64 72 -64q70 0 145 44v-132q-31 -19 -89 -33.5t-121 -14.5q-104 0 -161 42
t-57 122zM763 220q345 0 345 496q0 262 -90.5 386t-254.5 124t-255.5 -124.5t-91.5 -385.5q0 -255 91 -375.5t256 -120.5z" />
    <glyph glyph-name="uni01EB" unicode="&#x1eb;" horiz-adv-x="1151" 
d="M357 -173q0 49 27.5 88.5t97.5 71.5q-189 29 -297.5 168t-108.5 356q0 246 136 394.5t365 148.5t364 -147.5t135 -395.5q0 -193 -90 -329t-253 -181q-91 -35 -127.5 -67t-36.5 -71q0 -64 72 -64q70 0 144 43v-132q-29 -19 -87.5 -33t-122.5 -14q-103 0 -160.5 42.5
t-57.5 121.5zM577 197q108 0 160.5 91t52.5 233q0 65 -11 119.5t-34.5 100.5t-66.5 72t-101 26q-110 0 -163 -88t-53 -230q0 -64 11 -119.5t35 -103t67.5 -74.5t102.5 -27z" />
    <glyph glyph-name="Aringacute" unicode="&#x1fa;" horiz-adv-x="1453" 
d="M55 0l511 1427q-47 55 -47 133q0 69 42 119.5t108 67.5l31 133h171l-60 -142q56 -23 90 -71.5t34 -110.5q0 -75 -47 -130l510 -1426h-291l-118 335h-521l-120 -335h-293zM724 1452q41 0 71 31t30 71q0 42 -29.5 70.5t-71.5 28.5q-41 0 -71 -28.5t-30 -70.5
q0 -40 30.5 -71t70.5 -31zM534 590h384l-191 575z" />
    <glyph glyph-name="aringacute" unicode="&#x1fb;" horiz-adv-x="1133" 
d="M432 -20q-153 0 -251 84.5t-98 231.5q0 172 129 259.5t399 90.5l130 2v62q0 148 -171 147q-70 -1 -125 -32.5t-75 -98.5h-243q7 127 85 205.5t211 106.5q-52 57 -52 138q0 68 42 119t109 69l31 132h170l-59 -142q56 -22 90 -70.5t34 -111.5q0 -76 -49 -130
q282 -52 282 -315v-727h-244l-24 178q-51 -108 -129 -153t-192 -45zM577 1068q41 0 70.5 31t29.5 71q0 42 -29 70.5t-71 28.5q-41 0 -71 -28.5t-30 -70.5q0 -40 30.5 -71t70.5 -31zM531 172q79 0 144 53.5t66 119.5v153l-105 -2q-122 -2 -199 -42.5t-77 -128.5
q0 -70 48.5 -111.5t122.5 -41.5z" />
    <glyph glyph-name="AEacute" unicode="&#x1fc;" horiz-adv-x="2080" 
d="M1436 1858h300l-296 -291h-210zM1976 244v-244h-1039v338h-466l-178 -338h-293l774 1446h1181l-1 -243h-685v-355h593v-240h-593v-364h707zM937 590v665l-356 -665h356z" />
    <glyph glyph-name="aeacute" unicode="&#x1fd;" horiz-adv-x="1827" 
d="M964 1446h301l-296 -291h-211zM432 -20q-153 0 -251 84.5t-98 231.5q0 172 129 259.5t400 90.5l130 2v62q0 72 -45 110t-127 37q-69 -1 -124.5 -33.5t-75.5 -97.5h-243q8 157 133 242.5t324 85.5q247 0 357 -108q129 108 318 108q231 0 356.5 -143t125.5 -382v-79h-694
q-2 -119 57 -189t163 -70q168 0 210 137h263q-17 -107 -88 -187.5t-169.5 -120.5t-208.5 -40q-142 0 -254 56.5t-179 159.5q-37 -103 -142.5 -159.5t-266.5 -56.5zM1046 624h422q0 99 -54 162.5t-155 63.5q-97 0 -155.5 -67.5t-57.5 -158.5zM531 172q88 0 148.5 58.5
t62.5 129.5v138l-106 -2q-122 -2 -199 -42.5t-77 -128.5q0 -70 48.5 -111.5t122.5 -41.5z" />
    <glyph glyph-name="Oslashacute" unicode="&#x1fe;" horiz-adv-x="1552" 
d="M868 1858h301l-296 -291h-211zM172 -27l-129 131l167 172q-106 178 -106 443q0 346 180 546.5t486 200.5q271 0 443 -161l162 166l127 -129l-174 -182q105 -179 105 -440q0 -343 -178.5 -541.5t-485.5 -198.5q-267 0 -439 153zM476 538l534 566q-76 130 -240 130
q-140 0 -215.5 -96.5t-90.5 -297.5q-11 -144 12 -302zM771 215q135 0 208 86.5t89 268.5q15 146 -8 327l-531 -564q78 -118 242 -118z" />
    <glyph glyph-name="oslashacute" unicode="&#x1ff;" horiz-adv-x="1223" 
d="M706 1446h301l-297 -291h-210zM625 -20q-215 0 -349 128l-129 -123l-96 103l140 133q-66 123 -66 290q0 246 136 394.5t365 148.5q198 0 327 -112l111 104l95 -102l-115 -109q81 -136 81 -324q0 -238 -134 -384.5t-366 -146.5zM410 521q0 -45 6 -88l357 339
q-54 67 -147 67q-110 0 -163 -88t-53 -230zM626 197q108 0 161 91t53 233q0 61 -10 111l-366 -347q56 -88 162 -88z" />
    <glyph glyph-name="uni0200" unicode="&#x200;" horiz-adv-x="1453" 
d="M804 1858l201 -291h-210l-258 291h267zM406 1858l246 -291h-210l-312 291h276zM55 0l517 1446h309l517 -1446h-291l-118 335h-521l-120 -335h-293zM534 590h384l-191 575z" />
    <glyph glyph-name="uni0201" unicode="&#x201;" horiz-adv-x="1133" 
d="M664 1446l201 -291h-210l-258 291h267zM266 1446l246 -291h-210l-312 291h276zM432 -20q-153 0 -251 84.5t-98 231.5q0 172 129 259.5t399 90.5l130 2v62q0 148 -171 147q-70 -1 -125 -32.5t-75 -98.5h-243q8 162 131.5 245t325.5 83q229 0 333 -84t104 -243v-727h-244
l-24 178q-51 -108 -129 -153t-192 -45zM531 172q79 0 144 53.5t66 119.5v153l-105 -2q-122 -2 -199 -42.5t-77 -128.5q0 -70 48.5 -111.5t122.5 -41.5z" />
    <glyph glyph-name="uni0202" unicode="&#x202;" horiz-adv-x="1453" 
d="M1076 1592h-184q-16 51 -60.5 82t-107.5 31t-106.5 -31t-58.5 -82h-185q25 122 122 188.5t228 66.5q133 0 230 -66.5t122 -188.5zM55 0l517 1446h309l517 -1446h-291l-118 335h-521l-120 -335h-293zM534 590h384l-191 575z" />
    <glyph glyph-name="uni0203" unicode="&#x203;" horiz-adv-x="1133" 
d="M936 1180h-184q-16 51 -61 82t-107 31q-63 0 -106.5 -31t-59.5 -82h-184q25 122 122 188.5t228 66.5q132 0 229.5 -67t122.5 -188zM432 -20q-153 0 -251 84.5t-98 231.5q0 172 129 259.5t399 90.5l130 2v62q0 148 -171 147q-70 -1 -125 -32.5t-75 -98.5h-243
q8 162 131.5 245t325.5 83q229 0 333 -84t104 -243v-727h-244l-24 178q-51 -108 -129 -153t-192 -45zM531 172q79 0 144 53.5t66 119.5v153l-105 -2q-122 -2 -199 -42.5t-77 -128.5q0 -70 48.5 -111.5t122.5 -41.5z" />
    <glyph glyph-name="uni0204" unicode="&#x204;" horiz-adv-x="1269" 
d="M737 1858l201 -291h-210l-258 291h267zM339 1858l246 -291h-210l-312 291h276zM162 0v1446h993l-1 -246h-699v-351h607v-241h-609v-359l712 -1v-248h-1003z" />
    <glyph glyph-name="uni0205" unicode="&#x205;" horiz-adv-x="1153" 
d="M663 1446l201 -291h-210l-257 291h266zM265 1446l247 -291h-211l-311 291h275zM372 450q-1 -119 58 -189t163 -70q168 0 210 137h263q-17 -107 -88 -187.5t-170 -120.5t-208 -40q-232 0 -374.5 143t-142.5 382q0 157 58.5 280.5t173.5 196t270 72.5q231 0 356.5 -143
t125.5 -382v-79h-695zM372 624h422q0 99 -54.5 162.5t-155.5 63.5q-96 0 -154.5 -67.5t-57.5 -158.5z" />
    <glyph glyph-name="uni0206" unicode="&#x206;" horiz-adv-x="1269" 
d="M1009 1592h-184q-16 51 -60.5 82t-107.5 31t-106.5 -31t-58.5 -82h-185q25 122 122 188.5t228 66.5q132 0 229.5 -67t122.5 -188zM162 0v1446h993l-1 -246h-699v-351h607v-241h-609v-359l712 -1v-248h-1003z" />
    <glyph glyph-name="uni0207" unicode="&#x207;" horiz-adv-x="1153" 
d="M935 1180h-183q-17 51 -61.5 82t-107.5 31t-106.5 -31t-58.5 -82h-185q25 122 122 188.5t228 66.5q133 0 230 -66.5t122 -188.5zM372 450q-1 -119 58 -189t163 -70q168 0 210 137h263q-17 -107 -88 -187.5t-170 -120.5t-208 -40q-232 0 -374.5 143t-142.5 382
q0 157 58.5 280.5t173.5 196t270 72.5q231 0 356.5 -143t125.5 -382v-79h-695zM372 624h422q0 99 -54.5 162.5t-155.5 63.5q-96 0 -154.5 -67.5t-57.5 -158.5z" />
    <glyph glyph-name="uni0208" unicode="&#x208;" horiz-adv-x="615" 
d="M386 1858l201 -291h-210l-258 291h267zM-12 1858l246 -291h-210l-312 291h276zM162 1446h291v-1446h-291v1446z" />
    <glyph glyph-name="uni0209" unicode="&#x209;" horiz-adv-x="529" 
d="M346 1446l201 -291h-210l-258 291h267zM-52 1446l246 -291h-210l-312 291h276zM404 1034v-1034h-279v1034h279z" />
    <glyph glyph-name="uni020A" unicode="&#x20a;" horiz-adv-x="615" 
d="M658 1592h-184q-16 51 -61 82t-107 31q-63 0 -106.5 -31t-59.5 -82h-184q25 122 122 188.5t228 66.5q132 0 229.5 -67t122.5 -188zM162 1446h291v-1446h-291v1446z" />
    <glyph glyph-name="uni020B" unicode="&#x20b;" horiz-adv-x="692" 
d="M695 1180h-184q-16 51 -60.5 82t-107.5 31t-106.5 -31t-58.5 -82h-185q25 122 122 188.5t228 66.5q132 0 229.5 -67t122.5 -188zM481 1034v-1034h-279v1034h279z" />
    <glyph glyph-name="uni020C" unicode="&#x20c;" horiz-adv-x="1521" 
d="M839 1858l201 -291h-210l-257 291h266zM441 1858l247 -291h-211l-311 291h275zM763 -20q-308 0 -487.5 198t-179.5 542q0 345 181 545.5t486 200.5q303 0 482.5 -200.5t179.5 -545.5q0 -343 -178 -541.5t-484 -198.5zM763 220q345 0 345 496q0 262 -90.5 386t-254.5 124
t-255.5 -124.5t-91.5 -385.5q0 -255 91 -375.5t256 -120.5z" />
    <glyph glyph-name="uni020D" unicode="&#x20d;" horiz-adv-x="1151" 
d="M654 1446l201 -291h-211l-257 291h267zM255 1446l247 -291h-210l-312 291h275zM576 -20q-229 0 -364.5 143.5t-135.5 387.5q0 246 136 394.5t365 148.5t364 -147.5t135 -395.5q0 -238 -134 -384.5t-366 -146.5zM577 197q108 0 160.5 91t52.5 233q0 65 -11 119.5
t-34.5 100.5t-66.5 72t-101 26q-110 0 -163 -88t-53 -230q0 -64 11 -119.5t35 -103t67.5 -74.5t102.5 -27z" />
    <glyph glyph-name="uni020E" unicode="&#x20e;" horiz-adv-x="1521" 
d="M1111 1592h-183q-17 51 -61.5 82t-107.5 31t-106.5 -31t-58.5 -82h-185q25 122 122 188.5t228 66.5q133 0 230 -66.5t122 -188.5zM763 -20q-308 0 -487.5 198t-179.5 542q0 345 181 545.5t486 200.5q303 0 482.5 -200.5t179.5 -545.5q0 -343 -178 -541.5t-484 -198.5z
M763 220q345 0 345 496q0 262 -90.5 386t-254.5 124t-255.5 -124.5t-91.5 -385.5q0 -255 91 -375.5t256 -120.5z" />
    <glyph glyph-name="uni020F" unicode="&#x20f;" horiz-adv-x="1151" 
d="M925 1180h-183q-17 51 -61.5 82t-106.5 31q-63 0 -106.5 -31t-59.5 -82h-184q25 122 122 188.5t228 66.5q132 0 229 -67t122 -188zM576 -20q-229 0 -364.5 143.5t-135.5 387.5q0 246 136 394.5t365 148.5t364 -147.5t135 -395.5q0 -238 -134 -384.5t-366 -146.5zM577 197
q108 0 160.5 91t52.5 233q0 65 -11 119.5t-34.5 100.5t-66.5 72t-101 26q-110 0 -163 -88t-53 -230q0 -64 11 -119.5t35 -103t67.5 -74.5t102.5 -27z" />
    <glyph glyph-name="uni0210" unicode="&#x210;" horiz-adv-x="1392" 
d="M757 1858l201 -291h-210l-258 291h267zM359 1858l246 -291h-210l-312 291h276zM1284 0h-303l-235 557h-293v-557h-291v1446h610q250 0 373.5 -116.5t123.5 -315.5q0 -283 -254 -408zM720 782q116 0 185 62t69 163q0 98 -65.5 157t-167.5 59h-288v-441h267z" />
    <glyph glyph-name="uni0211" unicode="&#x211;" horiz-adv-x="824" 
d="M525 1446l202 -291h-211l-257 291h266zM127 1446l247 -291h-210l-312 291h275zM125 0v1034h281v-245q38 122 123.5 193.5t204.5 71.5q33 0 45 -6v-278q-11 5 -44 7q-165 14 -241.5 -43t-76.5 -168v-566h-292z" />
    <glyph glyph-name="uni0212" unicode="&#x212;" horiz-adv-x="1392" 
d="M1029 1592h-184q-16 51 -60.5 82t-107.5 31t-106.5 -31t-58.5 -82h-185q25 122 122 188.5t228 66.5q132 0 229.5 -67t122.5 -188zM1284 0h-303l-235 557h-293v-557h-291v1446h610q250 0 373.5 -116.5t123.5 -315.5q0 -283 -254 -408zM720 782q116 0 185 62t69 163
q0 98 -65.5 157t-167.5 59h-288v-441h267z" />
    <glyph glyph-name="uni0213" unicode="&#x213;" horiz-adv-x="824" 
d="M797 1153h-183q-17 50 -61.5 81t-106.5 31q-63 0 -106.5 -30.5t-59.5 -81.5h-184q25 122 122 188.5t228 66.5q132 0 229 -67t122 -188zM125 0v1034h281v-245q38 122 123.5 193.5t204.5 71.5q33 0 45 -6v-278q-11 5 -44 7q-165 14 -241.5 -43t-76.5 -168v-566h-292z" />
    <glyph glyph-name="uni0214" unicode="&#x214;" horiz-adv-x="1448" 
d="M818 1858l201 -291h-210l-257 291h266zM420 1858l247 -291h-211l-311 291h275zM1319 551q0 -276 -137.5 -423.5t-441.5 -147.5q-156 0 -268.5 39.5t-179.5 116.5t-98.5 181.5t-31.5 243.5v885h297v-907q0 -156 75 -233.5t206 -77.5t207.5 77t76.5 234v907h295v-895z" />
    <glyph glyph-name="uni0215" unicode="&#x215;" horiz-adv-x="1190" 
d="M669 1446l201 -291h-211l-257 291h267zM270 1446l247 -291h-210l-312 291h275zM506 -20q-73 0 -142 23t-126 64t-91.5 107t-34.5 145v715h292v-678q0 -74 48 -119t137 -45q86 0 136.5 44.5t50.5 124.5v673h289v-1034h-220l-34 205q-11 -52 -34.5 -92.5t-53.5 -65.5
t-68 -40.5t-74 -21t-75 -5.5z" />
    <glyph glyph-name="uni0216" unicode="&#x216;" horiz-adv-x="1448" 
d="M1090 1592h-183q-17 51 -61.5 82t-107.5 31t-106.5 -31t-58.5 -82h-185q25 122 122 188.5t228 66.5q133 0 230 -66.5t122 -188.5zM1319 551q0 -276 -137.5 -423.5t-441.5 -147.5q-156 0 -268.5 39.5t-179.5 116.5t-98.5 181.5t-31.5 243.5v885h297v-907q0 -156 75 -233.5
t206 -77.5t207.5 77t76.5 234v907h295v-895z" />
    <glyph glyph-name="uni0217" unicode="&#x217;" horiz-adv-x="1190" 
d="M940 1180h-183q-17 51 -61.5 82t-106.5 31q-63 0 -106.5 -31t-59.5 -82h-184q25 122 122 188.5t228 66.5q132 0 229 -67t122 -188zM506 -20q-73 0 -142 23t-126 64t-91.5 107t-34.5 145v715h292v-678q0 -74 48 -119t137 -45q86 0 136.5 44.5t50.5 124.5v673h289v-1034
h-220l-34 205q-11 -52 -34.5 -92.5t-53.5 -65.5t-68 -40.5t-74 -21t-75 -5.5z" />
    <glyph glyph-name="uni0218" unicode="&#x218;" horiz-adv-x="1387" 
d="M705 -20q-109 0 -211 27.5t-187 79.5t-140.5 136.5t-66.5 189.5h299q21 -97 103 -150.5t202 -53.5q126 0 209 47t83 135q0 76 -64 117.5t-181 65.5l-250 51q-168 32 -262.5 132.5t-96.5 263.5q-1 133 72.5 234.5t200 155t283.5 53.5q270 0 422 -123.5t155 -314.5h-293
q-22 206 -279 206q-116 0 -185.5 -49t-69.5 -128q0 -65 43.5 -103.5t155.5 -62.5l248 -51q101 -19 176 -58.5t115.5 -83.5t65 -102t31 -103t6.5 -98q0 -177 -163 -295t-421 -118zM558 -440l91 149l-80 10v187h248v-156l-156 -190h-103z" />
    <glyph glyph-name="uni0219" unicode="&#x219;" horiz-adv-x="1055" 
d="M541 -20q-84 0 -159 20t-139.5 60.5t-108.5 108.5t-57 157h252q19 -76 79.5 -111t131.5 -35q87 0 137 27t50 81q0 42 -30.5 67t-100.5 38l-182 38q-304 63 -305 296q-1 144 113.5 235.5t320.5 91.5q192 0 306 -85t116 -236h-244q-11 60 -59.5 92.5t-122.5 32.5
q-78 0 -125.5 -28t-47.5 -81q0 -40 39 -64t125 -41l168 -38q82 -20 140 -57t86.5 -81t40.5 -84t12 -80q0 -153 -119.5 -238.5t-316.5 -85.5zM399 -440l91 149l-80 10v187h248v-156l-156 -190h-103z" />
    <glyph glyph-name="uni021A" unicode="&#x21a;" horiz-adv-x="1232" 
d="M38 1186v260h1157v-260h-427v-1186h-293v1186h-437zM499 -439l91 149l-80 10v187h249v-155l-157 -191h-103z" />
    <glyph glyph-name="uni021B" unicode="&#x21b;" horiz-adv-x="833" 
d="M749 831h-230l2 -551q0 -54 20 -70t72 -16h139v-180q-58 -25 -181 -25q-100 0 -168.5 19.5t-106 58t-53 87t-15.5 114.5v563h-168v203h177l74 312h208v-311h230v-204zM350 -428l92 149l-80 10v188h248v-156l-156 -191h-104z" />
    <glyph glyph-name="uni0237" unicode="&#x237;" horiz-adv-x="575" 
d="M450 7q0 -172 -84 -255.5t-266 -83.5q-49 0 -81 6.5t-41 12.5t-9 10l-1 195l79 8q61 8 86 33.5t25 76.5v1024h292v-1027z" />
    <glyph glyph-name="uni0259" unicode="&#x259;" horiz-adv-x="1153" 
d="M780 584q2 120 -57 189.5t-163 69.5q-168 0 -210 -137h-263q17 107 88 187.5t169.5 120.5t208.5 40q232 0 374 -143t142 -382q0 -117 -34 -217t-97 -174t-158.5 -116t-211.5 -42q-231 0 -356.5 143t-125.5 382v79h694zM781 411h-422q0 -99 54 -163t155 -64q97 0 155.5 68
t57.5 159z" />
    <glyph glyph-name="uni02BB" unicode="&#x2bb;" horiz-adv-x="509" 
d="M395 1354l-22 -3q-46 -6 -83.5 -44.5t-37.5 -89.5v-18l143 -12v-280h-295v248q0 81 39 152.5t108.5 109.5t147.5 22v-85z" />
    <glyph glyph-name="uni02BC" unicode="&#x2bc;" horiz-adv-x="509" 
d="M100 998l22 2q46 6 84 44.5t38 89.5v18l-144 12v280h295v-248q0 -81 -39 -152.5t-108.5 -109.5t-147.5 -22v86z" />
    <glyph glyph-name="circumflex" unicode="&#x2c6;" horiz-adv-x="757" 
d="M512 1155l-132 140l-146 -140h-217l264 259h202l257 -259h-228z" />
    <glyph glyph-name="caron" unicode="&#x2c7;" horiz-adv-x="776" 
d="M280 1155l-263 261h217l146 -150l132 150h228l-257 -261h-203z" />
    <glyph glyph-name="breve" unicode="&#x2d8;" horiz-adv-x="762" 
d="M732 1411q-25 -122 -122 -188.5t-229 -66.5t-228.5 66t-121.5 189h184q16 -51 59.5 -82t106.5 -31q62 0 106.5 31t61.5 82h183z" />
    <glyph glyph-name="dotaccent" unicode="&#x2d9;" horiz-adv-x="299" 
d="M10 1184v238h279v-238h-279z" />
    <glyph glyph-name="ring" unicode="&#x2da;" horiz-adv-x="516" 
d="M470 1337q0 -91 -63.5 -154t-154.5 -63t-154 64t-63 157q0 88 63.5 149t153.5 61q91 0 154.5 -62.5t63.5 -151.5zM349 1336q0 43 -28.5 71t-70.5 28t-72 -28.5t-30 -70.5q0 -41 30.5 -71.5t71.5 -30.5t70 30.5t29 71.5z" />
    <glyph glyph-name="ogonek" unicode="&#x2db;" horiz-adv-x="509" 
d="M35 -172q0 60 41.5 105.5t150.5 81.5l204 -5q-103 -38 -144 -71t-41 -75q0 -64 72 -64q70 0 145 44v-132q-31 -19 -89.5 -33.5t-121.5 -14.5q-103 0 -160 42.5t-57 121.5z" />
    <glyph glyph-name="tilde" unicode="&#x2dc;" horiz-adv-x="831" 
d="M757 1270q-84 -70 -202 -70q-57 0 -146.5 27.5t-139.5 27.5q-48 0 -81.5 -14.5t-75.5 -49.5l-45 153q42 44 86 67.5t106 23.5q59 0 156 -30.5t139 -30.5q76 0 167 69z" />
    <glyph glyph-name="hungarumlaut" unicode="&#x2dd;" horiz-adv-x="895" 
d="M212 1446h266l-257 -291h-211zM610 1446h275l-311 -291h-211z" />
    <glyph glyph-name="gravecomb" unicode="&#x300;" 
d="M312 1446l206 -291h-211l-296 291h301z" />
    <glyph glyph-name="acutecomb" unicode="&#x301;" 
d="M216 1446h301l-297 -291h-210z" />
    <glyph glyph-name="uni0302" unicode="&#x302;" 
d="M512 1155l-132 140l-146 -140h-217l264 259h202l257 -259h-228z" />
    <glyph glyph-name="tildecomb" unicode="&#x303;" 
d="M757 1270q-84 -70 -202 -70q-57 0 -146.5 27.5t-139.5 27.5q-48 0 -81.5 -14.5t-75.5 -49.5l-45 153q42 44 86 67.5t106 23.5q59 0 156 -30.5t139 -30.5q76 0 167 69z" />
    <glyph glyph-name="uni0304" unicode="&#x304;" 
d="M738 1392v-187h-703v187h703z" />
    <glyph glyph-name="uni0306" unicode="&#x306;" 
d="M732 1411q-25 -122 -122 -188.5t-229 -66.5t-228.5 66t-121.5 189h184q16 -51 59.5 -82t106.5 -31q62 0 106.5 31t61.5 82h183z" />
    <glyph glyph-name="uni0307" unicode="&#x307;" 
d="M10 1184v238h279v-238h-279z" />
    <glyph glyph-name="uni0308" unicode="&#x308;" 
d="M476 1184l3 238h273l-2 -238h-274zM10 1184l3 238h273l-2 -238h-274z" />
    <glyph glyph-name="hookabovecomb" unicode="&#x309;" 
d="M443 1511q92 57 180 44.5t135 -85.5q56 -84 32 -166.5t-124 -141.5l-69 108q41 25 53.5 58t-7.5 67q-18 30 -57 32t-75 -22z" />
    <glyph glyph-name="uni030A" unicode="&#x30a;" 
d="M470 1337q0 -91 -63.5 -154t-154.5 -63t-154 64t-63 157q0 88 63.5 149t153.5 61q91 0 154.5 -62.5t63.5 -151.5zM349 1336q0 43 -28.5 71t-70.5 28t-72 -28.5t-30 -70.5q0 -41 30.5 -71.5t71.5 -30.5t70 30.5t29 71.5z" />
    <glyph glyph-name="uni030B" unicode="&#x30b;" 
d="M212 1446h266l-257 -291h-211zM610 1446h275l-311 -291h-211z" />
    <glyph glyph-name="uni030C" unicode="&#x30c;" 
d="M280 1155l-263 261h217l146 -150l132 150h228l-257 -261h-203z" />
    <glyph glyph-name="uni030F" unicode="&#x30f;" 
d="M684 1446l201 -291h-211l-257 291h267zM285 1446l247 -291h-210l-312 291h275z" />
    <glyph glyph-name="uni0311" unicode="&#x311;" 
d="M721 1180h-183q-16 51 -61 82t-107 31q-63 0 -106.5 -31t-59.5 -82h-184q25 122 122 188.5t228 66.5q132 0 229 -67t122 -188z" />
    <glyph glyph-name="uni031B" unicode="&#x31b;" 
d="M389 1266q-1 -110 -19.5 -180.5t-63.5 -115.5t-119 -58t-187 -1v148q28 -1 52 0t43 3.5t34 11t26 22.5t19.5 37t14 55.5t8.5 77.5h192z" />
    <glyph glyph-name="dotbelowcomb" unicode="&#x323;" 
d="M10 -398v238h279v-238h-279z" />
    <glyph glyph-name="uni0326" unicode="&#x326;" 
d="M5 -440l92 149l-80 10v187h248v-156l-156 -190h-104z" />
    <glyph glyph-name="uni0327" unicode="&#x327;" 
d="M499 -263q0 -74 -69.5 -118t-169.5 -44q-142 0 -230 54l40 98q77 -49 154 -49q47 0 73.5 16.5t26.5 45.5q0 40 -39.5 60.5t-130.5 21.5q-14 0 -17 3t1 16l73 169h130l-45 -117q104 -2 153.5 -48.5t49.5 -107.5z" />
    <glyph glyph-name="uni0328" unicode="&#x328;" 
d="M35 -172q0 60 41.5 105.5t150.5 81.5l204 -5q-103 -38 -144 -71t-41 -75q0 -64 72 -64q70 0 145 44v-132q-31 -19 -89.5 -33.5t-121.5 -14.5q-103 0 -160 42.5t-57 121.5z" />
    <glyph glyph-name="pi" unicode="&#x3c0;" horiz-adv-x="1349" 
d="M1289 831h-189v-831h-280l-1 831h-315q0 -195 -35 -441.5t-83 -389.5h-272q46 175 78 404.5t32 406.5q0 20 -17 20h-161v203h1243v-203z" />
    <glyph glyph-name="uni1E0C" unicode="&#x1e0c;" horiz-adv-x="1440" 
d="M162 1446q349 0 432 -2q194 -5 338.5 -56t234.5 -144.5t133.5 -221t43.5 -292.5q0 -170 -46.5 -304t-139 -229.5t-237.5 -146t-337 -50.5h-422v1446zM456 1210v-974h134q97 0 175.5 27t141.5 84t97.5 155t34.5 230q0 246 -116 362t-329 116h-138zM569 -398v238h279v-238
h-279z" />
    <glyph glyph-name="uni1E0D" unicode="&#x1e0d;" horiz-adv-x="1217" 
d="M516 -20q-208 0 -324 143t-116 400q0 247 107 389t304 142q106 0 189 -45t123 -115v592h293v-1486h-212l-33 212q-15 -46 -39.5 -85t-63 -73.5t-97 -54t-131.5 -19.5zM580 190q113 0 166 78.5t53 258.5q-3 315 -217 315q-102 0 -161.5 -76.5t-59.5 -238.5
q0 -168 58 -252.5t161 -84.5zM406 -398v238h278v-238h-278z" />
    <glyph glyph-name="uni1E24" unicode="&#x1e24;" horiz-adv-x="1540" 
d="M1086 621h-633v-621h-291v1446h291v-580h633v580h292v-1446h-292v621zM639 -398v238h279v-238h-279z" />
    <glyph glyph-name="uni1E25" unicode="&#x1e25;" horiz-adv-x="1185" 
d="M125 0v1486h290v-601q109 155 297 155q154 0 257.5 -88t103.5 -240v-712h-293v669q0 68 -49.5 106.5t-123.5 38.5q-78 0 -134 -41t-56 -113v-660h-292zM468 -398v238h279v-238h-279z" />
    <glyph glyph-name="uni1E44" unicode="&#x1e44;" horiz-adv-x="1564" 
d="M642 1596v238h278v-238h-278zM1111 1446h292v-1446h-263l-687 995v-995h-291v1446h289l660 -957v957z" />
    <glyph glyph-name="uni1E45" unicode="&#x1e45;" horiz-adv-x="1186" 
d="M465 1184v238h279v-238h-279zM125 0v1034h287v-146q97 155 300 155q73 0 136.5 -21t115 -63t81 -113t29.5 -164v-682h-292v646q0 81 -48.5 124.5t-123.5 43.5q-78 0 -135.5 -40t-57.5 -112v-662h-292z" />
    <glyph glyph-name="uni1E5A" unicode="&#x1e5a;" horiz-adv-x="1392" 
d="M1284 0h-303l-235 557h-293v-557h-291v1446h610q250 0 373.5 -116.5t123.5 -315.5q0 -283 -254 -408zM720 782q116 0 185 62t69 163q0 98 -65.5 157t-167.5 59h-288v-441h267zM559 -398v238h279v-238h-279z" />
    <glyph glyph-name="uni1E5B" unicode="&#x1e5b;" horiz-adv-x="824" 
d="M125 0v1034h281v-245q38 122 123.5 193.5t204.5 71.5q33 0 45 -6v-278q-11 5 -44 7q-165 14 -241.5 -43t-76.5 -168v-566h-292zM131 -398v238h279v-238h-279z" />
    <glyph glyph-name="uni1E62" unicode="&#x1e62;" horiz-adv-x="1387" 
d="M705 -20q-109 0 -211 27.5t-187 79.5t-140.5 136.5t-66.5 189.5h299q21 -97 103 -150.5t202 -53.5q126 0 209 47t83 135q0 76 -64 117.5t-181 65.5l-250 51q-168 32 -262.5 132.5t-96.5 263.5q-1 133 72.5 234.5t200 155t283.5 53.5q270 0 422 -123.5t155 -314.5h-293
q-22 206 -279 206q-116 0 -185.5 -49t-69.5 -128q0 -65 43.5 -103.5t155.5 -62.5l248 -51q101 -19 176 -58.5t115.5 -83.5t65 -102t31 -103t6.5 -98q0 -177 -163 -295t-421 -118zM555 -398v238h279v-238h-279z" />
    <glyph glyph-name="uni1E63" unicode="&#x1e63;" horiz-adv-x="1055" 
d="M541 -20q-84 0 -159 20t-139.5 60.5t-108.5 108.5t-57 157h252q19 -76 79.5 -111t131.5 -35q87 0 137 27t50 81q0 42 -30.5 67t-100.5 38l-182 38q-304 63 -305 296q-1 144 113.5 235.5t320.5 91.5q192 0 306 -85t116 -236h-244q-11 60 -59.5 92.5t-122.5 32.5
q-78 0 -125.5 -28t-47.5 -81q0 -40 39 -64t125 -41l168 -38q82 -20 140 -57t86.5 -81t40.5 -84t12 -80q0 -153 -119.5 -238.5t-316.5 -85.5zM396 -398v238h279v-238h-279z" />
    <glyph glyph-name="uni1E6C" unicode="&#x1e6c;" horiz-adv-x="1232" 
d="M38 1186v260h1157v-260h-427v-1186h-293v1186h-437zM496 -396v237h279v-237h-279z" />
    <glyph glyph-name="uni1E6D" unicode="&#x1e6d;" horiz-adv-x="833" 
d="M749 831h-230l2 -551q0 -54 20 -70t72 -16h139v-180q-58 -25 -181 -25q-100 0 -168.5 19.5t-106 58t-53 87t-15.5 114.5v563h-168v203h177l74 312h208v-311h230v-204zM348 -385v237h278v-237h-278z" />
    <glyph glyph-name="Wgrave" unicode="&#x1e80;" horiz-adv-x="1937" 
d="M861 1858l206 -291h-211l-296 291h301zM1899 1446l-427 -1446h-233l-272 945l-274 -945h-229l-426 1446h286l269 -955l269 955h211l272 -955l269 955h285z" />
    <glyph glyph-name="wgrave" unicode="&#x1e81;" horiz-adv-x="1585" 
d="M694 1446l206 -291h-211l-296 291h301zM1552 1034l-340 -1034h-233l-192 626l-193 -626h-226l-335 1034h259l198 -641h7l190 641h209l192 -641h8l192 641h264z" />
    <glyph glyph-name="Wacute" unicode="&#x1e82;" horiz-adv-x="1937" 
d="M1067 1858h301l-296 -291h-211zM1899 1446l-427 -1446h-233l-272 945l-274 -945h-229l-426 1446h286l269 -955l269 955h211l272 -955l269 955h285z" />
    <glyph glyph-name="wacute" unicode="&#x1e83;" horiz-adv-x="1585" 
d="M900 1446h301l-296 -291h-211zM1552 1034l-340 -1034h-233l-192 626l-193 -626h-226l-335 1034h259l198 -641h7l190 641h209l192 -641h8l192 641h264z" />
    <glyph glyph-name="Wdieresis" unicode="&#x1e84;" horiz-adv-x="1937" 
d="M1062 1596l3 238h274l-3 -238h-274zM596 1596l3 238h274l-3 -238h-274zM1899 1446l-427 -1446h-233l-272 945l-274 -945h-229l-426 1446h286l269 -955l269 955h211l272 -955l269 955h285z" />
    <glyph glyph-name="wdieresis" unicode="&#x1e85;" horiz-adv-x="1585" 
d="M896 1184l2 238h274l-3 -238h-273zM430 1184l2 238h274l-3 -238h-273zM1552 1034l-340 -1034h-233l-192 626l-193 -626h-226l-335 1034h259l198 -641h7l190 641h209l192 -641h8l192 641h264z" />
    <glyph glyph-name="uni1E92" unicode="&#x1e92;" horiz-adv-x="1339" 
d="M108 0v142l734 1060h-685v244h1101v-136l-744 -1063h736v-247h-1142zM556 -398v238h279v-238h-279z" />
    <glyph glyph-name="uni1E93" unicode="&#x1e93;" horiz-adv-x="993" 
d="M63 0v163l510 667h-484v204h838v-163l-511 -667h514v-204h-867zM362 -398v238h278v-238h-278z" />
    <glyph glyph-name="uni1EA0" unicode="&#x1ea0;" horiz-adv-x="1453" 
d="M55 0l517 1446h309l517 -1446h-291l-118 335h-521l-120 -335h-293zM534 590h384l-191 575zM588 -398v238h279v-238h-279z" />
    <glyph glyph-name="uni1EA1" unicode="&#x1ea1;" horiz-adv-x="1133" 
d="M432 -20q-153 0 -251 84.5t-98 231.5q0 172 129 259.5t399 90.5l130 2v62q0 148 -171 147q-70 -1 -125 -32.5t-75 -98.5h-243q8 162 131.5 245t325.5 83q229 0 333 -84t104 -243v-727h-244l-24 178q-51 -108 -129 -153t-192 -45zM531 172q79 0 144 53.5t66 119.5v153
l-105 -2q-122 -2 -199 -42.5t-77 -128.5q0 -70 48.5 -111.5t122.5 -41.5zM443 -398v238h279v-238h-279z" />
    <glyph glyph-name="uni1EA2" unicode="&#x1ea2;" horiz-adv-x="1453" 
d="M586 1915q92 57 180.5 44.5t135.5 -85.5q56 -84 32 -166.5t-124 -142.5l-69 109q40 25 53 58t-7 67q-18 29 -57 31.5t-75 -21.5zM55 0l517 1446h309l517 -1446h-291l-118 335h-521l-120 -335h-293zM534 590h384l-191 575z" />
    <glyph glyph-name="uni1EA3" unicode="&#x1ea3;" horiz-adv-x="1133" 
d="M446 1503q92 57 180.5 44.5t135.5 -85.5q56 -84 32 -166.5t-124 -142.5l-69 109q40 25 53 58t-7 67q-18 29 -57.5 31.5t-74.5 -21.5zM432 -20q-153 0 -251 84.5t-98 231.5q0 172 129 259.5t399 90.5l130 2v62q0 148 -171 147q-70 -1 -125 -32.5t-75 -98.5h-243
q8 162 131.5 245t325.5 83q229 0 333 -84t104 -243v-727h-244l-24 178q-51 -108 -129 -153t-192 -45zM531 172q79 0 144 53.5t66 119.5v153l-105 -2q-122 -2 -199 -42.5t-77 -128.5q0 -70 48.5 -111.5t122.5 -41.5z" />
    <glyph glyph-name="uni1EA4" unicode="&#x1ea4;" horiz-adv-x="1453" 
d="M1105 2072h225l-225 -262h-151zM857 1567l-131 140l-147 -140h-216l264 259h201l258 -259h-229zM55 0l517 1446h309l517 -1446h-291l-118 335h-521l-120 -335h-293zM534 590h384l-191 575z" />
    <glyph glyph-name="uni1EA5" unicode="&#x1ea5;" horiz-adv-x="1133" 
d="M965 1660h225l-225 -262h-152zM717 1155l-132 140l-146 -140h-216l264 259h201l258 -259h-229zM432 -20q-153 0 -251 84.5t-98 231.5q0 172 129 259.5t399 90.5l130 2v62q0 148 -171 147q-70 -1 -125 -32.5t-75 -98.5h-243q8 162 131.5 245t325.5 83q229 0 333 -84
t104 -243v-727h-244l-24 178q-51 -108 -129 -153t-192 -45zM531 172q79 0 144 53.5t66 119.5v153l-105 -2q-122 -2 -199 -42.5t-77 -128.5q0 -70 48.5 -111.5t122.5 -41.5z" />
    <glyph glyph-name="uni1EA6" unicode="&#x1ea6;" horiz-adv-x="1453" 
d="M1040 2071l157 -261h-156l-227 261h226zM857 1567l-131 140l-147 -140h-216l264 259h201l258 -259h-229zM55 0l517 1446h309l517 -1446h-291l-118 335h-521l-120 -335h-293zM534 590h384l-191 575z" />
    <glyph glyph-name="uni1EA7" unicode="&#x1ea7;" horiz-adv-x="1133" 
d="M900 1659l157 -261h-157l-226 261h226zM717 1155l-132 140l-146 -140h-216l264 259h201l258 -259h-229zM432 -20q-153 0 -251 84.5t-98 231.5q0 172 129 259.5t399 90.5l130 2v62q0 148 -171 147q-70 -1 -125 -32.5t-75 -98.5h-243q8 162 131.5 245t325.5 83
q229 0 333 -84t104 -243v-727h-244l-24 178q-51 -108 -129 -153t-192 -45zM531 172q79 0 144 53.5t66 119.5v153l-105 -2q-122 -2 -199 -42.5t-77 -128.5q0 -70 48.5 -111.5t122.5 -41.5z" />
    <glyph glyph-name="uni1EA8" unicode="&#x1ea8;" horiz-adv-x="1453" 
d="M802 2115q92 57 180.5 44.5t135.5 -85.5q56 -84 31.5 -166.5t-124.5 -142.5l-68 109q40 25 53 58t-7 67q-18 29 -57.5 31.5t-74.5 -21.5zM864 1567l-132 140l-146 -140h-216l264 259h201l258 -259h-229zM55 0l517 1446h309l517 -1446h-291l-118 335h-521l-120 -335h-293z
M534 590h384l-191 575z" />
    <glyph glyph-name="uni1EA9" unicode="&#x1ea9;" horiz-adv-x="1133" 
d="M662 1703q92 57 180 44.5t135 -85.5q56 -84 32 -166.5t-124 -142.5l-69 109q41 25 53.5 58t-7.5 67q-18 29 -57 31.5t-74 -21.5zM724 1155l-132 140l-146 -140h-217l265 259h201l257 -259h-228zM432 -20q-153 0 -251 84.5t-98 231.5q0 172 129 259.5t399 90.5l130 2v62
q0 148 -171 147q-70 -1 -125 -32.5t-75 -98.5h-243q8 162 131.5 245t325.5 83q229 0 333 -84t104 -243v-727h-244l-24 178q-51 -108 -129 -153t-192 -45zM531 172q79 0 144 53.5t66 119.5v153l-105 -2q-122 -2 -199 -42.5t-77 -128.5q0 -70 48.5 -111.5t122.5 -41.5z" />
    <glyph glyph-name="uni1EAA" unicode="&#x1eaa;" horiz-adv-x="1453" 
d="M1071 1997q-86 -70 -202 -70q-57 0 -146.5 28t-139.5 28q-48 0 -81.5 -15t-75.5 -50l-45 153q42 45 85.5 68.5t106.5 23.5q59 0 156 -31t139 -31q78 0 167 70zM860 1567l-132 140l-146 -140h-216l264 259h201l258 -259h-229zM55 0l517 1446h309l517 -1446h-291l-118 335
h-521l-120 -335h-293zM534 590h384l-191 575z" />
    <glyph glyph-name="uni1EAB" unicode="&#x1eab;" horiz-adv-x="1133" 
d="M931 1585q-86 -70 -202 -70q-57 0 -147 28t-140 28q-47 0 -81.5 -15t-75.5 -50l-44 153q42 45 85.5 68.5t106.5 23.5q59 0 156 -31t139 -31q77 0 166 70zM720 1155l-132 140l-146 -140h-217l264 259h202l257 -259h-228zM432 -20q-153 0 -251 84.5t-98 231.5
q0 172 129 259.5t399 90.5l130 2v62q0 148 -171 147q-70 -1 -125 -32.5t-75 -98.5h-243q8 162 131.5 245t325.5 83q229 0 333 -84t104 -243v-727h-244l-24 178q-51 -108 -129 -153t-192 -45zM531 172q79 0 144 53.5t66 119.5v153l-105 -2q-122 -2 -199 -42.5t-77 -128.5
q0 -70 48.5 -111.5t122.5 -41.5z" />
    <glyph glyph-name="uni1EAC" unicode="&#x1eac;" horiz-adv-x="1453" 
d="M857 1567l-131 140l-147 -140h-216l264 259h201l258 -259h-229zM55 0l517 1446h309l517 -1446h-291l-118 335h-521l-120 -335h-293zM534 590h384l-191 575zM588 -398v238h279v-238h-279z" />
    <glyph glyph-name="uni1EAD" unicode="&#x1ead;" horiz-adv-x="1133" 
d="M717 1155l-132 140l-146 -140h-216l264 259h201l258 -259h-229zM432 -20q-153 0 -251 84.5t-98 231.5q0 172 129 259.5t399 90.5l130 2v62q0 148 -171 147q-70 -1 -125 -32.5t-75 -98.5h-243q8 162 131.5 245t325.5 83q229 0 333 -84t104 -243v-727h-244l-24 178
q-51 -108 -129 -153t-192 -45zM531 172q79 0 144 53.5t66 119.5v153l-105 -2q-122 -2 -199 -42.5t-77 -128.5q0 -70 48.5 -111.5t122.5 -41.5zM443 -398v238h279v-238h-279z" />
    <glyph glyph-name="uni1EAE" unicode="&#x1eae;" horiz-adv-x="1453" 
d="M801 2141h225l-225 -261h-151zM1079 1821q-25 -121 -122 -188t-229 -67q-131 0 -228 66.5t-122 188.5h184q16 -50 59.5 -81t106.5 -31q62 0 107 31t61 81h183zM55 0l517 1446h309l517 -1446h-291l-118 335h-521l-120 -335h-293zM534 590h384l-191 575z" />
    <glyph glyph-name="uni1EAF" unicode="&#x1eaf;" horiz-adv-x="1133" 
d="M661 1729h225l-225 -261h-152zM939 1409q-25 -121 -122 -188t-229 -67q-131 0 -228 66.5t-122 188.5h184q16 -51 59.5 -81.5t106.5 -30.5q62 0 106.5 31t61.5 81h183zM432 -20q-153 0 -251 84.5t-98 231.5q0 172 129 259.5t399 90.5l130 2v62q0 148 -171 147
q-70 -1 -125 -32.5t-75 -98.5h-243q8 162 131.5 245t325.5 83q229 0 333 -84t104 -243v-727h-244l-24 178q-51 -108 -129 -153t-192 -45zM531 172q79 0 144 53.5t66 119.5v153l-105 -2q-122 -2 -199 -42.5t-77 -128.5q0 -70 48.5 -111.5t122.5 -41.5z" />
    <glyph glyph-name="uni1EB0" unicode="&#x1eb0;" horiz-adv-x="1453" 
d="M662 2140l157 -261h-157l-226 261h226zM1079 1821q-25 -121 -122 -188t-229 -67q-131 0 -228 66.5t-122 188.5h184q16 -50 59.5 -81t106.5 -31q62 0 107 31t61 81h183zM55 0l517 1446h309l517 -1446h-291l-118 335h-521l-120 -335h-293zM534 590h384l-191 575z" />
    <glyph glyph-name="uni1EB1" unicode="&#x1eb1;" horiz-adv-x="1133" 
d="M522 1728l157 -261h-157l-226 261h226zM939 1409q-25 -121 -122 -188t-229 -67q-131 0 -228 66.5t-122 188.5h184q16 -51 59.5 -81.5t106.5 -30.5q62 0 106.5 31t61.5 81h183zM432 -20q-153 0 -251 84.5t-98 231.5q0 172 129 259.5t399 90.5l130 2v62q0 148 -171 147
q-70 -1 -125 -32.5t-75 -98.5h-243q8 162 131.5 245t325.5 83q229 0 333 -84t104 -243v-727h-244l-24 178q-51 -108 -129 -153t-192 -45zM531 172q79 0 144 53.5t66 119.5v153l-105 -2q-122 -2 -199 -42.5t-77 -128.5q0 -70 48.5 -111.5t122.5 -41.5z" />
    <glyph glyph-name="uni1EB2" unicode="&#x1eb2;" horiz-adv-x="1453" 
d="M602 2191q93 58 181 45t135 -85q56 -85 32 -167t-124 -142l-69 108q40 25 53 58t-7 68q-18 29 -57 31.5t-75 -22.5zM1079 1821q-25 -121 -122 -188t-229 -67q-131 0 -228 66.5t-122 188.5h184q16 -50 59.5 -81t106.5 -31q62 0 107 31t61 81h183zM55 0l517 1446h309
l517 -1446h-291l-118 335h-521l-120 -335h-293zM534 590h384l-191 575z" />
    <glyph glyph-name="uni1EB3" unicode="&#x1eb3;" horiz-adv-x="1133" 
d="M462 1779q93 58 181 45t135 -85q56 -85 32 -167t-124 -142l-69 108q40 25 53 58t-7 68q-18 29 -57.5 31.5t-74.5 -22.5zM939 1409q-25 -121 -122 -188t-229 -67q-131 0 -228 66.5t-122 188.5h184q16 -51 59.5 -81.5t106.5 -30.5q62 0 106.5 31t61.5 81h183zM432 -20
q-153 0 -251 84.5t-98 231.5q0 172 129 259.5t399 90.5l130 2v62q0 148 -171 147q-70 -1 -125 -32.5t-75 -98.5h-243q8 162 131.5 245t325.5 83q229 0 333 -84t104 -243v-727h-244l-24 178q-51 -108 -129 -153t-192 -45zM531 172q79 0 144 53.5t66 119.5v153l-105 -2
q-122 -2 -199 -42.5t-77 -128.5q0 -70 48.5 -111.5t122.5 -41.5z" />
    <glyph glyph-name="uni1EB4" unicode="&#x1eb4;" horiz-adv-x="1453" 
d="M1070 1996q-86 -70 -202 -70q-57 0 -146.5 28t-139.5 28q-48 0 -81.5 -15t-75.5 -50l-45 153q43 44 86.5 68t105.5 24q59 0 156 -31t139 -31q76 0 167 69zM1079 1821q-25 -121 -122 -188t-229 -67q-131 0 -228 66.5t-122 188.5h184q16 -50 59.5 -81t106.5 -31
q62 0 107 31t61 81h183zM55 0l517 1446h309l517 -1446h-291l-118 335h-521l-120 -335h-293zM534 590h384l-191 575z" />
    <glyph glyph-name="uni1EB5" unicode="&#x1eb5;" horiz-adv-x="1133" 
d="M930 1584q-86 -70 -202 -70q-57 0 -147 28t-140 28q-47 0 -81.5 -15t-75.5 -50l-44 153q43 44 86.5 68t105.5 24q59 0 156 -31t139 -31q75 0 166 69zM939 1409q-25 -121 -122 -188t-229 -67q-131 0 -228 66.5t-122 188.5h184q16 -51 59.5 -81.5t106.5 -30.5
q62 0 106.5 31t61.5 81h183zM432 -20q-153 0 -251 84.5t-98 231.5q0 172 129 259.5t399 90.5l130 2v62q0 148 -171 147q-70 -1 -125 -32.5t-75 -98.5h-243q8 162 131.5 245t325.5 83q229 0 333 -84t104 -243v-727h-244l-24 178q-51 -108 -129 -153t-192 -45zM531 172
q79 0 144 53.5t66 119.5v153l-105 -2q-122 -2 -199 -42.5t-77 -128.5q0 -70 48.5 -111.5t122.5 -41.5z" />
    <glyph glyph-name="uni1EB6" unicode="&#x1eb6;" horiz-adv-x="1453" 
d="M1078 1821q-25 -121 -122.5 -188t-229.5 -67q-131 0 -228 66.5t-122 188.5h185q16 -50 59 -81t106 -31t107.5 31t60.5 81h184zM55 0l517 1446h309l517 -1446h-291l-118 335h-521l-120 -335h-293zM534 590h384l-191 575zM588 -398v238h279v-238h-279z" />
    <glyph glyph-name="uni1EB7" unicode="&#x1eb7;" horiz-adv-x="1133" 
d="M937 1409q-25 -121 -122 -188t-229 -67q-131 0 -228 66.5t-122 188.5h184q16 -51 59.5 -81.5t106.5 -30.5q62 0 106.5 31t61.5 81h183zM432 -20q-153 0 -251 84.5t-98 231.5q0 172 129 259.5t399 90.5l130 2v62q0 148 -171 147q-70 -1 -125 -32.5t-75 -98.5h-243
q8 162 131.5 245t325.5 83q229 0 333 -84t104 -243v-727h-244l-24 178q-51 -108 -129 -153t-192 -45zM531 172q79 0 144 53.5t66 119.5v153l-105 -2q-122 -2 -199 -42.5t-77 -128.5q0 -70 48.5 -111.5t122.5 -41.5zM443 -398v238h279v-238h-279z" />
    <glyph glyph-name="uni1EB8" unicode="&#x1eb8;" horiz-adv-x="1269" 
d="M162 0v1446h993l-1 -246h-699v-351h607v-241h-609v-359l712 -1v-248h-1003zM538 -398v238h279v-238h-279z" />
    <glyph glyph-name="uni1EB9" unicode="&#x1eb9;" horiz-adv-x="1153" 
d="M372 450q-1 -119 58 -189t163 -70q168 0 210 137h263q-17 -107 -88 -187.5t-170 -120.5t-208 -40q-232 0 -374.5 143t-142.5 382q0 157 58.5 280.5t173.5 196t270 72.5q231 0 356.5 -143t125.5 -382v-79h-695zM372 624h422q0 99 -54.5 162.5t-155.5 63.5
q-96 0 -154.5 -67.5t-57.5 -158.5zM451 -398v238h279v-238h-279z" />
    <glyph glyph-name="uni1EBA" unicode="&#x1eba;" horiz-adv-x="1269" 
d="M519 1915q92 57 180.5 44.5t135.5 -85.5q56 -84 32 -166.5t-124 -142.5l-69 109q40 25 53 58t-7 67q-18 29 -57 31.5t-75 -21.5zM162 0v1446h993l-1 -246h-699v-351h607v-241h-609v-359l712 -1v-248h-1003z" />
    <glyph glyph-name="uni1EBB" unicode="&#x1ebb;" horiz-adv-x="1153" 
d="M445 1503q92 57 180.5 44.5t135.5 -85.5q56 -84 32 -166.5t-124 -142.5l-69 109q40 25 53 58t-7 67q-18 29 -57 31.5t-75 -21.5zM372 450q-1 -119 58 -189t163 -70q168 0 210 137h263q-17 -107 -88 -187.5t-170 -120.5t-208 -40q-232 0 -374.5 143t-142.5 382
q0 157 58.5 280.5t173.5 196t270 72.5q231 0 356.5 -143t125.5 -382v-79h-695zM372 624h422q0 99 -54.5 162.5t-155.5 63.5q-96 0 -154.5 -67.5t-57.5 -158.5z" />
    <glyph glyph-name="uni1EBC" unicode="&#x1ebc;" horiz-adv-x="1269" 
d="M1010 1682q-84 -70 -202 -70q-57 0 -146.5 27.5t-139.5 27.5q-48 0 -81.5 -14.5t-75.5 -49.5l-45 153q42 44 86 67.5t106 23.5q59 0 156 -30.5t140 -30.5q75 0 166 69zM162 0v1446h993l-1 -246h-699v-351h607v-241h-609v-359l712 -1v-248h-1003z" />
    <glyph glyph-name="uni1EBD" unicode="&#x1ebd;" horiz-adv-x="1153" 
d="M936 1270q-82 -70 -201 -70q-57 0 -147 27.5t-140 27.5q-48 0 -81.5 -14.5t-75.5 -49.5l-45 153q43 44 87 67.5t106 23.5q59 0 156 -30.5t139 -30.5q75 0 166 69zM372 450q-1 -119 58 -189t163 -70q168 0 210 137h263q-17 -107 -88 -187.5t-170 -120.5t-208 -40
q-232 0 -374.5 143t-142.5 382q0 157 58.5 280.5t173.5 196t270 72.5q231 0 356.5 -143t125.5 -382v-79h-695zM372 624h422q0 99 -54.5 162.5t-155.5 63.5q-96 0 -154.5 -67.5t-57.5 -158.5z" />
    <glyph glyph-name="uni1EBE" unicode="&#x1ebe;" horiz-adv-x="1269" 
d="M1038 2072h225l-225 -262h-151zM790 1567l-131 140l-147 -140h-216l264 259h201l258 -259h-229zM162 0v1446h993l-1 -246h-699v-351h607v-241h-609v-359l712 -1v-248h-1003z" />
    <glyph glyph-name="uni1EBF" unicode="&#x1ebf;" horiz-adv-x="1153" 
d="M965 1660h224l-224 -262h-152zM716 1155l-131 140l-147 -140h-216l264 259h202l257 -259h-229zM372 450q-1 -119 58 -189t163 -70q168 0 210 137h263q-17 -107 -88 -187.5t-170 -120.5t-208 -40q-232 0 -374.5 143t-142.5 382q0 157 58.5 280.5t173.5 196t270 72.5
q231 0 356.5 -143t125.5 -382v-79h-695zM372 624h422q0 99 -54.5 162.5t-155.5 63.5q-96 0 -154.5 -67.5t-57.5 -158.5z" />
    <glyph glyph-name="uni1EC0" unicode="&#x1ec0;" horiz-adv-x="1269" 
d="M973 2071l157 -261h-156l-227 261h226zM790 1567l-131 140l-147 -140h-216l264 259h201l258 -259h-229zM162 0v1446h993l-1 -246h-699v-351h607v-241h-609v-359l712 -1v-248h-1003z" />
    <glyph glyph-name="uni1EC1" unicode="&#x1ec1;" horiz-adv-x="1153" 
d="M899 1659l157 -261h-156l-227 261h226zM716 1155l-131 140l-147 -140h-216l264 259h202l257 -259h-229zM372 450q-1 -119 58 -189t163 -70q168 0 210 137h263q-17 -107 -88 -187.5t-170 -120.5t-208 -40q-232 0 -374.5 143t-142.5 382q0 157 58.5 280.5t173.5 196
t270 72.5q231 0 356.5 -143t125.5 -382v-79h-695zM372 624h422q0 99 -54.5 162.5t-155.5 63.5q-96 0 -154.5 -67.5t-57.5 -158.5z" />
    <glyph glyph-name="uni1EC2" unicode="&#x1ec2;" horiz-adv-x="1269" 
d="M735 2115q92 57 180.5 44.5t135.5 -85.5q56 -84 31.5 -166.5t-124.5 -142.5l-68 109q40 25 53 58t-7 67q-18 29 -57.5 31.5t-74.5 -21.5zM797 1567l-132 140l-146 -140h-216l264 259h201l258 -259h-229zM162 0v1446h993l-1 -246h-699v-351h607v-241h-609v-359l712 -1
v-248h-1003z" />
    <glyph glyph-name="uni1EC3" unicode="&#x1ec3;" horiz-adv-x="1153" 
d="M661 1703q92 57 180.5 44.5t135.5 -85.5q56 -84 32 -166.5t-124 -142.5l-69 109q40 25 53 58t-7 67q-18 29 -57 31.5t-75 -21.5zM723 1155l-131 140l-147 -140h-216l264 259h201l258 -259h-229zM372 450q-1 -119 58 -189t163 -70q168 0 210 137h263q-17 -107 -88 -187.5
t-170 -120.5t-208 -40q-232 0 -374.5 143t-142.5 382q0 157 58.5 280.5t173.5 196t270 72.5q231 0 356.5 -143t125.5 -382v-79h-695zM372 624h422q0 99 -54.5 162.5t-155.5 63.5q-96 0 -154.5 -67.5t-57.5 -158.5z" />
    <glyph glyph-name="uni1EC4" unicode="&#x1ec4;" horiz-adv-x="1269" 
d="M1004 1997q-86 -70 -202 -70q-57 0 -147 28t-140 28q-47 0 -81.5 -15t-75.5 -50l-44 153q42 45 85.5 68.5t106.5 23.5q59 0 156 -31t139 -31q76 0 167 70zM793 1567l-132 140l-146 -140h-217l265 259h201l257 -259h-228zM162 0v1446h993l-1 -246h-699v-351h607v-241h-609
v-359l712 -1v-248h-1003z" />
    <glyph glyph-name="uni1EC5" unicode="&#x1ec5;" horiz-adv-x="1153" 
d="M930 1585q-86 -70 -202 -70q-57 0 -146.5 28t-139.5 28q-48 0 -81.5 -15t-75.5 -50l-45 153q42 45 85.5 68.5t106.5 23.5q59 0 156 -31t140 -31q77 0 166 70zM719 1155l-131 140l-147 -140h-216l264 259h201l258 -259h-229zM372 450q-1 -119 58 -189t163 -70
q168 0 210 137h263q-17 -107 -88 -187.5t-170 -120.5t-208 -40q-232 0 -374.5 143t-142.5 382q0 157 58.5 280.5t173.5 196t270 72.5q231 0 356.5 -143t125.5 -382v-79h-695zM372 624h422q0 99 -54.5 162.5t-155.5 63.5q-96 0 -154.5 -67.5t-57.5 -158.5z" />
    <glyph glyph-name="uni1EC6" unicode="&#x1ec6;" horiz-adv-x="1269" 
d="M790 1567l-131 140l-147 -140h-216l264 259h201l258 -259h-229zM162 0v1446h993l-1 -246h-699v-351h607v-241h-609v-359l712 -1v-248h-1003zM538 -398v238h279v-238h-279z" />
    <glyph glyph-name="uni1EC7" unicode="&#x1ec7;" horiz-adv-x="1153" 
d="M716 1155l-131 140l-147 -140h-216l264 259h202l257 -259h-229zM372 450q-1 -119 58 -189t163 -70q168 0 210 137h263q-17 -107 -88 -187.5t-170 -120.5t-208 -40q-232 0 -374.5 143t-142.5 382q0 157 58.5 280.5t173.5 196t270 72.5q231 0 356.5 -143t125.5 -382v-79
h-695zM372 624h422q0 99 -54.5 162.5t-155.5 63.5q-96 0 -154.5 -67.5t-57.5 -158.5zM451 -398v238h279v-238h-279z" />
    <glyph glyph-name="uni1EC8" unicode="&#x1ec8;" horiz-adv-x="615" 
d="M168 1915q92 57 180.5 44.5t135.5 -85.5q56 -84 32 -166.5t-124 -142.5l-69 109q40 25 53 58t-7 67q-18 29 -57.5 31.5t-74.5 -21.5zM162 1446h291v-1446h-291v1446z" />
    <glyph glyph-name="uni1EC9" unicode="&#x1ec9;" horiz-adv-x="529" 
d="M128 1503q92 57 180.5 44.5t135.5 -85.5q56 -84 32 -166.5t-124 -142.5l-69 109q40 25 53 58t-7 67q-18 29 -57 31.5t-75 -21.5zM404 1034v-1034h-279v1034h279z" />
    <glyph glyph-name="uni1ECA" unicode="&#x1eca;" horiz-adv-x="615" 
d="M162 1446h291v-1446h-291v1446zM184 -398v238h279v-238h-279z" />
    <glyph glyph-name="uni1ECB" unicode="&#x1ecb;" horiz-adv-x="534" 
d="M409 1445v-263h-284v263h284zM407 1034v-1034h-279v1034h279zM128 -398v238h279v-238h-279z" />
    <glyph glyph-name="uni1ECC" unicode="&#x1ecc;" horiz-adv-x="1521" 
d="M763 -20q-308 0 -487.5 198t-179.5 542q0 345 181 545.5t486 200.5q303 0 482.5 -200.5t179.5 -545.5q0 -343 -178 -541.5t-484 -198.5zM763 220q345 0 345 496q0 262 -90.5 386t-254.5 124t-255.5 -124.5t-91.5 -385.5q0 -255 91 -375.5t256 -120.5zM626 -398v238h279
v-238h-279z" />
    <glyph glyph-name="uni1ECD" unicode="&#x1ecd;" horiz-adv-x="1151" 
d="M576 -20q-229 0 -364.5 143.5t-135.5 387.5q0 246 136 394.5t365 148.5t364 -147.5t135 -395.5q0 -238 -134 -384.5t-366 -146.5zM577 197q108 0 160.5 91t52.5 233q0 65 -11 119.5t-34.5 100.5t-66.5 72t-101 26q-110 0 -163 -88t-53 -230q0 -64 11 -119.5t35 -103
t67.5 -74.5t102.5 -27zM434 -398v238h279v-238h-279z" />
    <glyph glyph-name="uni1ECE" unicode="&#x1ece;" horiz-adv-x="1521" 
d="M621 1915q92 57 180.5 44.5t135.5 -85.5q56 -84 32 -166.5t-124 -142.5l-69 109q40 25 53 58t-7 67q-18 29 -57 31.5t-75 -21.5zM763 -20q-308 0 -487.5 198t-179.5 542q0 345 181 545.5t486 200.5q303 0 482.5 -200.5t179.5 -545.5q0 -343 -178 -541.5t-484 -198.5z
M763 220q345 0 345 496q0 262 -90.5 386t-254.5 124t-255.5 -124.5t-91.5 -385.5q0 -255 91 -375.5t256 -120.5z" />
    <glyph glyph-name="uni1ECF" unicode="&#x1ecf;" horiz-adv-x="1151" 
d="M436 1503q92 57 180.5 44.5t135.5 -85.5q56 -84 31.5 -166.5t-124.5 -142.5l-68 109q40 25 53 58t-7 67q-18 29 -57.5 31.5t-74.5 -21.5zM576 -20q-229 0 -364.5 143.5t-135.5 387.5q0 246 136 394.5t365 148.5t364 -147.5t135 -395.5q0 -238 -134 -384.5t-366 -146.5z
M577 197q108 0 160.5 91t52.5 233q0 65 -11 119.5t-34.5 100.5t-66.5 72t-101 26q-110 0 -163 -88t-53 -230q0 -64 11 -119.5t35 -103t67.5 -74.5t102.5 -27z" />
    <glyph glyph-name="uni1ED0" unicode="&#x1ed0;" horiz-adv-x="1521" 
d="M1141 2072h224l-224 -262h-152zM892 1567l-131 140l-147 -140h-216l264 259h202l257 -259h-229zM763 -20q-308 0 -487.5 198t-179.5 542q0 345 181 545.5t486 200.5q303 0 482.5 -200.5t179.5 -545.5q0 -343 -178 -541.5t-484 -198.5zM763 220q345 0 345 496
q0 262 -90.5 386t-254.5 124t-255.5 -124.5t-91.5 -385.5q0 -255 91 -375.5t256 -120.5z" />
    <glyph glyph-name="uni1ED1" unicode="&#x1ed1;" horiz-adv-x="1151" 
d="M955 1660h225l-225 -262h-152zM707 1155l-132 140l-146 -140h-217l265 259h201l257 -259h-228zM576 -20q-229 0 -364.5 143.5t-135.5 387.5q0 246 136 394.5t365 148.5t364 -147.5t135 -395.5q0 -238 -134 -384.5t-366 -146.5zM577 197q108 0 160.5 91t52.5 233
q0 65 -11 119.5t-34.5 100.5t-66.5 72t-101 26q-110 0 -163 -88t-53 -230q0 -64 11 -119.5t35 -103t67.5 -74.5t102.5 -27z" />
    <glyph glyph-name="uni1ED2" unicode="&#x1ed2;" horiz-adv-x="1521" 
d="M1075 2071l157 -261h-156l-227 261h226zM892 1567l-131 140l-147 -140h-216l264 259h202l257 -259h-229zM763 -20q-308 0 -487.5 198t-179.5 542q0 345 181 545.5t486 200.5q303 0 482.5 -200.5t179.5 -545.5q0 -343 -178 -541.5t-484 -198.5zM763 220q345 0 345 496
q0 262 -90.5 386t-254.5 124t-255.5 -124.5t-91.5 -385.5q0 -255 91 -375.5t256 -120.5z" />
    <glyph glyph-name="uni1ED3" unicode="&#x1ed3;" horiz-adv-x="1151" 
d="M890 1659l157 -261h-157l-226 261h226zM707 1155l-132 140l-146 -140h-217l265 259h201l257 -259h-228zM576 -20q-229 0 -364.5 143.5t-135.5 387.5q0 246 136 394.5t365 148.5t364 -147.5t135 -395.5q0 -238 -134 -384.5t-366 -146.5zM577 197q108 0 160.5 91t52.5 233
q0 65 -11 119.5t-34.5 100.5t-66.5 72t-101 26q-110 0 -163 -88t-53 -230q0 -64 11 -119.5t35 -103t67.5 -74.5t102.5 -27z" />
    <glyph glyph-name="uni1ED4" unicode="&#x1ed4;" horiz-adv-x="1521" 
d="M837 2115q92 57 180.5 44.5t135.5 -85.5q56 -84 32 -166.5t-124 -142.5l-69 109q40 25 53 58t-7 67q-18 29 -57 31.5t-75 -21.5zM899 1567l-131 140l-147 -140h-216l264 259h201l258 -259h-229zM763 -20q-308 0 -487.5 198t-179.5 542q0 345 181 545.5t486 200.5
q303 0 482.5 -200.5t179.5 -545.5q0 -343 -178 -541.5t-484 -198.5zM763 220q345 0 345 496q0 262 -90.5 386t-254.5 124t-255.5 -124.5t-91.5 -385.5q0 -255 91 -375.5t256 -120.5z" />
    <glyph glyph-name="uni1ED5" unicode="&#x1ed5;" horiz-adv-x="1151" 
d="M651 1703q92 57 180.5 44.5t135.5 -85.5q56 -84 32 -166.5t-124 -142.5l-69 109q41 25 53.5 58t-7.5 67q-18 29 -57 31.5t-75 -21.5zM714 1155l-132 140l-146 -140h-217l264 259h202l257 -259h-228zM576 -20q-229 0 -364.5 143.5t-135.5 387.5q0 246 136 394.5t365 148.5
t364 -147.5t135 -395.5q0 -238 -134 -384.5t-366 -146.5zM577 197q108 0 160.5 91t52.5 233q0 65 -11 119.5t-34.5 100.5t-66.5 72t-101 26q-110 0 -163 -88t-53 -230q0 -64 11 -119.5t35 -103t67.5 -74.5t102.5 -27z" />
    <glyph glyph-name="uni1ED6" unicode="&#x1ed6;" horiz-adv-x="1521" 
d="M1106 1997q-86 -70 -202 -70q-57 0 -146.5 28t-139.5 28q-48 0 -81.5 -15t-75.5 -50l-45 153q42 45 85.5 68.5t106.5 23.5q59 0 156 -31t140 -31q77 0 166 70zM895 1567l-131 140l-147 -140h-216l264 259h201l258 -259h-229zM763 -20q-308 0 -487.5 198t-179.5 542
q0 345 181 545.5t486 200.5q303 0 482.5 -200.5t179.5 -545.5q0 -343 -178 -541.5t-484 -198.5zM763 220q345 0 345 496q0 262 -90.5 386t-254.5 124t-255.5 -124.5t-91.5 -385.5q0 -255 91 -375.5t256 -120.5z" />
    <glyph glyph-name="uni1ED7" unicode="&#x1ed7;" horiz-adv-x="1151" 
d="M921 1585q-86 -70 -202 -70q-57 0 -147 28t-140 28q-48 0 -81.5 -15t-75.5 -50l-44 153q42 45 85.5 68.5t106.5 23.5q59 0 156 -31t139 -31q77 0 166 70zM710 1155l-132 140l-146 -140h-217l264 259h202l257 -259h-228zM576 -20q-229 0 -364.5 143.5t-135.5 387.5
q0 246 136 394.5t365 148.5t364 -147.5t135 -395.5q0 -238 -134 -384.5t-366 -146.5zM577 197q108 0 160.5 91t52.5 233q0 65 -11 119.5t-34.5 100.5t-66.5 72t-101 26q-110 0 -163 -88t-53 -230q0 -64 11 -119.5t35 -103t67.5 -74.5t102.5 -27z" />
    <glyph glyph-name="uni1ED8" unicode="&#x1ed8;" horiz-adv-x="1521" 
d="M892 1567l-131 140l-147 -140h-216l264 259h202l257 -259h-229zM763 -20q-308 0 -487.5 198t-179.5 542q0 345 181 545.5t486 200.5q303 0 482.5 -200.5t179.5 -545.5q0 -343 -178 -541.5t-484 -198.5zM763 220q345 0 345 496q0 262 -90.5 386t-254.5 124t-255.5 -124.5
t-91.5 -385.5q0 -255 91 -375.5t256 -120.5zM626 -398v238h279v-238h-279z" />
    <glyph glyph-name="uni1ED9" unicode="&#x1ed9;" horiz-adv-x="1151" 
d="M707 1155l-132 140l-146 -140h-217l265 259h201l257 -259h-228zM576 -20q-229 0 -364.5 143.5t-135.5 387.5q0 246 136 394.5t365 148.5t364 -147.5t135 -395.5q0 -238 -134 -384.5t-366 -146.5zM577 197q108 0 160.5 91t52.5 233q0 65 -11 119.5t-34.5 100.5t-66.5 72
t-101 26q-110 0 -163 -88t-53 -230q0 -64 11 -119.5t35 -103t67.5 -74.5t102.5 -27zM434 -398v238h279v-238h-279z" />
    <glyph glyph-name="uni1EDA" unicode="&#x1eda;" horiz-adv-x="1670" 
d="M862 1858h301l-297 -291h-210zM763 -20q-308 0 -487.5 198t-179.5 542q0 345 181 545.5t486 200.5q297 0 475 -192q36 0 56 1.5t42.5 8t34.5 20t24 37t17.5 58.5t9.5 86h193q-2 -188 -62.5 -272t-212.5 -88q85 -172 85 -405q0 -343 -178 -541.5t-484 -198.5zM763 220
q345 0 345 496q0 262 -90.5 386t-254.5 124t-255.5 -124.5t-91.5 -385.5q0 -255 91 -375.5t256 -120.5z" />
    <glyph glyph-name="uni1EDB" unicode="&#x1edb;" horiz-adv-x="1282" 
d="M668 1446h300l-296 -291h-210zM576 -20q-229 0 -364.5 143.5t-135.5 387.5q0 246 136 394.5t365 148.5q232 0 368 -152q55 1 82.5 15t45.5 59t25 137h192q-2 -182 -58.5 -266.5t-197.5 -93.5q42 -109 42 -242q0 -238 -134 -384.5t-366 -146.5zM577 197q108 0 160.5 91
t52.5 233q0 65 -11 119.5t-34.5 100.5t-66.5 72t-101 26q-110 0 -163 -88t-53 -230q0 -64 11 -119.5t35 -103t67.5 -74.5t102.5 -27z" />
    <glyph glyph-name="uni1EDC" unicode="&#x1edc;" horiz-adv-x="1670" 
d="M655 1858l206 -291h-210l-296 291h300zM763 -20q-308 0 -487.5 198t-179.5 542q0 345 181 545.5t486 200.5q297 0 475 -192q36 0 56 1.5t42.5 8t34.5 20t24 37t17.5 58.5t9.5 86h193q-2 -188 -62.5 -272t-212.5 -88q85 -172 85 -405q0 -343 -178 -541.5t-484 -198.5z
M763 220q345 0 345 496q0 262 -90.5 386t-254.5 124t-255.5 -124.5t-91.5 -385.5q0 -255 91 -375.5t256 -120.5z" />
    <glyph glyph-name="uni1EDD" unicode="&#x1edd;" horiz-adv-x="1282" 
d="M462 1446l206 -291h-211l-296 291h301zM576 -20q-229 0 -364.5 143.5t-135.5 387.5q0 246 136 394.5t365 148.5q232 0 368 -152q55 1 82.5 15t45.5 59t25 137h192q-2 -182 -58.5 -266.5t-197.5 -93.5q42 -109 42 -242q0 -238 -134 -384.5t-366 -146.5zM577 197
q108 0 160.5 91t52.5 233q0 65 -11 119.5t-34.5 100.5t-66.5 72t-101 26q-110 0 -163 -88t-53 -230q0 -64 11 -119.5t35 -103t67.5 -74.5t102.5 -27z" />
    <glyph glyph-name="uni1EDE" unicode="&#x1ede;" horiz-adv-x="1670" 
d="M621 1915q92 57 180.5 44.5t135.5 -85.5q56 -84 32 -166.5t-124 -142.5l-69 109q40 25 53 58t-7 67q-18 29 -57 31.5t-75 -21.5zM763 -20q-308 0 -487.5 198t-179.5 542q0 345 181 545.5t486 200.5q297 0 475 -192q36 0 56 1.5t42.5 8t34.5 20t24 37t17.5 58.5t9.5 86
h193q-2 -188 -62.5 -272t-212.5 -88q85 -172 85 -405q0 -343 -178 -541.5t-484 -198.5zM763 220q345 0 345 496q0 262 -90.5 386t-254.5 124t-255.5 -124.5t-91.5 -385.5q0 -255 91 -375.5t256 -120.5z" />
    <glyph glyph-name="uni1EDF" unicode="&#x1edf;" horiz-adv-x="1282" 
d="M423 1503q92 57 180.5 44.5t135.5 -85.5q56 -84 32 -166.5t-124 -142.5l-69 109q40 25 53 58t-7 67q-18 29 -57 31.5t-75 -21.5zM576 -20q-229 0 -364.5 143.5t-135.5 387.5q0 246 136 394.5t365 148.5q232 0 368 -152q55 1 82.5 15t45.5 59t25 137h192
q-2 -182 -58.5 -266.5t-197.5 -93.5q42 -109 42 -242q0 -238 -134 -384.5t-366 -146.5zM577 197q108 0 160.5 91t52.5 233q0 65 -11 119.5t-34.5 100.5t-66.5 72t-101 26q-110 0 -163 -88t-53 -230q0 -64 11 -119.5t35 -103t67.5 -74.5t102.5 -27z" />
    <glyph glyph-name="uni1EE0" unicode="&#x1ee0;" horiz-adv-x="1670" 
d="M1112 1682q-82 -70 -201 -70q-57 0 -147 27.5t-140 27.5q-48 0 -81.5 -14.5t-75.5 -49.5l-45 153q43 44 87 67.5t106 23.5q59 0 156 -30.5t139 -30.5q75 0 166 69zM763 -20q-308 0 -487.5 198t-179.5 542q0 345 181 545.5t486 200.5q297 0 475 -192q36 0 56 1.5t42.5 8
t34.5 20t24 37t17.5 58.5t9.5 86h193q-2 -188 -62.5 -272t-212.5 -88q85 -172 85 -405q0 -343 -178 -541.5t-484 -198.5zM763 220q345 0 345 496q0 262 -90.5 386t-254.5 124t-255.5 -124.5t-91.5 -385.5q0 -255 91 -375.5t256 -120.5z" />
    <glyph glyph-name="uni1EE1" unicode="&#x1ee1;" horiz-adv-x="1282" 
d="M914 1270q-82 -70 -201 -70q-57 0 -147 27.5t-140 27.5q-48 0 -81.5 -14.5t-75.5 -49.5l-45 153q43 44 87 67.5t106 23.5q59 0 156 -30.5t139 -30.5q75 0 166 69zM576 -20q-229 0 -364.5 143.5t-135.5 387.5q0 246 136 394.5t365 148.5q232 0 368 -152q55 1 82.5 15
t45.5 59t25 137h192q-2 -182 -58.5 -266.5t-197.5 -93.5q42 -109 42 -242q0 -238 -134 -384.5t-366 -146.5zM577 197q108 0 160.5 91t52.5 233q0 65 -11 119.5t-34.5 100.5t-66.5 72t-101 26q-110 0 -163 -88t-53 -230q0 -64 11 -119.5t35 -103t67.5 -74.5t102.5 -27z" />
    <glyph glyph-name="uni1EE2" unicode="&#x1ee2;" horiz-adv-x="1670" 
d="M763 -20q-308 0 -487.5 198t-179.5 542q0 345 181 545.5t486 200.5q297 0 475 -192q36 0 56 1.5t42.5 8t34.5 20t24 37t17.5 58.5t9.5 86h193q-2 -188 -62.5 -272t-212.5 -88q85 -172 85 -405q0 -343 -178 -541.5t-484 -198.5zM763 220q345 0 345 496q0 262 -90.5 386
t-254.5 124t-255.5 -124.5t-91.5 -385.5q0 -255 91 -375.5t256 -120.5zM626 -398v238h279v-238h-279z" />
    <glyph glyph-name="uni1EE3" unicode="&#x1ee3;" horiz-adv-x="1282" 
d="M576 -20q-229 0 -364.5 143.5t-135.5 387.5q0 246 136 394.5t365 148.5q232 0 368 -152q55 1 82.5 15t45.5 59t25 137h192q-2 -182 -58.5 -266.5t-197.5 -93.5q42 -109 42 -242q0 -238 -134 -384.5t-366 -146.5zM577 197q108 0 160.5 91t52.5 233q0 65 -11 119.5
t-34.5 100.5t-66.5 72t-101 26q-110 0 -163 -88t-53 -230q0 -64 11 -119.5t35 -103t67.5 -74.5t102.5 -27zM409 -398v238h278v-238h-278z" />
    <glyph glyph-name="uni1EE4" unicode="&#x1ee4;" horiz-adv-x="1448" 
d="M1319 551q0 -276 -137.5 -423.5t-441.5 -147.5q-156 0 -268.5 39.5t-179.5 116.5t-98.5 181.5t-31.5 243.5v885h297v-907q0 -156 75 -233.5t206 -77.5t207.5 77t76.5 234v907h295v-895zM601 -396v237h278v-237h-278z" />
    <glyph glyph-name="uni1EE5" unicode="&#x1ee5;" horiz-adv-x="1190" 
d="M506 -20q-73 0 -142 23t-126 64t-91.5 107t-34.5 145v715h292v-678q0 -74 48 -119t137 -45q86 0 136.5 44.5t50.5 124.5v673h289v-1034h-220l-34 205q-11 -52 -34.5 -92.5t-53.5 -65.5t-68 -40.5t-74 -21t-75 -5.5zM457 -398v238h279v-238h-279z" />
    <glyph glyph-name="uni1EE6" unicode="&#x1ee6;" horiz-adv-x="1448" 
d="M600 1915q92 57 180.5 44.5t135.5 -85.5q56 -84 32 -166.5t-124 -142.5l-69 109q40 25 53 58t-7 67q-18 29 -57 31.5t-75 -21.5zM1319 551q0 -276 -137.5 -423.5t-441.5 -147.5q-156 0 -268.5 39.5t-179.5 116.5t-98.5 181.5t-31.5 243.5v885h297v-907q0 -156 75 -233.5
t206 -77.5t207.5 77t76.5 234v907h295v-895z" />
    <glyph glyph-name="uni1EE7" unicode="&#x1ee7;" horiz-adv-x="1190" 
d="M451 1503q92 57 180.5 44.5t135.5 -85.5q56 -84 31.5 -166.5t-124.5 -142.5l-68 109q40 25 53 58t-7 67q-18 29 -57.5 31.5t-74.5 -21.5zM506 -20q-73 0 -142 23t-126 64t-91.5 107t-34.5 145v715h292v-678q0 -74 48 -119t137 -45q86 0 136.5 44.5t50.5 124.5v673h289
v-1034h-220l-34 205q-11 -52 -34.5 -92.5t-53.5 -65.5t-68 -40.5t-74 -21t-75 -5.5z" />
    <glyph glyph-name="uni1EE8" unicode="&#x1ee8;" horiz-adv-x="1721" 
d="M841 1858h301l-297 -291h-210zM1319 551q0 -276 -137.5 -423.5t-441.5 -147.5q-156 0 -268.5 39.5t-179.5 116.5t-98.5 181.5t-31.5 243.5v885h297v-907q0 -156 75 -233.5t206 -77.5t207.5 77t76.5 234v907h295v-171q48 2 74 17.5t43 60.5t23 132h192q-1 -103 -17 -170.5
t-54.5 -113t-102 -63t-158.5 -12.5v-575z" />
    <glyph glyph-name="uni1EE9" unicode="&#x1ee9;" horiz-adv-x="1420" 
d="M702 1446h301l-296 -291h-211zM506 -20q-73 0 -142 23t-126 64t-91.5 107t-34.5 145v715h292v-678q0 -74 48 -119t137 -45q86 0 136.5 44.5t50.5 124.5v673h289v-132q41 1 65 8t43.5 29t29.5 63.5t15 110.5h193q-2 -207 -77 -289.5t-269 -69.5v-754h-220l-34 205
q-11 -52 -34.5 -92.5t-53.5 -65.5t-68 -40.5t-74 -21t-75 -5.5z" />
    <glyph glyph-name="uni1EEA" unicode="&#x1eea;" horiz-adv-x="1721" 
d="M634 1858l206 -291h-210l-296 291h300zM1319 551q0 -276 -137.5 -423.5t-441.5 -147.5q-156 0 -268.5 39.5t-179.5 116.5t-98.5 181.5t-31.5 243.5v885h297v-907q0 -156 75 -233.5t206 -77.5t207.5 77t76.5 234v907h295v-171q48 2 74 17.5t43 60.5t23 132h192
q-1 -103 -17 -170.5t-54.5 -113t-102 -63t-158.5 -12.5v-575z" />
    <glyph glyph-name="uni1EEB" unicode="&#x1eeb;" horiz-adv-x="1420" 
d="M496 1446l206 -291h-210l-297 291h301zM506 -20q-73 0 -142 23t-126 64t-91.5 107t-34.5 145v715h292v-678q0 -74 48 -119t137 -45q86 0 136.5 44.5t50.5 124.5v673h289v-132q41 1 65 8t43.5 29t29.5 63.5t15 110.5h193q-2 -207 -77 -289.5t-269 -69.5v-754h-220l-34 205
q-11 -52 -34.5 -92.5t-53.5 -65.5t-68 -40.5t-74 -21t-75 -5.5z" />
    <glyph glyph-name="uni1EEC" unicode="&#x1eec;" horiz-adv-x="1721" 
d="M600 1915q92 57 180.5 44.5t135.5 -85.5q56 -84 32 -166.5t-124 -142.5l-69 109q40 25 53 58t-7 67q-18 29 -57 31.5t-75 -21.5zM1319 551q0 -276 -137.5 -423.5t-441.5 -147.5q-156 0 -268.5 39.5t-179.5 116.5t-98.5 181.5t-31.5 243.5v885h297v-907q0 -156 75 -233.5
t206 -77.5t207.5 77t76.5 234v907h295v-171q48 2 74 17.5t43 60.5t23 132h192q-1 -103 -17 -170.5t-54.5 -113t-102 -63t-158.5 -12.5v-575z" />
    <glyph glyph-name="uni1EED" unicode="&#x1eed;" horiz-adv-x="1420" 
d="M458 1503q92 57 180.5 44.5t135.5 -85.5q56 -84 32 -166.5t-124 -142.5l-69 109q40 25 53 58t-7 67q-18 29 -57 31.5t-75 -21.5zM506 -20q-73 0 -142 23t-126 64t-91.5 107t-34.5 145v715h292v-678q0 -74 48 -119t137 -45q86 0 136.5 44.5t50.5 124.5v673h289v-132
q41 1 65 8t43.5 29t29.5 63.5t15 110.5h193q-2 -207 -77 -289.5t-269 -69.5v-754h-220l-34 205q-11 -52 -34.5 -92.5t-53.5 -65.5t-68 -40.5t-74 -21t-75 -5.5z" />
    <glyph glyph-name="uni1EEE" unicode="&#x1eee;" horiz-adv-x="1713" 
d="M1091 1682q-82 -70 -201 -70q-57 0 -147 27.5t-140 27.5q-48 0 -81.5 -14.5t-75.5 -49.5l-45 153q43 44 87 67.5t106 23.5q59 0 156 -30.5t139 -30.5q75 0 166 69zM1319 551q0 -276 -137.5 -423.5t-441.5 -147.5q-156 0 -268.5 39.5t-179.5 116.5t-98.5 181.5
t-31.5 243.5v885h297v-907q0 -156 75 -233.5t206 -77.5t207.5 77t76.5 234v907h295v-171q48 2 74 17.5t43 60.5t23 132h192q-1 -103 -17 -170.5t-54.5 -113t-102 -63t-158.5 -12.5v-575z" />
    <glyph glyph-name="uni1EEF" unicode="&#x1eef;" horiz-adv-x="1420" 
d="M949 1270q-84 -70 -202 -70q-57 0 -146.5 27.5t-139.5 27.5q-48 0 -81.5 -14.5t-75.5 -49.5l-45 153q42 44 86 67.5t106 23.5q59 0 156 -30.5t140 -30.5q75 0 166 69zM506 -20q-73 0 -142 23t-126 64t-91.5 107t-34.5 145v715h292v-678q0 -74 48 -119t137 -45
q86 0 136.5 44.5t50.5 124.5v673h289v-132q41 1 65 8t43.5 29t29.5 63.5t15 110.5h193q-2 -207 -77 -289.5t-269 -69.5v-754h-220l-34 205q-11 -52 -34.5 -92.5t-53.5 -65.5t-68 -40.5t-74 -21t-75 -5.5z" />
    <glyph glyph-name="uni1EF0" unicode="&#x1ef0;" horiz-adv-x="1721" 
d="M1319 551q0 -276 -137.5 -423.5t-441.5 -147.5q-156 0 -268.5 39.5t-179.5 116.5t-98.5 181.5t-31.5 243.5v885h297v-907q0 -156 75 -233.5t206 -77.5t207.5 77t76.5 234v907h295v-171q48 2 74 17.5t43 60.5t23 132h192q-1 -103 -17 -170.5t-54.5 -113t-102 -63
t-158.5 -12.5v-575zM601 -396v237h278v-237h-278z" />
    <glyph glyph-name="uni1EF1" unicode="&#x1ef1;" horiz-adv-x="1420" 
d="M506 -20q-73 0 -142 23t-126 64t-91.5 107t-34.5 145v715h292v-678q0 -74 48 -119t137 -45q86 0 136.5 44.5t50.5 124.5v673h289v-132q41 1 65 8t43.5 29t29.5 63.5t15 110.5h193q-2 -207 -77 -289.5t-269 -69.5v-754h-220l-34 205q-11 -52 -34.5 -92.5t-53.5 -65.5
t-68 -40.5t-74 -21t-75 -5.5zM448 -398v238h279v-238h-279z" />
    <glyph glyph-name="Ygrave" unicode="&#x1ef2;" horiz-adv-x="1335" 
d="M594 1859l206 -291h-210l-296 291h300zM1316 1446l-503 -838v-608h-292v609l-502 837h316l333 -586l329 586h319z" />
    <glyph glyph-name="ygrave" unicode="&#x1ef3;" horiz-adv-x="1126" 
d="M457 1446l206 -291h-210l-297 291h301zM287 -330q-63 0 -111.5 9t-65.5 17l-17 9v186l103 -4q49 -3 87 3.5t58 15t36.5 27t20 25.5t10.5 24q1 3 2 4l19 57l-402 991h289l248 -674l250 674h286l-419 -1040q-40 -97 -84 -161.5t-94 -99.5t-101 -49t-115 -14z" />
    <glyph glyph-name="uni1EF4" unicode="&#x1ef4;" horiz-adv-x="1335" 
d="M1316 1446l-503 -838v-608h-292v609l-502 837h316l333 -586l329 586h319zM529 -398v238h279v-238h-279z" />
    <glyph glyph-name="uni1EF5" unicode="&#x1ef5;" horiz-adv-x="1126" 
d="M287 -330q-63 0 -111.5 9t-65.5 17l-17 9v186l103 -4q49 -3 87 3.5t58 15t36.5 27t20 25.5t10.5 24q1 3 2 4l19 57l-402 991h289l248 -674l250 674h286l-419 -1040q-40 -97 -84 -161.5t-94 -99.5t-101 -49t-115 -14zM726 -358v238h279v-238h-279z" />
    <glyph glyph-name="uni1EF6" unicode="&#x1ef6;" horiz-adv-x="1335" 
d="M560 1916q92 57 180.5 44.5t135.5 -85.5q56 -84 32 -166.5t-124 -141.5l-69 108q41 25 53.5 58t-7.5 67q-18 30 -57 32t-75 -22zM1316 1446l-503 -838v-608h-292v609l-502 837h316l333 -586l329 586h319z" />
    <glyph glyph-name="uni1EF7" unicode="&#x1ef7;" horiz-adv-x="1126" 
d="M423 1503q92 57 180.5 44.5t135.5 -85.5q56 -84 32 -166.5t-124 -142.5l-69 109q40 25 53 58t-7 67q-18 29 -57.5 31.5t-74.5 -21.5zM287 -330q-63 0 -111.5 9t-65.5 17l-17 9v186l103 -4q49 -3 87 3.5t58 15t36.5 27t20 25.5t10.5 24q1 3 2 4l19 57l-402 991h289
l248 -674l250 674h286l-419 -1040q-40 -97 -84 -161.5t-94 -99.5t-101 -49t-115 -14z" />
    <glyph glyph-name="uni1EF8" unicode="&#x1ef8;" horiz-adv-x="1335" 
d="M1051 1683q-84 -70 -201 -70q-57 0 -147 28t-140 28q-48 0 -81.5 -15t-75.5 -50l-45 153q44 45 87.5 68.5t105.5 23.5q59 0 156 -31t139 -31q75 0 166 69zM1316 1446l-503 -838v-608h-292v609l-502 837h316l333 -586l329 586h319z" />
    <glyph glyph-name="uni1EF9" unicode="&#x1ef9;" horiz-adv-x="1126" 
d="M914 1270q-84 -70 -202 -70q-57 0 -146.5 27.5t-139.5 27.5q-48 0 -81.5 -14.5t-75.5 -49.5l-45 153q42 44 86 67.5t106 23.5q59 0 156 -30.5t139 -30.5q76 0 167 69zM287 -330q-63 0 -111.5 9t-65.5 17l-17 9v186l103 -4q49 -3 87 3.5t58 15t36.5 27t20 25.5t10.5 24
q1 3 2 4l19 57l-402 991h289l248 -674l250 674h286l-419 -1040q-40 -97 -84 -161.5t-94 -99.5t-101 -49t-115 -14z" />
    <glyph glyph-name="endash" unicode="&#x2013;" horiz-adv-x="1185" 
d="M1064 604v-213l-944 -1v213z" />
    <glyph glyph-name="emdash" unicode="&#x2014;" horiz-adv-x="2298" 
d="M1938 604v-213l-1577 -1v213z" />
    <glyph glyph-name="quoteleft" unicode="&#x2018;" horiz-adv-x="526" 
d="M386 1507l-116 -273l102 -9v-281h-295v248l201 315h108z" />
    <glyph glyph-name="quoteright" unicode="&#x2019;" horiz-adv-x="523" 
d="M100 884l116 272l-102 10v280h295v-247l-201 -315h-108z" />
    <glyph glyph-name="quotesinglbase" unicode="&#x201a;" horiz-adv-x="554" 
d="M94 -277l115 272l-101 9v283h295v-249l-201 -315h-108z" />
    <glyph glyph-name="quotedblleft" unicode="&#x201c;" horiz-adv-x="959" 
d="M510 884v248l201 314h108l-116 -271l102 -10v-281h-295zM77 884v248l201 314h108l-116 -271l102 -10v-281h-295z" />
    <glyph glyph-name="quotedblright" unicode="&#x201d;" horiz-adv-x="956" 
d="M531 884l118 272l-103 10v280h296v-247l-201 -315h-110zM100 884l116 272l-102 10v280h295v-247l-201 -315h-108z" />
    <glyph glyph-name="quotedblbase" unicode="&#x201e;" horiz-adv-x="997" 
d="M537 -277l116 272l-102 9v283h295v-249l-201 -315h-108zM94 -277l115 272l-101 9v283h295v-249l-201 -315h-108z" />
    <glyph glyph-name="dagger" unicode="&#x2020;" horiz-adv-x="1041" 
d="M965 986v-254l-366 42l55 -1096h-280l54 1096l-366 -42v254l356 -37l-46 497h284l-47 -497z" />
    <glyph glyph-name="daggerdbl" unicode="&#x2021;" horiz-adv-x="1041" 
d="M601 746v-422l364 41v-255l-358 39l49 -471h-284l47 471l-357 -39v255l363 -41v422l-363 -41v253l356 -38l-46 526h282l-45 -526l356 38v-253z" />
    <glyph glyph-name="bullet" unicode="&#x2022;" horiz-adv-x="706" 
d="M342 484q-104 0 -177 74t-73 178q0 103 73 176.5t177 73.5q103 0 177 -73.5t74 -176.5q0 -104 -74 -178t-177 -74z" />
    <glyph glyph-name="ellipsis" unicode="&#x2026;" horiz-adv-x="1789" 
d="M1349 0v318h320v-318h-320zM99 0v318h320v-318h-320zM724 0v318h320v-318h-320z" />
    <glyph glyph-name="perthousand" unicode="&#x2030;" horiz-adv-x="2705" 
d="M459 1468q154 0 258.5 -119.5t104.5 -294.5q0 -173 -103.5 -289.5t-259.5 -116.5t-261 116.5t-105 289.5q0 174 106 294t260 120zM1537 1462l-972 -1470l-172 3l975 1467h169zM457 796q150 0 150 258q0 127 -38 197t-112 70t-111.5 -70.5t-37.5 -196.5q0 -124 37 -191
t112 -67zM1408 802q155 0 259.5 -120t104.5 -294q0 -173 -104 -290.5t-260 -117.5t-261.5 117.5t-105.5 290.5q0 174 106 294t261 120zM2236 802q153 0 257.5 -120t104.5 -294q0 -173 -103.5 -290.5t-258.5 -117.5q-158 0 -262.5 117.5t-104.5 290.5q0 174 106 294t261 120z
M1406 131q75 0 112.5 67t37.5 188q0 126 -38.5 196.5t-111.5 70.5t-110.5 -71t-37.5 -196q0 -121 37 -188t111 -67zM2234 131q75 0 111.5 67t36.5 188q0 126 -37.5 196.5t-110.5 70.5t-111.5 -71t-38.5 -196q0 -121 38 -188t112 -67z" />
    <glyph glyph-name="guilsinglleft" unicode="&#x2039;" horiz-adv-x="618" 
d="M330 502l162 -373h-154l-237 373l236 389h156z" />
    <glyph glyph-name="guilsinglright" unicode="&#x203a;" horiz-adv-x="617" 
d="M287 502l-163 389h156l236 -389l-237 -373h-153z" />
    <glyph glyph-name="fraction" unicode="&#x2044;" horiz-adv-x="474" 
d="M811 1462l-972 -1470l-173 3l975 1467h170z" />
    <glyph glyph-name="uni2070" unicode="&#x2070;" horiz-adv-x="804" 
d="M403 1667q166 0 258 -123.5t92 -346.5q0 -222 -91.5 -343t-258.5 -121q-168 0 -259.5 120.5t-91.5 342.5q0 223 92.5 347t258.5 124zM403 884q82 0 118.5 73t36.5 238q0 170 -37 246.5t-119 76.5t-119 -77t-37 -246q0 -164 37 -237.5t120 -73.5z" />
    <glyph glyph-name="uni2074" unicode="&#x2074;" horiz-adv-x="820" 
d="M455 1655h183v-553h140v-156h-140v-201h-180l1 201h-417v152zM215 1102h244v326z" />
    <glyph glyph-name="uni2075" unicode="&#x2075;" horiz-adv-x="843" 
d="M147 1654h586l-7 -154h-431l-17 -211q102 50 194 50q140 0 229.5 -79t89.5 -218q0 -144 -95.5 -227t-258.5 -83q-134 0 -237.5 59.5t-147.5 155.5l146 84q85 -150 220 -150q80 0 129 43t49 111q0 66 -48 109t-124 43q-45 0 -80 -12.5t-79 -47.5q-12 -4 -25 2l-134 61z
" />
    <glyph glyph-name="uni2076" unicode="&#x2076;" horiz-adv-x="824" 
d="M434 1667q133 0 227 -72t100 -192h-171q-33 116 -152 116q-95 0 -143 -78t-37 -205q34 41 88.5 63.5t116.5 22.5q140 0 225 -77t85 -203q0 -135 -97 -220.5t-249 -85.5q-175 0 -275 121t-100 325q0 228 102 356.5t280 128.5zM420 1181q-57 0 -105.5 -36.5t-48.5 -76.5
q-1 -90 41.5 -140.5t112.5 -50.5q66 0 110.5 44t44.5 113q0 73 -43 110t-112 37z" />
    <glyph glyph-name="uni2077" unicode="&#x2077;" horiz-adv-x="745" 
d="M42 1657h681v-153q-112 -138 -211.5 -372t-103.5 -385h-201q11 138 92 351t228 406h-485v153z" />
    <glyph glyph-name="uni2078" unicode="&#x2078;" horiz-adv-x="859" 
d="M430 1667q146 0 237 -68t91 -188q0 -65 -35 -114t-95 -77q65 -16 117 -80.5t52 -139.5q0 -122 -100.5 -193.5t-266.5 -71.5q-167 0 -267.5 71.5t-100.5 193.5q0 75 52 139.5t117 80.5q-59 28 -94.5 77t-35.5 114q0 120 91.5 188t237.5 68zM430 1291q64 0 103 33.5
t39 90.5t-40 91.5t-102 34.5q-63 0 -102.5 -34.5t-39.5 -91.5t39 -90.5t103 -33.5zM430 875q78 0 123.5 35t45.5 95t-46 97t-123 37q-78 0 -123.5 -36.5t-45.5 -97.5q0 -60 45 -95t124 -35z" />
    <glyph glyph-name="uni2079" unicode="&#x2079;" horiz-adv-x="823" 
d="M387 735q-133 0 -229 73.5t-103 190.5h177q11 -53 50.5 -84.5t95.5 -31.5q103 0 158.5 71t46.5 219q-30 -48 -84.5 -75t-127.5 -27q-141 0 -228.5 79t-87.5 209q0 136 95 222t247 86q174 0 274 -121.5t100 -325.5q0 -242 -101.5 -363.5t-282.5 -121.5zM403 1220
q57 0 105.5 37t49.5 77q1 90 -42 141t-113 51q-64 0 -106 -43.5t-42 -114.5t41 -109.5t107 -38.5z" />
    <glyph glyph-name="colonmonetary" unicode="&#x20a1;" horiz-adv-x="1436" 
d="M738 1560h129l-19 -101q43 -5 98 -21l23 122h129l-33 -173q117 -66 189.5 -176t85.5 -244h-306q-11 54 -30 96l-157 -823q75 30 123 99.5t64 160.5h306q-14 -105 -48 -191t-95.5 -159.5t-163 -117.5t-235.5 -51l-20 -103h-129l20 106q-51 6 -99 18l-23 -124h-129l32 169
q-169 85 -261.5 264t-92.5 424q0 332 166 526t458 204zM616 244q42 -18 99 -23l183 964q-42 25 -96 36zM417 731q0 -265 88 -393l168 882q-256 -48 -256 -489z" />
    <glyph glyph-name="franc" unicode="&#x20a3;" horiz-adv-x="1249" 
d="M768 398v-160h-298v-238h-332v238h-176v159h176v1049h1032l-1 -243h-699v-374h518v-237h-518v-195z" />
    <glyph glyph-name="lira" unicode="&#x20a4;" horiz-adv-x="1296" 
d="M1214 350q-45 -169 -163 -259.5t-288 -90.5h-722v242h68q67 0 111 42t54 126q5 25 4 65q0 14 -17 14h-208v158h204l-20 134h-184v160h160l-7 79q-13 113 18.5 200.5t97 140t150.5 79t185 26.5q95 0 185.5 -31t167.5 -97.5t115 -158.5l-255 -78q-27 63 -66 98t-103 35
q-73 0 -118 -45t-45 -124q0 -24 11 -103q3 -21 23 -21h269v-159l-264 -1l18 -134h246v-158h-251q-10 -70 -41 -135.5t-83 -109.5h275q92 0 145 37t81 123z" />
    <glyph glyph-name="uni20A6" unicode="&#x20a6;" horiz-adv-x="1558" 
d="M1528 607v-144l-61 -1v-462h-263l-319 462h-368v-462h-291v462h-209v144h209v275h-209v144h209v421h289l290 -420h370v420h292v-420h61v-144h-61v-275h61zM904 881l190 -275h81v276zM517 881v-275h268l-190 275h-78z" />
    <glyph glyph-name="uni20A9" unicode="&#x20a9;" horiz-adv-x="2237" 
d="M2200 889v-158h-378l-216 -731h-233l-210 730h-124l-211 -730h-229l-216 730h-360v158h314l-46 154h-268v158h222l-73 246h286l69 -246h400l69 246h212l70 -246h401l69 246h285l-72 -246l239 1v-158h-286l-45 -155zM1322 1042l44 -154h225l43 154h-312zM572 1042l44 -154
h223l43 154h-310zM1101 945l-16 -57h33zM1479 491l68 239h-136zM728 491l67 239h-135z" />
    <glyph glyph-name="dong" unicode="&#x20ab;" horiz-adv-x="1072" 
d="M673 265v106q-52 -57 -110.5 -89.5t-148.5 -32.5q-151 0 -244.5 112t-93.5 321q0 200 102.5 324.5t252.5 124.5q65 0 114.5 -21t95.5 -65q28 -20 28 12v149h-225v129h225v110h245v-110h121v-129h-121v-941h-241zM666 892q-37 40 -72.5 59t-81.5 19q-85 0 -134 -70
t-49 -215q0 -280 181 -280q67 0 111.5 41.5t44.5 97.5v348zM917 141v-141h-786v141h786z" />
    <glyph glyph-name="Euro" unicode="&#x20ac;" horiz-adv-x="1303" 
d="M778 -20q-220 0 -377 135t-214 367h-186v159h160q-2 30 -4 94q0 37 3 73h-159v157l181 1q54 235 212 367.5t383 132.5q135 0 251.5 -53t194.5 -147l-200 -153q-54 58 -104 89.5t-116 31.5q-222 0 -284 -268h331v-158h-352q-2 -25 -2 -78q0 -47 3 -89l351 1v-160h-326
q36 -129 111.5 -192.5t181.5 -63.5q69 0 137 38t111 90l157 -168q-80 -92 -196 -149t-248 -57z" />
    <glyph glyph-name="uni20B9" unicode="&#x20b9;" horiz-adv-x="1286" 
d="M41 845h423q116 0 178.5 38t78.5 120l-678 -1v144l676 1q-38 144 -241 144h-437v155h2l1192 1v-144l-255 -1q64 -65 83 -155h172v-144h-167q-16 -116 -88 -196t-176 -119q-15 -4 -7 -29l269 -659h-360l-225 634h-440v211z" />
    <glyph glyph-name="uni20BA" unicode="&#x20ba;" horiz-adv-x="1311" 
d="M554 0h-285v435l-156 -57l-55 154l211 77v151l-183 -67l-56 154l239 87v512h334v-391l241 88l57 -152l-298 -109v-151l268 97l55 -154l-323 -118v-312h70q113 4 201 84t145 232l259 -55q-180 -505 -724 -505z" />
    <glyph glyph-name="uni2113" unicode="&#x2113;" horiz-adv-x="1140" 
d="M608 -17q-174 0 -271 80.5t-129 247.5l-97 -65l-68 160l163 122v443q0 243 116 369t309 126q89 0 154.5 -26t104 -73t56.5 -106.5t18 -131.5q0 -61 -14.5 -120t-35 -107t-59.5 -102.5t-71 -92t-88.5 -89.5t-92 -83t-99.5 -84q0 -140 36.5 -196.5t133.5 -56.5
q73 0 140 39.5t139 127.5l98 -97q-17 -38 -38.5 -72.5t-60 -75t-84.5 -69.5t-114 -48.5t-146 -19.5zM504 687q266 247 266 460q0 68 -29 106t-87 38q-73 0 -111.5 -71t-38.5 -246v-287z" />
    <glyph glyph-name="uni2116" unicode="&#x2116;" horiz-adv-x="2370" 
d="M1967 1465q147 0 237.5 -94t90.5 -244q0 -147 -90.5 -239.5t-237.5 -92.5q-148 0 -237.5 92.5t-89.5 239.5q0 151 92 244.5t235 93.5zM1111 1446h292v-1446h-263l-687 995v-995h-291v1446h289l660 -957v957zM1967 1340q-133 0 -133 -208q0 -209 133 -209q134 0 134 209
q0 208 -134 208z" />
    <glyph glyph-name="uni2117" unicode="&#x2117;" horiz-adv-x="1661" 
d="M823 -20q-202 0 -372.5 99t-270 270t-99.5 375q0 150 58.5 287.5t158 237t237 158.5t288.5 59t289 -59t237.5 -158.5t158.5 -237t59 -287.5q0 -203 -100 -374.5t-271 -270.5t-373 -99zM823 143q122 0 226 41t179.5 115.5t118 184t42.5 240.5q0 260 -159.5 421t-406.5 161
q-250 0 -407.5 -160.5t-157.5 -421.5q0 -264 157 -422.5t408 -158.5zM1186 863q0 -122 -77 -187.5t-206 -65.5h-176v-274h-187v772h344q134 0 218 -61.5t84 -183.5zM996 859q0 58 -34 85t-89 27h-146v-227h153q52 0 84 30t32 85z" />
    <glyph glyph-name="uni2120" unicode="&#x2120;" horiz-adv-x="2022" 
d="M438 -12q-93 0 -173.5 29t-138 91.5t-66.5 149.5h187q13 -60 64.5 -93.5t125.5 -33.5q79 0 131 29.5t52 84.5q0 47 -40 73t-113 41l-157 32q-105 20 -164 82.5t-60 164.5q-1 125 98 201t250 76q169 0 263.5 -77t96.5 -197h-183q-14 129 -174 129q-72 0 -115.5 -30.5
t-43.5 -80.5q0 -41 27 -65t97 -39l155 -32q246 -47 246 -278q0 -110 -102 -183.5t-263 -73.5zM977 0v904h265l207 -644l208 644h265v-904h-185v691l-217 -691h-143l-216 688v-688h-184z" />
    <glyph glyph-name="trademark" unicode="&#x2122;" horiz-adv-x="1906" 
d="M21 741v163h723v-163h-267v-741h-183v741h-273zM861 0v904h265l207 -644l209 644h264v-904h-185v691l-217 -691h-143l-216 688v-688h-184z" />
    <glyph glyph-name="uni2126" unicode="&#x2126;" horiz-adv-x="1535" 
d="M772 1265q-156 0 -251.5 -125t-95.5 -352q0 -363 286 -567v-221h-588v252h276q-307 256 -307 578q0 102 28.5 200t86.5 183.5t138 150.5t190.5 102.5t236.5 37.5q130 0 241 -39.5t189 -106t133 -153.5t81.5 -182t26.5 -191q0 -174 -74 -306.5t-241 -273.5h284v-252h-587
v221q51 37 96 84t90.5 116.5t72 166.5t26.5 207q0 221 -91 345.5t-247 124.5z" />
    <glyph glyph-name="uni2153" unicode="&#x2153;" horiz-adv-x="1847" 
d="M1370 1462l-972 -1470l-172 3l975 1467h169zM204 536v679h-162v106q112 0 165.5 31.5t60.5 93.5h126v-910h-190zM1064 626q-1 141 96 217.5t251 76.5q160 0 256.5 -61.5t96.5 -182.5q0 -142 -163 -199q81 -23 132.5 -78t51.5 -142q0 -129 -107.5 -200.5t-271.5 -70.5
t-255 79.5t-93 216.5h180q24 -145 170 -145q82 0 130.5 35t48.5 91q0 55 -47 90t-126 37l-88 3v149l80 4q71 3 115.5 36.5t44.5 85.5q0 48 -44.5 77.5t-114.5 29.5t-115.5 -35.5t-49.5 -113.5h-178z" />
    <glyph glyph-name="uni2154" unicode="&#x2154;" horiz-adv-x="2168" 
d="M1692 1462l-972 -1470l-173 3l975 1467h170zM59 537v138q0 66 26 119.5t68 89t92.5 65.5t101.5 54.5t93 49.5t68 58t26 72q0 54 -38 88t-102 34q-70 0 -117 -40.5t-56 -118.5h-179q1 138 93 225.5t264 87.5q152 0 241 -75.5t89 -199.5q0 -65 -25.5 -117.5t-66.5 -86
t-90 -61t-98.5 -50t-90.5 -45t-66.5 -53.5t-25.5 -69v-7h462v-158h-669zM1385 626q0 141 96.5 217.5t250.5 76.5q160 0 256.5 -61.5t96.5 -182.5q0 -142 -163 -199q81 -23 132.5 -78t51.5 -142q0 -129 -107.5 -200.5t-271.5 -70.5t-255 79.5t-92 216.5h179q24 -145 170 -145
q83 0 131 35t48 91q0 55 -46.5 90t-126.5 37l-87 3v149l79 4q71 3 115.5 36.5t44.5 85.5q0 48 -44.5 77.5t-113.5 29.5q-71 0 -116 -35.5t-49 -113.5h-179z" />
    <glyph glyph-name="oneeighth" unicode="&#x215b;" horiz-adv-x="1856" 
d="M1370 1462l-972 -1470l-172 3l975 1467h169zM204 536v679h-162v106q112 0 165.5 31.5t60.5 93.5h126v-910h-190zM1426 922q146 0 237.5 -68t91.5 -188q0 -65 -35 -114t-95 -77q65 -16 117 -80.5t52 -139.5q0 -122 -100.5 -193.5t-267.5 -71.5q-166 0 -267 71.5
t-101 193.5q0 75 52.5 139.5t117.5 80.5q-60 28 -95 77t-35 114q0 120 91 188t237 68zM1426 546q64 0 103 33.5t39 90.5t-39.5 91.5t-102.5 34.5q-62 0 -101.5 -34.5t-39.5 -91.5t38.5 -90.5t102.5 -33.5zM1426 130q79 0 124 35t45 95t-46 97t-123 37t-123 -37t-46 -97
t45.5 -95t123.5 -35z" />
    <glyph glyph-name="threeeighths" unicode="&#x215c;" horiz-adv-x="2113" 
d="M1627 1462l-972 -1470l-172 3l975 1467h169zM67 1166q0 141 96.5 217.5t250.5 76.5q160 0 256.5 -61.5t96.5 -182.5q0 -142 -163 -199q81 -23 132.5 -78t51.5 -142q0 -129 -107.5 -200.5t-271.5 -70.5t-255 79.5t-92 216.5h179q24 -145 170 -145q83 0 131 35t48 91
q0 55 -46.5 90t-126.5 37l-87 3v149l79 4q71 3 115.5 36.5t44.5 85.5q0 48 -44.5 77.5t-113.5 29.5q-71 0 -116 -35.5t-49 -113.5h-179zM1683 922q146 0 237.5 -68t91.5 -188q0 -65 -35.5 -114t-94.5 -77q65 -16 117 -80.5t52 -139.5q0 -122 -100.5 -193.5t-267.5 -71.5
q-166 0 -267 71.5t-101 193.5q0 75 52.5 139.5t117.5 80.5q-60 28 -95 77t-35 114q0 120 91 188t237 68zM1683 546q64 0 103 33.5t39 90.5t-39.5 91.5t-102.5 34.5q-62 0 -101.5 -34.5t-39.5 -91.5t38.5 -90.5t102.5 -33.5zM1683 130q78 0 123.5 35t45.5 95t-46 97t-123 37
t-123 -37t-46 -97t45 -95t124 -35z" />
    <glyph glyph-name="fiveeighths" unicode="&#x215d;" horiz-adv-x="2106" 
d="M1620 1462l-972 -1470l-172 3l975 1467h169zM147 1446h586l-7 -154h-431l-17 -211q102 50 194 50q140 0 229.5 -79t89.5 -218q0 -144 -95.5 -227t-258.5 -83q-134 0 -237.5 59.5t-147.5 155.5l146 84q85 -150 220 -150q80 0 129 43t49 111q0 66 -48 109t-124 43
q-45 0 -80 -12.5t-79 -47.5q-12 -4 -25 2l-134 61zM1676 922q146 0 237.5 -68t91.5 -188q0 -65 -35.5 -114t-94.5 -77q65 -16 117 -80.5t52 -139.5q0 -122 -100.5 -193.5t-267.5 -71.5q-166 0 -267 71.5t-101 193.5q0 75 52.5 139.5t117.5 80.5q-60 28 -95 77t-35 114
q0 120 91 188t237 68zM1676 546q64 0 103 33.5t39 90.5t-39.5 91.5t-102.5 34.5q-62 0 -101.5 -34.5t-39.5 -91.5t38.5 -90.5t102.5 -33.5zM1676 130q78 0 123.5 35t45.5 95t-46 97t-123 37t-123 -37t-46 -97t45 -95t124 -35z" />
    <glyph glyph-name="seveneighths" unicode="&#x215e;" horiz-adv-x="1937" 
d="M1452 1462l-972 -1470l-173 3l975 1467h170zM42 1447h681v-153q-112 -138 -211.5 -372t-103.5 -385h-201q11 138 92 351t228 406h-485v153zM1508 922q146 0 237 -68t91 -188q0 -65 -35 -114t-95 -77q65 -16 117 -80.5t52 -139.5q0 -122 -100.5 -193.5t-266.5 -71.5
q-167 0 -267.5 71.5t-100.5 193.5q0 75 52 139.5t117 80.5q-59 28 -94.5 77t-35.5 114q0 120 91.5 188t237.5 68zM1508 546q64 0 103 33.5t39 90.5t-40 91.5t-102 34.5q-63 0 -102.5 -34.5t-39.5 -91.5t39 -90.5t103 -33.5zM1508 130q78 0 123.5 35t45.5 95t-46 97t-123 37
q-78 0 -123.5 -36.5t-45.5 -97.5q0 -60 45 -95t124 -35z" />
    <glyph glyph-name="partialdiff" unicode="&#x2202;" horiz-adv-x="1211" 
d="M208 1160l-81 172q54 51 163.5 92.5t241.5 41.5t239 -46t185.5 -137.5t121.5 -235.5t43 -331q0 -344 -140 -540t-407 -196q-226 0 -358.5 134t-132.5 341q0 204 126.5 334.5t341.5 130.5q64 0 117 -14.5t81.5 -30.5t73.5 -48q32 -24 32 12q0 79 -22 150.5t-65.5 130.5
t-118.5 94t-171 35q-60 0 -115 -15.5t-84.5 -31t-70.5 -42.5zM564 189h2q107 0 178 95t87 253q3 29 1 42t-13 28q-33 48 -94.5 82t-129.5 34q-103 0 -168.5 -80t-65.5 -201q0 -115 57.5 -184t145.5 -69z" />
    <glyph glyph-name="emptyset" unicode="&#x2205;" horiz-adv-x="1195" 
d="M592 275q-153 0 -275 95l-137 -127l-98 102l138 127q-78 116 -78 256q0 186 132 318.5t318 132.5q160 0 285 -101l121 112l94 -100l-122 -114q75 -113 75 -248q0 -187 -133 -320t-320 -133zM276 728q0 -89 45 -163l455 420q-83 59 -184 59q-130 0 -223 -93.5t-93 -222.5z
M592 410q132 0 225 93t93 225q0 83 -41 154l-452 -419q78 -53 175 -53z" />
    <glyph glyph-name="uni2206" unicode="&#x2206;" horiz-adv-x="1542" 
d="M33 0l751 1446l724 -1446h-1475zM458 245h637l-311 664z" />
    <glyph glyph-name="product" unicode="&#x220f;" horiz-adv-x="1396" 
d="M1345 1446v-241h-181v-1205h-301v1205h-345v-1205h-302v1205h-179v241h1308z" />
    <glyph glyph-name="summation" unicode="&#x2211;" horiz-adv-x="1145" 
d="M1077 0h-1020v177l416 540l-393 531v198h961v-235h-563l358 -462l-396 -502h637v-247z" />
    <glyph glyph-name="minus" unicode="&#x2212;" horiz-adv-x="1177" 
d="M1061 834v-213h-945v213h945z" />
    <glyph glyph-name="uni2215" unicode="&#x2215;" horiz-adv-x="1220" 
d="M1132 1462l-872 -1470l-172 3l875 1467h169z" />
    <glyph glyph-name="uni2219" unicode="&#x2219;" horiz-adv-x="708" 
d="M344 579q-64 0 -109 45t-45 109t45 109t109 45t109 -45t45 -109t-45 -109t-109 -45z" />
    <glyph glyph-name="radical" unicode="&#x221a;" horiz-adv-x="1370" 
d="M1367 1651l-519 -1973h-297l-303 827l-158 -59l-60 165l380 137l284 -797l428 1700h245z" />
    <glyph glyph-name="infinity" unicode="&#x221e;" horiz-adv-x="1585" 
d="M1478 549v-4q0 -167 -100.5 -265t-247.5 -98q-55 0 -101 14t-87 45.5t-67.5 58.5t-69.5 77q-12 13 -17.5 13.5t-19.5 -13.5q-4 -4 -24.5 -27t-37 -41t-48.5 -43.5t-63.5 -42t-75.5 -29t-90 -12.5q-139 0 -237.5 98.5t-98.5 255.5q0 159 101 257.5t259 98.5q45 0 85 -10
t68 -23t61.5 -41t52.5 -47.5t55 -58.5q16 -17 25 -17t24 17q36 40 59.5 63t65.5 54.5t91.5 47t106.5 15.5q144 0 237.5 -94t93.5 -249zM446 364h5q56 0 110.5 40t91.5 92q16 24 15.5 35t-18.5 40q-48 71 -97 107.5t-109 36.5q-72 0 -117 -48.5t-45 -124.5q0 -78 47.5 -128
t116.5 -50zM1134 715h-2q-40 0 -81.5 -23.5t-66 -48t-59.5 -66.5q-31 -36 0 -71q102 -142 215 -142q68 0 108.5 53.5t40.5 122.5q0 72 -42.5 123.5t-112.5 51.5z" />
    <glyph glyph-name="integral" unicode="&#x222b;" horiz-adv-x="938" 
d="M298 1177q0 494 377 494q141 0 225 -52l-59 -241q-80 40 -147 40q-128 0 -128 -206q0 -187 27 -553.5t27 -496.5q0 -505 -374 -505q-136 0 -222 51l61 241q73 -39 143 -39q61 0 93.5 48.5t32.5 161.5q0 181 -28 553t-28 504z" />
    <glyph glyph-name="approxequal" unicode="&#x2248;" horiz-adv-x="1217" 
d="M1100 915q-49 -86 -126.5 -133t-166.5 -47q-53 0 -106.5 19t-90.5 42t-86 42t-94 19q-48 0 -93 -23t-71.5 -48t-66.5 -70l-83 146q87 90 157 134.5t159 44.5q54 0 108 -19t90.5 -42t83 -42t88.5 -19q126 0 213 141zM1100 494q-49 -86 -127 -133t-166 -47q-54 0 -108 19
t-91 42.5t-85.5 42.5t-92.5 19q-48 0 -93 -23t-71.5 -49t-64.5 -70l-85 147q87 90 157 134.5t159 44.5q54 0 108 -19t90.5 -42.5t83 -42.5t88.5 -19q125 0 213 141z" />
    <glyph glyph-name="notequal" unicode="&#x2260;" horiz-adv-x="1177" 
d="M1061 567v-213h-580l-125 -286h-148l127 286h-219v213h313l108 244h-421v213h515l121 274h141l-120 -274l288 1v-213l-381 -1l-106 -244h487z" />
    <glyph glyph-name="lessequal" unicode="&#x2264;" horiz-adv-x="1177" 
d="M1043 654v-252l-920 359v243l921 359v-252l-601 -230zM1061 273v-211h-945v212z" />
    <glyph glyph-name="greaterequal" unicode="&#x2265;" horiz-adv-x="1177" 
d="M132 654l602 227l-603 230v252l923 -359v-243l-922 -359v252zM116 273l945 1v-212h-945v211z" />
    <glyph glyph-name="lozenge" unicode="&#x25ca;" horiz-adv-x="1112" 
d="M665 0h-194l-353 723l362 723h195l353 -719zM575 1234l-231 -505l231 -522l231 516z" />
    <glyph glyph-name="i.loclTRK" horiz-adv-x="529" 
d="M129 1184v238h279v-238h-279zM404 1034v-1034h-279v1034h279z" />
    <glyph glyph-name="g.ss01" horiz-adv-x="1212" 
d="M1098 172q1 -232 -144.5 -370.5t-378.5 -138.5q-103 0 -190.5 32.5t-142 83t-86.5 105t-37 103.5h270q10 -45 61.5 -77.5t121.5 -33.5q125 -1 191 67t67 165v76q-77 -138 -313 -138q-113 0 -211.5 62.5t-160 176.5t-62.5 254q-1 75 16 148.5t52.5 139.5t86 116
t121.5 79.5t154 29.5q98 0 180 -48.5t116 -107.5l1 136h287zM812 496l-2 108q-1 92 -62 167.5t-147 75.5q-106 0 -164.5 -87.5t-58.5 -220.5q0 -120 63.5 -202t163.5 -82q109 0 158.5 67.5t48.5 173.5z" />
    <glyph glyph-name="l.ss01" horiz-adv-x="616" 
d="M162 0v1486h292v-1486h-292z" />
    <glyph glyph-name="zero.osf" horiz-adv-x="1289" 
d="M646 1466q261 0 408.5 -194.5t147.5 -551.5t-146.5 -549.5t-409.5 -192.5q-264 0 -411 192.5t-147 548.5q0 357 148.5 552t409.5 195zM646 217q131 0 190 116.5t59 385.5q0 274 -60 395.5t-190 121.5t-191.5 -122.5t-61.5 -394.5q0 -267 61 -384.5t193 -117.5z" />
    <glyph glyph-name="one.osf" horiz-adv-x="856" 
d="M344 0v1083h-258v165q180 0 265 50.5t95 147.5h194v-1446h-296z" />
    <glyph glyph-name="two.osf" horiz-adv-x="1270" 
d="M113 0v218q0 82 26 152t69.5 121t100.5 94.5t120 77.5t125.5 65.5t119.5 63t100.5 65t69.5 77t26 93.5q0 87 -61.5 142t-164.5 55q-113 0 -187.5 -64.5t-91.5 -188.5h-279q1 105 37 194t105 156.5t177.5 106t246.5 38.5q241 0 383 -120t142 -317q0 -104 -41 -187
t-106 -136.5t-143.5 -97t-157.5 -79.5t-144 -72t-106 -86t-41 -112v-13h737v-246h-1062z" />
    <glyph glyph-name="three.osf" horiz-adv-x="1330" 
d="M97 1004q0 151 74 257.5t196.5 157t279.5 50.5q165 0 289 -41t198 -129.5t74 -217.5q0 -229 -264 -318q132 -36 215 -124t83 -226q0 -137 -82.5 -237t-216.5 -148t-303 -47q-259 1 -404 125t-148 344h281q20 -119 92.5 -176t181.5 -57q132 0 210 57t78 148q0 92 -77 147
t-201 58l-138 5v232l124 7q117 5 188 59.5t71 138.5q0 78 -72 126t-185 48t-185 -57.5t-80 -181.5h-279z" />
    <glyph glyph-name="four.osf" horiz-adv-x="1312" 
d="M745 1446h287v-881h223v-245h-223v-320h-281l1 320h-666v240zM356 565h396v530z" />
    <glyph glyph-name="five.osf" horiz-adv-x="1350" 
d="M239 1446h929l-11 -239h-687l-28 -349q81 45 153 65t159 20q223 0 365.5 -125t142.5 -345q0 -229 -152.5 -362t-411.5 -133q-210 0 -374.5 94.5t-235.5 245.5l228 135q65 -114 148 -177t204 -63q129 0 208.5 69t79.5 180q0 105 -78 175t-200 70q-71 0 -127 -19.5
t-126 -74.5q-14 -6 -19.5 -6t-20.5 7l-212 98z" />
    <glyph glyph-name="six.osf" horiz-adv-x="1321" 
d="M695 1466q137 0 251 -48.5t187 -144.5t80 -224h-267q-53 186 -245 186q-155 0 -232 -129t-56 -342q49 71 137.5 111t191.5 40q220 0 355.5 -121.5t135.5 -321.5q0 -215 -153.5 -354.5t-396.5 -139.5q-276 0 -435.5 194.5t-159.5 522.5q0 358 161.5 564.5t445.5 206.5z
M674 697q-92 0 -171 -58.5t-79 -125.5q-1 -144 67.5 -227.5t181.5 -83.5q106 0 178.5 72.5t72.5 183.5q0 115 -69.5 177t-180.5 62z" />
    <glyph glyph-name="seven.osf" horiz-adv-x="1252" 
d="M86 1446h1080v-239q-177 -222 -335.5 -594.5t-166.5 -612.5h-315q9 96 41.5 226.5t91 291.5t157.5 344t222 345h-775v239z" />
    <glyph glyph-name="eight.osf" horiz-adv-x="1342" 
d="M670 1466q150 0 266.5 -46t185 -139.5t68.5 -221.5q0 -106 -58 -185t-153 -124q104 -22 189.5 -125.5t85.5 -223.5q0 -193 -160 -307.5t-424 -114.5t-423 114.5t-159 307.5q0 120 85.5 223.5t189.5 125.5q-96 45 -154.5 124t-58.5 185q0 128 69 221.5t185.5 139.5
t265.5 46zM670 863q102 0 165.5 54t63.5 148q0 93 -64 148.5t-165 55.5q-100 0 -164 -56t-64 -148q0 -93 63.5 -147.5t164.5 -54.5zM670 199q127 0 200 57t73 153q0 97 -73.5 157t-199.5 60q-124 0 -197.5 -60.5t-73.5 -156.5t73 -153t198 -57z" />
    <glyph glyph-name="nine.osf" horiz-adv-x="1318" 
d="M619 -22q-136 0 -252.5 51t-191 148t-82.5 221h278q18 -86 80.5 -137.5t155.5 -51.5q166 0 255.5 118.5t72.5 366.5q-44 -82 -132.5 -128.5t-207.5 -46.5q-223 0 -363 124.5t-140 332.5q0 215 150.5 352.5t393.5 137.5q276 0 435 -192.5t159 -520.5q0 -382 -160.5 -578.5
t-450.5 -196.5zM645 751q92 0 171 58.5t79 125.5q1 144 -67.5 227t-182.5 83q-104 0 -171.5 -71.5t-67.5 -184.5q0 -112 65.5 -175t173.5 -63z" />
    <glyph glyph-name="zero.tf" horiz-adv-x="1400" 
d="M701 1466q261 0 408.5 -194.5t147.5 -551.5t-146.5 -549.5t-409.5 -192.5q-264 0 -411 192.5t-147 548.5q0 357 148.5 552t409.5 195zM701 217q131 0 190 116.5t59 385.5q0 274 -60 395.5t-190 121.5t-191.5 -122.5t-61.5 -394.5q0 -267 61 -384.5t193 -117.5z" />
    <glyph glyph-name="one.tf" horiz-adv-x="1400" 
d="M185 246h405v888l-383 -115v254l547 174h120v-1201h364v-246h-1053v246z" />
    <glyph glyph-name="two.tf" horiz-adv-x="1400" 
d="M192 0v218q0 82 26 152t69.5 121t100.5 94.5t119.5 77.5t125.5 65.5t120 63t100.5 65t69.5 77t26 93.5q0 88 -61 142.5t-165 54.5q-112 0 -186.5 -65t-91.5 -188h-279q1 105 37 194t104.5 156.5t177 106t246.5 38.5q242 0 383.5 -120t141.5 -317q0 -104 -41 -187
t-106 -136.5t-144 -97t-157.5 -79.5t-143.5 -72t-106 -86t-41 -112v-13h738v-246h-1063z" />
    <glyph glyph-name="three.tf" horiz-adv-x="1400" 
d="M142 1001q0 151 74 257.5t196.5 157t279.5 50.5q165 0 289 -41t198 -129.5t74 -217.5q0 -229 -264 -318q132 -36 215 -124t83 -226q0 -137 -82.5 -237t-216.5 -148t-303 -47q-259 1 -404 125t-148 344h281q20 -119 92.5 -176t181.5 -57q132 0 210 57t78 148
q0 92 -77.5 147t-201.5 58l-137 5v232l124 7q117 5 188 59.5t71 137.5q0 78 -72 126.5t-185 48.5t-185 -57.5t-80 -181.5h-279z" />
    <glyph glyph-name="four.tf" horiz-adv-x="1400" 
d="M773 1446h286v-881h223v-245h-223v-320h-280v320h-665v240zM383 565h397v530z" />
    <glyph glyph-name="five.tf" horiz-adv-x="1400" 
d="M301 1446h929l-11 -239h-687l-28 -349q81 45 153 65t159 20q223 0 365.5 -125t142.5 -345q0 -229 -152.5 -362t-411.5 -133q-210 0 -374.5 94.5t-235.5 245.5l228 135q65 -114 148 -177t204 -63q129 0 208.5 69t79.5 180q0 105 -78 175t-200 70q-71 0 -127 -19.5
t-126 -74.5q-14 -6 -19.5 -6t-20.5 7l-212 98z" />
    <glyph glyph-name="six.tf" horiz-adv-x="1400" 
d="M735 1466q137 0 251 -48.5t187 -144.5t80 -224h-266q-55 186 -245 186q-155 0 -232.5 -129t-56.5 -342q50 71 138 111t191 40q220 0 355.5 -121.5t135.5 -321.5q0 -214 -153.5 -354t-395.5 -140q-276 0 -436 194.5t-160 522.5q0 358 161.5 564.5t445.5 206.5zM714 697
q-92 0 -171 -59t-79 -125q-1 -144 67.5 -227.5t182.5 -83.5q105 0 177.5 72.5t72.5 183.5q0 115 -69 177t-181 62z" />
    <glyph glyph-name="seven.tf" horiz-adv-x="1400" 
d="M123 1446h1158v-239q-121 -152 -247.5 -364t-224.5 -450t-104 -393h-318q17 191 179.5 537.5t408.5 669.5h-852v239z" />
    <glyph glyph-name="eight.tf" horiz-adv-x="1400" 
d="M700 1466q150 0 266.5 -46t185 -139.5t68.5 -221.5q0 -106 -58.5 -185t-153.5 -124q104 -22 189.5 -125.5t85.5 -223.5q0 -193 -159.5 -307.5t-423.5 -114.5t-423.5 114.5t-159.5 307.5q0 120 85.5 223.5t189.5 125.5q-95 45 -153.5 124t-58.5 185q0 128 69 221.5
t185 139.5t266 46zM700 863q101 0 164.5 54.5t63.5 147.5t-64 148.5t-164 55.5t-164 -55.5t-64 -148.5t63.5 -147.5t164.5 -54.5zM700 199q126 0 199.5 57t73.5 153q0 97 -74 157t-199 60q-124 0 -198 -60t-74 -157q0 -96 73.5 -153t198.5 -57z" />
    <glyph glyph-name="nine.tf" horiz-adv-x="1400" 
d="M667 -22q-136 0 -252.5 51t-191 148t-82.5 221h278q18 -86 80.5 -137.5t155.5 -51.5q166 0 255.5 118.5t72.5 366.5q-44 -82 -132.5 -128.5t-207.5 -46.5q-223 0 -363 124.5t-140 332.5q0 215 150.5 352.5t393.5 137.5q276 0 435 -192.5t159 -520.5q0 -382 -160.5 -578.5
t-450.5 -196.5zM693 751q92 0 171 58.5t79 125.5q1 144 -67.5 227t-182.5 83q-104 0 -171.5 -71.5t-67.5 -184.5q0 -112 65.5 -175t173.5 -63z" />
    <glyph glyph-name="zero.subs" horiz-adv-x="804" 
d="M403 591q166 0 258 -123.5t92 -346.5q0 -222 -91.5 -343t-258.5 -121q-168 0 -259.5 120.5t-91.5 342.5q0 223 92.5 347t258.5 124zM403 -192q82 0 118.5 73t36.5 238q0 170 -37 246.5t-119 76.5t-119 -77t-37 -246q0 -164 37 -237.5t120 -73.5z" />
    <glyph glyph-name="one.subs" horiz-adv-x="513" 
d="M204 -331v679h-162v106q112 0 165.5 31.5t60.5 93.5h126v-910h-190z" />
    <glyph glyph-name="two.subs" horiz-adv-x="784" 
d="M59 -331v138q0 66 26 119.5t68 89t92.5 65.5t101.5 54.5t93 49.5t68 58t26 72q0 54 -38 88t-102 34q-70 0 -117 -40.5t-56 -118.5h-179q1 138 93 225.5t264 87.5q152 0 241 -75.5t89 -199.5q0 -65 -25.5 -117.5t-66.5 -86t-90 -61t-98.5 -50t-90.5 -45t-66.5 -53.5
t-25.5 -69v-7h462v-158h-669z" />
    <glyph glyph-name="three.subs" horiz-adv-x="850" 
d="M67 296q0 141 96.5 217.5t250.5 76.5q160 0 256.5 -61.5t96.5 -182.5q0 -142 -163 -199q81 -23 132.5 -78t51.5 -142q0 -129 -107.5 -200.5t-271.5 -70.5t-255 79.5t-92 216.5h179q24 -145 170 -145q83 0 131 35t48 91q0 55 -46.5 90t-126.5 37l-87 3v149l79 4
q71 3 115.5 36.5t44.5 85.5q0 48 -44.5 77.5t-113.5 29.5q-71 0 -116 -35.5t-49 -113.5h-179z" />
    <glyph glyph-name="four.subs" horiz-adv-x="820" 
d="M455 582h183v-553h140v-156h-140v-201h-180l1 201h-417v152zM215 29h244v326z" />
    <glyph glyph-name="five.subs" horiz-adv-x="843" 
d="M147 580h586l-7 -154h-431l-17 -211q102 50 194 50q140 0 229.5 -79t89.5 -218q0 -144 -95.5 -227t-258.5 -83q-134 0 -237.5 59.5t-147.5 155.5l146 84q85 -150 220 -150q80 0 129 43t49 111q0 66 -48 109t-124 43q-45 0 -80 -12.5t-79 -47.5q-12 -4 -25 2l-134 61z" />
    <glyph glyph-name="six.subs" horiz-adv-x="824" 
d="M434 592q133 0 227 -72t100 -192h-171q-33 116 -152 116q-95 0 -143 -78t-37 -205q34 41 88.5 63.5t116.5 22.5q140 0 225 -77t85 -203q0 -135 -97 -220.5t-249 -85.5q-175 0 -275 121t-100 325q0 228 102 356.5t280 128.5zM420 106q-57 0 -105.5 -36.5t-48.5 -76.5
q-1 -90 41.5 -140.5t112.5 -50.5q66 0 110.5 44t44.5 113q0 73 -43 110t-112 37z" />
    <glyph glyph-name="seven.subs" horiz-adv-x="745" 
d="M42 579h681v-153q-112 -138 -211.5 -372t-103.5 -385h-201q11 138 92 351t228 406h-485v153z" />
    <glyph glyph-name="eight.subs" horiz-adv-x="859" 
d="M430 594q146 0 237 -68t91 -188q0 -65 -35 -114t-95 -77q65 -16 117 -80.5t52 -139.5q0 -122 -100.5 -193.5t-266.5 -71.5q-167 0 -267.5 71.5t-100.5 193.5q0 75 52 139.5t117 80.5q-59 28 -94.5 77t-35.5 114q0 120 91.5 188t237.5 68zM430 218q64 0 103 33.5t39 90.5
t-40 91.5t-102 34.5q-63 0 -102.5 -34.5t-39.5 -91.5t39 -90.5t103 -33.5zM430 -198q78 0 123.5 35t45.5 95t-46 97t-123 37q-78 0 -123.5 -36.5t-45.5 -97.5q0 -60 45 -95t124 -35z" />
    <glyph glyph-name="nine.subs" horiz-adv-x="823" 
d="M387 -343q-133 0 -229 73.5t-103 190.5h177q11 -53 50.5 -84.5t95.5 -31.5q103 0 158.5 71t46.5 219q-30 -48 -84.5 -75t-127.5 -27q-141 0 -228.5 79t-87.5 209q0 136 95 222t247 86q174 0 274 -121.5t100 -325.5q0 -242 -101.5 -363.5t-282.5 -121.5zM403 142
q57 0 105.5 37t49.5 77q1 90 -42 141t-113 51q-64 0 -106 -43.5t-42 -114.5t41 -109.5t107 -38.5z" />
    <glyph glyph-name="zero.dnom" horiz-adv-x="804" 
d="M403 921q166 0 258 -123.5t92 -346.5q0 -222 -91.5 -343t-258.5 -121q-168 0 -259.5 120.5t-91.5 342.5q0 223 92.5 347t258.5 124zM403 138q82 0 118.5 73t36.5 238q0 170 -37 246.5t-119 76.5t-119 -77t-37 -246q0 -164 37 -237.5t120 -73.5z" />
    <glyph glyph-name="one.dnom" horiz-adv-x="513" 
d="M204 -1v679h-162v106q112 0 165.5 31.5t60.5 93.5h126v-910h-190z" />
    <glyph glyph-name="two.dnom" horiz-adv-x="784" 
d="M59 -1v138q0 66 26 119.5t68 89t92.5 65.5t101.5 54.5t93 49.5t68 58t26 72q0 54 -38 88t-102 34q-70 0 -117 -40.5t-56 -118.5h-179q1 138 93 225.5t264 87.5q152 0 241 -75.5t89 -199.5q0 -65 -25.5 -117.5t-66.5 -86t-90 -61t-98.5 -50t-90.5 -45t-66.5 -53.5
t-25.5 -69v-7h462v-158h-669z" />
    <glyph glyph-name="three.dnom" horiz-adv-x="850" 
d="M67 626q0 141 96.5 217.5t250.5 76.5q160 0 256.5 -61.5t96.5 -182.5q0 -142 -163 -199q81 -23 132.5 -78t51.5 -142q0 -129 -107.5 -200.5t-271.5 -70.5t-255 79.5t-92 216.5h179q24 -145 170 -145q83 0 131 35t48 91q0 55 -46.5 90t-126.5 37l-87 3v149l79 4
q71 3 115.5 36.5t44.5 85.5q0 48 -44.5 77.5t-113.5 29.5q-71 0 -116 -35.5t-49 -113.5h-179z" />
    <glyph glyph-name="four.dnom" horiz-adv-x="820" 
d="M455 912h183v-553h140v-156h-140v-201h-180l1 201h-417v152zM215 359h244v326z" />
    <glyph glyph-name="five.dnom" horiz-adv-x="843" 
d="M147 910h586l-7 -154h-431l-17 -211q102 50 194 50q140 0 229.5 -79t89.5 -218q0 -144 -95.5 -227t-258.5 -83q-134 0 -237.5 59.5t-147.5 155.5l146 84q85 -150 220 -150q80 0 129 43t49 111q0 66 -48 109t-124 43q-45 0 -80 -12.5t-79 -47.5q-12 -4 -25 2l-134 61z" />
    <glyph glyph-name="six.dnom" horiz-adv-x="824" 
d="M434 922q133 0 227 -72t100 -192h-171q-33 116 -152 116q-95 0 -143 -78t-37 -205q34 41 88.5 63.5t116.5 22.5q140 0 225 -77t85 -203q0 -135 -97 -220.5t-249 -85.5q-175 0 -275 121t-100 325q0 228 102 356.5t280 128.5zM420 436q-57 0 -105.5 -36.5t-48.5 -76.5
q-1 -90 41.5 -140.5t112.5 -50.5q66 0 110.5 44t44.5 113q0 73 -43 110t-112 37z" />
    <glyph glyph-name="seven.dnom" horiz-adv-x="745" 
d="M42 909h681v-153q-112 -138 -211.5 -372t-103.5 -385h-201q11 138 92 351t228 406h-485v153z" />
    <glyph glyph-name="eight.dnom" horiz-adv-x="859" 
d="M430 922q146 0 237 -68t91 -188q0 -65 -35 -114t-95 -77q65 -16 117 -80.5t52 -139.5q0 -122 -100.5 -193.5t-266.5 -71.5q-167 0 -267.5 71.5t-100.5 193.5q0 75 52 139.5t117 80.5q-59 28 -94.5 77t-35.5 114q0 120 91.5 188t237.5 68zM430 546q64 0 103 33.5t39 90.5
t-40 91.5t-102 34.5q-63 0 -102.5 -34.5t-39.5 -91.5t39 -90.5t103 -33.5zM430 130q78 0 123.5 35t45.5 95t-46 97t-123 37q-78 0 -123.5 -36.5t-45.5 -97.5q0 -60 45 -95t124 -35z" />
    <glyph glyph-name="nine.dnom" horiz-adv-x="823" 
d="M387 -13q-133 0 -229 73.5t-103 190.5h177q11 -53 50.5 -84.5t95.5 -31.5q103 0 158.5 71t46.5 219q-30 -48 -84.5 -75t-127.5 -27q-141 0 -228.5 79t-87.5 209q0 136 95 222t247 86q174 0 274 -121.5t100 -325.5q0 -242 -101.5 -363.5t-282.5 -121.5zM403 472
q57 0 105.5 37t49.5 77q1 90 -42 141t-113 51q-64 0 -106 -43.5t-42 -114.5t41 -109.5t107 -38.5z" />
    <glyph glyph-name="zero.numr" horiz-adv-x="804" 
d="M403 1459q166 0 258 -123.5t92 -346.5q0 -222 -91.5 -343t-258.5 -121q-168 0 -259.5 120.5t-91.5 342.5q0 223 92.5 347t258.5 124zM403 676q82 0 118.5 73t36.5 238q0 170 -37 246.5t-119 76.5t-119 -77t-37 -246q0 -164 37 -237.5t120 -73.5z" />
    <glyph glyph-name="one.numr" horiz-adv-x="513" 
d="M204 536v679h-162v106q112 0 165.5 31.5t60.5 93.5h126v-910h-190z" />
    <glyph glyph-name="two.numr" horiz-adv-x="784" 
d="M59 537v138q0 66 26 119.5t68 89t92.5 65.5t101.5 54.5t93 49.5t68 58t26 72q0 54 -38 88t-102 34q-70 0 -117 -40.5t-56 -118.5h-179q1 138 93 225.5t264 87.5q152 0 241 -75.5t89 -199.5q0 -65 -25.5 -117.5t-66.5 -86t-90 -61t-98.5 -50t-90.5 -45t-66.5 -53.5
t-25.5 -69v-7h462v-158h-669z" />
    <glyph glyph-name="three.numr" horiz-adv-x="850" 
d="M67 1166q0 141 96.5 217.5t250.5 76.5q160 0 256.5 -61.5t96.5 -182.5q0 -142 -163 -199q81 -23 132.5 -78t51.5 -142q0 -129 -107.5 -200.5t-271.5 -70.5t-255 79.5t-92 216.5h179q24 -145 170 -145q83 0 131 35t48 91q0 55 -46.5 90t-126.5 37l-87 3v149l79 4
q71 3 115.5 36.5t44.5 85.5q0 48 -44.5 77.5t-113.5 29.5q-71 0 -116 -35.5t-49 -113.5h-179z" />
    <glyph glyph-name="four.numr" horiz-adv-x="820" 
d="M455 1447h183v-553h140v-156h-140v-201h-180l1 201h-417v152zM215 894h244v326z" />
    <glyph glyph-name="five.numr" horiz-adv-x="843" 
d="M147 1446h586l-7 -154h-431l-17 -211q102 50 194 50q140 0 229.5 -79t89.5 -218q0 -144 -95.5 -227t-258.5 -83q-134 0 -237.5 59.5t-147.5 155.5l146 84q85 -150 220 -150q80 0 129 43t49 111q0 66 -48 109t-124 43q-45 0 -80 -12.5t-79 -47.5q-12 -4 -25 2l-134 61z
" />
    <glyph glyph-name="six.numr" horiz-adv-x="824" 
d="M434 1457q133 0 227 -72t100 -192h-171q-33 116 -152 116q-95 0 -143 -78t-37 -205q34 41 88.5 63.5t116.5 22.5q140 0 225 -77t85 -203q0 -135 -97 -220.5t-249 -85.5q-175 0 -275 121t-100 325q0 228 102 356.5t280 128.5zM420 971q-57 0 -105.5 -36.5t-48.5 -76.5
q-1 -90 41.5 -140.5t112.5 -50.5q66 0 110.5 44t44.5 113q0 73 -43 110t-112 37z" />
    <glyph glyph-name="seven.numr" horiz-adv-x="745" 
d="M42 1447h681v-153q-112 -138 -211.5 -372t-103.5 -385h-201q11 138 92 351t228 406h-485v153z" />
    <glyph glyph-name="eight.numr" horiz-adv-x="859" 
d="M430 1457q146 0 237 -68t91 -188q0 -65 -35 -114t-95 -77q65 -16 117 -80.5t52 -139.5q0 -122 -100.5 -193.5t-266.5 -71.5q-167 0 -267.5 71.5t-100.5 193.5q0 75 52 139.5t117 80.5q-59 28 -94.5 77t-35.5 114q0 120 91.5 188t237.5 68zM430 1081q64 0 103 33.5
t39 90.5t-40 91.5t-102 34.5q-63 0 -102.5 -34.5t-39.5 -91.5t39 -90.5t103 -33.5zM430 665q78 0 123.5 35t45.5 95t-46 97t-123 37q-78 0 -123.5 -36.5t-45.5 -97.5q0 -60 45 -95t124 -35z" />
    <glyph glyph-name="nine.numr" horiz-adv-x="823" 
d="M387 525q-133 0 -229 73.5t-103 190.5h177q11 -53 50.5 -84.5t95.5 -31.5q103 0 158.5 71t46.5 219q-30 -48 -84.5 -75t-127.5 -27q-141 0 -228.5 79t-87.5 209q0 136 95 222t247 86q174 0 274 -121.5t100 -325.5q0 -242 -101.5 -363.5t-282.5 -121.5zM403 1010
q57 0 105.5 37t49.5 77q1 90 -42 141t-113 51q-64 0 -106 -43.5t-42 -114.5t41 -109.5t107 -38.5z" />
    <glyph glyph-name="fraction.alt" horiz-adv-x="1377" 
d="M1260 1462l-972 -1470l-172 3l975 1467h169z" />
    <glyph glyph-name="period.tf" horiz-adv-x="600" 
d="M140 0v318h320v-318h-320z" />
    <glyph glyph-name="comma.tf" horiz-adv-x="600" 
d="M145 -280l117 272l-103 9v283h296v-249l-202 -315h-108z" />
    <glyph glyph-name="emdash.alt" horiz-adv-x="1576" 
d="M1576 604v-213l-1576 -1v213z" />
    <glyph glyph-name="cent.tf" horiz-adv-x="1400" 
d="M833 0h-193v210q-181 31 -291 170.5t-110 354.5q0 213 108.5 357t292.5 176v178h193v-178q149 -28 239.5 -134t101.5 -255h-243q-11 71 -59.5 123t-131.5 52q-105 0 -167 -81t-62 -236q0 -152 62.5 -240t172.5 -88q81 0 129 54.5t59 119.5h237q-8 -141 -99 -243.5
t-239 -129.5v-210z" />
    <glyph glyph-name="colonmonetary.tf" horiz-adv-x="1400" 
d="M710 1560h129l-19 -101q42 -5 99 -21l23 122h129l-33 -173q116 -65 188.5 -175t86.5 -245h-307q-9 53 -30 96l-156 -823q75 30 122.5 99.5t63.5 160.5h307q-11 -83 -33.5 -154t-65.5 -137t-102 -113.5t-146.5 -78.5t-195.5 -36l-19 -103h-129l20 106q-51 6 -99 18
l-24 -124h-129l33 169q-169 85 -261.5 264t-92.5 424q0 332 166 526t457 204zM589 244q42 -18 98 -23l184 964q-42 25 -96 36zM390 731q0 -265 88 -393l168 882q-256 -48 -256 -489z" />
    <glyph glyph-name="dollar.tf" horiz-adv-x="1400" 
d="M602 1653h252v-199q187 -33 296 -149.5t107 -273.5l-296 -5q-14 102 -66.5 154t-163.5 52q-118 0 -187.5 -49t-69.5 -128q0 -64 43.5 -100.5t159.5 -66.5l233 -57q372 -89 372 -438q0 -163 -116.5 -271t-317.5 -134v-179h-252v178q-210 24 -333.5 129t-144.5 291l304 6
q23 -98 102.5 -150t200.5 -52q108 0 177.5 51t69.5 129t-48.5 118t-159.5 65l-237 51q-171 35 -267.5 134.5t-98.5 261.5q-1 173 120.5 288.5t320.5 145.5v198z" />
    <glyph glyph-name="dong.tf" horiz-adv-x="1400" 
d="M818 265v106q-53 -57 -111.5 -89.5t-148.5 -32.5q-150 0 -243.5 112.5t-93.5 320.5q0 200 102 324.5t252 124.5q65 0 114.5 -21t95.5 -65q29 -21 29 12v149h-226v129h226v110h244v-110h121v-129h-121v-941h-240zM810 892q-70 78 -153 78q-85 0 -134.5 -70t-49.5 -215
t48.5 -212.5t132.5 -67.5q67 0 111.5 41.5t44.5 97.5v348zM1061 141v-141h-786v141h786z" />
    <glyph glyph-name="Euro.tf" horiz-adv-x="1400" 
d="M860 -20q-220 0 -377 135t-215 367h-185v159h159q-3 45 -3 94q0 25 2 73h-158v157l181 1q53 235 211 367.5t384 132.5q135 0 251 -53t194 -147l-200 -153q-54 58 -104 89.5t-115 31.5q-223 0 -285 -268h331v-158h-352q-2 -25 -2 -78q0 -47 3 -89l351 1v-160h-325
q35 -129 110.5 -192.5t181.5 -63.5q69 0 137.5 37.5t111.5 90.5l156 -168q-80 -92 -196 -149t-247 -57z" />
    <glyph glyph-name="florin.tf" horiz-adv-x="1400" 
d="M1115 1034l-36 -203h-218l-157 -897q-22 -126 -108.5 -197.5t-220.5 -71.5h-230l30 196h118q61 1 88.5 30t40.5 108l147 832h-167l35 203h167l26 149q23 125 109.5 194t217.5 69h238l-32 -194h-132q-44 0 -79.5 -34.5t-44.5 -85.5l-17 -98h225z" />
    <glyph glyph-name="franc.tf" horiz-adv-x="1400" 
d="M908 398v-160h-298v-238h-332v238h-176v159h176v1049h1032l-2 -243h-698v-374h518v-237h-518v-195z" />
    <glyph glyph-name="lira.tf" horiz-adv-x="1400" 
d="M1287 350q-45 -169 -163 -259.5t-288 -90.5h-723v242h69q67 0 111 42t54 126q5 25 4 65q0 14 -17 14h-209v158h205l-21 134h-184v160h161l-7 79q-13 113 18.5 200.5t97 140t150.5 79t185 26.5q95 0 185.5 -31t167.5 -97.5t115 -158.5l-256 -78q-26 63 -65.5 98t-102.5 35
q-73 0 -118 -45t-45 -124q0 -24 11 -103q3 -21 23 -21h269v-159l-264 -1l17 -134h247v-158h-251q-10 -70 -41 -135.5t-83 -109.5h275q91 0 144.5 37t81.5 123z" />
    <glyph glyph-name="uni20BA.tf" horiz-adv-x="1400" 
d="M606 0h-284v435l-157 -57l-55 154l212 77v151l-184 -67l-56 154l240 87v512h333v-391l242 88l57 -152l-299 -109v-151l268 97l55 -154l-323 -118v-312h70q113 4 201 84t145 232l259 -55q-180 -505 -724 -505z" />
    </font>
</defs>
</svg>
