<?xml version="1.0" standalone="no"?>
<!DOCTYPE svg PUBLIC "-//W3C//DTD SVG 1.1//EN" "http://www.w3.org/Graphics/SVG/1.1/DTD/svg11.dtd" >
<svg xmlns="http://www.w3.org/2000/svg" xmlns:xlink="http://www.w3.org/1999/xlink" version="1.1">
<metadata>
Created by FontForge 20170731 at Wed Jan  8 19:45:54 2020
 By Aleksey,,,
Copyright (c) 2015, Impallari Type (www.impallari.com)
</metadata>
<defs>
<font id="PublicSans-Black" horiz-adv-x="1170" >
  <font-face 
    font-family="Public Sans Black"
    font-weight="900"
    font-stretch="normal"
    units-per-em="2000"
    panose-1="0 0 0 0 0 0 0 0 0 0"
    ascent="1600"
    descent="-400"
    x-height="1034"
    cap-height="1446"
    bbox="-389 -495 2692 2270.64"
    underline-thickness="140"
    underline-position="-650"
    unicode-range="U+000D-FB02"
  />
<missing-glyph horiz-adv-x="1262" 
d="M1127 -266q0 -30 -16 -43t-50 -13h-873q-30 0 -41.5 11.5t-11.5 36.5v1880q0 22 10.5 34t27.5 12h918q17 0 26.5 -11.5t9.5 -30.5v-1876zM995 1554h-686l715 -1665v1631q0 15 -8 24.5t-21 9.5zM281 -224h671l-715 1657v-1617q0 -20 9.5 -30t34.5 -10z" />
    <glyph glyph-name="fi" unicode="fi" horiz-adv-x="1364" 
d="M774 1034v-264h-188v-770h-390v770h-166v264h166v138q0 127 83.5 200.5t226.5 73.5h276l2 -252h-120q-48 0 -67 -21.5t-19 -78.5v-60h196zM1264 1446v-328h-370v328h370zM1264 1034v-1034h-370v1034h370z" />
    <glyph glyph-name="fl" unicode="fl" horiz-adv-x="1499" 
d="M1287 -22q-79 0 -141.5 11t-103.5 28t-70 45.5t-44 53.5t-23 64t-9.5 65t-1.5 67v1174h381v-1122q0 -46 23 -75.5t94 -38.5l42 -4v-236q-84 -32 -147 -32zM774 1034v-264h-188v-770h-390v770h-166v264h166v138q0 127 83.5 200.5t226.5 73.5h276l2 -252h-120
q-48 0 -67 -21.5t-19 -78.5v-60h196z" />
    <glyph glyph-name="colon_one_eight_F_colon.liga" unicode="&#x3a;&#x31;&#x38;F&#x3a;" horiz-adv-x="1580" 
d="M52 1522h1476q22 0 22 -24v-1472q0 -12 -6.5 -19t-15.5 -7h-1476q-22 0 -22 26v1472q0 24 22 24zM764 468q70 0 121 51t51 121q0 89 -74 140q52 49 52 116q0 62 -44 106t-106 44q-65 0 -108.5 -44t-43.5 -106t54 -116q-74 -49 -74 -140q0 -71 50 -121.5t122 -50.5z
M508 486v544q0 10 -8 10h-136q-6 0 -6 -10v-52q0 -8 6 -8h74v-484q0 -8 6 -8h56q8 0 8 8zM1246 978v52q0 10 -8 10h-210q-8 0 -8 -10v-544q0 -8 8 -8h52q12 0 12 8v248h122q6 0 6 8v50q0 10 -6 10h-122v168h146q8 0 8 8zM764 816q-35 0 -59.5 22.5t-24.5 57.5q0 34 24.5 58
t59.5 24q34 0 58 -24t24 -58q0 -35 -23.5 -57.5t-58.5 -22.5zM764 742q44 0 73 -29t29 -73q0 -42 -29.5 -72t-72.5 -30q-42 0 -72 30t-30 72q0 43 30 72.5t72 29.5z" />
    <glyph glyph-name="colon_f_l_a_g_two_colon.liga" unicode="&#x3a;flag&#x32;&#x3a;" horiz-adv-x="2352" 
d="M110 1522h2132v-1520h-2132v1520zM2118 1396h-1070v-106h1070v106zM298 1288v-118h126v118h-126zM770 1288v-118h122v118h-122zM536 1170v-116h122v116h-122zM1048 1056h1070v110h-1070v-110zM302 1054v-118h122v118h-122zM770 1054v-118h122v118h-122zM536 936v-116h122
v116h-122zM1048 822h1070v110h-1070v-110zM302 820v-118h122v118h-122zM770 820v-118h122v118h-122zM1048 588h1070v110h-1070v-110zM233 354h1885v110h-1886zM234 126h1884v104h-1885z" />
    <glyph glyph-name="colon_f_l_a_g_colon.liga" unicode="&#x3a;flag&#x3a;" horiz-adv-x="2352" 
d="M110 1522h2132v-1520h-2132v1520zM1046 820h1080v116h-1080v118h1080v116h-1080v118h1080v116h-1900v-818h1900v116h-1080v118zM812 1288h116v-118h-116v118zM344 1288h116v-118h-116v118zM578 1170h116v-116h-116v116zM344 1054h116v-118h-116v118zM812 1054h116v-118
h-116v118zM578 936h116v-116h-116v116zM344 820h116v-118h-116v118zM812 820h116v-118h-116v118zM226 352h1900v116h-1900v-116zM226 118h1900v116h-1900v-116z" />
    <glyph glyph-name=".notdef" horiz-adv-x="1262" 
d="M1127 -266q0 -30 -16 -43t-50 -13h-873q-30 0 -41.5 11.5t-11.5 36.5v1880q0 22 10.5 34t27.5 12h918q17 0 26.5 -11.5t9.5 -30.5v-1876zM995 1554h-686l715 -1665v1631q0 15 -8 24.5t-21 9.5zM281 -224h671l-715 1657v-1617q0 -20 9.5 -30t34.5 -10z" />
    <glyph glyph-name="uni0000" horiz-adv-x="52" 
 />
    <glyph glyph-name="uni0000" horiz-adv-x="52" 
 />
    <glyph glyph-name="nonmarkingreturn" horiz-adv-x="666" 
 />
    <glyph glyph-name="CR" unicode="&#xd;" horiz-adv-x="484" 
 />
    <glyph glyph-name="space" unicode=" " horiz-adv-x="420" 
 />
    <glyph glyph-name="exclam" unicode="!" horiz-adv-x="620" 
d="M520 1446l-102 -928h-238l-110 928h450zM500 384v-384h-410v384h410z" />
    <glyph glyph-name="quotedbl" unicode="&#x22;" horiz-adv-x="1058" 
d="M968 1446l-92 -644h-182l-92 644h366zM456 1446l-92 -644h-182l-92 644h366z" />
    <glyph glyph-name="numbersign" unicode="#" horiz-adv-x="1256" 
d="M1132 620v-188h-241l-63 -438l-190 24l61 414h-246l-63 -438l-188 24l61 414h-223v188h250l33 222h-219v188h246l62 420l186 -18l-58 -402h246l62 420l188 -18l-58 -402h218v-188h-245l-32 -222h213zM481 620h245l33 222h-246z" />
    <glyph glyph-name="dollar" unicode="$" horiz-adv-x="1402" 
d="M566 1644h326v-195q194 -39 304.5 -159t101.5 -282h-394q-3 37 -10.5 62t-25 48t-50.5 34.5t-82 11.5q-104 0 -151 -34t-47 -80q0 -51 33 -79t125 -47l226 -46q400 -83 400 -468q0 -168 -113.5 -277.5t-316.5 -140.5v-166h-326v164q-454 59 -486 450h404
q17 -77 81.5 -119.5t166.5 -42.5q87 0 132.5 38t45.5 94q0 62 -40.5 86.5t-141.5 41.5l-226 38q-174 28 -275.5 137t-104.5 289q-2 177 121 294.5t323 153.5v194z" />
    <glyph glyph-name="percent" unicode="%" horiz-adv-x="1942" 
d="M468 1468q104 0 193.5 -58.5t140 -154t50.5 -201.5q0 -104 -50 -196.5t-139 -149t-195 -56.5q-107 0 -197 56.5t-140.5 149t-50.5 196.5q0 163 114.5 288.5t273.5 125.5zM1540 1462l-972 -1470l-215 4l974 1466h213zM466 842q59 0 81.5 50.5t22.5 161.5
q0 115 -23.5 170.5t-80.5 55.5t-80.5 -56t-23.5 -170q0 -110 23 -161t81 -51zM1456 798q105 0 195 -59t140.5 -154.5t50.5 -200.5t-50 -197.5t-139.5 -149.5t-196.5 -57t-197 57t-140.5 150t-50.5 197q0 105 51 200.5t141.5 154.5t195.5 59zM1454 172q59 0 81.5 50.5
t22.5 159.5q0 115 -23.5 170.5t-80.5 55.5q-56 0 -79 -55.5t-23 -170.5q0 -109 22 -159.5t80 -50.5z" />
    <glyph glyph-name="ampersand" unicode="&#x26;" horiz-adv-x="1704" 
d="M792 1468q208 0 346 -90t138 -230q0 -55 -23 -107.5t-67 -100t-93.5 -87.5t-116.5 -85l144 -170l21 73.5t28.5 101.5t22.5 87h404q-38 -82 -149.5 -248.5t-146.5 -233.5l324 -378h-444l-108 124q-207 -134 -478 -134q-251 0 -372.5 100.5t-121.5 271.5q0 76 23.5 138
t74.5 116t118 99t168 99q-11 13 -43.5 49.5t-43 49t-31.5 42t-28.5 49t-14.5 48.5t-7 60q0 154 133 255t343 101zM812 1244q-51 -3 -82.5 -31.5t-31.5 -72.5q0 -57 76 -138l46 -48q65 46 93.5 87t28.5 87q0 57 -37 88t-93 28zM670 598q-68 -39 -107.5 -92t-24.5 -116
q14 -54 61 -82t95 -28q43 0 99.5 17t94.5 51z" />
    <glyph glyph-name="quotesingle" unicode="'" horiz-adv-x="546" 
d="M456 1446l-92 -644h-182l-92 644h366z" />
    <glyph glyph-name="parenleft" unicode="(" horiz-adv-x="722" 
d="M662 1446q-226 -423 -226 -892q0 -221 56 -429.5t170 -446.5h-276q-144 238 -215 438.5t-71 439.5q0 477 284 890h278z" />
    <glyph glyph-name="parenright" unicode=")" horiz-adv-x="722" 
d="M10 1446h278q284 -413 284 -890q0 -239 -71 -439.5t-215 -438.5h-276q114 238 170 446.5t56 429.5q0 469 -226 892z" />
    <glyph glyph-name="asterisk" unicode="*" horiz-adv-x="1090" 
d="M706 548l-174 292l-174 -296l-198 140l222 258l-322 88l80 218l302 -138l-26 336h240l-34 -338l308 138l70 -220l-312 -84l218 -256z" />
    <glyph glyph-name="plus" unicode="+" horiz-adv-x="1238" 
d="M758 220h-276v370h-372v276h372v372h276v-372h370v-276h-370v-370z" />
    <glyph glyph-name="comma" unicode="," horiz-adv-x="618" 
d="M100 -306l120 294l-116 14v338h354v-300l-230 -346h-128z" />
    <glyph glyph-name="hyphen" unicode="-" horiz-adv-x="814" 
d="M697 650v-274h-580v274h580z" />
    <glyph glyph-name="period" unicode="." horiz-adv-x="620" 
d="M90 0v392h410v-392h-410z" />
    <glyph glyph-name="slash" unicode="/" horiz-adv-x="818" 
d="M20 0l510 1446h258l-510 -1446h-258z" />
    <glyph glyph-name="zero" unicode="0" horiz-adv-x="1349" 
d="M677 1466q279 0 435.5 -197t156.5 -549t-154.5 -547t-437.5 -195q-284 0 -440.5 195t-156.5 547t158 549t439 197zM675 288q107 0 149 96t42 334q0 245 -43 347.5t-148 102.5t-149 -103t-44 -347q0 -236 43 -333t150 -97z" />
    <glyph glyph-name="one" unicode="1" horiz-adv-x="895" 
d="M319 0v1022h-239v204q172 0 268 59.5t112 160.5h250v-1446h-391z" />
    <glyph glyph-name="two" unicode="2" horiz-adv-x="1340" 
d="M102 0v260q0 81 25.5 150.5t69 120t100 93t118.5 74.5t124 60.5t118.5 55t100 54t69 61.5t25.5 73q0 66 -46 108t-124 42q-87 0 -151 -51.5t-85 -164.5h-366q0 114 37.5 209.5t111.5 167.5t192 112.5t269 40.5q264 0 417 -126t153 -334q0 -81 -25 -149t-66.5 -115.5
t-96 -86.5t-114.5 -67t-120 -52.5t-114.5 -47t-96 -46t-66.5 -54.5t-25 -68h714v-320h-1148z" />
    <glyph glyph-name="three" unicode="3" horiz-adv-x="1393" 
d="M80 980q0 124 45 218t126.5 152t188.5 87t237 29q133 0 240.5 -23t191 -69.5t129.5 -125.5t46 -184q0 -111 -59.5 -187t-194.5 -121q54 -15 101.5 -40t90 -65t67 -99.5t24.5 -131.5q0 -110 -52 -196t-142 -139t-204 -80t-245 -27q-290 0 -440 129.5t-150 368.5h368
q37 -192 222 -192q108 0 169 42t61 110q0 59 -54 99.5t-146 44.5l-145 8v300l126 10q191 15 191 148q0 63 -60 95.5t-146 32.5q-99 0 -154 -42.5t-66 -151.5h-366z" />
    <glyph glyph-name="four" unicode="4" horiz-adv-x="1363" 
d="M726 1446h376v-852h208v-318h-208v-276h-371l1 276h-652v304zM434 594h302v402z" />
    <glyph glyph-name="five" unicode="5" horiz-adv-x="1412" 
d="M244 1446h988l-16 -312h-674l-21 -240q102 28 158.5 39t125.5 11q238 0 382.5 -126t144.5 -346q0 -232 -160 -363t-438 -131q-220 0 -395.5 87t-258.5 225l290 196q40 -52 65.5 -80t65.5 -60.5t86 -47t102 -14.5q105 0 171.5 50t66.5 124q0 72 -62.5 125t-170.5 53
q-45 0 -86.5 -11.5t-109.5 -40.5q-20 -9 -28 -8.5t-30 10.5l-263 142z" />
    <glyph glyph-name="six" unicode="6" horiz-adv-x="1389" 
d="M725 1466q151 0 277 -53t204 -158t78 -243h-351q-25 80 -73 117t-126 37q-119 0 -181 -100t-38 -230q107 66 290 66q225 0 364.5 -119.5t139.5 -310.5q0 -103 -45 -194.5t-122.5 -157t-188 -104t-236.5 -38.5q-296 0 -466.5 196t-170.5 516q0 362 174 569t471 207z
M702 622q-64 0 -127.5 -38.5t-63.5 -67.5q0 -122 51.5 -186t137.5 -64q79 0 139.5 54.5t60.5 133.5q0 44 -17.5 78t-47 53t-63 28t-70.5 9z" />
    <glyph glyph-name="seven" unicode="7" horiz-adv-x="1299" 
d="M80 1446h1139v-312q-103 -115 -209 -310.5t-178.5 -425t-68.5 -398.5h-418q0 86 25 206.5t76.5 271.5t149.5 326t226 330h-742v312z" />
    <glyph glyph-name="eight" unicode="8" horiz-adv-x="1384" 
d="M692 1466q159 0 282 -47t195.5 -143t72.5 -228q0 -100 -55.5 -177t-142.5 -123q97 -22 178.5 -121t81.5 -217q0 -198 -167.5 -314.5t-444.5 -116.5t-444.5 116.5t-167.5 314.5q0 118 81.5 217t178.5 121q-87 46 -142.5 123t-55.5 177q0 132 72.5 228t195.5 143t282 47z
M692 892q71 0 118.5 44.5t47.5 117.5t-47.5 117.5t-118.5 44.5t-118.5 -44.5t-47.5 -117.5t47.5 -117.5t118.5 -44.5zM692 264q95 0 147.5 43.5t52.5 116.5q0 75 -53 119.5t-147 44.5t-147 -44.5t-53 -119.5q0 -73 53 -116.5t147 -43.5z" />
    <glyph glyph-name="nine" unicode="9" horiz-adv-x="1380" 
d="M653 -22q-150 0 -278 57t-207 163.5t-80 239.5h366q12 -73 59.5 -116.5t122.5 -43.5q136 0 213 83.5t59 268.5q-99 -102 -306 -102q-229 0 -375.5 124t-146.5 326q0 211 164 349.5t420 138.5q296 0 466 -192.5t170 -513.5q0 -201 -45.5 -352t-131 -244.5t-203 -139.5
t-267.5 -46zM678 828q64 0 128 38.5t64 67.5q0 123 -51.5 185.5t-138.5 62.5q-78 0 -131 -52.5t-53 -133.5q0 -79 54 -123.5t128 -44.5z" />
    <glyph glyph-name="colon" unicode=":" horiz-adv-x="620" 
d="M500 1024v-384h-410v384h410zM500 390v-384h-410v384h410z" />
    <glyph glyph-name="semicolon" unicode=";" horiz-adv-x="626" 
d="M96 626v392h410v-392h-410zM90 -330l146 330h-140v386h410v-342l-262 -374h-154z" />
    <glyph glyph-name="less" unicode="&#x3c;" horiz-adv-x="1212" 
d="M1102 468v-324l-992 382v310l992 382v-320l-580 -220z" />
    <glyph glyph-name="equal" unicode="=" horiz-adv-x="1238" 
d="M1128 1054v-276h-1018v276h1018zM1128 584v-276h-1018v276h1018z" />
    <glyph glyph-name="greater" unicode="&#x3e;" horiz-adv-x="1214" 
d="M110 468l582 210l-582 220v320l994 -382v-310l-994 -382v324z" />
    <glyph glyph-name="question" unicode="?" horiz-adv-x="1094" 
d="M0 1102q65 179 201.5 271.5t338.5 92.5q220 0 362 -99t142 -235q0 -64 -20.5 -117.5t-53.5 -92t-73 -73t-80 -68t-73 -69t-53.5 -83.5t-20.5 -105h-304q0 85 22 157.5t55 120t72 92.5t72 76t55 68t22 72q0 45 -37.5 73.5t-90.5 28.5q-67 0 -123 -47t-89 -133zM722 384
v-384h-410v384h410z" />
    <glyph glyph-name="at" unicode="@" horiz-adv-x="1648" 
d="M1329 -68q-73 -63 -205.5 -107.5t-294.5 -44.5q-177 0 -323.5 57.5t-243 157t-149.5 232t-53 283.5q0 126 35.5 242t105.5 213.5t167 169.5t227 112.5t278 40.5q112 0 214 -22.5t194 -72t160 -121t107.5 -177.5t39.5 -235q0 -223 -107.5 -362.5t-282.5 -139.5
q-126 0 -198 84q-9 10 -13 9.5t-13 -11.5q-45 -50 -111 -80t-141 -30q-137 0 -224.5 95.5t-86.5 250.5q0 87 28.5 168t80 144t129 100.5t169.5 37.5q51 0 92 -13.5t60.5 -27.5t49.5 -41q14 -14 17 8l5 24h208l-70 -418q-18 -98 46 -98q58 0 104 73.5t46 214.5
q0 124 -40.5 213t-113 138t-158.5 71t-191 22q-126 0 -227 -30.5t-168.5 -83t-112.5 -126t-65 -157t-20 -179.5q0 -272 157 -414t427 -142q86 0 155 17t107.5 37.5t97.5 59.5zM668 504q0 -65 31.5 -110.5t92.5 -45.5q72 0 122 63t50 141q0 64 -33.5 111t-92.5 47
q-67 0 -118.5 -60.5t-51.5 -145.5z" />
    <glyph glyph-name="A" unicode="A" horiz-adv-x="1482" 
d="M30 0l512 1446h398l512 -1446h-384l-96 280h-456l-98 -280h-388zM598 612h286l-142 462z" />
    <glyph glyph-name="B" unicode="B" horiz-adv-x="1395" 
d="M135 0v1446h578q580 0 580 -382q0 -105 -52.5 -180.5t-181.5 -139.5q72 -22 124.5 -56t79.5 -68t42 -79t18.5 -76t3.5 -71q0 -205 -135.5 -299.5t-446.5 -94.5h-610zM524 882h245q68 0 109 37t41 95q0 63 -46.5 101.5t-117.5 38.5h-231v-272zM524 292h235
q81 0 126.5 44.5t45.5 105.5t-44.5 100.5t-117.5 39.5h-245v-290z" />
    <glyph glyph-name="C" unicode="C" horiz-adv-x="1490" 
d="M777 1466q257 0 430.5 -147.5t197.5 -382.5h-406q-17 103 -77 160.5t-158 57.5q-58 0 -102 -21t-78.5 -68t-53 -130t-18.5 -199q0 -230 67.5 -337t184.5 -107q95 0 156 70.5t79 177.5h406q-9 -68 -23 -125.5t-38.5 -116.5t-57 -105t-81 -87t-109 -68t-141.5 -42.5
t-178 -15.5q-205 0 -363.5 98.5t-243.5 271.5t-85 392q0 330 188 527t504 197z" />
    <glyph glyph-name="D" unicode="D" horiz-adv-x="1488" 
d="M135 1446q457 0 520 -2q192 -7 336.5 -61.5t234 -150t133.5 -222t44 -282.5q0 -161 -46 -292.5t-136.5 -229.5t-235 -152t-332.5 -54h-518v1446zM524 1140v-834h141q46 0 91 14t89 46.5t77.5 80.5t54 122t20.5 165q0 195 -90 300.5t-242 105.5h-141z" />
    <glyph glyph-name="E" unicode="E" horiz-adv-x="1295" 
d="M135 0v1446h1068l-2 -322h-674v-240h564v-314h-567v-246h681v-324h-1070z" />
    <glyph glyph-name="F" unicode="F" horiz-adv-x="1263" 
d="M135 1446h1060l-2 -318h-669v-260h559v-310h-559v-558h-389v1446z" />
    <glyph glyph-name="G" unicode="G" horiz-adv-x="1565" 
d="M769 -20q-203 0 -359 93t-240.5 261t-84.5 384q0 222 90 392.5t251 263t367 92.5q114 0 214.5 -29t175.5 -80t130 -118t83 -144.5t30 -158.5h-407q-21 94 -80 151t-156 57q-56 0 -103 -21.5t-86.5 -68t-61.5 -129t-22 -195.5q0 -102 18.5 -178.5t47 -120t69 -70t77 -35
t78.5 -8.5q77 0 135 41t75 95l17 52h-252v262l662 -4v-764h-255v160q-32 -32 -49 -48t-58 -46t-79 -45t-98.5 -28t-128.5 -13z" />
    <glyph glyph-name="H" unicode="H" horiz-adv-x="1547" 
d="M1023 580h-499v-580h-389v1446h389v-548h499v548h389v-1446h-389v580z" />
    <glyph glyph-name="I" unicode="I" horiz-adv-x="659" 
d="M135 1446h389v-1446h-389v1446z" />
    <glyph glyph-name="J" unicode="J" horiz-adv-x="828" 
d="M720 458q0 -101 -11 -173t-39 -132.5t-76 -97t-123 -56t-179 -19.5q-162 0 -262 20v350q90 -10 128 -10q100 0 136 50t36 168v888h390v-988z" />
    <glyph glyph-name="K" unicode="K" horiz-adv-x="1497" 
d="M1459 0h-418l-322 610l-180 -232v-378h-404v1446h404v-584l418 584h437l-397 -552z" />
    <glyph glyph-name="L" unicode="L" horiz-adv-x="1156" 
d="M135 1446h389v-1126h578v-320h-967v1446z" />
    <glyph glyph-name="M" unicode="M" horiz-adv-x="1894" 
d="M135 0v1446h578l234 -882l236 882h576v-1446h-390v1048l-282 -1048h-280l-283 1048v-1048h-389z" />
    <glyph glyph-name="N" unicode="N" horiz-adv-x="1615" 
d="M1091 1446h389v-1446h-351l-605 862v-862h-389v1446h392l564 -806v806z" />
    <glyph glyph-name="O" unicode="O" horiz-adv-x="1570" 
d="M787 -20q-322 0 -512 201t-190 539t192.5 542t509.5 204q316 0 507 -204t191 -542q0 -337 -189.5 -538.5t-508.5 -201.5zM787 292q276 0 276 422q0 230 -74 335t-202 105t-202.5 -105t-74.5 -335q0 -422 277 -422z" />
    <glyph glyph-name="P" unicode="P" horiz-adv-x="1334" 
d="M135 0v1446h572q162 0 289 -56t202.5 -168.5t75.5 -265.5q0 -214 -139 -336t-378 -122h-233v-498h-389zM520 788h225q71 0 121.5 57.5t50.5 130.5q0 74 -53 128t-119 54h-225v-370z" />
    <glyph glyph-name="Q" unicode="Q" horiz-adv-x="1593" 
d="M85 720q0 338 192.5 542t509.5 204t508.5 -203.5t191.5 -542.5q0 -340 -204 -560q13 -43 72.5 -74.5t131.5 -31.5v-304q-77 0 -129.5 4t-110.5 18t-103.5 40t-95.5 70t-101 108q-87 -10 -160 -10q-322 0 -512 201t-190 539zM512 716q0 -227 70 -325.5t205 -98.5
q89 0 148.5 39.5t93.5 135.5t34 249q0 232 -71.5 335t-204.5 103t-204 -103t-71 -335z" />
    <glyph glyph-name="R" unicode="R" horiz-adv-x="1427" 
d="M1337 0h-399l-210 498h-204v-498h-389v1446h656q137 0 239.5 -35.5t163 -100t89.5 -147t29 -183.5q0 -107 -30.5 -189.5t-78.5 -134.5t-120 -96zM747 788q73 0 123.5 57.5t50.5 130.5q0 74 -53.5 128t-120.5 54h-223v-370h223z" />
    <glyph glyph-name="S" unicode="S" horiz-adv-x="1424" 
d="M726 -20q-91 0 -178.5 17.5t-168.5 55t-143.5 90.5t-103 129.5t-47.5 167.5h396q17 -77 80.5 -119.5t162.5 -42.5q65 0 114.5 11t84.5 42t35 79q0 21 -8.5 38.5t-27.5 30t-37 21t-51 16.5t-53.5 11.5t-60.5 10.5l-221 38q-171 28 -270 137t-103 289q-2 142 79 248.5
t215 160t300 53.5q290 0 451.5 -125t166.5 -331h-386q-9 82 -65 119t-159 37q-102 0 -148 -34t-46 -80q0 -52 33 -81t122 -45l222 -38q85 -15 153.5 -42t113.5 -58t77.5 -72.5t49.5 -78t27 -81.5t12.5 -75.5t2.5 -68.5q0 -184 -177.5 -307t-443.5 -123z" />
    <glyph glyph-name="T" unicode="T" horiz-adv-x="1274" 
d="M30 1104v342h1214v-342h-414v-1104h-390v1104h-410z" />
    <glyph glyph-name="U" unicode="U" horiz-adv-x="1491" 
d="M1383 598q0 -143 -32.5 -252.5t-104 -193.5t-194 -128t-293.5 -44t-293.5 44t-194 128t-104 193.5t-32.5 252.5v848h394v-864q0 -141 65 -208.5t165 -67.5q99 0 164.5 67.5t65.5 208.5v864h394v-848z" />
    <glyph glyph-name="V" unicode="V" horiz-adv-x="1464" 
d="M1434 1446l-488 -1446h-428l-488 1446h367l335 -990l334 990h368z" />
    <glyph glyph-name="W" unicode="W" horiz-adv-x="1964" 
d="M1934 1446l-432 -1446h-290l-230 786l-230 -786h-286l-436 1446h376l224 -776l216 776h272l224 -776l216 776h376z" />
    <glyph glyph-name="X" unicode="X" horiz-adv-x="1486" 
d="M1456 0h-486l-266 454l-260 -454h-414l472 730l-460 716h482l224 -392l222 392h408l-432 -660z" />
    <glyph glyph-name="Y" unicode="Y" horiz-adv-x="1444" 
d="M1429 1446l-515 -844v-602h-390v602l-509 844h420l286 -514l283 514h425z" />
    <glyph glyph-name="Z" unicode="Z" horiz-adv-x="1399" 
d="M90 0v178l681 948h-618v320h1178v-170l-695 -952h683v-324h-1229z" />
    <glyph glyph-name="bracketleft" unicode="[" horiz-adv-x="736" 
d="M120 1446h536v-208h-226v-1352h226v-208h-536v1768z" />
    <glyph glyph-name="backslash" unicode="\" horiz-adv-x="818" 
d="M530 0l-510 1446h258l510 -1446h-258z" />
    <glyph glyph-name="bracketright" unicode="]" horiz-adv-x="736" 
d="M616 1446v-1768h-536v208h226v1352h-226v208h536z" />
    <glyph glyph-name="asciicircum" unicode="^" horiz-adv-x="988" 
d="M664 234l-184 444l-184 -444h-246l324 748q19 44 62.5 61.5t87.5 1.5t64 -61l320 -750h-244z" />
    <glyph glyph-name="underscore" unicode="_" 
d="M1050 -40v-272h-940v272h940z" />
    <glyph glyph-name="grave" unicode="`" horiz-adv-x="610" 
d="M394 1446l206 -291h-272l-317 291h383z" />
    <glyph glyph-name="a" unicode="a" horiz-adv-x="1157" 
d="M423 -20q-153 0 -255 87.5t-102 242.5q0 172 136 263t413 91h80v44q0 97 -114 94q-121 -4 -160 -90h-315q5 118 74 196.5t174.5 112t244.5 33.5q132 0 224.5 -23t145 -67.5t75.5 -100.5t23 -131v-732h-322l-34 164q-45 -102 -112 -143t-176 -41zM560 226q55 0 94 37
t41 87v130h-62q-27 0 -58.5 -6.5t-65.5 -20t-56 -40.5t-22 -63q0 -56 38 -90t91 -34z" />
    <glyph glyph-name="b" unicode="b" horiz-adv-x="1238" 
d="M734 -20q-237 0 -313 232l-46 -212h-275v1486h390v-570q44 73 121 105.5t165 32.5q189 0 295.5 -142t106.5 -388q0 -251 -116 -397.5t-328 -146.5zM642 252q72 0 116 64t44 208q0 135 -44 195.5t-116 60.5q-152 0 -152 -256q0 -272 152 -272z" />
    <glyph glyph-name="c" unicode="c" horiz-adv-x="1101" 
d="M581 1054q85 0 158.5 -23.5t126.5 -65t91 -97.5t57 -121t21 -135h-315q-4 26 -11 49t-22 49t-41.5 41t-61.5 15q-77 0 -121.5 -64t-44.5 -186q0 -125 48.5 -196.5t125.5 -71.5q34 0 60.5 17t40.5 44t21 48.5t10 42.5h306q0 -83 -31 -158.5t-87 -134t-142 -93t-189 -34.5
q-224 0 -372.5 148.5t-148.5 383.5q0 238 147.5 390t373.5 152z" />
    <glyph glyph-name="d" unicode="d" horiz-adv-x="1238" 
d="M504 -20q-212 0 -328 146.5t-116 397.5q0 246 106.5 388t295.5 142q88 0 165 -32.5t121 -105.5v570h390v-1486h-275l-46 212q-76 -232 -313 -232zM596 252q152 0 152 272q0 256 -152 256q-72 0 -116 -60.5t-44 -195.5q0 -144 44 -208t116 -64z" />
    <glyph glyph-name="e" unicode="e" 
d="M448 428q-1 -88 40.5 -132t109.5 -44q59 0 99.5 22t62.5 78h344q-15 -111 -91 -197.5t-182.5 -130.5t-222.5 -44q-243 0 -392.5 144.5t-149.5 379.5q0 150 61 273.5t182.5 200t282.5 76.5q124 0 221.5 -40.5t159.5 -113t94.5 -169.5t32.5 -213v-90h-652zM446 646h295
q0 62 -39.5 104t-109.5 42q-60 0 -103 -43.5t-43 -102.5z" />
    <glyph glyph-name="f" unicode="f" horiz-adv-x="794" 
d="M774 1034v-264h-188v-770h-390v770h-166v264h166v138q0 127 83.5 200.5t226.5 73.5h276l2 -252h-120q-48 0 -67 -21.5t-19 -78.5v-60h196z" />
    <glyph glyph-name="g" unicode="g" horiz-adv-x="1268" 
d="M618 -342q-294 0 -450 67t-156 171q0 19 5.5 37t14.5 31.5t22 26t26 21.5t29 17t29.5 13t28 9.5t23.5 6.5l18 4l10 2q-1 1 -17 8.5t-25.5 13.5t-27 17t-29 24t-23.5 29.5t-18 37.5t-6 44q0 65 61 115.5t177 66.5q-107 47 -164.5 133t-57.5 175q0 100 73.5 174.5t191 111
t261.5 36.5q101 0 168 -19t136 -55q251 97 340 134l-2 -276l-176 -24q12 -45 12 -80q0 -67 -33 -130t-94 -114t-158.5 -81.5t-216.5 -30.5q-87 0 -138 6q-28 -6 -28 -18q0 -17 28.5 -22.5t105.5 -9.5q21 -1 32 -2q162 -9 206 -12q205 -14 308.5 -98.5t103.5 -211.5
q0 -156 -152.5 -252t-437.5 -96zM602 578q55 0 89.5 38.5t34.5 97.5q0 60 -35 103t-89 43t-89 -43t-35 -103q0 -59 34.5 -97.5t89.5 -38.5zM678 -138q95 0 128.5 16t33.5 48q0 33 -34 53t-94 25l-188 12q-73 4 -103.5 -19t-30.5 -55q0 -47 65.5 -63.5t222.5 -16.5z" />
    <glyph glyph-name="h" unicode="h" horiz-adv-x="1213" 
d="M100 0v1486h389v-599q51 63 82 87q77 60 191 60q99 0 179.5 -38.5t131 -118.5t50.5 -189v-688h-390v638q0 48 -37 75t-85 27q-47 0 -84.5 -29.5t-37.5 -77.5v-633h-389z" />
    <glyph glyph-name="i" unicode="i" horiz-adv-x="570" 
d="M470 1446v-328h-370v328h370zM470 1034v-1034h-370v1034h370z" />
    <glyph glyph-name="j" unicode="j" horiz-adv-x="624" 
d="M524 1446v-328h-389v328h389zM524 56q0 -388 -407 -388q-46 0 -80 8.5t-45 17.5l-10 8l-2 260l61 10q53 12 73.5 31.5t20.5 52.5v978h389v-978z" />
    <glyph glyph-name="k" unicode="k" horiz-adv-x="1192" 
d="M1182 0h-378l-239 380l-76 -88v-292h-389v1486h389v-800l284 348h407l-378 -428z" />
    <glyph glyph-name="l" unicode="l" horiz-adv-x="705" 
d="M493 -22q-79 0 -141.5 11t-103.5 28t-70 45.5t-44 53.5t-23 64t-9.5 65t-1.5 67v1174h381v-1122q0 -46 23 -75.5t94 -38.5l42 -4v-236q-84 -32 -147 -32z" />
    <glyph glyph-name="m" unicode="m" horiz-adv-x="1847" 
d="M100 0v1034h383v-143q122 163 340 163q78 0 156.5 -43t127.5 -120q55 71 136.5 117t174.5 46q62 0 120.5 -22t108.5 -64.5t80 -115t30 -164.5v-688h-390v635q0 48 -38 77.5t-86 29.5q-47 0 -84.5 -29.5t-37.5 -77.5v-635h-388v635q0 48 -37 77.5t-85 29.5
q-47 0 -84.5 -29.5t-37.5 -77.5v-635h-389z" />
    <glyph glyph-name="n" unicode="n" horiz-adv-x="1215" 
d="M100 0v1034h385v-143q43 64 107 105.5t172 41.5q71 0 133.5 -20t114.5 -60t82.5 -109.5t30.5 -160.5v-688h-390v635q0 48 -36.5 76.5t-83.5 28.5t-86.5 -28.5t-39.5 -76.5v-635h-389z" />
    <glyph glyph-name="o" unicode="o" 
d="M584 -20q-238 0 -381 147.5t-143 382.5q0 243 147 393.5t379 150.5q239 0 381.5 -152.5t142.5 -391.5q0 -234 -143.5 -382t-382.5 -148zM586 262q44 0 74.5 24.5t45 66.5t20.5 83t6 88q0 252 -146 252q-148 0 -148 -252q0 -47 6 -88t20.5 -83t45.5 -66.5t76 -24.5z" />
    <glyph glyph-name="p" unicode="p" horiz-adv-x="1235" 
d="M100 -322v1356h391v-120q54 73 137 106.5t167 33.5q170 0 275 -135t105 -399q0 -143 -34.5 -250t-94.5 -168.5t-133.5 -91.5t-159.5 -30q-71 0 -144 36t-120 110v-448h-389zM651 258q70 0 117 65.5t47 196.5q0 121 -48 190.5t-116 69.5q-81 0 -121.5 -73.5t-40.5 -186.5
q0 -67 16 -124.5t54 -97.5t92 -40z" />
    <glyph glyph-name="q" unicode="q" horiz-adv-x="1235" 
d="M1135 -322h-389v448q-47 -74 -120 -110t-144 -36q-86 0 -159.5 30t-133.5 91.5t-94.5 168.5t-34.5 250q0 264 105 399t275 135q84 0 167 -33.5t137 -106.5v120h391v-1356zM584 258q54 0 92 40t54 97.5t16 124.5q0 113 -40.5 186.5t-121.5 73.5q-68 0 -116 -69.5
t-48 -190.5q0 -131 47 -196.5t117 -65.5z" />
    <glyph glyph-name="r" unicode="r" horiz-adv-x="863" 
d="M100 0v1034h376v-286q39 136 125.5 221t221.5 85h15v-368q-1 0 -13 2q-62 8 -110 4.5t-83.5 -10.5t-60.5 -23t-41 -32.5t-25 -40t-12.5 -44.5t-3.5 -46v-496h-389z" />
    <glyph glyph-name="s" unicode="s" horiz-adv-x="1092" 
d="M556 -20q-84 0 -163 21t-149 63.5t-119 115.5t-65 168h330q9 -35 31 -59.5t49 -34.5t47 -14t37 -4q67 0 106 15.5t39 46.5q0 29 -27.5 45.5t-96.5 26.5l-153 24q-329 60 -332 316q-2 149 124 246.5t346 97.5q212 0 336 -92.5t124 -249.5h-317q-11 45 -51.5 68.5
t-96.5 23.5t-92.5 -16.5t-36.5 -45.5q0 -27 35.5 -43.5t119.5 -30.5l133 -24q76 -18 134 -50t91 -66.5t53.5 -75t27 -71.5t6.5 -61q0 -161 -132 -250.5t-338 -89.5z" />
    <glyph glyph-name="t" unicode="t" horiz-adv-x="882" 
d="M812 770h-226l2 -468q0 -56 62 -56h162v-230q-64 -32 -206 -32q-118 0 -200.5 23t-126.5 65.5t-62.5 93.5t-18.5 118v486h-168v264h182l100 322h274v-320h226v-266z" />
    <glyph glyph-name="u" unicode="u" horiz-adv-x="1217" 
d="M481 -20q-64 0 -131.5 22.5t-126 62t-96 103.5t-37.5 138v728h390v-674q0 -46 33.5 -76t91.5 -30q57 0 91.5 30t34.5 76v674h386v-1034h-288l-46 212q-43 -232 -302 -232z" />
    <glyph glyph-name="v" unicode="v" horiz-adv-x="1070" 
d="M1063 1034l-403 -1034h-250l-402 1034h346l182 -528l174 528h353z" />
    <glyph glyph-name="w" unicode="w" horiz-adv-x="1595" 
d="M1586 1034l-364 -1034h-279l-154 502l-163 -502h-267l-349 1034h338l162 -502l151 502h271l147 -504l160 504h347z" />
    <glyph glyph-name="x" unicode="x" horiz-adv-x="1218" 
d="M1208 0h-400l-198 274l-200 -274h-400l396 540l-360 494h400l166 -224l164 224h400l-364 -494z" />
    <glyph glyph-name="y" unicode="y" horiz-adv-x="1177" 
d="M315 -330q-71 0 -127.5 11t-77.5 22l-20 11v246l99 -6q190 -15 215 83q1 2 1 3l4 20l-401 974h382l196 -562l203 562h381l-404 -974q-49 -119 -101 -198t-109 -120t-113 -56.5t-128 -15.5z" />
    <glyph glyph-name="z" unicode="z" horiz-adv-x="1021" 
d="M50 0v206l444 562h-417v266h892v-206l-445 -562h447v-266h-921z" />
    <glyph glyph-name="braceleft" unicode="{" horiz-adv-x="872" 
d="M256 1182q0 86 56.5 148t134 89t159.5 27h186v-208h-102q-44 0 -71 -8t-37.5 -25.5t-13 -31t-2.5 -39.5v-370q-2 -47 -23.5 -82.5t-56 -55.5t-69 -31t-73.5 -15q-8 -1 -11 -3.5t-0.5 -5t11.5 -3.5q215 -19 222 -204v-374q0 -57 27 -80.5t97 -23.5h102v-208h-180
q-63 0 -124 16t-114 47t-85.5 83.5t-32.5 119.5v384q0 156 -226 156v180q122 0 174 38t52 126v354z" />
    <glyph glyph-name="bar" unicode="|" horiz-adv-x="546" 
d="M411 -322h-276v1974h276v-1974z" />
    <glyph glyph-name="braceright" unicode="}" horiz-adv-x="862" 
d="M556 1182v-354q0 -88 52 -126t174 -38v-180q-226 0 -226 -156v-384q0 -67 -32.5 -119.5t-85.5 -83.5t-114 -47t-124 -16h-180v208h102q70 0 97 23.5t27 80.5v374q7 185 222 204q9 1 11.5 3.5t-0.5 5t-11 3.5q-39 4 -73.5 15t-69 31t-56 55.5t-23.5 82.5v370
q0 26 -2.5 39.5t-13 31t-37.5 25.5t-71 8h-102v208h186q82 0 159.5 -27t134 -89t56.5 -148z" />
    <glyph glyph-name="asciitilde" unicode="~" horiz-adv-x="1304" 
d="M1174 762q-60 -110 -148.5 -167t-179.5 -57q-55 0 -110.5 22t-93.5 48t-87 48t-93 22q-36 0 -68 -12t-66.5 -43t-51.5 -49t-56 -64l-110 184q104 111 183 164.5t175 53.5q58 0 113 -21.5t91 -47.5t81 -47.5t85 -21.5q66 0 124 46.5t100 121.5z" />
    <glyph glyph-name="uni00A0" unicode="&#xa0;" horiz-adv-x="420" 
 />
    <glyph glyph-name="exclamdown" unicode="&#xa1;" horiz-adv-x="622" 
d="M500 650h-410v384h410v-384zM522 -322h-452l110 836h236z" />
    <glyph glyph-name="cent" unicode="&#xa2;" horiz-adv-x="1155" 
d="M744 0h-244v215q-178 38 -289 178.5t-111 340.5q0 204 110.5 347t289.5 182v183h244v-184q154 -36 241 -155t90 -273h-315q-4 26 -11 49t-22 49t-41.5 41t-61.5 15q-77 0 -121.5 -64t-44.5 -186q0 -125 48.5 -196.5t125.5 -71.5q34 0 60.5 17t40.5 44t21 48.5t10 42.5
h306q0 -144 -87.5 -257.5t-238.5 -148.5v-216z" />
    <glyph glyph-name="sterling" unicode="&#xa3;" horiz-adv-x="1360" 
d="M50 0v318h62q162 0 162 144q0 50 -18 206h-206v202h162l-10 194q-6 78 17.5 144.5t69.5 113t109.5 79.5t137.5 49t154 16q182 0 316 -84.5t204 -247.5l-336 -96q-31 73 -56 100.5t-66 27.5q-45 0 -70.5 -31.5t-25.5 -88.5q0 -45 20 -176h266v-202h-238q3 -125 -20 -194
q-14 -46 -37 -75.5t-79 -78.5h198q88 0 127.5 33t70.5 123l326 -64q-100 -412 -492 -412h-748z" />
    <glyph glyph-name="currency" unicode="&#xa4;" horiz-adv-x="1226" 
d="M608 246q-132 0 -242 64q-19 11 -34 -4l-130 -128l-152 156l144 142q-72 120 -72 250q0 131 60 234q6 12 5.5 18.5t-9.5 15.5l-128 128l152 158l146 -146q126 76 250 76q133 0 250 -68q13 -7 22 2l114 116l152 -156l-126 -124q74 -120 74 -252q0 -144 -70 -246
q-3 -7 0 -10l122 -120l-152 -156l-124 126q-124 -76 -252 -76zM602 488q102 0 171 71t69 169q0 97 -69.5 168.5t-170.5 71.5q-100 0 -170 -72t-70 -168q0 -97 69.5 -168.5t170.5 -71.5z" />
    <glyph glyph-name="yen" unicode="&#xa5;" horiz-adv-x="1404" 
d="M1222 382v-196h-292v-186h-442v186h-292v196h292v134h-292v198h223l-449 732h504l280 -504l274 504h406l-457 -732h245v-198h-292v-134h292z" />
    <glyph glyph-name="brokenbar" unicode="&#xa6;" horiz-adv-x="546" 
d="M411 824h-276v828h276v-828zM411 -322h-276v828h276v-828z" />
    <glyph glyph-name="section" unicode="&#xa7;" horiz-adv-x="1066" 
d="M526 -166q-183 0 -311.5 68.5t-174.5 165.5l232 112q24 -28 41.5 -44.5t47.5 -37t68.5 -30.5t86.5 -10q66 0 104 19.5t38 58.5q0 31 -27 54.5t-97 49.5l-136 50q-183 68 -261.5 144t-78.5 200q0 182 158 264q-138 93 -138 234q0 145 116 239.5t314 94.5q161 0 283 -68.5
t167 -165.5l-232 -110q-38 39 -59 58.5t-63.5 40.5t-87.5 21t-71.5 -19.5t-26.5 -52.5q0 -41 74 -66l146 -54q183 -68 261.5 -144t78.5 -200q0 -170 -148 -264q90 -50 128 -109t38 -143q0 -162 -121 -259t-349 -97zM584 552q46 -6 70 24.5t16 77.5q-12 57 -136 102l-72 28
q-98 -8 -98 -92q0 -35 26.5 -56t111.5 -52z" />
    <glyph glyph-name="dieresis" unicode="&#xa8;" horiz-adv-x="918" 
d="M546 1155l4 291h358l-4 -291h-358zM10 1155l4 291h358l-4 -291h-358z" />
    <glyph glyph-name="copyright" unicode="&#xa9;" horiz-adv-x="1686" 
d="M832 -20q-202 0 -372.5 99t-270 270t-99.5 375q0 150 58.5 287.5t158 237t237 158.5t288.5 59t289 -59t237.5 -158.5t158.5 -237t59 -287.5q0 -203 -100 -374.5t-271 -270.5t-373 -99zM832 178q239 0 382.5 148t143.5 398q0 248 -144 398t-382 150q-240 0 -382 -149.5
t-142 -398.5q0 -251 141.5 -398.5t382.5 -147.5zM838 1138q79 0 146 -26.5t111 -70t72 -93.5t37 -102l-262 -14q-15 118 -96 118q-118 0 -118 -222q0 -121 34 -173.5t102 -52.5q58 0 89.5 31t64.5 97l184 -36q-5 -29 -19 -62.5t-44 -73t-69.5 -71t-100 -52.5t-131.5 -21
q-179 0 -295.5 114.5t-116.5 295.5q0 184 116.5 299t295.5 115z" />
    <glyph glyph-name="ordfeminine" unicode="&#xaa;" horiz-adv-x="809" 
d="M278 796q-102 0 -157 50.5t-55 135.5q0 100 96.5 164t256.5 64h48v40q0 41 -22.5 55.5t-48.5 14.5q-77 0 -105 -74l-210 40q42 95 111 137.5t210 42.5q164 -1 230 -51t66 -149v-264q0 -116 7 -146l14 -48h-237l-15 56q-59 -37 -97.5 -52.5t-91.5 -15.5zM375 940
q44 0 73 24q19 17 19 38v88h-40q-54 0 -90 -25.5t-36 -66.5q0 -26 19.5 -42t54.5 -16z" />
    <glyph glyph-name="guillemotleft" unicode="&#xab;" horiz-adv-x="1080" 
d="M812 502l128 -384h-200l-216 384l214 400h202zM406 502l128 -384h-200l-214 384l212 400h202z" />
    <glyph glyph-name="logicalnot" unicode="&#xac;" horiz-adv-x="1238" 
d="M1128 866v-592h-312v316h-706v276h1018z" />
    <glyph glyph-name="uni00AD" unicode="&#xad;" horiz-adv-x="814" 
d="M697 650v-274h-580v274h580z" />
    <glyph glyph-name="registered" unicode="&#xae;" horiz-adv-x="1130" 
d="M556 536q-128 0 -235 62t-169 168.5t-62 233.5t62 234t169 169.5t235 62.5q192 0 328 -136.5t136 -329.5t-136 -328.5t-328 -135.5zM556 674q142 0 227 88.5t85 237.5t-85 238.5t-227 89.5q-145 0 -229.5 -89.5t-84.5 -238.5t84.5 -237.5t229.5 -88.5zM360 768v460h224
q89 0 139.5 -33.5t50.5 -94.5q0 -42 -24.5 -74.5t-65.5 -49.5l92 -208h-154l-64 192h-58v-192h-140zM500 1052h82q21 0 33.5 12t12.5 30q0 20 -15.5 31t-36.5 11h-76v-84z" />
    <glyph glyph-name="macron" unicode="&#xaf;" horiz-adv-x="904" 
d="M842 1416v-238h-800v238h800z" />
    <glyph glyph-name="degree" unicode="&#xb0;" horiz-adv-x="968" 
d="M828 1316q0 -155 -100.5 -254.5t-253.5 -99.5q-154 0 -254 99.5t-100 254.5q0 154 100.5 255t253.5 101q152 0 253 -101t101 -255zM610 1314q0 64 -38 104t-102 40q-63 0 -101.5 -40.5t-36.5 -103.5q2 -66 39 -106t101 -40q63 0 100.5 40.5t37.5 105.5z" />
    <glyph glyph-name="plusminus" unicode="&#xb1;" horiz-adv-x="1238" 
d="M758 406h-276v370h-372v276h372v372h276v-372h370v-276h-370v-370zM1128 304v-274h-1018v274h1018z" />
    <glyph glyph-name="uni00B2" unicode="&#xb2;" horiz-adv-x="830" 
d="M53 748v163q0 65 26 118t67.5 88t92 63.5t101 50.5t92 43t67.5 47t26 57q0 41 -29 68t-78 27q-55 0 -95 -32.5t-53 -103.5h-231q0 149 98 241t286 92q166 0 262 -79t96 -210q0 -65 -25 -116t-65 -83.5t-88.5 -57.5t-97.5 -44t-89 -36.5t-65 -41t-25 -52.5h449v-202h-722z
" />
    <glyph glyph-name="uni00B3" unicode="&#xb3;" horiz-adv-x="893" 
d="M59 1366q0 152 103 228.5t273 76.5q112 0 195 -24.5t134.5 -82.5t51.5 -145q0 -70 -37.5 -118t-122.5 -76q75 -20 126.5 -72t51.5 -140q0 -91 -57 -155.5t-146.5 -93t-200.5 -28.5q-182 0 -276.5 81t-94.5 231h231q24 -120 140 -120q68 0 106.5 26.5t38.5 68.5
q0 37 -34 62.5t-92 28.5l-92 5v189l80 6q120 9 120 93q0 40 -37.5 60t-91.5 20q-63 0 -97.5 -26.5t-41.5 -94.5h-230z" />
    <glyph glyph-name="acute" unicode="&#xb4;" horiz-adv-x="610" 
d="M216 1446h383l-317 -291h-272z" />
    <glyph glyph-name="uni00B5" unicode="&#xb5;" horiz-adv-x="1242" 
d="M90 -330v1390h399v-602q0 -48 35.5 -77t92.5 -29q52 0 84.5 29t35.5 77v602h405l-8 -1060h-391v164q-38 -60 -115 -86q-67 -22 -139 -10v-398h-399z" />
    <glyph glyph-name="paragraph" unicode="&#xb6;" horiz-adv-x="1270" 
d="M1180 1234h-128v-1400h-230v1400h-130v-1400h-230v766q-80 9 -149.5 38t-127.5 78t-91.5 128.5t-33.5 179.5q0 186 125.5 304t346.5 118h648v-212z" />
    <glyph glyph-name="periodcentered" unicode="&#xb7;" horiz-adv-x="572" 
d="M452 902v-348h-362v348h362z" />
    <glyph glyph-name="cedilla" unicode="&#xb8;" horiz-adv-x="622" 
d="M562 -268q0 -76 -76.5 -123t-183.5 -47q-168 0 -266 58l48 118q96 -52 170 -52q41 0 66.5 14t25.5 38q0 38 -40.5 57t-137.5 19q-17 0 -21.5 4t1.5 20l74 172h158l-42 -114q113 0 168.5 -49.5t55.5 -114.5z" />
    <glyph glyph-name="uni00B9" unicode="&#xb9;" horiz-adv-x="543" 
d="M190 744v643h-151v128q109 0 169 37.5t70 101.5h158v-910h-246z" />
    <glyph glyph-name="ordmasculine" unicode="&#xba;" horiz-adv-x="801" 
d="M400 1466q152 0 246.5 -95t94.5 -243q0 -146 -95.5 -239t-245.5 -93t-245 93t-95 239q0 150 97 244t243 94zM400 1314q-48 0 -71 -43.5t-23 -138.5q0 -94 23 -137t71 -43q50 0 72.5 43t22.5 137q0 96 -22.5 139t-72.5 43z" />
    <glyph glyph-name="guillemotright" unicode="&#xbb;" horiz-adv-x="1080" 
d="M248 502l-128 400h202l212 -400l-214 -384h-200zM654 502l-130 400h204l212 -400l-214 -384h-202z" />
    <glyph glyph-name="onequarter" unicode="&#xbc;" horiz-adv-x="1733" 
d="M1428 1462l-972 -1470l-215 4l974 1466h213zM190 536v643h-151v128q109 0 169 37.5t70 101.5h158v-910h-246zM1325 912h238v-536h131v-199h-131v-174h-234l1 174h-410v190zM1142 376h190v253z" />
    <glyph glyph-name="onehalf" unicode="&#xbd;" horiz-adv-x="1866" 
d="M1428 1462l-972 -1470l-215 4l974 1466h213zM190 536v643h-151v128q109 0 169 37.5t70 101.5h158v-910h-246zM1089 0v163q0 65 26 118t67.5 88t92 63.5t101 50.5t92 43t67.5 47t26 57q0 41 -29 68t-78 27q-55 0 -95 -32.5t-53 -103.5h-231q0 149 98 241t286 92
q166 0 262 -79t96 -210q0 -65 -25 -116t-65 -83.5t-88.5 -57.5t-97.5 -44t-89 -36.5t-65 -41t-25 -52.5h449v-202h-722z" />
    <glyph glyph-name="threequarters" unicode="&#xbe;" horiz-adv-x="1993" 
d="M1688 1462l-972 -1470l-215 4l974 1466h213zM59 1156q0 152 103 228.5t273 76.5q112 0 195 -24.5t134.5 -82.5t51.5 -145q0 -70 -37.5 -118t-122.5 -76q75 -20 126.5 -72t51.5 -140q0 -91 -57 -155.5t-146.5 -93t-200.5 -28.5q-182 0 -276.5 81t-94.5 231h231
q24 -120 140 -120q68 0 106.5 26.5t38.5 68.5q0 37 -34 62.5t-92 28.5l-92 5v189l80 6q120 9 120 93q0 40 -37.5 60t-91.5 20q-63 0 -97.5 -26.5t-41.5 -94.5h-230zM1585 912h238v-536h131v-199h-131v-174h-234l1 174h-410v190zM1402 376h190v253z" />
    <glyph glyph-name="questiondown" unicode="&#xbf;" horiz-adv-x="1134" 
d="M392 650v384h410v-384h-410zM1114 24q-65 -179 -201.5 -272.5t-338.5 -93.5q-124 0 -222 27t-158.5 74t-92 107t-31.5 128q0 65 20.5 118t53.5 89t72.5 67.5t79 58.5t72.5 55t53.5 65t20.5 81h306q0 -70 -22 -130.5t-55 -100t-72 -78.5t-72 -67.5t-55 -64t-22 -71.5
q0 -40 38 -67t90 -27q66 0 123.5 45.5t88.5 124.5z" />
    <glyph glyph-name="Agrave" unicode="&#xc0;" horiz-adv-x="1482" 
d="M662 1858l206 -291h-272l-317 291h383zM30 0l512 1446h398l512 -1446h-384l-96 280h-456l-98 -280h-388zM598 612h286l-142 462z" />
    <glyph glyph-name="Aacute" unicode="&#xc1;" horiz-adv-x="1482" 
d="M813 1858h383l-317 -291h-272zM30 0l512 1446h398l512 -1446h-384l-96 280h-456l-98 -280h-388zM598 612h286l-142 462z" />
    <glyph glyph-name="Acircumflex" unicode="&#xc2;" horiz-adv-x="1482" 
d="M862 1567l-124 149l-142 -149h-264l276 291h264l268 -291h-278zM30 0l512 1446h398l512 -1446h-384l-96 280h-456l-98 -280h-388zM598 612h286l-142 462z" />
    <glyph glyph-name="Atilde" unicode="&#xc3;" horiz-adv-x="1482" 
d="M1134 1671q-39 -34 -100.5 -57.5t-127.5 -23.5q-58 0 -159 29.5t-157 29.5q-51 0 -88.5 -15.5t-83.5 -56.5l-54 192q45 51 94.5 79t121.5 28q66 0 174 -33.5t150 -33.5q87 0 190 82zM30 0l512 1446h398l512 -1446h-384l-96 280h-456l-98 -280h-388zM598 612h286l-142 462
z" />
    <glyph glyph-name="Adieresis" unicode="&#xc4;" horiz-adv-x="1482" 
d="M829 1567l4 291h358l-4 -291h-358zM293 1567l4 291h358l-4 -291h-358zM30 0l512 1446h398l512 -1446h-384l-96 280h-456l-98 -280h-388zM598 612h286l-142 462z" />
    <glyph glyph-name="Aring" unicode="&#xc5;" horiz-adv-x="1482" 
d="M970 1758q0 -96 -66.5 -162t-161.5 -66q-96 0 -162 67t-66 165q0 91 66.5 155.5t161.5 64.5t161.5 -65.5t66.5 -158.5zM832 1756q0 39 -26.5 65.5t-65.5 26.5t-67.5 -26.5t-28.5 -65.5q0 -38 28.5 -67t67.5 -29q38 0 65 29t27 67zM30 0l512 1446h398l512 -1446h-384
l-96 280h-456l-98 -280h-388zM598 612h286l-142 462z" />
    <glyph glyph-name="AE" unicode="&#xc6;" horiz-adv-x="2200" 
d="M2110 320v-320h-1144v280h-440l-138 -280h-388l750 1446h1342l-2 -318h-680v-244h570v-314h-570v-250h700zM966 612v590l-298 -590h298z" />
    <glyph glyph-name="Ccedilla" unicode="&#xc7;" horiz-adv-x="1490" 
d="M1047 -268q0 -76 -76.5 -123t-183.5 -47q-168 0 -266 58l48 118q96 -52 170 -52q41 0 66.5 14t25.5 38q0 38 -40.5 57t-137.5 19q-17 0 -21.5 4t1.5 20l63 146q-277 29 -444 238.5t-167 519.5q0 330 188 527t504 197q257 0 430.5 -147.5t197.5 -382.5h-406
q-17 103 -77 160.5t-158 57.5q-58 0 -102 -21t-78.5 -68t-53 -130t-18.5 -199q0 -230 67.5 -337t184.5 -107q95 0 156 70.5t79 177.5h406q-12 -91 -33 -164t-62.5 -145t-100 -122t-148.5 -84t-206 -42l-32 -87q113 0 168.5 -49.5t55.5 -114.5z" />
    <glyph glyph-name="Egrave" unicode="&#xc8;" horiz-adv-x="1295" 
d="M589 1858l206 -291h-272l-317 291h383zM135 0v1446h1068l-2 -322h-674v-240h564v-314h-567v-246h681v-324h-1070z" />
    <glyph glyph-name="Eacute" unicode="&#xc9;" horiz-adv-x="1295" 
d="M740 1858h383l-317 -291h-272zM135 0v1446h1068l-2 -322h-674v-240h564v-314h-567v-246h681v-324h-1070z" />
    <glyph glyph-name="Ecircumflex" unicode="&#xca;" horiz-adv-x="1295" 
d="M791 1567l-124 149l-142 -149h-264l276 291h264l268 -291h-278zM135 0v1446h1068l-2 -322h-674v-240h564v-314h-567v-246h681v-324h-1070z" />
    <glyph glyph-name="Edieresis" unicode="&#xcb;" horiz-adv-x="1295" 
d="M756 1567l4 291h358l-4 -291h-358zM220 1567l4 291h358l-4 -291h-358zM135 0v1446h1068l-2 -322h-674v-240h564v-314h-567v-246h681v-324h-1070z" />
    <glyph glyph-name="Igrave" unicode="&#xcc;" horiz-adv-x="659" 
d="M251 1858l206 -291h-272l-317 291h383zM135 1446h389v-1446h-389v1446z" />
    <glyph glyph-name="Iacute" unicode="&#xcd;" horiz-adv-x="659" 
d="M402 1858h383l-317 -291h-272zM135 1446h389v-1446h-389v1446z" />
    <glyph glyph-name="Icircumflex" unicode="&#xce;" horiz-adv-x="659" 
d="M453 1567l-124 149l-142 -149h-264l276 291h264l268 -291h-278zM135 1446h389v-1446h-389v1446z" />
    <glyph glyph-name="Idieresis" unicode="&#xcf;" horiz-adv-x="659" 
d="M418 1567l4 291h358l-4 -291h-358zM-118 1567l4 291h358l-4 -291h-358zM135 1446h389v-1446h-389v1446z" />
    <glyph glyph-name="Eth" unicode="&#xd0;" horiz-adv-x="1574" 
d="M221 1446q457 0 520 -2q192 -7 336.5 -61.5t234 -150t133.5 -222t44 -282.5q0 -161 -46 -292.5t-136.5 -229.5t-235 -152t-332.5 -54h-518v577h-151v274h151v595zM866 851v-274h-256v-271h141q46 0 91 14t89 46.5t77.5 80.5t54 122t20.5 165q0 195 -90 300.5t-242 105.5
h-141v-289h256z" />
    <glyph glyph-name="Ntilde" unicode="&#xd1;" horiz-adv-x="1615" 
d="M1199 1671q-39 -34 -100.5 -57.5t-127.5 -23.5q-59 0 -160 29.5t-156 29.5q-51 0 -88.5 -15.5t-83.5 -56.5l-54 192q45 51 94.5 79t121.5 28q66 0 174 -33.5t150 -33.5q87 0 190 82zM1091 1446h389v-1446h-351l-605 862v-862h-389v1446h392l564 -806v806z" />
    <glyph glyph-name="Ograve" unicode="&#xd2;" horiz-adv-x="1570" 
d="M705 1858l206 -291h-272l-317 291h383zM787 -20q-322 0 -512 201t-190 539t192.5 542t509.5 204q316 0 507 -204t191 -542q0 -337 -189.5 -538.5t-508.5 -201.5zM787 292q276 0 276 422q0 230 -74 335t-202 105t-202.5 -105t-74.5 -335q0 -422 277 -422z" />
    <glyph glyph-name="Oacute" unicode="&#xd3;" horiz-adv-x="1570" 
d="M856 1858h383l-317 -291h-272zM787 -20q-322 0 -512 201t-190 539t192.5 542t509.5 204q316 0 507 -204t191 -542q0 -337 -189.5 -538.5t-508.5 -201.5zM787 292q276 0 276 422q0 230 -74 335t-202 105t-202.5 -105t-74.5 -335q0 -422 277 -422z" />
    <glyph glyph-name="Ocircumflex" unicode="&#xd4;" horiz-adv-x="1570" 
d="M907 1567l-124 149l-142 -149h-264l276 291h264l268 -291h-278zM787 -20q-322 0 -512 201t-190 539t192.5 542t509.5 204q316 0 507 -204t191 -542q0 -337 -189.5 -538.5t-508.5 -201.5zM787 292q276 0 276 422q0 230 -74 335t-202 105t-202.5 -105t-74.5 -335
q0 -422 277 -422z" />
    <glyph glyph-name="Otilde" unicode="&#xd5;" horiz-adv-x="1570" 
d="M1177 1671q-39 -34 -100.5 -57.5t-127.5 -23.5q-58 0 -159.5 29.5t-156.5 29.5q-51 0 -88.5 -15.5t-83.5 -56.5l-54 192q45 51 94.5 79t121.5 28q66 0 174 -33.5t150 -33.5q87 0 190 82zM787 -20q-322 0 -512 201t-190 539t192.5 542t509.5 204q316 0 507 -204t191 -542
q0 -337 -189.5 -538.5t-508.5 -201.5zM787 292q276 0 276 422q0 230 -74 335t-202 105t-202.5 -105t-74.5 -335q0 -422 277 -422z" />
    <glyph glyph-name="Odieresis" unicode="&#xd6;" horiz-adv-x="1570" 
d="M872 1567l4 291h358l-4 -291h-358zM336 1567l4 291h358l-4 -291h-358zM787 -20q-322 0 -512 201t-190 539t192.5 542t509.5 204q316 0 507 -204t191 -542q0 -337 -189.5 -538.5t-508.5 -201.5zM787 292q276 0 276 422q0 230 -74 335t-202 105t-202.5 -105t-74.5 -335
q0 -422 277 -422z" />
    <glyph glyph-name="multiply" unicode="&#xd7;" horiz-adv-x="1220" 
d="M304 230l-192 196l302 302l-304 304l192 196l306 -306l306 306l196 -196l-306 -305l302 -301l-196 -196l-302 303z" />
    <glyph glyph-name="Oslash" unicode="&#xd8;" horiz-adv-x="1598" 
d="M186 -28l-156 162l164 158q-106 181 -106 428q0 339 192 542.5t510 203.5q272 0 452 -152l164 158l152 -160l-174 -172q104 -174 104 -420q0 -337 -189.5 -538.5t-508.5 -201.5q-265 0 -448 142zM552 640l422 412q-54 114 -184 114q-94 0 -147.5 -65t-74.5 -207
q-16 -93 -16 -254zM790 284q87 0 138.5 52t73.5 166q22 102 22 288l-418 -410q55 -96 184 -96z" />
    <glyph glyph-name="Ugrave" unicode="&#xd9;" horiz-adv-x="1491" 
d="M679 1858l206 -291h-272l-317 291h383zM1383 598q0 -143 -32.5 -252.5t-104 -193.5t-194 -128t-293.5 -44t-293.5 44t-194 128t-104 193.5t-32.5 252.5v848h394v-864q0 -141 65 -208.5t165 -67.5q99 0 164.5 67.5t65.5 208.5v864h394v-848z" />
    <glyph glyph-name="Uacute" unicode="&#xda;" horiz-adv-x="1491" 
d="M830 1858h383l-317 -291h-272zM1383 598q0 -143 -32.5 -252.5t-104 -193.5t-194 -128t-293.5 -44t-293.5 44t-194 128t-104 193.5t-32.5 252.5v848h394v-864q0 -141 65 -208.5t165 -67.5q99 0 164.5 67.5t65.5 208.5v864h394v-848z" />
    <glyph glyph-name="Ucircumflex" unicode="&#xdb;" horiz-adv-x="1491" 
d="M881 1567l-124 149l-142 -149h-264l276 291h264l268 -291h-278zM1383 598q0 -143 -32.5 -252.5t-104 -193.5t-194 -128t-293.5 -44t-293.5 44t-194 128t-104 193.5t-32.5 252.5v848h394v-864q0 -141 65 -208.5t165 -67.5q99 0 164.5 67.5t65.5 208.5v864h394v-848z" />
    <glyph glyph-name="Udieresis" unicode="&#xdc;" horiz-adv-x="1491" 
d="M846 1567l4 291h358l-4 -291h-358zM310 1567l4 291h358l-4 -291h-358zM1383 598q0 -143 -32.5 -252.5t-104 -193.5t-194 -128t-293.5 -44t-293.5 44t-194 128t-104 193.5t-32.5 252.5v848h394v-864q0 -141 65 -208.5t165 -67.5q99 0 164.5 67.5t65.5 208.5v864h394v-848z
" />
    <glyph glyph-name="Yacute" unicode="&#xdd;" horiz-adv-x="1444" 
d="M842 1858h383l-317 -291h-272zM1429 1446l-515 -844v-602h-390v602l-509 844h420l286 -514l283 514h425z" />
    <glyph glyph-name="Thorn" unicode="&#xde;" horiz-adv-x="1416" 
d="M1356 727q0 -139 -73.5 -242t-201.5 -156t-293 -53h-264v-276h-389v1446h389v-260h264q256 0 412 -118.5t156 -340.5zM950 727q0 63 -53.5 105t-108.5 42l-264 1v-287h264q56 0 109 38.5t53 100.5z" />
    <glyph glyph-name="germandbls" unicode="&#xdf;" horiz-adv-x="1323" 
d="M651 1446q218 0 338 -80t120 -234q0 -103 -63.5 -173t-214.5 -131q-10 -3 -10 -12q0 -10 14 -16q86 -39 130.5 -60.5t110.5 -64.5t98 -83.5t57.5 -103.5t25.5 -138q0 -179 -119.5 -274.5t-329.5 -95.5q-155 0 -263 64l106 232q2 -1 6 -4q77 -52 142 -52q49 0 81.5 22
t32.5 66q0 39 -31 61.5t-118 60.5q-217 98 -217 288q0 117 101 222q9 9 32 32.5t33 34.5t24 30t19.5 36t5.5 35q0 41 -32.5 68.5t-91.5 27.5q-74 0 -114.5 -45.5t-40.5 -114.5v-1044h-381l-2 968q3 74 20.5 140t57.5 129t100.5 108.5t156 73t216.5 27.5z" />
    <glyph glyph-name="agrave" unicode="&#xe0;" horiz-adv-x="1157" 
d="M524 1446l206 -291h-272l-317 291h383zM423 -20q-153 0 -255 87.5t-102 242.5q0 172 136 263t413 91h80v44q0 97 -114 94q-121 -4 -160 -90h-315q5 118 74 196.5t174.5 112t244.5 33.5q132 0 224.5 -23t145 -67.5t75.5 -100.5t23 -131v-732h-322l-34 164
q-45 -102 -112 -143t-176 -41zM560 226q55 0 94 37t41 87v130h-62q-27 0 -58.5 -6.5t-65.5 -20t-56 -40.5t-22 -63q0 -56 38 -90t91 -34z" />
    <glyph glyph-name="aacute" unicode="&#xe1;" horiz-adv-x="1157" 
d="M675 1446h383l-317 -291h-272zM423 -20q-153 0 -255 87.5t-102 242.5q0 172 136 263t413 91h80v44q0 97 -114 94q-121 -4 -160 -90h-315q5 118 74 196.5t174.5 112t244.5 33.5q132 0 224.5 -23t145 -67.5t75.5 -100.5t23 -131v-732h-322l-34 164q-45 -102 -112 -143
t-176 -41zM560 226q55 0 94 37t41 87v130h-62q-27 0 -58.5 -6.5t-65.5 -20t-56 -40.5t-22 -63q0 -56 38 -90t91 -34z" />
    <glyph glyph-name="acircumflex" unicode="&#xe2;" horiz-adv-x="1157" 
d="M726 1155l-124 149l-142 -149h-264l276 291h264l268 -291h-278zM423 -20q-153 0 -255 87.5t-102 242.5q0 172 136 263t413 91h80v44q0 97 -114 94q-121 -4 -160 -90h-315q5 118 74 196.5t174.5 112t244.5 33.5q132 0 224.5 -23t145 -67.5t75.5 -100.5t23 -131v-732h-322
l-34 164q-45 -102 -112 -143t-176 -41zM560 226q55 0 94 37t41 87v130h-62q-27 0 -58.5 -6.5t-65.5 -20t-56 -40.5t-22 -63q0 -56 38 -90t91 -34z" />
    <glyph glyph-name="atilde" unicode="&#xe3;" horiz-adv-x="1157" 
d="M996 1259q-39 -34 -100.5 -57.5t-127.5 -23.5q-58 0 -159 29.5t-157 29.5q-51 0 -88.5 -15.5t-83.5 -56.5l-54 192q45 51 94.5 79t121.5 28q66 0 174 -33.5t150 -33.5q87 0 190 82zM423 -20q-153 0 -255 87.5t-102 242.5q0 172 136 263t413 91h80v44q0 97 -114 94
q-121 -4 -160 -90h-315q5 118 74 196.5t174.5 112t244.5 33.5q132 0 224.5 -23t145 -67.5t75.5 -100.5t23 -131v-732h-322l-34 164q-45 -102 -112 -143t-176 -41zM560 226q55 0 94 37t41 87v130h-62q-27 0 -58.5 -6.5t-65.5 -20t-56 -40.5t-22 -63q0 -56 38 -90t91 -34z" />
    <glyph glyph-name="adieresis" unicode="&#xe4;" horiz-adv-x="1157" 
d="M691 1155l4 291h358l-4 -291h-358zM155 1155l4 291h358l-4 -291h-358zM423 -20q-153 0 -255 87.5t-102 242.5q0 172 136 263t413 91h80v44q0 97 -114 94q-121 -4 -160 -90h-315q5 118 74 196.5t174.5 112t244.5 33.5q132 0 224.5 -23t145 -67.5t75.5 -100.5t23 -131v-732
h-322l-34 164q-45 -102 -112 -143t-176 -41zM560 226q55 0 94 37t41 87v130h-62q-27 0 -58.5 -6.5t-65.5 -20t-56 -40.5t-22 -63q0 -56 38 -90t91 -34z" />
    <glyph glyph-name="aring" unicode="&#xe5;" horiz-adv-x="1157" 
d="M832 1346q0 -96 -66.5 -162t-161.5 -66q-96 0 -162 67t-66 165q0 91 66.5 155.5t161.5 64.5t161.5 -65.5t66.5 -158.5zM694 1344q0 39 -26.5 65.5t-65.5 26.5t-67.5 -26.5t-28.5 -65.5q0 -38 28.5 -67t67.5 -29q38 0 65 29t27 67zM423 -20q-153 0 -255 87.5t-102 242.5
q0 172 136 263t413 91h80v44q0 97 -114 94q-121 -4 -160 -90h-315q5 118 74 196.5t174.5 112t244.5 33.5q132 0 224.5 -23t145 -67.5t75.5 -100.5t23 -131v-732h-322l-34 164q-45 -102 -112 -143t-176 -41zM560 226q55 0 94 37t41 87v130h-62q-27 0 -58.5 -6.5t-65.5 -20
t-56 -40.5t-22 -63q0 -56 38 -90t91 -34z" />
    <glyph glyph-name="ae" unicode="&#xe6;" horiz-adv-x="1826" 
d="M423 -20q-153 0 -255 87.5t-102 242.5q0 171 136.5 262.5t413.5 91.5h80v44q0 97 -115 94q-121 -5 -160 -90h-315q5 118 74 196.5t174.5 112t244.5 33.5q242 0 358 -81q125 81 291 81q124 0 221.5 -40.5t159.5 -113t94.5 -169.5t32.5 -213v-90h-652q-1 -88 40.5 -132
t109.5 -44q59 0 99.5 22t62.5 78h344q-15 -111 -91 -197.5t-182.5 -130.5t-222.5 -44q-140 0 -252.5 51t-184.5 144q-44 -98 -139 -146.5t-265 -48.5zM1102 646h295q0 62 -39.5 104t-109.5 42q-60 0 -103 -43.5t-43 -102.5zM560 226q55 0 94.5 37t41.5 87v130h-63
q-26 0 -57.5 -6.5t-65.5 -20t-56.5 -40.5t-22.5 -63q0 -56 38 -90t91 -34z" />
    <glyph glyph-name="ccedilla" unicode="&#xe7;" horiz-adv-x="1101" 
d="M849 -268q0 -76 -76.5 -123t-183.5 -47q-168 0 -266 58l48 118q96 -52 170 -52q41 0 66.5 14t25.5 38q0 38 -40.5 57t-137.5 19q-17 0 -21.5 4t1.5 20l64 148q-194 27 -316.5 170.5t-122.5 355.5q0 238 147.5 390t373.5 152q85 0 158.5 -23.5t126.5 -65t91 -97.5t57 -121
t21 -135h-315q-4 26 -11 49t-22 49t-41.5 41t-61.5 15q-77 0 -121.5 -64t-44.5 -186q0 -125 48.5 -196.5t125.5 -71.5q34 0 60.5 17t40.5 44t21 48.5t10 42.5h306q0 -155 -100.5 -273t-271.5 -142l-33 -89q113 0 168.5 -49.5t55.5 -114.5z" />
    <glyph glyph-name="egrave" unicode="&#xe8;" 
d="M514 1446l206 -291h-272l-317 291h383zM448 428q-1 -88 40.5 -132t109.5 -44q59 0 99.5 22t62.5 78h344q-15 -111 -91 -197.5t-182.5 -130.5t-222.5 -44q-243 0 -392.5 144.5t-149.5 379.5q0 150 61 273.5t182.5 200t282.5 76.5q124 0 221.5 -40.5t159.5 -113
t94.5 -169.5t32.5 -213v-90h-652zM446 646h295q0 62 -39.5 104t-109.5 42q-60 0 -103 -43.5t-43 -102.5z" />
    <glyph glyph-name="eacute" unicode="&#xe9;" 
d="M665 1446h383l-317 -291h-272zM448 428q-1 -88 40.5 -132t109.5 -44q59 0 99.5 22t62.5 78h344q-15 -111 -91 -197.5t-182.5 -130.5t-222.5 -44q-243 0 -392.5 144.5t-149.5 379.5q0 150 61 273.5t182.5 200t282.5 76.5q124 0 221.5 -40.5t159.5 -113t94.5 -169.5
t32.5 -213v-90h-652zM446 646h295q0 62 -39.5 104t-109.5 42q-60 0 -103 -43.5t-43 -102.5z" />
    <glyph glyph-name="ecircumflex" unicode="&#xea;" 
d="M716 1155l-124 149l-142 -149h-264l276 291h264l268 -291h-278zM448 428q-1 -88 40.5 -132t109.5 -44q59 0 99.5 22t62.5 78h344q-15 -111 -91 -197.5t-182.5 -130.5t-222.5 -44q-243 0 -392.5 144.5t-149.5 379.5q0 150 61 273.5t182.5 200t282.5 76.5
q124 0 221.5 -40.5t159.5 -113t94.5 -169.5t32.5 -213v-90h-652zM446 646h295q0 62 -39.5 104t-109.5 42q-60 0 -103 -43.5t-43 -102.5z" />
    <glyph glyph-name="edieresis" unicode="&#xeb;" 
d="M681 1155l4 291h358l-4 -291h-358zM145 1155l4 291h358l-4 -291h-358zM448 428q-1 -88 40.5 -132t109.5 -44q59 0 99.5 22t62.5 78h344q-15 -111 -91 -197.5t-182.5 -130.5t-222.5 -44q-243 0 -392.5 144.5t-149.5 379.5q0 150 61 273.5t182.5 200t282.5 76.5
q124 0 221.5 -40.5t159.5 -113t94.5 -169.5t32.5 -213v-90h-652zM446 646h295q0 62 -39.5 104t-109.5 42q-60 0 -103 -43.5t-43 -102.5z" />
    <glyph glyph-name="igrave" unicode="&#xec;" horiz-adv-x="571" 
d="M212 1446l206 -291h-272l-317 291h383zM471 1034v-1034h-371v1034h371z" />
    <glyph glyph-name="iacute" unicode="&#xed;" horiz-adv-x="571" 
d="M284 1446h363l-232 -291l-277 3zM471 1034v-1034h-371v1034h371z" />
    <glyph glyph-name="icircumflex" unicode="&#xee;" horiz-adv-x="571" 
d="M414 1155l-124 149l-142 -149h-264l276 291h264l268 -291h-278zM471 1034v-1034h-371v1034h371z" />
    <glyph glyph-name="idieresis" unicode="&#xef;" horiz-adv-x="918" 
d="M546 1149l4 291h358l-4 -291h-358zM10 1149l4 291h358l-4 -291h-358zM633 1034v-1034h-371v1034h371z" />
    <glyph glyph-name="eth" unicode="&#xf0;" horiz-adv-x="1208" 
d="M602 -20q-157 0 -281 67t-192.5 183.5t-68.5 261.5q0 129 43 232t115 165.5t159 94.5t182 32q100 0 188 -41t145 -122q-69 165 -185 297l-430 -129v234l238 71q-61 45 -143 94.5t-95 60.5h463q53 -27 94 -60l219 66v-233l-60 -18q155 -264 155 -676q0 -263 -150.5 -421.5
t-395.5 -158.5zM586 262q44 0 74.5 24.5t45 66.5t20.5 83t6 88q0 252 -146 252q-148 0 -148 -252q0 -47 6 -88t20.5 -83t45.5 -66.5t76 -24.5z" />
    <glyph glyph-name="ntilde" unicode="&#xf1;" horiz-adv-x="1215" 
d="M1003 1259q-39 -34 -100.5 -57.5t-127.5 -23.5q-59 0 -160 29.5t-156 29.5q-51 0 -88.5 -15.5t-83.5 -56.5l-54 192q45 51 94.5 79t121.5 28q66 0 174 -33.5t150 -33.5q87 0 190 82zM100 0v1034h385v-143q43 64 107 105.5t172 41.5q71 0 133.5 -20t114.5 -60t82.5 -109.5
t30.5 -160.5v-688h-390v635q0 48 -36.5 76.5t-83.5 28.5t-86.5 -28.5t-39.5 -76.5v-635h-389z" />
    <glyph glyph-name="ograve" unicode="&#xf2;" 
d="M506 1446l206 -291h-272l-317 291h383zM584 -20q-238 0 -381 147.5t-143 382.5q0 243 147 393.5t379 150.5q239 0 381.5 -152.5t142.5 -391.5q0 -234 -143.5 -382t-382.5 -148zM586 262q44 0 74.5 24.5t45 66.5t20.5 83t6 88q0 252 -146 252q-148 0 -148 -252
q0 -47 6 -88t20.5 -83t45.5 -66.5t76 -24.5z" />
    <glyph glyph-name="oacute" unicode="&#xf3;" 
d="M657 1446h383l-317 -291h-272zM584 -20q-238 0 -381 147.5t-143 382.5q0 243 147 393.5t379 150.5q239 0 381.5 -152.5t142.5 -391.5q0 -234 -143.5 -382t-382.5 -148zM586 262q44 0 74.5 24.5t45 66.5t20.5 83t6 88q0 252 -146 252q-148 0 -148 -252q0 -47 6 -88
t20.5 -83t45.5 -66.5t76 -24.5z" />
    <glyph glyph-name="ocircumflex" unicode="&#xf4;" 
d="M708 1155l-124 149l-142 -149h-264l276 291h264l268 -291h-278zM584 -20q-238 0 -381 147.5t-143 382.5q0 243 147 393.5t379 150.5q239 0 381.5 -152.5t142.5 -391.5q0 -234 -143.5 -382t-382.5 -148zM586 262q44 0 74.5 24.5t45 66.5t20.5 83t6 88q0 252 -146 252
q-148 0 -148 -252q0 -47 6 -88t20.5 -83t45.5 -66.5t76 -24.5z" />
    <glyph glyph-name="otilde" unicode="&#xf5;" 
d="M978 1259q-39 -34 -100.5 -57.5t-127.5 -23.5q-58 0 -159.5 29.5t-156.5 29.5q-51 0 -88.5 -15.5t-83.5 -56.5l-54 192q45 51 94.5 79t121.5 28q66 0 174 -33.5t150 -33.5q87 0 190 82zM584 -20q-238 0 -381 147.5t-143 382.5q0 243 147 393.5t379 150.5
q239 0 381.5 -152.5t142.5 -391.5q0 -234 -143.5 -382t-382.5 -148zM586 262q44 0 74.5 24.5t45 66.5t20.5 83t6 88q0 252 -146 252q-148 0 -148 -252q0 -47 6 -88t20.5 -83t45.5 -66.5t76 -24.5z" />
    <glyph glyph-name="odieresis" unicode="&#xf6;" 
d="M673 1155l4 291h358l-4 -291h-358zM137 1155l4 291h358l-4 -291h-358zM584 -20q-238 0 -381 147.5t-143 382.5q0 243 147 393.5t379 150.5q239 0 381.5 -152.5t142.5 -391.5q0 -234 -143.5 -382t-382.5 -148zM586 262q44 0 74.5 24.5t45 66.5t20.5 83t6 88
q0 252 -146 252q-148 0 -148 -252q0 -47 6 -88t20.5 -83t45.5 -66.5t76 -24.5z" />
    <glyph glyph-name="divide" unicode="&#xf7;" horiz-adv-x="1238" 
d="M806 1338v-356h-370v356h370zM1128 866v-276h-1018v276h1018zM806 474v-356h-370v356h370z" />
    <glyph glyph-name="oslash" unicode="&#xf8;" horiz-adv-x="1270" 
d="M660 -20q-214 0 -354 123l-130 -121l-116 124l140 130q-64 119 -64 274q0 243 147 393.5t379 150.5q183 0 316 -95l98 91l114 -124l-95 -89q91 -137 91 -327q0 -234 -143.5 -382t-382.5 -148zM662 776q-148 0 -148 -248l233 216q-34 32 -85 32zM662 262q44 0 74.5 24.5
t45 66.5t20.5 83t6 88q0 30 -1 45l-256 -238q37 -69 111 -69z" />
    <glyph glyph-name="ugrave" unicode="&#xf9;" horiz-adv-x="1217" 
d="M526 1446l206 -291h-272l-317 291h383zM481 -20q-64 0 -131.5 22.5t-126 62t-96 103.5t-37.5 138v728h390v-674q0 -46 33.5 -76t91.5 -30q57 0 91.5 30t34.5 76v674h386v-1034h-288l-46 212q-43 -232 -302 -232z" />
    <glyph glyph-name="uacute" unicode="&#xfa;" horiz-adv-x="1217" 
d="M677 1446h383l-317 -291h-272zM481 -20q-64 0 -131.5 22.5t-126 62t-96 103.5t-37.5 138v728h390v-674q0 -46 33.5 -76t91.5 -30q57 0 91.5 30t34.5 76v674h386v-1034h-288l-46 212q-43 -232 -302 -232z" />
    <glyph glyph-name="ucircumflex" unicode="&#xfb;" horiz-adv-x="1217" 
d="M728 1155l-124 149l-142 -149h-264l276 291h264l268 -291h-278zM481 -20q-64 0 -131.5 22.5t-126 62t-96 103.5t-37.5 138v728h390v-674q0 -46 33.5 -76t91.5 -30q57 0 91.5 30t34.5 76v674h386v-1034h-288l-46 212q-43 -232 -302 -232z" />
    <glyph glyph-name="udieresis" unicode="&#xfc;" horiz-adv-x="1217" 
d="M693 1155l4 291h358l-4 -291h-358zM157 1155l4 291h358l-4 -291h-358zM481 -20q-64 0 -131.5 22.5t-126 62t-96 103.5t-37.5 138v728h390v-674q0 -46 33.5 -76t91.5 -30q57 0 91.5 30t34.5 76v674h386v-1034h-288l-46 212q-43 -232 -302 -232z" />
    <glyph glyph-name="yacute" unicode="&#xfd;" horiz-adv-x="1177" 
d="M657 1446h383l-317 -291h-272zM315 -330q-71 0 -127.5 11t-77.5 22l-20 11v246l99 -6q190 -15 215 83q1 2 1 3l4 20l-401 974h382l196 -562l203 562h381l-404 -974q-49 -119 -101 -198t-109 -120t-113 -56.5t-128 -15.5z" />
    <glyph glyph-name="thorn" unicode="&#xfe;" horiz-adv-x="1235" 
d="M491 1446v-532q66 71 135.5 105.5t166.5 34.5q171 0 276.5 -135.5t105.5 -398.5q0 -143 -30.5 -249.5t-86 -169t-125 -92t-154.5 -29.5q-145 0 -250 100q-24 22 -32 20.5t-8 -30.5v-392h-389v1768h391zM489 294q56 -78 136 -78q52 0 85 26t52 97t19 193q0 111 -18 174.5
t-51 87.5t-87 24q-57 0 -96.5 -32t-39.5 -78v-414z" />
    <glyph glyph-name="ydieresis" unicode="&#xff;" horiz-adv-x="1177" 
d="M673 1155l4 291h358l-4 -291h-358zM137 1155l4 291h358l-4 -291h-358zM315 -330q-71 0 -127.5 11t-77.5 22l-20 11v246l99 -6q190 -15 215 83q1 2 1 3l4 20l-401 974h382l196 -562l203 562h381l-404 -974q-49 -119 -101 -198t-109 -120t-113 -56.5t-128 -15.5z" />
    <glyph glyph-name="Amacron" unicode="&#x100;" horiz-adv-x="1482" 
d="M1142 1828v-238h-800v238h800zM30 0l512 1446h398l512 -1446h-384l-96 280h-456l-98 -280h-388zM598 612h286l-142 462z" />
    <glyph glyph-name="amacron" unicode="&#x101;" horiz-adv-x="1157" 
d="M1004 1416v-238h-800v238h800zM423 -20q-153 0 -255 87.5t-102 242.5q0 172 136 263t413 91h80v44q0 97 -114 94q-121 -4 -160 -90h-315q5 118 74 196.5t174.5 112t244.5 33.5q132 0 224.5 -23t145 -67.5t75.5 -100.5t23 -131v-732h-322l-34 164q-45 -102 -112 -143
t-176 -41zM560 226q55 0 94 37t41 87v130h-62q-27 0 -58.5 -6.5t-65.5 -20t-56 -40.5t-22 -63q0 -56 38 -90t91 -34z" />
    <glyph glyph-name="Abreve" unicode="&#x102;" horiz-adv-x="1482" 
d="M1136 1858q-28 -140 -138 -215t-256 -75q-147 0 -256.5 75t-137.5 215h230q15 -53 57.5 -84.5t106.5 -31.5q63 0 106 31.5t59 84.5h229zM30 0l512 1446h398l512 -1446h-384l-96 280h-456l-98 -280h-388zM598 612h286l-142 462z" />
    <glyph glyph-name="abreve" unicode="&#x103;" horiz-adv-x="1157" 
d="M998 1446q-28 -140 -138 -215t-256 -75q-147 0 -256.5 75t-137.5 215h230q15 -53 57.5 -84.5t106.5 -31.5q63 0 106 31.5t59 84.5h229zM423 -20q-153 0 -255 87.5t-102 242.5q0 172 136 263t413 91h80v44q0 97 -114 94q-121 -4 -160 -90h-315q5 118 74 196.5t174.5 112
t244.5 33.5q132 0 224.5 -23t145 -67.5t75.5 -100.5t23 -131v-732h-322l-34 164q-45 -102 -112 -143t-176 -41zM560 226q55 0 94 37t41 87v130h-62q-27 0 -58.5 -6.5t-65.5 -20t-56 -40.5t-22 -63q0 -56 38 -90t91 -34z" />
    <glyph glyph-name="Aogonek" unicode="&#x104;" horiz-adv-x="1482" 
d="M30 0l512 1446h398l512 -1446h-8q-100 -33 -137 -62t-37 -64q0 -56 54 -56q39 0 70.5 12t75.5 38v-164q-33 -21 -97.5 -37.5t-134.5 -16.5q-110 0 -173 42.5t-63 127.5q0 56 37.5 100t138.5 80h-110l-96 280h-456l-98 -280h-388zM598 612h286l-142 462z" />
    <glyph glyph-name="aogonek" unicode="&#x105;" horiz-adv-x="1157" 
d="M423 -20q-153 0 -255 87.5t-102 242.5q0 172 136 263t413 91h80v44q0 97 -114 94q-121 -4 -160 -90h-315q5 118 74 196.5t174.5 112t244.5 33.5q132 0 224.5 -23t145 -67.5t75.5 -100.5t23 -131v-732h-47q-83 -30 -114 -57t-31 -59q0 -56 54 -56q39 0 70.5 12t75.5 38
v-164q-33 -21 -97.5 -37.5t-134.5 -16.5q-110 0 -173 42.5t-63 127.5q0 52 32 93.5t119 76.5h-13l-34 164q-45 -102 -112 -143t-176 -41zM560 226q55 0 94 37t41 87v130h-62q-27 0 -58.5 -6.5t-65.5 -20t-56 -40.5t-22 -63q0 -56 38 -90t91 -34z" />
    <glyph glyph-name="Cacute" unicode="&#x106;" horiz-adv-x="1490" 
d="M848 1858h383l-317 -291h-272zM777 1466q257 0 430.5 -147.5t197.5 -382.5h-406q-17 103 -77 160.5t-158 57.5q-58 0 -102 -21t-78.5 -68t-53 -130t-18.5 -199q0 -230 67.5 -337t184.5 -107q95 0 156 70.5t79 177.5h406q-9 -68 -23 -125.5t-38.5 -116.5t-57 -105t-81 -87
t-109 -68t-141.5 -42.5t-178 -15.5q-205 0 -363.5 98.5t-243.5 271.5t-85 392q0 330 188 527t504 197z" />
    <glyph glyph-name="cacute" unicode="&#x107;" horiz-adv-x="1101" 
d="M649 1446h383l-317 -291h-272zM581 1054q85 0 158.5 -23.5t126.5 -65t91 -97.5t57 -121t21 -135h-315q-4 26 -11 49t-22 49t-41.5 41t-61.5 15q-77 0 -121.5 -64t-44.5 -186q0 -125 48.5 -196.5t125.5 -71.5q34 0 60.5 17t40.5 44t21 48.5t10 42.5h306q0 -83 -31 -158.5
t-87 -134t-142 -93t-189 -34.5q-224 0 -372.5 148.5t-148.5 383.5q0 238 147.5 390t373.5 152z" />
    <glyph glyph-name="Ccircumflex" unicode="&#x108;" horiz-adv-x="1490" 
d="M899 1567l-124 149l-142 -149h-264l276 291h264l268 -291h-278zM777 1466q257 0 430.5 -147.5t197.5 -382.5h-406q-17 103 -77 160.5t-158 57.5q-58 0 -102 -21t-78.5 -68t-53 -130t-18.5 -199q0 -230 67.5 -337t184.5 -107q95 0 156 70.5t79 177.5h406
q-9 -68 -23 -125.5t-38.5 -116.5t-57 -105t-81 -87t-109 -68t-141.5 -42.5t-178 -15.5q-205 0 -363.5 98.5t-243.5 271.5t-85 392q0 330 188 527t504 197z" />
    <glyph glyph-name="ccircumflex" unicode="&#x109;" horiz-adv-x="1101" 
d="M700 1155l-124 149l-142 -149h-264l276 291h264l268 -291h-278zM581 1054q85 0 158.5 -23.5t126.5 -65t91 -97.5t57 -121t21 -135h-315q-4 26 -11 49t-22 49t-41.5 41t-61.5 15q-77 0 -121.5 -64t-44.5 -186q0 -125 48.5 -196.5t125.5 -71.5q34 0 60.5 17t40.5 44
t21 48.5t10 42.5h306q0 -83 -31 -158.5t-87 -134t-142 -93t-189 -34.5q-224 0 -372.5 148.5t-148.5 383.5q0 238 147.5 390t373.5 152z" />
    <glyph glyph-name="Cdotaccent" unicode="&#x10a;" horiz-adv-x="1490" 
d="M595 1567v291h362v-291h-362zM777 1466q257 0 430.5 -147.5t197.5 -382.5h-406q-17 103 -77 160.5t-158 57.5q-58 0 -102 -21t-78.5 -68t-53 -130t-18.5 -199q0 -230 67.5 -337t184.5 -107q95 0 156 70.5t79 177.5h406q-9 -68 -23 -125.5t-38.5 -116.5t-57 -105t-81 -87
t-109 -68t-141.5 -42.5t-178 -15.5q-205 0 -363.5 98.5t-243.5 271.5t-85 392q0 330 188 527t504 197z" />
    <glyph glyph-name="cdotaccent" unicode="&#x10b;" horiz-adv-x="1101" 
d="M396 1155v291h362v-291h-362zM581 1054q85 0 158.5 -23.5t126.5 -65t91 -97.5t57 -121t21 -135h-315q-4 26 -11 49t-22 49t-41.5 41t-61.5 15q-77 0 -121.5 -64t-44.5 -186q0 -125 48.5 -196.5t125.5 -71.5q34 0 60.5 17t40.5 44t21 48.5t10 42.5h306q0 -83 -31 -158.5
t-87 -134t-142 -93t-189 -34.5q-224 0 -372.5 148.5t-148.5 383.5q0 238 147.5 390t373.5 152z" />
    <glyph glyph-name="Ccaron" unicode="&#x10c;" horiz-adv-x="1490" 
d="M643 1567l-274 293h264l142 -164l124 164h278l-268 -293h-266zM777 1466q257 0 430.5 -147.5t197.5 -382.5h-406q-17 103 -77 160.5t-158 57.5q-58 0 -102 -21t-78.5 -68t-53 -130t-18.5 -199q0 -230 67.5 -337t184.5 -107q95 0 156 70.5t79 177.5h406q-9 -68 -23 -125.5
t-38.5 -116.5t-57 -105t-81 -87t-109 -68t-141.5 -42.5t-178 -15.5q-205 0 -363.5 98.5t-243.5 271.5t-85 392q0 330 188 527t504 197z" />
    <glyph glyph-name="ccaron" unicode="&#x10d;" horiz-adv-x="1101" 
d="M444 1155l-274 293h264l142 -164l124 164h278l-268 -293h-266zM581 1054q85 0 158.5 -23.5t126.5 -65t91 -97.5t57 -121t21 -135h-315q-4 26 -11 49t-22 49t-41.5 41t-61.5 15q-77 0 -121.5 -64t-44.5 -186q0 -125 48.5 -196.5t125.5 -71.5q34 0 60.5 17t40.5 44t21 48.5
t10 42.5h306q0 -83 -31 -158.5t-87 -134t-142 -93t-189 -34.5q-224 0 -372.5 148.5t-148.5 383.5q0 238 147.5 390t373.5 152z" />
    <glyph glyph-name="Dcaron" unicode="&#x10e;" horiz-adv-x="1488" 
d="M609 1567l-274 293h264l142 -164l124 164h278l-268 -293h-266zM135 1446q457 0 520 -2q192 -7 336.5 -61.5t234 -150t133.5 -222t44 -282.5q0 -161 -46 -292.5t-136.5 -229.5t-235 -152t-332.5 -54h-518v1446zM524 1140v-834h141q46 0 91 14t89 46.5t77.5 80.5t54 122
t20.5 165q0 195 -90 300.5t-242 105.5h-141z" />
    <glyph glyph-name="dcaron" unicode="&#x10f;" horiz-adv-x="1304" 
d="M504 -20q-212 0 -328 146.5t-116 397.5q0 246 106.5 388t295.5 142q88 0 165 -32.5t121 -105.5v570h390v-1486h-275l-46 212q-76 -232 -313 -232zM1264 968l86 218l-86 14v248h242v-260l-92 -220h-150zM596 252q152 0 152 272q0 256 -152 256q-72 0 -116 -60.5
t-44 -195.5q0 -144 44 -208t116 -64z" />
    <glyph glyph-name="Dcroat" unicode="&#x110;" horiz-adv-x="1574" 
d="M221 1446q457 0 520 -2q192 -7 336.5 -61.5t234 -150t133.5 -222t44 -282.5q0 -161 -46 -292.5t-136.5 -229.5t-235 -152t-332.5 -54h-518v577h-151v274h151v595zM866 851v-274h-256v-271h141q46 0 91 14t89 46.5t77.5 80.5t54 122t20.5 165q0 195 -90 300.5t-242 105.5
h-141v-289h256z" />
    <glyph glyph-name="dcroat" unicode="&#x111;" horiz-adv-x="1318" 
d="M504 -20q-212 0 -328 146.5t-116 397.5q0 246 106.5 388t295.5 142q88 0 165 -32.5t121 -105.5v216h-214v208h214v146h390v-146h120v-208h-120v-1132h-275l-46 212q-76 -232 -313 -232zM596 252q152 0 152 272q0 256 -152 256q-72 0 -116 -60.5t-44 -195.5
q0 -144 44 -208t116 -64z" />
    <glyph glyph-name="Emacron" unicode="&#x112;" horiz-adv-x="1295" 
d="M1069 1828v-238h-800v238h800zM135 0v1446h1068l-2 -322h-674v-240h564v-314h-567v-246h681v-324h-1070z" />
    <glyph glyph-name="emacron" unicode="&#x113;" 
d="M994 1416v-238h-800v238h800zM448 428q-1 -88 40.5 -132t109.5 -44q59 0 99.5 22t62.5 78h344q-15 -111 -91 -197.5t-182.5 -130.5t-222.5 -44q-243 0 -392.5 144.5t-149.5 379.5q0 150 61 273.5t182.5 200t282.5 76.5q124 0 221.5 -40.5t159.5 -113t94.5 -169.5
t32.5 -213v-90h-652zM446 646h295q0 62 -39.5 104t-109.5 42q-60 0 -103 -43.5t-43 -102.5z" />
    <glyph glyph-name="Ebreve" unicode="&#x114;" horiz-adv-x="1295" 
d="M1063 1858q-28 -140 -138 -215t-256 -75q-147 0 -256.5 75t-137.5 215h230q15 -53 57.5 -84.5t106.5 -31.5q63 0 106 31.5t59 84.5h229zM135 0v1446h1068l-2 -322h-674v-240h564v-314h-567v-246h681v-324h-1070z" />
    <glyph glyph-name="ebreve" unicode="&#x115;" 
d="M988 1446q-28 -140 -138 -215t-256 -75q-147 0 -256.5 75t-137.5 215h230q15 -53 57.5 -84.5t106.5 -31.5q63 0 106 31.5t59 84.5h229zM448 428q-1 -88 40.5 -132t109.5 -44q59 0 99.5 22t62.5 78h344q-15 -111 -91 -197.5t-182.5 -130.5t-222.5 -44q-243 0 -392.5 144.5
t-149.5 379.5q0 150 61 273.5t182.5 200t282.5 76.5q124 0 221.5 -40.5t159.5 -113t94.5 -169.5t32.5 -213v-90h-652zM446 646h295q0 62 -39.5 104t-109.5 42q-60 0 -103 -43.5t-43 -102.5z" />
    <glyph glyph-name="Edotaccent" unicode="&#x116;" horiz-adv-x="1295" 
d="M487 1567v291h362v-291h-362zM135 0v1446h1068l-2 -322h-674v-240h564v-314h-567v-246h681v-324h-1070z" />
    <glyph glyph-name="edotaccent" unicode="&#x117;" 
d="M412 1155v291h362v-291h-362zM448 428q-1 -88 40.5 -132t109.5 -44q59 0 99.5 22t62.5 78h344q-15 -111 -91 -197.5t-182.5 -130.5t-222.5 -44q-243 0 -392.5 144.5t-149.5 379.5q0 150 61 273.5t182.5 200t282.5 76.5q124 0 221.5 -40.5t159.5 -113t94.5 -169.5
t32.5 -213v-90h-652zM446 646h295q0 62 -39.5 104t-109.5 42q-60 0 -103 -43.5t-43 -102.5z" />
    <glyph glyph-name="Eogonek" unicode="&#x118;" horiz-adv-x="1295" 
d="M135 0v1446h1068l-2 -322h-674v-240h564v-314h-567v-246h681v-312h42q-104 -34 -142 -63.5t-38 -64.5q0 -56 54 -56q39 0 70.5 12t75.5 38v-164q-33 -21 -97.5 -37.5t-134.5 -16.5q-110 0 -173 42.5t-63 127.5q0 52 32 93.5t119 76.5h-815z" />
    <glyph glyph-name="eogonek" unicode="&#x119;" 
d="M446 -140q0 77 68 126q-204 28 -326 167.5t-122 350.5q0 150 61 273.5t182.5 200t282.5 76.5q124 0 221.5 -40.5t159.5 -113t94.5 -169.5t32.5 -213v-90h-652q-1 -88 40.5 -132t109.5 -44q59 0 99.5 22t62.5 78h344q-14 -101 -77.5 -181t-159.5 -129h27
q-104 -34 -142 -63.5t-38 -64.5q0 -56 54 -56q39 0 70.5 12t75.5 38v-164q-33 -21 -97.5 -37.5t-134.5 -16.5q-110 0 -173 42.5t-63 127.5zM446 646h295q0 62 -39.5 104t-109.5 42q-60 0 -103 -43.5t-43 -102.5z" />
    <glyph glyph-name="Ecaron" unicode="&#x11a;" horiz-adv-x="1295" 
d="M535 1567l-274 293h264l142 -164l124 164h278l-268 -293h-266zM135 0v1446h1068l-2 -322h-674v-240h564v-314h-567v-246h681v-324h-1070z" />
    <glyph glyph-name="ecaron" unicode="&#x11b;" horiz-adv-x="1148" 
d="M444 1155l-274 293h264l142 -164l124 164h278l-268 -293h-266zM448 428q-1 -88 40.5 -132t109.5 -44q59 0 99.5 22t62.5 78h344q-15 -111 -91 -197.5t-182.5 -130.5t-222.5 -44q-243 0 -392.5 144.5t-149.5 379.5q0 150 61 273.5t182.5 200t282.5 76.5q124 0 221.5 -40.5
t159.5 -113t94.5 -169.5t32.5 -213v-90h-652zM446 646h295q0 62 -39.5 104t-109.5 42q-60 0 -103 -43.5t-43 -102.5z" />
    <glyph glyph-name="Gcircumflex" unicode="&#x11c;" horiz-adv-x="1565" 
d="M903 1567l-124 149l-142 -149h-264l276 291h264l268 -291h-278zM769 -20q-203 0 -359 93t-240.5 261t-84.5 384q0 222 90 392.5t251 263t367 92.5q114 0 214.5 -29t175.5 -80t130 -118t83 -144.5t30 -158.5h-407q-21 94 -80 151t-156 57q-56 0 -103 -21.5t-86.5 -68
t-61.5 -129t-22 -195.5q0 -102 18.5 -178.5t47 -120t69 -70t77 -35t78.5 -8.5q77 0 135 41t75 95l17 52h-252v262l662 -4v-764h-255v160q-32 -32 -49 -48t-58 -46t-79 -45t-98.5 -28t-128.5 -13z" />
    <glyph glyph-name="gcircumflex" unicode="&#x11d;" horiz-adv-x="1268" 
d="M738 1155l-124 149l-142 -149h-264l276 291h264l268 -291h-278zM618 -342q-294 0 -450 67t-156 171q0 19 5.5 37t14.5 31.5t22 26t26 21.5t29 17t29.5 13t28 9.5t23.5 6.5l18 4l10 2q-1 1 -17 8.5t-25.5 13.5t-27 17t-29 24t-23.5 29.5t-18 37.5t-6 44q0 65 61 115.5
t177 66.5q-107 47 -164.5 133t-57.5 175q0 100 73.5 174.5t191 111t261.5 36.5q101 0 168 -19t136 -55q251 97 340 134l-2 -276l-176 -24q12 -45 12 -80q0 -67 -33 -130t-94 -114t-158.5 -81.5t-216.5 -30.5q-87 0 -138 6q-28 -6 -28 -18q0 -17 28.5 -22.5t105.5 -9.5
q21 -1 32 -2q162 -9 206 -12q205 -14 308.5 -98.5t103.5 -211.5q0 -156 -152.5 -252t-437.5 -96zM602 578q55 0 89.5 38.5t34.5 97.5q0 60 -35 103t-89 43t-89 -43t-35 -103q0 -59 34.5 -97.5t89.5 -38.5zM678 -138q95 0 128.5 16t33.5 48q0 33 -34 53t-94 25l-188 12
q-73 4 -103.5 -19t-30.5 -55q0 -47 65.5 -63.5t222.5 -16.5z" />
    <glyph glyph-name="Gbreve" unicode="&#x11e;" horiz-adv-x="1565" 
d="M1175 1858q-28 -140 -138 -215t-256 -75q-147 0 -256.5 75t-137.5 215h230q15 -53 57.5 -84.5t106.5 -31.5q63 0 106 31.5t59 84.5h229zM769 -20q-203 0 -359 93t-240.5 261t-84.5 384q0 222 90 392.5t251 263t367 92.5q114 0 214.5 -29t175.5 -80t130 -118t83 -144.5
t30 -158.5h-407q-21 94 -80 151t-156 57q-56 0 -103 -21.5t-86.5 -68t-61.5 -129t-22 -195.5q0 -102 18.5 -178.5t47 -120t69 -70t77 -35t78.5 -8.5q77 0 135 41t75 95l17 52h-252v262l662 -4v-764h-255v160q-32 -32 -49 -48t-58 -46t-79 -45t-98.5 -28t-128.5 -13z" />
    <glyph glyph-name="gbreve" unicode="&#x11f;" horiz-adv-x="1268" 
d="M1010 1446q-28 -140 -138 -215t-256 -75q-147 0 -256.5 75t-137.5 215h230q15 -53 57.5 -84.5t106.5 -31.5q63 0 106 31.5t59 84.5h229zM618 -342q-294 0 -450 67t-156 171q0 19 5.5 37t14.5 31.5t22 26t26 21.5t29 17t29.5 13t28 9.5t23.5 6.5l18 4l10 2q-1 1 -17 8.5
t-25.5 13.5t-27 17t-29 24t-23.5 29.5t-18 37.5t-6 44q0 65 61 115.5t177 66.5q-107 47 -164.5 133t-57.5 175q0 100 73.5 174.5t191 111t261.5 36.5q101 0 168 -19t136 -55q251 97 340 134l-2 -276l-176 -24q12 -45 12 -80q0 -67 -33 -130t-94 -114t-158.5 -81.5
t-216.5 -30.5q-87 0 -138 6q-28 -6 -28 -18q0 -17 28.5 -22.5t105.5 -9.5q21 -1 32 -2q162 -9 206 -12q205 -14 308.5 -98.5t103.5 -211.5q0 -156 -152.5 -252t-437.5 -96zM602 578q55 0 89.5 38.5t34.5 97.5q0 60 -35 103t-89 43t-89 -43t-35 -103q0 -59 34.5 -97.5
t89.5 -38.5zM678 -138q95 0 128.5 16t33.5 48q0 33 -34 53t-94 25l-188 12q-73 4 -103.5 -19t-30.5 -55q0 -47 65.5 -63.5t222.5 -16.5z" />
    <glyph glyph-name="Gdotaccent" unicode="&#x120;" horiz-adv-x="1565" 
d="M599 1567v291h362v-291h-362zM769 -20q-203 0 -359 93t-240.5 261t-84.5 384q0 222 90 392.5t251 263t367 92.5q114 0 214.5 -29t175.5 -80t130 -118t83 -144.5t30 -158.5h-407q-21 94 -80 151t-156 57q-56 0 -103 -21.5t-86.5 -68t-61.5 -129t-22 -195.5
q0 -102 18.5 -178.5t47 -120t69 -70t77 -35t78.5 -8.5q77 0 135 41t75 95l17 52h-252v262l662 -4v-764h-255v160q-32 -32 -49 -48t-58 -46t-79 -45t-98.5 -28t-128.5 -13z" />
    <glyph glyph-name="gdotaccent" unicode="&#x121;" horiz-adv-x="1268" 
d="M434 1155v291h362v-291h-362zM618 -342q-294 0 -450 67t-156 171q0 19 5.5 37t14.5 31.5t22 26t26 21.5t29 17t29.5 13t28 9.5t23.5 6.5l18 4l10 2q-1 1 -17 8.5t-25.5 13.5t-27 17t-29 24t-23.5 29.5t-18 37.5t-6 44q0 65 61 115.5t177 66.5q-107 47 -164.5 133
t-57.5 175q0 100 73.5 174.5t191 111t261.5 36.5q101 0 168 -19t136 -55q251 97 340 134l-2 -276l-176 -24q12 -45 12 -80q0 -67 -33 -130t-94 -114t-158.5 -81.5t-216.5 -30.5q-87 0 -138 6q-28 -6 -28 -18q0 -17 28.5 -22.5t105.5 -9.5q21 -1 32 -2q162 -9 206 -12
q205 -14 308.5 -98.5t103.5 -211.5q0 -156 -152.5 -252t-437.5 -96zM602 578q55 0 89.5 38.5t34.5 97.5q0 60 -35 103t-89 43t-89 -43t-35 -103q0 -59 34.5 -97.5t89.5 -38.5zM678 -138q95 0 128.5 16t33.5 48q0 33 -34 53t-94 25l-188 12q-73 4 -103.5 -19t-30.5 -55
q0 -47 65.5 -63.5t222.5 -16.5z" />
    <glyph glyph-name="uni0122" unicode="&#x122;" horiz-adv-x="1565" 
d="M769 -20q-203 0 -359 93t-240.5 261t-84.5 384q0 222 90 392.5t251 263t367 92.5q114 0 214.5 -29t175.5 -80t130 -118t83 -144.5t30 -158.5h-407q-21 94 -80 151t-156 57q-56 0 -103 -21.5t-86.5 -68t-61.5 -129t-22 -195.5q0 -102 18.5 -178.5t47 -120t69 -70t77 -35
t78.5 -8.5q77 0 135 41t75 95l17 52h-252v262l662 -4v-764h-255v160q-32 -32 -49 -48t-58 -46t-79 -45t-98.5 -28t-128.5 -13zM614 -495l100 172l-96 14v218h304v-180l-180 -224h-128z" />
    <glyph glyph-name="uni0123" unicode="&#x123;" horiz-adv-x="1268" 
d="M428 1168v216l134 168h132l-136 -184h122v-200h-252zM618 -342q-294 0 -450 67t-156 171q0 19 5.5 37t14.5 31.5t22 26t26 21.5t29 17t29.5 13t28 9.5t23.5 6.5l18 4l10 2q-1 1 -17 8.5t-25.5 13.5t-27 17t-29 24t-23.5 29.5t-18 37.5t-6 44q0 65 61 115.5t177 66.5
q-107 47 -164.5 133t-57.5 175q0 100 73.5 174.5t191 111t261.5 36.5q101 0 168 -19t136 -55q251 97 340 134l-2 -276l-176 -24q12 -45 12 -80q0 -67 -33 -130t-94 -114t-158.5 -81.5t-216.5 -30.5q-87 0 -138 6q-28 -6 -28 -18q0 -17 28.5 -22.5t105.5 -9.5q21 -1 32 -2
q162 -9 206 -12q205 -14 308.5 -98.5t103.5 -211.5q0 -156 -152.5 -252t-437.5 -96zM602 578q55 0 89.5 38.5t34.5 97.5q0 60 -35 103t-89 43t-89 -43t-35 -103q0 -59 34.5 -97.5t89.5 -38.5zM678 -138q95 0 128.5 16t33.5 48q0 33 -34 53t-94 25l-188 12q-73 4 -103.5 -19
t-30.5 -55q0 -47 65.5 -63.5t222.5 -16.5z" />
    <glyph glyph-name="Hcircumflex" unicode="&#x124;" horiz-adv-x="1547" 
d="M899 1567l-124 149l-142 -149h-264l276 291h264l268 -291h-278zM1023 580h-499v-580h-389v1446h389v-548h499v548h389v-1446h-389v580z" />
    <glyph glyph-name="hcircumflex" unicode="&#x125;" horiz-adv-x="1213" 
d="M413 1567l-124 149l-142 -149h-264l276 291h264l268 -291h-278zM100 0v1486h389v-599q51 63 82 87q77 60 191 60q99 0 179.5 -38.5t131 -118.5t50.5 -189v-688h-390v638q0 48 -37 75t-85 27q-47 0 -84.5 -29.5t-37.5 -77.5v-633h-389z" />
    <glyph glyph-name="Hbar" unicode="&#x126;" horiz-adv-x="1708" 
d="M1113 580h-499v-580h-389v1082h-185v202h185v162h389v-162h499v162h389v-162h166v-202h-166v-1082h-389v580zM614 898h499v184h-499v-184z" />
    <glyph glyph-name="hbar" unicode="&#x127;" horiz-adv-x="1291" 
d="M178 0v1132h-138v208h138v146h389v-146h195v-208h-195v-245q51 63 82 87q77 60 191 60q99 0 179.5 -38.5t131 -118.5t50.5 -189v-688h-390v638q0 48 -37 75t-85 27q-47 0 -84.5 -29.5t-37.5 -77.5v-633h-389z" />
    <glyph glyph-name="Itilde" unicode="&#x128;" horiz-adv-x="659" 
d="M723 1671q-39 -34 -100.5 -57.5t-127.5 -23.5q-59 0 -160 29.5t-156 29.5q-51 0 -88.5 -15.5t-83.5 -56.5l-54 192q45 51 94.5 79t121.5 28q66 0 174 -33.5t150 -33.5q87 0 190 82zM135 1446h389v-1446h-389v1446z" />
    <glyph glyph-name="itilde" unicode="&#x129;" horiz-adv-x="790" 
d="M780 1259q-39 -34 -100.5 -57.5t-127.5 -23.5q-58 0 -159 29.5t-157 29.5q-51 0 -88.5 -15.5t-83.5 -56.5l-54 192q45 51 94.5 79t121.5 28q66 0 174 -33.5t150 -33.5q87 0 190 82zM567 1034v-1034h-371v1034h371z" />
    <glyph glyph-name="Imacron" unicode="&#x12a;" horiz-adv-x="659" 
d="M731 1828v-238h-800v238h800zM135 1446h389v-1446h-389v1446z" />
    <glyph glyph-name="imacron" unicode="&#x12b;" horiz-adv-x="820" 
d="M810 1416v-238h-800v238h800zM589 1034v-1034h-371v1034h371z" />
    <glyph glyph-name="Ibreve" unicode="&#x12c;" horiz-adv-x="659" 
d="M725 1858q-28 -140 -138 -215t-256 -75q-147 0 -256.5 75t-137.5 215h230q15 -53 57.5 -84.5t106.5 -31.5q63 0 106 31.5t59 84.5h229zM135 1446h389v-1446h-389v1446z" />
    <glyph glyph-name="ibreve" unicode="&#x12d;" horiz-adv-x="571" 
d="M686 1446q-28 -140 -138 -215t-256 -75q-147 0 -256.5 75t-137.5 215h230q15 -53 57.5 -84.5t106.5 -31.5q63 0 106 31.5t59 84.5h229zM471 1034v-1034h-371v1034h371z" />
    <glyph glyph-name="Iogonek" unicode="&#x12e;" horiz-adv-x="659" 
d="M135 1446h389v-1446h-389v1446zM73 -184q0 56 38.5 100.5t143.5 81.5h266q-104 -34 -142 -63.5t-38 -64.5q0 -56 54 -56q39 0 70.5 12t75.5 38v-164q-33 -21 -97.5 -37.5t-134.5 -16.5q-110 0 -173 42.5t-63 127.5z" />
    <glyph glyph-name="iogonek" unicode="&#x12f;" horiz-adv-x="571" 
d="M110 1155v291h362v-291h-362zM30 -172q0 53 32.5 94.5t122.5 77.5h-85v1034h371v-1024h7q-4 -2 -7 -2v-8h-22q-87 -31 -119 -58t-32 -60q0 -56 54 -56q39 0 70.5 12t75.5 38v-164q-33 -21 -97.5 -37.5t-134.5 -16.5q-110 0 -173 42.5t-63 127.5z" />
    <glyph glyph-name="Idotaccent" unicode="&#x130;" horiz-adv-x="659" 
d="M149 1567v291h362v-291h-362zM135 1446h389v-1446h-389v1446z" />
    <glyph glyph-name="dotlessi" unicode="&#x131;" horiz-adv-x="571" 
d="M471 1034v-1034h-371v1034h371z" />
    <glyph glyph-name="Jcircumflex" unicode="&#x134;" horiz-adv-x="828" 
d="M638 1567l-124 149l-142 -149h-264l276 291h264l268 -291h-278zM720 458q0 -101 -11 -173t-39 -132.5t-76 -97t-123 -56t-179 -19.5q-162 0 -262 20v350q90 -10 128 -10q100 0 136 50t36 168v888h390v-988z" />
    <glyph glyph-name="jcircumflex" unicode="&#x135;" horiz-adv-x="624" 
d="M451 1155l-124 149l-142 -149h-264l276 291h264l268 -291h-278zM524 56q0 -388 -410 -388q-46 0 -79 8.5t-43 17.5l-10 8l-2 260l59 10q53 12 74.5 31.5t21.5 52.5v978h389v-978z" />
    <glyph glyph-name="uni0136" unicode="&#x136;" horiz-adv-x="1497" 
d="M1459 0h-418l-322 610l-180 -232v-378h-404v1446h404v-584l418 584h437l-397 -552zM560 -495l100 172l-96 14v218h304v-180l-180 -224h-128z" />
    <glyph glyph-name="uni0137" unicode="&#x137;" horiz-adv-x="1192" 
d="M1182 0h-378l-239 380l-76 -88v-292h-389v1486h389v-800l284 348h407l-378 -428zM447 -495l100 172l-96 14v218h304v-180l-180 -224h-128z" />
    <glyph glyph-name="kgreenlandic" unicode="&#x138;" horiz-adv-x="1254" 
d="M1244 0h-440l-176 422l-139 -130v-292h-389v1034h389v-390l345 390h382l-332 -334z" />
    <glyph glyph-name="Lacute" unicode="&#x139;" horiz-adv-x="1156" 
d="M392 1858h383l-317 -291h-272zM135 1446h389v-1126h578v-320h-967v1446z" />
    <glyph glyph-name="lacute" unicode="&#x13a;" horiz-adv-x="705" 
d="M364 1942h383l-317 -291h-272zM493 -22q-79 0 -141.5 11t-103.5 28t-70 45.5t-44 53.5t-23 64t-9.5 65t-1.5 67v1174h381v-1122q0 -46 23 -75.5t94 -38.5l42 -4v-236q-84 -32 -147 -32z" />
    <glyph glyph-name="uni013B" unicode="&#x13b;" horiz-adv-x="1156" 
d="M135 1446h389v-1126h578v-320h-967v1446zM454 -495l100 172l-96 14v218h304v-180l-180 -224h-128z" />
    <glyph glyph-name="uni013C" unicode="&#x13c;" horiz-adv-x="705" 
d="M493 -22q-79 0 -141.5 11t-103.5 28t-70 45.5t-44 53.5t-23 64t-9.5 65t-1.5 67v1174h381v-1122q0 -46 23 -75.5t94 -38.5l42 -4v-236q-84 -32 -147 -32zM107 -495l100 172l-96 14v218h304v-180l-180 -224h-128z" />
    <glyph glyph-name="Lcaron" unicode="&#x13d;" horiz-adv-x="1156" 
d="M135 1446h389v-1126h578v-320h-967v1446zM833 966l86 218l-86 14v248h242v-260l-92 -220h-150z" />
    <glyph glyph-name="lcaron" unicode="&#x13e;" horiz-adv-x="705" 
d="M493 -22q-79 0 -141.5 11t-103.5 28t-70 45.5t-44 53.5t-23 64t-9.5 65t-1.5 67v1174h381v-1122q0 -46 23 -75.5t94 -38.5l42 -4v-236q-84 -32 -147 -32zM595 978l86 218l-86 14v248h242v-260l-92 -220h-150z" />
    <glyph glyph-name="Ldot" unicode="&#x13f;" horiz-adv-x="1156" 
d="M135 1446h389v-1126h578v-320h-967v1446zM1102 988v-348h-362v348h362z" />
    <glyph glyph-name="ldot" unicode="&#x140;" horiz-adv-x="952" 
d="M493 -22q-79 0 -141.5 11t-103.5 28t-70 45.5t-44 53.5t-23 64t-9.5 65t-1.5 67v1174h381v-1122q0 -46 23 -75.5t94 -38.5l42 -4v-236q-84 -32 -147 -32zM952 730v-348h-362v348h362z" />
    <glyph glyph-name="Lslash" unicode="&#x141;" horiz-adv-x="1196" 
d="M874 1088v-302l-310 -88v-378h578v-320h-967v588l-175 -50v318l175 46v544h389v-440z" />
    <glyph glyph-name="lslash" unicode="&#x142;" horiz-adv-x="775" 
d="M563 -22q-79 0 -141.5 11t-103.5 28t-70 45.5t-44 53.5t-23 64t-9.5 65t-1.5 67v38l-100 -66v324l100 63v815h381v-577l151 95v-306l-151 -99v-235q0 -46 23 -75.5t94 -38.5l42 -4v-236q-84 -32 -147 -32z" />
    <glyph glyph-name="Nacute" unicode="&#x143;" horiz-adv-x="1615" 
d="M878 1858h383l-317 -291h-272zM1091 1446h389v-1446h-351l-605 862v-862h-389v1446h392l564 -806v806z" />
    <glyph glyph-name="nacute" unicode="&#x144;" horiz-adv-x="1215" 
d="M682 1446h383l-317 -291h-272zM100 0v1034h385v-143q43 64 107 105.5t172 41.5q71 0 133.5 -20t114.5 -60t82.5 -109.5t30.5 -160.5v-688h-390v635q0 48 -36.5 76.5t-83.5 28.5t-86.5 -28.5t-39.5 -76.5v-635h-389z" />
    <glyph glyph-name="uni0145" unicode="&#x145;" horiz-adv-x="1615" 
d="M1091 1446h389v-1446h-351l-605 862v-862h-389v1446h392l564 -806v806zM648 -495l100 172l-96 14v218h304v-180l-180 -224h-128z" />
    <glyph glyph-name="uni0146" unicode="&#x146;" horiz-adv-x="1215" 
d="M100 0v1034h385v-143q43 64 107 105.5t172 41.5q71 0 133.5 -20t114.5 -60t82.5 -109.5t30.5 -160.5v-688h-390v635q0 48 -36.5 76.5t-83.5 28.5t-86.5 -28.5t-39.5 -76.5v-635h-389zM452 -495l100 172l-96 14v218h304v-180l-180 -224h-128z" />
    <glyph glyph-name="Ncaron" unicode="&#x147;" horiz-adv-x="1615" 
d="M673 1567l-274 293h264l142 -164l124 164h278l-268 -293h-266zM1091 1446h389v-1446h-351l-605 862v-862h-389v1446h392l564 -806v806z" />
    <glyph glyph-name="ncaron" unicode="&#x148;" horiz-adv-x="1215" 
d="M477 1155l-274 293h264l142 -164l124 164h278l-268 -293h-266zM100 0v1034h385v-143q43 64 107 105.5t172 41.5q71 0 133.5 -20t114.5 -60t82.5 -109.5t30.5 -160.5v-688h-390v635q0 48 -36.5 76.5t-83.5 28.5t-86.5 -28.5t-39.5 -76.5v-635h-389z" />
    <glyph glyph-name="Eng" unicode="&#x14a;" horiz-adv-x="1619" 
d="M1484 -2q0 -101 -11 -173t-39 -132.5t-76 -97t-123 -56t-179 -19.5q-162 0 -262 20v350q90 -10 128 -10q90 0 127.5 40t43.5 132l-569 810v-862h-389v1446h392l564 -806v806h389v-1270h4v-178z" />
    <glyph glyph-name="eng" unicode="&#x14b;" horiz-adv-x="1227" 
d="M730 -332q-50 0 -81.5 6.5t-38.5 13.5l-6 6v270l47 6q46 8 66 25.5t20 54.5v634q0 43 -27.5 68.5t-73.5 25.5q-90 0 -143 -98v-680h-393l6 1034h381v-162q68 83 154.5 132.5t179.5 49.5q137 0 221.5 -86.5t84.5 -229.5v-682q0 -178 -110 -283t-287 -105z" />
    <glyph glyph-name="Omacron" unicode="&#x14c;" horiz-adv-x="1570" 
d="M1185 1828v-238h-800v238h800zM787 -20q-322 0 -512 201t-190 539t192.5 542t509.5 204q316 0 507 -204t191 -542q0 -337 -189.5 -538.5t-508.5 -201.5zM787 292q276 0 276 422q0 230 -74 335t-202 105t-202.5 -105t-74.5 -335q0 -422 277 -422z" />
    <glyph glyph-name="omacron" unicode="&#x14d;" 
d="M986 1416v-238h-800v238h800zM584 -20q-238 0 -381 147.5t-143 382.5q0 243 147 393.5t379 150.5q239 0 381.5 -152.5t142.5 -391.5q0 -234 -143.5 -382t-382.5 -148zM586 262q44 0 74.5 24.5t45 66.5t20.5 83t6 88q0 252 -146 252q-148 0 -148 -252q0 -47 6 -88
t20.5 -83t45.5 -66.5t76 -24.5z" />
    <glyph glyph-name="Obreve" unicode="&#x14e;" horiz-adv-x="1570" 
d="M1179 1858q-28 -140 -138 -215t-256 -75q-147 0 -256.5 75t-137.5 215h230q15 -53 57.5 -84.5t106.5 -31.5q63 0 106 31.5t59 84.5h229zM787 -20q-322 0 -512 201t-190 539t192.5 542t509.5 204q316 0 507 -204t191 -542q0 -337 -189.5 -538.5t-508.5 -201.5zM787 292
q276 0 276 422q0 230 -74 335t-202 105t-202.5 -105t-74.5 -335q0 -422 277 -422z" />
    <glyph glyph-name="obreve" unicode="&#x14f;" 
d="M980 1446q-28 -140 -138 -215t-256 -75q-147 0 -256.5 75t-137.5 215h230q15 -53 57.5 -84.5t106.5 -31.5q63 0 106 31.5t59 84.5h229zM584 -20q-238 0 -381 147.5t-143 382.5q0 243 147 393.5t379 150.5q239 0 381.5 -152.5t142.5 -391.5q0 -234 -143.5 -382
t-382.5 -148zM586 262q44 0 74.5 24.5t45 66.5t20.5 83t6 88q0 252 -146 252q-148 0 -148 -252q0 -47 6 -88t20.5 -83t45.5 -66.5t76 -24.5z" />
    <glyph glyph-name="Ohungarumlaut" unicode="&#x150;" horiz-adv-x="1570" 
d="M643 1858h333l-267 -291h-272zM1113 1858h346l-330 -291h-272zM787 -20q-322 0 -512 201t-190 539t192.5 542t509.5 204q316 0 507 -204t191 -542q0 -337 -189.5 -538.5t-508.5 -201.5zM787 292q276 0 276 422q0 230 -74 335t-202 105t-202.5 -105t-74.5 -335
q0 -422 277 -422z" />
    <glyph glyph-name="ohungarumlaut" unicode="&#x151;" 
d="M444 1446h333l-267 -291h-272zM914 1446h346l-330 -291h-272zM584 -20q-238 0 -381 147.5t-143 382.5q0 243 147 393.5t379 150.5q239 0 381.5 -152.5t142.5 -391.5q0 -234 -143.5 -382t-382.5 -148zM586 262q44 0 74.5 24.5t45 66.5t20.5 83t6 88q0 252 -146 252
q-148 0 -148 -252q0 -47 6 -88t20.5 -83t45.5 -66.5t76 -24.5z" />
    <glyph glyph-name="OE" unicode="&#x152;" horiz-adv-x="2270" 
d="M787 -20q-322 0 -512 201t-190 539t192.5 542t509.5 204q179 0 323 -69v49h1068l-2 -322h-674v-240h564v-314h-567v-246h681v-324h-1070v48q-144 -68 -323 -68zM787 292q276 0 276 422q0 230 -74 335t-202 105t-202.5 -105t-74.5 -335q0 -422 277 -422z" />
    <glyph glyph-name="oe" unicode="&#x153;" horiz-adv-x="1843" 
d="M584 -20q-238 0 -381 147.5t-143 382.5q0 243 147 393.5t379 150.5q205 0 342 -115q137 115 337 115q124 0 221.5 -40.5t159.5 -113t94.5 -169.5t32.5 -213v-90h-652q-1 -88 40.5 -132t109.5 -44q59 0 99.5 22t62.5 78h344q-15 -111 -91 -197.5t-182.5 -130.5t-222.5 -44
q-212 0 -355 112q-139 -112 -342 -112zM1119 646h295q0 62 -39.5 104t-109.5 42q-60 0 -103 -43.5t-43 -102.5zM586 262q44 0 74.5 24.5t45 66.5t20.5 83t6 88q0 252 -146 252q-148 0 -148 -252q0 -47 6 -88t20.5 -83t45.5 -66.5t76 -24.5z" />
    <glyph glyph-name="Racute" unicode="&#x154;" horiz-adv-x="1427" 
d="M770 1858h383l-317 -291h-272zM1337 0h-399l-210 498h-204v-498h-389v1446h656q137 0 239.5 -35.5t163 -100t89.5 -147t29 -183.5q0 -107 -30.5 -189.5t-78.5 -134.5t-120 -96zM747 788q73 0 123.5 57.5t50.5 130.5q0 74 -53.5 128t-120.5 54h-223v-370h223z" />
    <glyph glyph-name="racute" unicode="&#x155;" horiz-adv-x="863" 
d="M543 1446h383l-317 -291h-272zM100 0v1034h376v-286q39 136 125.5 221t221.5 85h15v-368q-1 0 -13 2q-62 8 -110 4.5t-83.5 -10.5t-60.5 -23t-41 -32.5t-25 -40t-12.5 -44.5t-3.5 -46v-496h-389z" />
    <glyph glyph-name="uni0156" unicode="&#x156;" horiz-adv-x="1427" 
d="M1337 0h-399l-210 498h-204v-498h-389v1446h656q137 0 239.5 -35.5t163 -100t89.5 -147t29 -183.5q0 -107 -30.5 -189.5t-78.5 -134.5t-120 -96zM747 788q73 0 123.5 57.5t50.5 130.5q0 74 -53.5 128t-120.5 54h-223v-370h223zM560 -495l100 172l-96 14v218h304v-180
l-180 -224h-128z" />
    <glyph glyph-name="uni0157" unicode="&#x157;" horiz-adv-x="863" 
d="M100 0v1034h376v-286q39 136 125.5 221t221.5 85h15v-368q-1 0 -13 2q-62 8 -110 4.5t-83.5 -10.5t-60.5 -23t-41 -32.5t-25 -40t-12.5 -44.5t-3.5 -46v-496h-389zM134 -495l100 172l-96 14v218h304v-180l-180 -224h-128z" />
    <glyph glyph-name="Rcaron" unicode="&#x158;" horiz-adv-x="1427" 
d="M565 1567l-274 293h264l142 -164l124 164h278l-268 -293h-266zM1337 0h-399l-210 498h-204v-498h-389v1446h656q137 0 239.5 -35.5t163 -100t89.5 -147t29 -183.5q0 -107 -30.5 -189.5t-78.5 -134.5t-120 -96zM747 788q73 0 123.5 57.5t50.5 130.5q0 74 -53.5 128
t-120.5 54h-223v-370h223z" />
    <glyph glyph-name="rcaron" unicode="&#x159;" horiz-adv-x="863" 
d="M338 1155l-274 293h264l142 -164l124 164h278l-268 -293h-266zM100 0v1034h376v-286q39 136 125.5 221t221.5 85h15v-368q-1 0 -13 2q-62 8 -110 4.5t-83.5 -10.5t-60.5 -23t-41 -32.5t-25 -40t-12.5 -44.5t-3.5 -46v-496h-389z" />
    <glyph glyph-name="Sacute" unicode="&#x15a;" horiz-adv-x="1424" 
d="M791 1858h383l-317 -291h-272zM726 -20q-91 0 -178.5 17.5t-168.5 55t-143.5 90.5t-103 129.5t-47.5 167.5h396q17 -77 80.5 -119.5t162.5 -42.5q65 0 114.5 11t84.5 42t35 79q0 21 -8.5 38.5t-27.5 30t-37 21t-51 16.5t-53.5 11.5t-60.5 10.5l-221 38q-171 28 -270 137
t-103 289q-2 142 79 248.5t215 160t300 53.5q290 0 451.5 -125t166.5 -331h-386q-9 82 -65 119t-159 37q-102 0 -148 -34t-46 -80q0 -52 33 -81t122 -45l222 -38q85 -15 153.5 -42t113.5 -58t77.5 -72.5t49.5 -78t27 -81.5t12.5 -75.5t2.5 -68.5q0 -184 -177.5 -307
t-443.5 -123z" />
    <glyph glyph-name="sacute" unicode="&#x15b;" horiz-adv-x="1092" 
d="M631 1446h383l-317 -291h-272zM556 -20q-84 0 -163 21t-149 63.5t-119 115.5t-65 168h330q9 -35 31 -59.5t49 -34.5t47 -14t37 -4q67 0 106 15.5t39 46.5q0 29 -27.5 45.5t-96.5 26.5l-153 24q-329 60 -332 316q-2 149 124 246.5t346 97.5q212 0 336 -92.5t124 -249.5
h-317q-11 45 -51.5 68.5t-96.5 23.5t-92.5 -16.5t-36.5 -45.5q0 -27 35.5 -43.5t119.5 -30.5l133 -24q76 -18 134 -50t91 -66.5t53.5 -75t27 -71.5t6.5 -61q0 -161 -132 -250.5t-338 -89.5z" />
    <glyph glyph-name="Scircumflex" unicode="&#x15c;" horiz-adv-x="1424" 
d="M842 1567l-124 149l-142 -149h-264l276 291h264l268 -291h-278zM726 -20q-91 0 -178.5 17.5t-168.5 55t-143.5 90.5t-103 129.5t-47.5 167.5h396q17 -77 80.5 -119.5t162.5 -42.5q65 0 114.5 11t84.5 42t35 79q0 21 -8.5 38.5t-27.5 30t-37 21t-51 16.5t-53.5 11.5
t-60.5 10.5l-221 38q-171 28 -270 137t-103 289q-2 142 79 248.5t215 160t300 53.5q290 0 451.5 -125t166.5 -331h-386q-9 82 -65 119t-159 37q-102 0 -148 -34t-46 -80q0 -52 33 -81t122 -45l222 -38q85 -15 153.5 -42t113.5 -58t77.5 -72.5t49.5 -78t27 -81.5t12.5 -75.5
t2.5 -68.5q0 -184 -177.5 -307t-443.5 -123z" />
    <glyph glyph-name="scircumflex" unicode="&#x15d;" horiz-adv-x="1092" 
d="M682 1155l-124 149l-142 -149h-264l276 291h264l268 -291h-278zM556 -20q-84 0 -163 21t-149 63.5t-119 115.5t-65 168h330q9 -35 31 -59.5t49 -34.5t47 -14t37 -4q67 0 106 15.5t39 46.5q0 29 -27.5 45.5t-96.5 26.5l-153 24q-329 60 -332 316q-2 149 124 246.5
t346 97.5q212 0 336 -92.5t124 -249.5h-317q-11 45 -51.5 68.5t-96.5 23.5t-92.5 -16.5t-36.5 -45.5q0 -27 35.5 -43.5t119.5 -30.5l133 -24q76 -18 134 -50t91 -66.5t53.5 -75t27 -71.5t6.5 -61q0 -161 -132 -250.5t-338 -89.5z" />
    <glyph glyph-name="Scedilla" unicode="&#x15e;" horiz-adv-x="1424" 
d="M990 -268q0 -76 -76.5 -123t-183.5 -47q-168 0 -266 58l48 118q96 -52 170 -52q41 0 66.5 14t25.5 38q0 38 -40.5 57t-137.5 19q-17 0 -21.5 4t1.5 20l63 146q-83 8 -159.5 30t-145.5 60.5t-122 90t-86.5 122.5t-40.5 153h396q17 -77 80.5 -119.5t162.5 -42.5
q65 0 114.5 11t84.5 42t35 79q0 21 -8.5 38.5t-27.5 30t-37 21t-51 16.5t-53.5 11.5t-60.5 10.5l-221 38q-171 28 -270 137t-103 289q-2 142 79 248.5t215 160t300 53.5q290 0 451.5 -125t166.5 -331h-386q-9 82 -65 119t-159 37q-102 0 -148 -34t-46 -80q0 -52 33 -81
t122 -45l222 -38q85 -15 153.5 -42t113.5 -58t77.5 -72.5t49.5 -78t27 -81.5t12.5 -75.5t2.5 -68.5q0 -171 -154.5 -290.5t-394.5 -136.5l-32 -87q113 0 168.5 -49.5t55.5 -114.5z" />
    <glyph glyph-name="scedilla" unicode="&#x15f;" horiz-adv-x="1092" 
d="M828 -268q0 -76 -76.5 -123t-183.5 -47q-168 0 -266 58l48 118q96 -52 170 -52q41 0 66.5 14t25.5 38q0 38 -40.5 57t-137.5 19q-17 0 -21.5 4t1.5 20l63 147q-74 9 -140.5 34.5t-124.5 68t-98 109.5t-54 151h330q9 -35 31 -59.5t49 -34.5t47 -14t37 -4q67 0 106 15.5
t39 46.5q0 29 -27.5 45.5t-96.5 26.5l-153 24q-329 60 -332 316q-2 149 124 246.5t346 97.5q212 0 336 -92.5t124 -249.5h-317q-11 45 -51.5 68.5t-96.5 23.5t-92.5 -16.5t-36.5 -45.5q0 -27 35.5 -43.5t119.5 -30.5l133 -24q76 -18 134 -50t91 -66.5t53.5 -75t27 -71.5
t6.5 -61q0 -144 -107.5 -231.5t-282.5 -104.5l-32 -88q113 0 168.5 -49.5t55.5 -114.5z" />
    <glyph glyph-name="Scaron" unicode="&#x160;" horiz-adv-x="1424" 
d="M586 1567l-274 293h264l142 -164l124 164h278l-268 -293h-266zM726 -20q-91 0 -178.5 17.5t-168.5 55t-143.5 90.5t-103 129.5t-47.5 167.5h396q17 -77 80.5 -119.5t162.5 -42.5q65 0 114.5 11t84.5 42t35 79q0 21 -8.5 38.5t-27.5 30t-37 21t-51 16.5t-53.5 11.5
t-60.5 10.5l-221 38q-171 28 -270 137t-103 289q-2 142 79 248.5t215 160t300 53.5q290 0 451.5 -125t166.5 -331h-386q-9 82 -65 119t-159 37q-102 0 -148 -34t-46 -80q0 -52 33 -81t122 -45l222 -38q85 -15 153.5 -42t113.5 -58t77.5 -72.5t49.5 -78t27 -81.5t12.5 -75.5
t2.5 -68.5q0 -184 -177.5 -307t-443.5 -123z" />
    <glyph glyph-name="scaron" unicode="&#x161;" horiz-adv-x="1092" 
d="M426 1155l-274 293h264l142 -164l124 164h278l-268 -293h-266zM556 -20q-84 0 -163 21t-149 63.5t-119 115.5t-65 168h330q9 -35 31 -59.5t49 -34.5t47 -14t37 -4q67 0 106 15.5t39 46.5q0 29 -27.5 45.5t-96.5 26.5l-153 24q-329 60 -332 316q-2 149 124 246.5t346 97.5
q212 0 336 -92.5t124 -249.5h-317q-11 45 -51.5 68.5t-96.5 23.5t-92.5 -16.5t-36.5 -45.5q0 -27 35.5 -43.5t119.5 -30.5l133 -24q76 -18 134 -50t91 -66.5t53.5 -75t27 -71.5t6.5 -61q0 -161 -132 -250.5t-338 -89.5z" />
    <glyph glyph-name="uni0162" unicode="&#x162;" horiz-adv-x="1274" 
d="M924 -268q0 -76 -76.5 -123t-183.5 -47q-168 0 -266 58l48 118q96 -52 170 -52q41 0 66.5 14t25.5 38q0 38 -40.5 57t-137.5 19q-17 0 -21.5 4t1.5 20l70 162h-140v1104h-410v342h1214v-342h-414v-1104h-92l-38 -104q113 0 168.5 -49.5t55.5 -114.5z" />
    <glyph glyph-name="uni0163" unicode="&#x163;" horiz-adv-x="882" 
d="M776 -250q0 -76 -76.5 -123t-183.5 -47q-168 0 -266 58l48 118q96 -52 170 -52q41 0 66.5 14t25.5 38q0 38 -40.5 57t-137.5 19q-17 0 -21.5 4t1.5 20l63 146q-124 30 -175.5 102.5t-51.5 179.5v486h-168v264h182l100 322h274v-320h226v-266h-226l2 -468q0 -56 62 -56
h162v-230q-64 -32 -206 -32h-28l-26 -70q113 0 168.5 -49.5t55.5 -114.5z" />
    <glyph glyph-name="Tcaron" unicode="&#x164;" horiz-adv-x="1274" 
d="M520 1567l-274 293h264l142 -164l124 164h278l-268 -293h-266zM30 1104v342h1214v-342h-414v-1104h-390v1104h-410z" />
    <glyph glyph-name="tcaron" unicode="&#x165;" horiz-adv-x="950" 
d="M899 966l86 218l-86 14v248h242v-260l-92 -220h-150zM812 770h-226l2 -468q0 -56 62 -56h162v-230q-64 -32 -206 -32q-118 0 -200.5 23t-126.5 65.5t-62.5 93.5t-18.5 118v486h-168v264h182l100 322h274v-320h226v-266z" />
    <glyph glyph-name="Tbar" unicode="&#x166;" horiz-adv-x="1274" 
d="M30 1104v342h1214v-342h-414v-282h232v-274h-232v-548h-390v548h-232v274h232v282h-410z" />
    <glyph glyph-name="tbar" unicode="&#x167;" horiz-adv-x="940" 
d="M765 660v-210h-157l1 -148q0 -56 62 -56h162v-230q-64 -32 -206 -32q-118 0 -200.5 23t-126.5 65.5t-62.5 93.5t-18.5 118v166h-179v210h179v110h-168v264h182l100 322h274v-320h226v-266h-226v-110h158z" />
    <glyph glyph-name="Utilde" unicode="&#x168;" horiz-adv-x="1491" 
d="M1151 1671q-39 -34 -100.5 -57.5t-127.5 -23.5q-59 0 -160 29.5t-156 29.5q-51 0 -88.5 -15.5t-83.5 -56.5l-54 192q45 51 94.5 79t121.5 28q66 0 174 -33.5t150 -33.5q87 0 190 82zM1383 598q0 -143 -32.5 -252.5t-104 -193.5t-194 -128t-293.5 -44t-293.5 44t-194 128
t-104 193.5t-32.5 252.5v848h394v-864q0 -141 65 -208.5t165 -67.5q99 0 164.5 67.5t65.5 208.5v864h394v-848z" />
    <glyph glyph-name="utilde" unicode="&#x169;" horiz-adv-x="1217" 
d="M998 1259q-39 -34 -100.5 -57.5t-127.5 -23.5q-58 0 -159 29.5t-157 29.5q-51 0 -88.5 -15.5t-83.5 -56.5l-54 192q45 51 94.5 79t121.5 28q66 0 174 -33.5t150 -33.5q87 0 190 82zM481 -20q-64 0 -131.5 22.5t-126 62t-96 103.5t-37.5 138v728h390v-674q0 -46 33.5 -76
t91.5 -30q57 0 91.5 30t34.5 76v674h386v-1034h-288l-46 212q-43 -232 -302 -232z" />
    <glyph glyph-name="Umacron" unicode="&#x16a;" horiz-adv-x="1491" 
d="M1159 1828v-238h-800v238h800zM1383 598q0 -143 -32.5 -252.5t-104 -193.5t-194 -128t-293.5 -44t-293.5 44t-194 128t-104 193.5t-32.5 252.5v848h394v-864q0 -141 65 -208.5t165 -67.5q99 0 164.5 67.5t65.5 208.5v864h394v-848z" />
    <glyph glyph-name="umacron" unicode="&#x16b;" horiz-adv-x="1217" 
d="M1006 1416v-238h-800v238h800zM481 -20q-64 0 -131.5 22.5t-126 62t-96 103.5t-37.5 138v728h390v-674q0 -46 33.5 -76t91.5 -30q57 0 91.5 30t34.5 76v674h386v-1034h-288l-46 212q-43 -232 -302 -232z" />
    <glyph glyph-name="Ubreve" unicode="&#x16c;" horiz-adv-x="1491" 
d="M1153 1858q-28 -140 -138 -215t-256 -75q-147 0 -256.5 75t-137.5 215h230q15 -53 57.5 -84.5t106.5 -31.5q63 0 106 31.5t59 84.5h229zM1383 598q0 -143 -32.5 -252.5t-104 -193.5t-194 -128t-293.5 -44t-293.5 44t-194 128t-104 193.5t-32.5 252.5v848h394v-864
q0 -141 65 -208.5t165 -67.5q99 0 164.5 67.5t65.5 208.5v864h394v-848z" />
    <glyph glyph-name="ubreve" unicode="&#x16d;" horiz-adv-x="1217" 
d="M1000 1446q-28 -140 -138 -215t-256 -75q-147 0 -256.5 75t-137.5 215h230q15 -53 57.5 -84.5t106.5 -31.5q63 0 106 31.5t59 84.5h229zM481 -20q-64 0 -131.5 22.5t-126 62t-96 103.5t-37.5 138v728h390v-674q0 -46 33.5 -76t91.5 -30q57 0 91.5 30t34.5 76v674h386
v-1034h-288l-46 212q-43 -232 -302 -232z" />
    <glyph glyph-name="Uring" unicode="&#x16e;" horiz-adv-x="1491" 
d="M987 1758q0 -96 -66.5 -162t-161.5 -66q-96 0 -162 67t-66 165q0 91 66.5 155.5t161.5 64.5t161.5 -65.5t66.5 -158.5zM849 1756q0 39 -26.5 65.5t-65.5 26.5t-67.5 -26.5t-28.5 -65.5q0 -38 28.5 -67t67.5 -29q38 0 65 29t27 67zM1383 598q0 -143 -32.5 -252.5
t-104 -193.5t-194 -128t-293.5 -44t-293.5 44t-194 128t-104 193.5t-32.5 252.5v848h394v-864q0 -141 65 -208.5t165 -67.5q99 0 164.5 67.5t65.5 208.5v864h394v-848z" />
    <glyph glyph-name="uring" unicode="&#x16f;" horiz-adv-x="1217" 
d="M834 1346q0 -96 -66.5 -162t-161.5 -66q-96 0 -162 67t-66 165q0 91 66.5 155.5t161.5 64.5t161.5 -65.5t66.5 -158.5zM696 1344q0 39 -26.5 65.5t-65.5 26.5t-67.5 -26.5t-28.5 -65.5q0 -38 28.5 -67t67.5 -29q38 0 65 29t27 67zM481 -20q-64 0 -131.5 22.5t-126 62
t-96 103.5t-37.5 138v728h390v-674q0 -46 33.5 -76t91.5 -30q57 0 91.5 30t34.5 76v674h386v-1034h-288l-46 212q-43 -232 -302 -232z" />
    <glyph glyph-name="Uhungarumlaut" unicode="&#x170;" horiz-adv-x="1491" 
d="M617 1858h333l-267 -291h-272zM1087 1858h346l-330 -291h-272zM1383 598q0 -143 -32.5 -252.5t-104 -193.5t-194 -128t-293.5 -44t-293.5 44t-194 128t-104 193.5t-32.5 252.5v848h394v-864q0 -141 65 -208.5t165 -67.5q99 0 164.5 67.5t65.5 208.5v864h394v-848z" />
    <glyph glyph-name="uhungarumlaut" unicode="&#x171;" horiz-adv-x="1217" 
d="M464 1446h333l-267 -291h-272zM934 1446h346l-330 -291h-272zM481 -20q-64 0 -131.5 22.5t-126 62t-96 103.5t-37.5 138v728h390v-674q0 -46 33.5 -76t91.5 -30q57 0 91.5 30t34.5 76v674h386v-1034h-288l-46 212q-43 -232 -302 -232z" />
    <glyph glyph-name="Uogonek" unicode="&#x172;" horiz-adv-x="1491" 
d="M513 -166q0 46 24.5 83.5t89.5 70.5q-261 32 -376.5 189.5t-115.5 420.5v848h394v-864q0 -141 65 -208.5t165 -67.5q99 0 164.5 67.5t65.5 208.5v864h394v-848q0 -129 -26.5 -231t-84.5 -183.5t-156 -132t-235 -65.5q-56 -24 -78 -47t-22 -51q0 -56 54 -56q39 0 70.5 12
t75.5 38v-164q-33 -21 -97.5 -37.5t-134.5 -16.5q-110 0 -173 42.5t-63 127.5z" />
    <glyph glyph-name="uogonek" unicode="&#x173;" horiz-adv-x="1217" 
d="M481 -20q-64 0 -131.5 22.5t-126 62t-96 103.5t-37.5 138v728h390v-674q0 -46 33.5 -76t91.5 -30q57 0 91.5 30t34.5 76v674h386v-1034h-44q-83 -30 -114 -57t-31 -59q0 -56 54 -56q39 0 70.5 12t75.5 38v-164q-33 -21 -97.5 -37.5t-134.5 -16.5q-110 0 -173 42.5
t-63 127.5q0 55 35.5 97.5t132.5 79.5l-45 205q-43 -232 -302 -232z" />
    <glyph glyph-name="Wcircumflex" unicode="&#x174;" horiz-adv-x="1964" 
d="M1104 1567l-124 149l-142 -149h-264l276 291h264l268 -291h-278zM1934 1446l-432 -1446h-290l-230 786l-230 -786h-286l-436 1446h376l224 -776l216 776h272l224 -776l216 776h376z" />
    <glyph glyph-name="wcircumflex" unicode="&#x175;" horiz-adv-x="1595" 
d="M928 1155l-124 149l-142 -149h-264l276 291h264l268 -291h-278zM1586 1034l-364 -1034h-279l-154 502l-163 -502h-267l-349 1034h338l162 -502l151 502h271l147 -504l160 504h347z" />
    <glyph glyph-name="Ycircumflex" unicode="&#x176;" horiz-adv-x="1444" 
d="M893 1567l-124 149l-142 -149h-264l276 291h264l268 -291h-278zM1429 1446l-515 -844v-602h-390v602l-509 844h420l286 -514l283 514h425z" />
    <glyph glyph-name="ycircumflex" unicode="&#x177;" horiz-adv-x="1177" 
d="M720 1155l-124 149l-142 -149h-264l276 291h264l268 -291h-278zM315 -330q-71 0 -127.5 11t-77.5 22l-20 11v246l99 -6q190 -15 215 83q1 2 1 3l4 20l-401 974h382l196 -562l203 562h381l-404 -974q-49 -119 -101 -198t-109 -120t-113 -56.5t-128 -15.5z" />
    <glyph glyph-name="Ydieresis" unicode="&#x178;" horiz-adv-x="1444" 
d="M858 1567l4 291h358l-4 -291h-358zM322 1567l4 291h358l-4 -291h-358zM1429 1446l-515 -844v-602h-390v602l-509 844h420l286 -514l283 514h425z" />
    <glyph glyph-name="Zacute" unicode="&#x179;" horiz-adv-x="1399" 
d="M833 1858h383l-317 -291h-272zM90 0v178l681 948h-618v320h1178v-170l-695 -952h683v-324h-1229z" />
    <glyph glyph-name="zacute" unicode="&#x17a;" horiz-adv-x="1021" 
d="M581 1446h383l-317 -291h-272zM50 0v206l444 562h-417v266h892v-206l-445 -562h447v-266h-921z" />
    <glyph glyph-name="Zdotaccent" unicode="&#x17b;" horiz-adv-x="1399" 
d="M580 1567v291h362v-291h-362zM90 0v178l681 948h-618v320h1178v-170l-695 -952h683v-324h-1229z" />
    <glyph glyph-name="zdotaccent" unicode="&#x17c;" horiz-adv-x="1021" 
d="M328 1155v291h362v-291h-362zM50 0v206l444 562h-417v266h892v-206l-445 -562h447v-266h-921z" />
    <glyph glyph-name="Zcaron" unicode="&#x17d;" horiz-adv-x="1399" 
d="M628 1567l-274 293h264l142 -164l124 164h278l-268 -293h-266zM90 0v178l681 948h-618v320h1178v-170l-695 -952h683v-324h-1229z" />
    <glyph glyph-name="zcaron" unicode="&#x17e;" horiz-adv-x="1021" 
d="M376 1155l-274 293h264l142 -164l124 164h278l-268 -293h-266zM50 0v206l444 562h-417v266h892v-206l-445 -562h447v-266h-921z" />
    <glyph glyph-name="uni018F" unicode="&#x18f;" horiz-adv-x="1566" 
d="M778 -20q-122 0 -225.5 29.5t-191 94.5t-148 163t-94.5 240.5t-34 320.5h929q0 133 -65.5 206.5t-179.5 73.5q-107 0 -178.5 -55t-71.5 -121h-434q0 72 30.5 147.5t91.5 144.5t143 123t193.5 86.5t234.5 32.5q331 0 517 -188.5t186 -535.5q0 -192 -53 -339.5t-149 -239
t-222 -137.5t-279 -46zM778 314q112 0 172 64t60 176l-450 2q0 -112 57.5 -177t160.5 -65z" />
    <glyph glyph-name="florin" unicode="&#x192;" horiz-adv-x="1152" 
d="M1042 1034l-48 -264h-186l-146 -830q-22 -127 -118.5 -201.5t-239.5 -74.5h-284l38 254h122q52 0 74 24t34 98l130 730h-168l46 264h168l24 138q24 127 119.5 200.5t236.5 73.5h278l-42 -252h-120q-35 0 -67 -30t-39 -70l-10 -60h198z" />
    <glyph glyph-name="Ohorn" unicode="&#x1a0;" horiz-adv-x="1760" 
d="M787 -20q-322 0 -512 201t-190 539t192.5 542t509.5 204q308 0 497 -194q42 -1 73.5 -0.5t55 9t40 32t27 66.5t16.5 113h234q-2 -219 -70 -312t-249 -94q74 -160 74 -366q0 -337 -189.5 -538.5t-508.5 -201.5zM787 292q276 0 276 422q0 230 -74 335t-202 105t-202.5 -105
t-74.5 -335q0 -422 277 -422z" />
    <glyph glyph-name="ohorn" unicode="&#x1a1;" horiz-adv-x="1354" 
d="M584 -20q-238 0 -381 147.5t-143 382.5q0 243 147 393.5t379 150.5q246 0 391 -163q32 0 50 1.5t39 8.5t32.5 21t23 38.5t17.5 61.5t11 90h234q-2 -215 -66.5 -307.5t-236.5 -97.5q29 -93 29 -197q0 -234 -143.5 -382t-382.5 -148zM586 262q44 0 74.5 24.5t45 66.5
t20.5 83t6 88q0 252 -146 252q-148 0 -148 -252q0 -47 6 -88t20.5 -83t45.5 -66.5t76 -24.5z" />
    <glyph glyph-name="Uhorn" unicode="&#x1af;" horiz-adv-x="1812" 
d="M1383 598q0 -143 -32.5 -252.5t-104 -193.5t-194 -128t-293.5 -44t-293.5 44t-194 128t-104 193.5t-32.5 252.5v848h394v-864q0 -141 65 -208.5t165 -67.5q99 0 164.5 67.5t65.5 208.5v864h394v-175q38 1 60 8t41 30t29.5 66.5t16.5 116.5h234q-2 -119 -19 -194.5
t-60 -127t-116 -70.5t-186 -12v-490z" />
    <glyph glyph-name="uhorn" unicode="&#x1b0;" horiz-adv-x="1526" 
d="M481 -20q-64 0 -131.5 22.5t-126 62t-96 103.5t-37.5 138v728h390v-674q0 -46 33.5 -76t91.5 -30q57 0 91.5 30t34.5 76v674h386v-143q43 0 66.5 6t45 28t32.5 66.5t17 120.5h234q-2 -121 -19.5 -197.5t-62.5 -127.5t-120.5 -68.5t-192.5 -9.5v-709h-288l-46 212
q-43 -232 -302 -232z" />
    <glyph glyph-name="uni01D4" unicode="&#x1d4;" horiz-adv-x="1217" 
d="M472 1155l-274 293h264l142 -164l124 164h278l-268 -293h-266zM481 -20q-64 0 -131.5 22.5t-126 62t-96 103.5t-37.5 138v728h390v-674q0 -46 33.5 -76t91.5 -30q57 0 91.5 30t34.5 76v674h386v-1034h-288l-46 212q-43 -232 -302 -232z" />
    <glyph glyph-name="uni01EA" unicode="&#x1ea;" horiz-adv-x="1570" 
d="M564 -170q0 47 25.5 85t93.5 71q-277 32 -437.5 228.5t-160.5 505.5q0 338 192.5 542t509.5 204q316 0 507 -204t191 -542q0 -278 -131.5 -467t-363.5 -248q-91 -32 -124.5 -59.5t-33.5 -61.5q0 -56 54 -56q39 0 70.5 12t75.5 38v-164q-33 -21 -97.5 -37.5t-134.5 -16.5
q-110 0 -173 42.5t-63 127.5zM787 292q276 0 276 422q0 230 -74 335t-202 105t-202.5 -105t-74.5 -335q0 -422 277 -422z" />
    <glyph glyph-name="uni01EB" unicode="&#x1eb;" 
d="M334 -170q0 49 27.5 88t102.5 73q-187 36 -295.5 176t-108.5 343q0 243 147 393.5t379 150.5q239 0 381.5 -152.5t142.5 -391.5q0 -179 -87 -311.5t-241 -186.5h-1q-4 -2 -12 -4q-96 -33 -131.5 -61t-35.5 -63q0 -56 54 -56q39 0 70.5 12t75.5 38v-164
q-33 -21 -97.5 -37.5t-134.5 -16.5q-110 0 -173 42.5t-63 127.5zM586 262q44 0 74.5 24.5t45 66.5t20.5 83t6 88q0 252 -146 252q-148 0 -148 -252q0 -47 6 -88t20.5 -83t45.5 -66.5t76 -24.5z" />
    <glyph glyph-name="Aringacute" unicode="&#x1fa;" horiz-adv-x="1482" 
d="M30 0l512 1446h17q-31 48 -31 110q0 66 38 115.5t100 70.5l32 138h200l-60 -146q54 -25 86 -72.5t32 -109.5q0 -59 -30 -106h14l512 -1446h-384l-96 280h-456l-98 -280h-388zM740 1454q38 0 66 29t28 67q0 39 -27.5 65.5t-66.5 26.5q-38 0 -67 -27t-29 -65t29 -67t67 -29
zM598 612h286l-142 462z" />
    <glyph glyph-name="aringacute" unicode="&#x1fb;" horiz-adv-x="1157" 
d="M423 -20q-153 0 -255 87.5t-102 242.5q0 172 136 263t413 91h80v44q0 97 -114 94q-121 -4 -160 -90h-315q4 92 47.5 160.5t113 108t164.5 58.5q-49 55 -49 135q0 66 38 115.5t100 70.5l32 138h200l-60 -146q54 -25 86 -72.5t32 -109.5q0 -74 -46 -128q163 -26 233 -105
t70 -205v-732h-322l-34 164q-45 -102 -112 -143t-176 -41zM594 1072q38 0 66 29t28 67q0 39 -27.5 65.5t-66.5 26.5q-38 0 -67 -27t-29 -65t29 -67t67 -29zM560 226q55 0 94 37t41 87v130h-62q-27 0 -58.5 -6.5t-65.5 -20t-56 -40.5t-22 -63q0 -56 38 -90t91 -34z" />
    <glyph glyph-name="AEacute" unicode="&#x1fc;" horiz-adv-x="2200" 
d="M1453 1858h383l-317 -291h-272zM2110 320v-320h-1144v280h-440l-138 -280h-388l750 1446h1342l-2 -318h-680v-244h570v-314h-570v-250h700zM966 612v590l-298 -590h298z" />
    <glyph glyph-name="aeacute" unicode="&#x1fd;" horiz-adv-x="1826" 
d="M927 1446h383l-317 -291h-272zM423 -20q-153 0 -255 87.5t-102 242.5q0 171 136.5 262.5t413.5 91.5h80v44q0 97 -115 94q-121 -5 -160 -90h-315q5 118 74 196.5t174.5 112t244.5 33.5q242 0 358 -81q125 81 291 81q124 0 221.5 -40.5t159.5 -113t94.5 -169.5t32.5 -213
v-90h-652q-1 -88 40.5 -132t109.5 -44q59 0 99.5 22t62.5 78h344q-15 -111 -91 -197.5t-182.5 -130.5t-222.5 -44q-140 0 -252.5 51t-184.5 144q-44 -98 -139 -146.5t-265 -48.5zM1102 646h295q0 62 -39.5 104t-109.5 42q-60 0 -103 -43.5t-43 -102.5zM560 226q55 0 94.5 37
t41.5 87v130h-63q-26 0 -57.5 -6.5t-65.5 -20t-56.5 -40.5t-22.5 -63q0 -56 38 -90t91 -34z" />
    <glyph glyph-name="Oslashacute" unicode="&#x1fe;" horiz-adv-x="1598" 
d="M859 1858h383l-317 -291h-272zM186 -28l-156 162l164 158q-106 181 -106 428q0 339 192 542.5t510 203.5q272 0 452 -152l164 158l152 -160l-174 -172q104 -174 104 -420q0 -337 -189.5 -538.5t-508.5 -201.5q-265 0 -448 142zM552 640l422 412q-54 114 -184 114
q-94 0 -147.5 -65t-74.5 -207q-16 -93 -16 -254zM790 284q87 0 138.5 52t73.5 166q22 102 22 288l-418 -410q55 -96 184 -96z" />
    <glyph glyph-name="oslashacute" unicode="&#x1ff;" horiz-adv-x="1270" 
d="M697 1446h383l-317 -291h-272zM660 -20q-214 0 -354 123l-130 -121l-116 124l140 130q-64 119 -64 274q0 243 147 393.5t379 150.5q183 0 316 -95l98 91l114 -124l-95 -89q91 -137 91 -327q0 -234 -143.5 -382t-382.5 -148zM662 776q-148 0 -148 -248l233 216
q-34 32 -85 32zM662 262q44 0 74.5 24.5t45 66.5t20.5 83t6 88q0 30 -1 45l-256 -238q37 -69 111 -69z" />
    <glyph glyph-name="uni0200" unicode="&#x200;" horiz-adv-x="1482" 
d="M877 1858l206 -291h-272l-267 291h333zM407 1858l256 -291h-272l-330 291h346zM30 0l512 1446h398l512 -1446h-384l-96 280h-456l-98 -280h-388zM598 612h286l-142 462z" />
    <glyph glyph-name="uni0201" unicode="&#x201;" horiz-adv-x="1157" 
d="M739 1446l206 -291h-272l-267 291h333zM269 1446l256 -291h-272l-330 291h346zM423 -20q-153 0 -255 87.5t-102 242.5q0 172 136 263t413 91h80v44q0 97 -114 94q-121 -4 -160 -90h-315q5 118 74 196.5t174.5 112t244.5 33.5q132 0 224.5 -23t145 -67.5t75.5 -100.5
t23 -131v-732h-322l-34 164q-45 -102 -112 -143t-176 -41zM560 226q55 0 94 37t41 87v130h-62q-27 0 -58.5 -6.5t-65.5 -20t-56 -40.5t-22 -63q0 -56 38 -90t91 -34z" />
    <glyph glyph-name="uni0202" unicode="&#x202;" horiz-adv-x="1482" 
d="M1136 1567h-229q-16 53 -59 84.5t-106 31.5q-64 0 -106.5 -31.5t-57.5 -84.5h-230q28 140 137.5 215t256.5 75q146 0 256 -75t138 -215zM30 0l512 1446h398l512 -1446h-384l-96 280h-456l-98 -280h-388zM598 612h286l-142 462z" />
    <glyph glyph-name="uni0203" unicode="&#x203;" horiz-adv-x="1157" 
d="M998 1155h-229q-16 53 -59 84.5t-106 31.5q-64 0 -106.5 -31.5t-57.5 -84.5h-230q28 140 137.5 215t256.5 75q146 0 256 -75t138 -215zM423 -20q-153 0 -255 87.5t-102 242.5q0 172 136 263t413 91h80v44q0 97 -114 94q-121 -4 -160 -90h-315q5 118 74 196.5t174.5 112
t244.5 33.5q132 0 224.5 -23t145 -67.5t75.5 -100.5t23 -131v-732h-322l-34 164q-45 -102 -112 -143t-176 -41zM560 226q55 0 94 37t41 87v130h-62q-27 0 -58.5 -6.5t-65.5 -20t-56 -40.5t-22 -63q0 -56 38 -90t91 -34z" />
    <glyph glyph-name="uni0204" unicode="&#x204;" horiz-adv-x="1295" 
d="M804 1858l206 -291h-272l-267 291h333zM334 1858l256 -291h-272l-330 291h346zM135 0v1446h1068l-2 -322h-674v-240h564v-314h-567v-246h681v-324h-1070z" />
    <glyph glyph-name="uni0205" unicode="&#x205;" 
d="M729 1446l206 -291h-272l-267 291h333zM259 1446l256 -291h-272l-330 291h346zM448 428q-1 -88 40.5 -132t109.5 -44q59 0 99.5 22t62.5 78h344q-15 -111 -91 -197.5t-182.5 -130.5t-222.5 -44q-243 0 -392.5 144.5t-149.5 379.5q0 150 61 273.5t182.5 200t282.5 76.5
q124 0 221.5 -40.5t159.5 -113t94.5 -169.5t32.5 -213v-90h-652zM446 646h295q0 62 -39.5 104t-109.5 42q-60 0 -103 -43.5t-43 -102.5z" />
    <glyph glyph-name="uni0206" unicode="&#x206;" horiz-adv-x="1295" 
d="M1063 1567h-229q-16 53 -59 84.5t-106 31.5q-64 0 -106.5 -31.5t-57.5 -84.5h-230q28 140 137.5 215t256.5 75q146 0 256 -75t138 -215zM135 0v1446h1068l-2 -322h-674v-240h564v-314h-567v-246h681v-324h-1070z" />
    <glyph glyph-name="uni0207" unicode="&#x207;" 
d="M988 1155h-229q-16 53 -59 84.5t-106 31.5q-64 0 -106.5 -31.5t-57.5 -84.5h-230q28 140 137.5 215t256.5 75q146 0 256 -75t138 -215zM448 428q-1 -88 40.5 -132t109.5 -44q59 0 99.5 22t62.5 78h344q-15 -111 -91 -197.5t-182.5 -130.5t-222.5 -44q-243 0 -392.5 144.5
t-149.5 379.5q0 150 61 273.5t182.5 200t282.5 76.5q124 0 221.5 -40.5t159.5 -113t94.5 -169.5t32.5 -213v-90h-652zM446 646h295q0 62 -39.5 104t-109.5 42q-60 0 -103 -43.5t-43 -102.5z" />
    <glyph glyph-name="uni0208" unicode="&#x208;" horiz-adv-x="659" 
d="M466 1858l206 -291h-272l-267 291h333zM-4 1858l256 -291h-272l-330 291h346zM135 1446h389v-1446h-389v1446z" />
    <glyph glyph-name="uni0209" unicode="&#x209;" horiz-adv-x="571" 
d="M427 1446l206 -291h-272l-267 291h333zM-43 1446l256 -291h-272l-330 291h346zM471 1034v-1034h-371v1034h371z" />
    <glyph glyph-name="uni020A" unicode="&#x20a;" horiz-adv-x="659" 
d="M725 1567h-229q-16 53 -59 84.5t-106 31.5q-64 0 -106.5 -31.5t-57.5 -84.5h-230q28 140 137.5 215t256.5 75q146 0 256 -75t138 -215zM135 1446h389v-1446h-389v1446z" />
    <glyph glyph-name="uni020B" unicode="&#x20b;" horiz-adv-x="808" 
d="M798 1155h-229q-16 53 -59 84.5t-106 31.5q-64 0 -106.5 -31.5t-57.5 -84.5h-230q28 140 137.5 215t256.5 75q146 0 256 -75t138 -215zM583 1034v-1034h-371v1034h371z" />
    <glyph glyph-name="uni020C" unicode="&#x20c;" horiz-adv-x="1570" 
d="M920 1858l206 -291h-272l-267 291h333zM450 1858l256 -291h-272l-330 291h346zM787 -20q-322 0 -512 201t-190 539t192.5 542t509.5 204q316 0 507 -204t191 -542q0 -337 -189.5 -538.5t-508.5 -201.5zM787 292q276 0 276 422q0 230 -74 335t-202 105t-202.5 -105
t-74.5 -335q0 -422 277 -422z" />
    <glyph glyph-name="uni020D" unicode="&#x20d;" 
d="M721 1446l206 -291h-272l-267 291h333zM251 1446l256 -291h-272l-330 291h346zM584 -20q-238 0 -381 147.5t-143 382.5q0 243 147 393.5t379 150.5q239 0 381.5 -152.5t142.5 -391.5q0 -234 -143.5 -382t-382.5 -148zM586 262q44 0 74.5 24.5t45 66.5t20.5 83t6 88
q0 252 -146 252q-148 0 -148 -252q0 -47 6 -88t20.5 -83t45.5 -66.5t76 -24.5z" />
    <glyph glyph-name="uni020E" unicode="&#x20e;" horiz-adv-x="1570" 
d="M1179 1567h-229q-16 53 -59 84.5t-106 31.5q-64 0 -106.5 -31.5t-57.5 -84.5h-230q28 140 137.5 215t256.5 75q146 0 256 -75t138 -215zM787 -20q-322 0 -512 201t-190 539t192.5 542t509.5 204q316 0 507 -204t191 -542q0 -337 -189.5 -538.5t-508.5 -201.5zM787 292
q276 0 276 422q0 230 -74 335t-202 105t-202.5 -105t-74.5 -335q0 -422 277 -422z" />
    <glyph glyph-name="uni020F" unicode="&#x20f;" 
d="M980 1155h-229q-16 53 -59 84.5t-106 31.5q-64 0 -106.5 -31.5t-57.5 -84.5h-230q28 140 137.5 215t256.5 75q146 0 256 -75t138 -215zM584 -20q-238 0 -381 147.5t-143 382.5q0 243 147 393.5t379 150.5q239 0 381.5 -152.5t142.5 -391.5q0 -234 -143.5 -382
t-382.5 -148zM586 262q44 0 74.5 24.5t45 66.5t20.5 83t6 88q0 252 -146 252q-148 0 -148 -252q0 -47 6 -88t20.5 -83t45.5 -66.5t76 -24.5z" />
    <glyph glyph-name="uni0210" unicode="&#x210;" horiz-adv-x="1427" 
d="M834 1858l206 -291h-272l-267 291h333zM364 1858l256 -291h-272l-330 291h346zM1337 0h-399l-210 498h-204v-498h-389v1446h656q137 0 239.5 -35.5t163 -100t89.5 -147t29 -183.5q0 -107 -30.5 -189.5t-78.5 -134.5t-120 -96zM747 788q73 0 123.5 57.5t50.5 130.5
q0 74 -53.5 128t-120.5 54h-223v-370h223z" />
    <glyph glyph-name="uni0211" unicode="&#x211;" horiz-adv-x="863" 
d="M607 1446l206 -291h-272l-267 291h333zM137 1446l256 -291h-272l-330 291h346zM100 0v1034h376v-286q39 136 125.5 221t221.5 85h15v-368q-1 0 -13 2q-62 8 -110 4.5t-83.5 -10.5t-60.5 -23t-41 -32.5t-25 -40t-12.5 -44.5t-3.5 -46v-496h-389z" />
    <glyph glyph-name="uni0212" unicode="&#x212;" horiz-adv-x="1427" 
d="M1093 1567h-229q-16 53 -59 84.5t-106 31.5q-64 0 -106.5 -31.5t-57.5 -84.5h-230q28 140 137.5 215t256.5 75q146 0 256 -75t138 -215zM1337 0h-399l-210 498h-204v-498h-389v1446h656q137 0 239.5 -35.5t163 -100t89.5 -147t29 -183.5q0 -107 -30.5 -189.5
t-78.5 -134.5t-120 -96zM747 788q73 0 123.5 57.5t50.5 130.5q0 74 -53.5 128t-120.5 54h-223v-370h223z" />
    <glyph glyph-name="uni0213" unicode="&#x213;" horiz-adv-x="863" 
d="M866 1115h-229q-16 53 -59 84.5t-106 31.5q-64 0 -106.5 -31.5t-57.5 -84.5h-230q28 140 137.5 215t256.5 75q146 0 256 -75t138 -215zM100 0v1034h376v-286q39 136 125.5 221t221.5 85h15v-368q-1 0 -13 2q-62 8 -110 4.5t-83.5 -10.5t-60.5 -23t-41 -32.5t-25 -40
t-12.5 -44.5t-3.5 -46v-496h-389z" />
    <glyph glyph-name="uni0214" unicode="&#x214;" horiz-adv-x="1491" 
d="M894 1858l206 -291h-272l-267 291h333zM424 1858l256 -291h-272l-330 291h346zM1383 598q0 -143 -32.5 -252.5t-104 -193.5t-194 -128t-293.5 -44t-293.5 44t-194 128t-104 193.5t-32.5 252.5v848h394v-864q0 -141 65 -208.5t165 -67.5q99 0 164.5 67.5t65.5 208.5v864
h394v-848z" />
    <glyph glyph-name="uni0215" unicode="&#x215;" horiz-adv-x="1217" 
d="M741 1446l206 -291h-272l-267 291h333zM271 1446l256 -291h-272l-330 291h346zM481 -20q-64 0 -131.5 22.5t-126 62t-96 103.5t-37.5 138v728h390v-674q0 -46 33.5 -76t91.5 -30q57 0 91.5 30t34.5 76v674h386v-1034h-288l-46 212q-43 -232 -302 -232z" />
    <glyph glyph-name="uni0216" unicode="&#x216;" horiz-adv-x="1491" 
d="M1153 1567h-229q-16 53 -59 84.5t-106 31.5q-64 0 -106.5 -31.5t-57.5 -84.5h-230q28 140 137.5 215t256.5 75q146 0 256 -75t138 -215zM1383 598q0 -143 -32.5 -252.5t-104 -193.5t-194 -128t-293.5 -44t-293.5 44t-194 128t-104 193.5t-32.5 252.5v848h394v-864
q0 -141 65 -208.5t165 -67.5q99 0 164.5 67.5t65.5 208.5v864h394v-848z" />
    <glyph glyph-name="uni0217" unicode="&#x217;" horiz-adv-x="1217" 
d="M1000 1155h-229q-16 53 -59 84.5t-106 31.5q-64 0 -106.5 -31.5t-57.5 -84.5h-230q28 140 137.5 215t256.5 75q146 0 256 -75t138 -215zM481 -20q-64 0 -131.5 22.5t-126 62t-96 103.5t-37.5 138v728h390v-674q0 -46 33.5 -76t91.5 -30q57 0 91.5 30t34.5 76v674h386
v-1034h-288l-46 212q-43 -232 -302 -232z" />
    <glyph glyph-name="uni0218" unicode="&#x218;" horiz-adv-x="1424" 
d="M726 -20q-91 0 -178.5 17.5t-168.5 55t-143.5 90.5t-103 129.5t-47.5 167.5h396q17 -77 80.5 -119.5t162.5 -42.5q65 0 114.5 11t84.5 42t35 79q0 21 -8.5 38.5t-27.5 30t-37 21t-51 16.5t-53.5 11.5t-60.5 10.5l-221 38q-171 28 -270 137t-103 289q-2 142 79 248.5
t215 160t300 53.5q290 0 451.5 -125t166.5 -331h-386q-9 82 -65 119t-159 37q-102 0 -148 -34t-46 -80q0 -52 33 -81t122 -45l222 -38q85 -15 153.5 -42t113.5 -58t77.5 -72.5t49.5 -78t27 -81.5t12.5 -75.5t2.5 -68.5q0 -184 -177.5 -307t-443.5 -123zM561 -495l100 172
l-96 14v218h304v-180l-180 -224h-128z" />
    <glyph glyph-name="uni0219" unicode="&#x219;" horiz-adv-x="1092" 
d="M556 -20q-84 0 -163 21t-149 63.5t-119 115.5t-65 168h330q9 -35 31 -59.5t49 -34.5t47 -14t37 -4q67 0 106 15.5t39 46.5q0 29 -27.5 45.5t-96.5 26.5l-153 24q-329 60 -332 316q-2 149 124 246.5t346 97.5q212 0 336 -92.5t124 -249.5h-317q-11 45 -51.5 68.5
t-96.5 23.5t-92.5 -16.5t-36.5 -45.5q0 -27 35.5 -43.5t119.5 -30.5l133 -24q76 -18 134 -50t91 -66.5t53.5 -75t27 -71.5t6.5 -61q0 -161 -132 -250.5t-338 -89.5zM399 -495l100 172l-96 14v218h304v-180l-180 -224h-128z" />
    <glyph glyph-name="uni021A" unicode="&#x21a;" horiz-adv-x="1274" 
d="M30 1104v342h1214v-342h-414v-1104h-390v1104h-410zM495 -495l100 172l-96 14v218h304v-180l-180 -224h-128z" />
    <glyph glyph-name="uni021B" unicode="&#x21b;" horiz-adv-x="882" 
d="M812 770h-226l2 -468q0 -56 62 -56h162v-230q-64 -32 -206 -32q-118 0 -200.5 23t-126.5 65.5t-62.5 93.5t-18.5 118v486h-168v264h182l100 322h274v-320h226v-266zM347 -477l100 172l-96 14v218h304v-180l-180 -224h-128z" />
    <glyph glyph-name="uni0237" unicode="&#x237;" horiz-adv-x="624" 
d="M524 56q0 -388 -410 -388q-46 0 -79 8.5t-43 17.5l-10 8l-2 260l59 10q53 12 74.5 31.5t21.5 52.5v978h389v-978z" />
    <glyph glyph-name="uni0259" unicode="&#x259;" 
d="M722 606q1 88 -40.5 132t-109.5 44q-59 0 -99.5 -22t-62.5 -78h-344q15 111 91 197.5t182.5 130.5t222.5 44q243 0 392.5 -144.5t149.5 -379.5q0 -150 -61 -273.5t-182.5 -200t-282.5 -76.5q-124 0 -221.5 40.5t-159.5 113t-94.5 169.5t-32.5 213v90h652zM724 388h-295
q0 -62 39.5 -104t109.5 -42q60 0 103 43.5t43 102.5z" />
    <glyph glyph-name="uni02BB" unicode="&#x2bb;" horiz-adv-x="574" 
d="M454 1350l-28 -4q-53 -9 -95.5 -45.5t-42.5 -90.5v-22l166 -18v-336h-354v298q0 66 27 129.5t72.5 110.5t113 69.5t141.5 8.5v-100z" />
    <glyph glyph-name="uni02BC" unicode="&#x2bc;" horiz-adv-x="574" 
d="M100 940l28 4q53 9 95.5 45.5t42.5 90.5v22l-166 18v336h354v-298q0 -66 -27 -129.5t-72.5 -110.5t-113 -69.5t-141.5 -8.5v100z" />
    <glyph glyph-name="circumflex" unicode="&#x2c6;" horiz-adv-x="856" 
d="M554 1155l-124 149l-142 -149h-264l276 291h264l268 -291h-278z" />
    <glyph glyph-name="caron" unicode="&#x2c7;" horiz-adv-x="882" 
d="M298 1155l-274 293h264l142 -164l124 164h278l-268 -293h-266z" />
    <glyph glyph-name="breve" unicode="&#x2d8;" horiz-adv-x="868" 
d="M828 1446q-28 -140 -138 -215t-256 -75q-147 0 -256.5 75t-137.5 215h230q15 -53 57.5 -84.5t106.5 -31.5q63 0 106 31.5t59 84.5h229z" />
    <glyph glyph-name="dotaccent" unicode="&#x2d9;" horiz-adv-x="382" 
d="M10 1155v291h362v-291h-362z" />
    <glyph glyph-name="ring" unicode="&#x2da;" horiz-adv-x="558" 
d="M498 1324q0 -96 -66.5 -162t-161.5 -66q-96 0 -162 67t-66 165q0 91 66.5 155.5t161.5 64.5t161.5 -65.5t66.5 -158.5zM360 1322q0 39 -26.5 65.5t-65.5 26.5t-67.5 -26.5t-28.5 -65.5q0 -38 28.5 -67t67.5 -29q38 0 65 29t27 67z" />
    <glyph glyph-name="ogonek" unicode="&#x2db;" horiz-adv-x="570" 
d="M42 -170q0 56 38.5 100.5t143.5 81.5h266q-104 -34 -142 -63.5t-38 -64.5q0 -56 54 -56q39 0 70.5 12t75.5 38v-164q-33 -21 -97.5 -37.5t-134.5 -16.5q-110 0 -173 42.5t-63 127.5z" />
    <glyph glyph-name="tilde" unicode="&#x2dc;" horiz-adv-x="960" 
d="M860 1259q-39 -34 -100.5 -57.5t-127.5 -23.5q-58 0 -159.5 29.5t-156.5 29.5q-51 0 -88.5 -15.5t-83.5 -56.5l-54 192q45 51 94.5 79t121.5 28q66 0 174 -33.5t150 -33.5q87 0 190 82z" />
    <glyph glyph-name="hungarumlaut" unicode="&#x2dd;" horiz-adv-x="1042" 
d="M216 1446h333l-267 -291h-272zM686 1446h346l-330 -291h-272z" />
    <glyph glyph-name="gravecomb" unicode="&#x300;" horiz-adv-x="0" 
d="M394 1446l206 -291h-272l-317 291h383z" />
    <glyph glyph-name="acutecomb" unicode="&#x301;" horiz-adv-x="0" 
d="M216 1446h383l-317 -291h-272z" />
    <glyph glyph-name="uni0302" unicode="&#x302;" horiz-adv-x="0" 
d="M554 1155l-124 149l-142 -149h-264l276 291h264l268 -291h-278z" />
    <glyph glyph-name="tildecomb" unicode="&#x303;" horiz-adv-x="0" 
d="M860 1259q-39 -34 -100.5 -57.5t-127.5 -23.5q-58 0 -159.5 29.5t-156.5 29.5q-51 0 -88.5 -15.5t-83.5 -56.5l-54 192q45 51 94.5 79t121.5 28q66 0 174 -33.5t150 -33.5q87 0 190 82z" />
    <glyph glyph-name="uni0304" unicode="&#x304;" horiz-adv-x="0" 
d="M842 1416v-238h-800v238h800z" />
    <glyph glyph-name="uni0306" unicode="&#x306;" horiz-adv-x="0" 
d="M828 1446q-28 -140 -138 -215t-256 -75q-147 0 -256.5 75t-137.5 215h230q15 -53 57.5 -84.5t106.5 -31.5q63 0 106 31.5t59 84.5h229z" />
    <glyph glyph-name="uni0307" unicode="&#x307;" horiz-adv-x="0" 
d="M10 1155v291h362v-291h-362z" />
    <glyph glyph-name="uni0308" unicode="&#x308;" horiz-adv-x="0" 
d="M546 1155l4 291h358l-4 -291h-358zM10 1155l4 291h358l-4 -291h-358z" />
    <glyph glyph-name="hookabovecomb" unicode="&#x309;" horiz-adv-x="0" 
d="M420 1543q99 61 195 45.5t147 -95.5q62 -92 39 -182.5t-133 -155.5l-82 130q78 49 36 118q-16 27 -52.5 31t-67.5 -17z" />
    <glyph glyph-name="uni030A" unicode="&#x30a;" horiz-adv-x="0" 
d="M498 1324q0 -96 -66.5 -162t-161.5 -66q-96 0 -162 67t-66 165q0 91 66.5 155.5t161.5 64.5t161.5 -65.5t66.5 -158.5zM360 1322q0 39 -26.5 65.5t-65.5 26.5t-67.5 -26.5t-28.5 -65.5q0 -38 28.5 -67t67.5 -29q38 0 65 29t27 67z" />
    <glyph glyph-name="uni030B" unicode="&#x30b;" horiz-adv-x="0" 
d="M216 1446h333l-267 -291h-272zM686 1446h346l-330 -291h-272z" />
    <glyph glyph-name="uni030C" unicode="&#x30c;" horiz-adv-x="0" 
d="M298 1155l-274 293h264l142 -164l124 164h278l-268 -293h-266z" />
    <glyph glyph-name="uni030F" unicode="&#x30f;" horiz-adv-x="0" 
d="M826 1446l206 -291h-272l-267 291h333zM356 1446l256 -291h-272l-330 291h346z" />
    <glyph glyph-name="uni0311" unicode="&#x311;" horiz-adv-x="0" 
d="M818 1155h-229q-16 53 -59 84.5t-106 31.5q-64 0 -106.5 -31.5t-57.5 -84.5h-230q28 140 137.5 215t256.5 75q146 0 256 -75t138 -215z" />
    <glyph glyph-name="uni031B" unicode="&#x31b;" horiz-adv-x="0" 
d="M450 1278q-1 -72 -7.5 -126.5t-21 -102t-37.5 -78t-57.5 -54.5t-81.5 -32.5t-108 -12t-137 7.5v178q42 -1 75 -0.5t56.5 8.5t40.5 31t27.5 66.5t16.5 114.5h234z" />
    <glyph glyph-name="dotbelowcomb" unicode="&#x323;" horiz-adv-x="0" 
d="M10 -433v291h362v-291h-362z" />
    <glyph glyph-name="uni0326" unicode="&#x326;" horiz-adv-x="0" 
d="M10 -495l100 172l-96 14v218h304v-180l-180 -224h-128z" />
    <glyph glyph-name="uni0327" unicode="&#x327;" horiz-adv-x="0" 
d="M562 -268q0 -76 -76.5 -123t-183.5 -47q-168 0 -266 58l48 118q96 -52 170 -52q41 0 66.5 14t25.5 38q0 38 -40.5 57t-137.5 19q-17 0 -21.5 4t1.5 20l74 172h158l-42 -114q113 0 168.5 -49.5t55.5 -114.5z" />
    <glyph glyph-name="uni0328" unicode="&#x328;" horiz-adv-x="0" 
d="M42 -170q0 56 38.5 100.5t143.5 81.5h266q-104 -34 -142 -63.5t-38 -64.5q0 -56 54 -56q39 0 70.5 12t75.5 38v-164q-33 -21 -97.5 -37.5t-134.5 -16.5q-110 0 -173 42.5t-63 127.5z" />
    <glyph glyph-name="pi" unicode="&#x3c0;" horiz-adv-x="1378" 
d="M1318 770h-156v-770h-372v770h-216q0 -153 -35.5 -391.5t-82.5 -378.5h-366q44 171 77 392.5t33 357.5q0 20 -18 20h-142v264h1278v-264z" />
    <glyph glyph-name="uni1E0C" unicode="&#x1e0c;" horiz-adv-x="1488" 
d="M135 1446q457 0 520 -2q192 -7 336.5 -61.5t234 -150t133.5 -222t44 -282.5q0 -161 -46 -292.5t-136.5 -229.5t-235 -152t-332.5 -54h-518v1446zM524 1140v-834h141q46 0 91 14t89 46.5t77.5 80.5t54 122t20.5 165q0 195 -90 300.5t-242 105.5h-141zM525 -433v291h362
v-291h-362z" />
    <glyph glyph-name="uni1E0D" unicode="&#x1e0d;" horiz-adv-x="1238" 
d="M504 -20q-212 0 -328 146.5t-116 397.5q0 246 106.5 388t295.5 142q88 0 165 -32.5t121 -105.5v570h390v-1486h-275l-46 212q-76 -232 -313 -232zM596 252q152 0 152 272q0 256 -152 256q-72 0 -116 -60.5t-44 -195.5q0 -144 44 -208t116 -64zM364 -433v291h362v-291
h-362z" />
    <glyph glyph-name="uni1E24" unicode="&#x1e24;" horiz-adv-x="1547" 
d="M1023 580h-499v-580h-389v1446h389v-548h499v548h389v-1446h-389v580zM594 -433v291h362v-291h-362z" />
    <glyph glyph-name="uni1E25" unicode="&#x1e25;" horiz-adv-x="1213" 
d="M100 0v1486h389v-599q51 63 82 87q77 60 191 60q99 0 179.5 -38.5t131 -118.5t50.5 -189v-688h-390v638q0 48 -37 75t-85 27q-47 0 -84.5 -29.5t-37.5 -77.5v-633h-389zM433 -433v291h362v-291h-362z" />
    <glyph glyph-name="uni1E44" unicode="&#x1e44;" horiz-adv-x="1615" 
d="M625 1567v291h362v-291h-362zM1091 1446h389v-1446h-351l-605 862v-862h-389v1446h392l564 -806v806z" />
    <glyph glyph-name="uni1E45" unicode="&#x1e45;" horiz-adv-x="1215" 
d="M429 1155v291h362v-291h-362zM100 0v1034h385v-143q43 64 107 105.5t172 41.5q71 0 133.5 -20t114.5 -60t82.5 -109.5t30.5 -160.5v-688h-390v635q0 48 -36.5 76.5t-83.5 28.5t-86.5 -28.5t-39.5 -76.5v-635h-389z" />
    <glyph glyph-name="uni1E5A" unicode="&#x1e5a;" horiz-adv-x="1427" 
d="M1337 0h-399l-210 498h-204v-498h-389v1446h656q137 0 239.5 -35.5t163 -100t89.5 -147t29 -183.5q0 -107 -30.5 -189.5t-78.5 -134.5t-120 -96zM747 788q73 0 123.5 57.5t50.5 130.5q0 74 -53.5 128t-120.5 54h-223v-370h223zM539 -433v291h362v-291h-362z" />
    <glyph glyph-name="uni1E5B" unicode="&#x1e5b;" horiz-adv-x="863" 
d="M100 0v1034h376v-286q39 136 125.5 221t221.5 85h15v-368q-1 0 -13 2q-62 8 -110 4.5t-83.5 -10.5t-60.5 -23t-41 -32.5t-25 -40t-12.5 -44.5t-3.5 -46v-496h-389zM113 -433v291h362v-291h-362z" />
    <glyph glyph-name="uni1E62" unicode="&#x1e62;" horiz-adv-x="1424" 
d="M726 -20q-91 0 -178.5 17.5t-168.5 55t-143.5 90.5t-103 129.5t-47.5 167.5h396q17 -77 80.5 -119.5t162.5 -42.5q65 0 114.5 11t84.5 42t35 79q0 21 -8.5 38.5t-27.5 30t-37 21t-51 16.5t-53.5 11.5t-60.5 10.5l-221 38q-171 28 -270 137t-103 289q-2 142 79 248.5
t215 160t300 53.5q290 0 451.5 -125t166.5 -331h-386q-9 82 -65 119t-159 37q-102 0 -148 -34t-46 -80q0 -52 33 -81t122 -45l222 -38q85 -15 153.5 -42t113.5 -58t77.5 -72.5t49.5 -78t27 -81.5t12.5 -75.5t2.5 -68.5q0 -184 -177.5 -307t-443.5 -123zM540 -433v291h362
v-291h-362z" />
    <glyph glyph-name="uni1E63" unicode="&#x1e63;" horiz-adv-x="1092" 
d="M556 -20q-84 0 -163 21t-149 63.5t-119 115.5t-65 168h330q9 -35 31 -59.5t49 -34.5t47 -14t37 -4q67 0 106 15.5t39 46.5q0 29 -27.5 45.5t-96.5 26.5l-153 24q-329 60 -332 316q-2 149 124 246.5t346 97.5q212 0 336 -92.5t124 -249.5h-317q-11 45 -51.5 68.5
t-96.5 23.5t-92.5 -16.5t-36.5 -45.5q0 -27 35.5 -43.5t119.5 -30.5l133 -24q76 -18 134 -50t91 -66.5t53.5 -75t27 -71.5t6.5 -61q0 -161 -132 -250.5t-338 -89.5zM378 -433v291h362v-291h-362z" />
    <glyph glyph-name="uni1E6C" unicode="&#x1e6c;" horiz-adv-x="1274" 
d="M30 1104v342h1214v-342h-414v-1104h-390v1104h-410zM474 -433v291h362v-291h-362z" />
    <glyph glyph-name="uni1E6D" unicode="&#x1e6d;" horiz-adv-x="882" 
d="M812 770h-226l2 -468q0 -56 62 -56h162v-230q-64 -32 -206 -32q-118 0 -200.5 23t-126.5 65.5t-62.5 93.5t-18.5 118v486h-168v264h182l100 322h274v-320h226v-266zM326 -415v291h362v-291h-362z" />
    <glyph glyph-name="Wgrave" unicode="&#x1e80;" horiz-adv-x="1964" 
d="M902 1858l206 -291h-272l-317 291h383zM1934 1446l-432 -1446h-290l-230 786l-230 -786h-286l-436 1446h376l224 -776l216 776h272l224 -776l216 776h376z" />
    <glyph glyph-name="wgrave" unicode="&#x1e81;" horiz-adv-x="1595" 
d="M726 1446l206 -291h-272l-317 291h383zM1586 1034l-364 -1034h-279l-154 502l-163 -502h-267l-349 1034h338l162 -502l151 502h271l147 -504l160 504h347z" />
    <glyph glyph-name="Wacute" unicode="&#x1e82;" horiz-adv-x="1964" 
d="M1053 1858h383l-317 -291h-272zM1934 1446l-432 -1446h-290l-230 786l-230 -786h-286l-436 1446h376l224 -776l216 776h272l224 -776l216 776h376z" />
    <glyph glyph-name="wacute" unicode="&#x1e83;" horiz-adv-x="1595" 
d="M877 1446h383l-317 -291h-272zM1586 1034l-364 -1034h-279l-154 502l-163 -502h-267l-349 1034h338l162 -502l151 502h271l147 -504l160 504h347z" />
    <glyph glyph-name="Wdieresis" unicode="&#x1e84;" horiz-adv-x="1964" 
d="M1069 1567l4 291h358l-4 -291h-358zM533 1567l4 291h358l-4 -291h-358zM1934 1446l-432 -1446h-290l-230 786l-230 -786h-286l-436 1446h376l224 -776l216 776h272l224 -776l216 776h376z" />
    <glyph glyph-name="wdieresis" unicode="&#x1e85;" horiz-adv-x="1595" 
d="M893 1155l4 291h358l-4 -291h-358zM357 1155l4 291h358l-4 -291h-358zM1586 1034l-364 -1034h-279l-154 502l-163 -502h-267l-349 1034h338l162 -502l151 502h271l147 -504l160 504h347z" />
    <glyph glyph-name="uni1E92" unicode="&#x1e92;" horiz-adv-x="1399" 
d="M90 0v178l681 948h-618v320h1178v-170l-695 -952h683v-324h-1229zM536 -433v291h362v-291h-362z" />
    <glyph glyph-name="uni1E93" unicode="&#x1e93;" horiz-adv-x="1021" 
d="M50 0v206l444 562h-417v266h892v-206l-445 -562h447v-266h-921zM330 -433v291h362v-291h-362z" />
    <glyph glyph-name="uni1EA0" unicode="&#x1ea0;" horiz-adv-x="1482" 
d="M30 0l512 1446h398l512 -1446h-384l-96 280h-456l-98 -280h-388zM598 612h286l-142 462zM562 -433v291h362v-291h-362z" />
    <glyph glyph-name="uni1EA1" unicode="&#x1ea1;" horiz-adv-x="1157" 
d="M423 -20q-153 0 -255 87.5t-102 242.5q0 172 136 263t413 91h80v44q0 97 -114 94q-121 -4 -160 -90h-315q5 118 74 196.5t174.5 112t244.5 33.5q132 0 224.5 -23t145 -67.5t75.5 -100.5t23 -131v-732h-322l-34 164q-45 -102 -112 -143t-176 -41zM560 226q55 0 94 37
t41 87v130h-62q-27 0 -58.5 -6.5t-65.5 -20t-56 -40.5t-22 -63q0 -56 38 -90t91 -34zM417 -433v291h362v-291h-362z" />
    <glyph glyph-name="uni1EA2" unicode="&#x1ea2;" horiz-adv-x="1482" 
d="M598 1955q99 61 195 45.5t147 -95.5q62 -92 39 -182.5t-133 -155.5l-82 130q78 49 36 118q-16 27 -52.5 31t-67.5 -17zM30 0l512 1446h398l512 -1446h-384l-96 280h-456l-98 -280h-388zM598 612h286l-142 462z" />
    <glyph glyph-name="uni1EA3" unicode="&#x1ea3;" horiz-adv-x="1157" 
d="M460 1543q99 61 195 45.5t147 -95.5q62 -92 39 -182.5t-133 -155.5l-82 130q78 49 36 118q-16 27 -52.5 31t-67.5 -17zM423 -20q-153 0 -255 87.5t-102 242.5q0 172 136 263t413 91h80v44q0 97 -114 94q-121 -4 -160 -90h-315q5 118 74 196.5t174.5 112t244.5 33.5
q132 0 224.5 -23t145 -67.5t75.5 -100.5t23 -131v-732h-322l-34 164q-45 -102 -112 -143t-176 -41zM560 226q55 0 94 37t41 87v130h-62q-27 0 -58.5 -6.5t-65.5 -20t-56 -40.5t-22 -63q0 -56 38 -90t91 -34z" />
    <glyph glyph-name="uni1EA4" unicode="&#x1ea4;" horiz-adv-x="1482" 
d="M1165 2109h272l-247 -278h-182zM864 1567l-124 149l-142 -149h-264l276 291h264l268 -291h-278zM30 0l512 1446h398l512 -1446h-384l-96 280h-456l-98 -280h-388zM598 612h286l-142 462z" />
    <glyph glyph-name="uni1EA5" unicode="&#x1ea5;" horiz-adv-x="1157" 
d="M1027 1697h272l-247 -278h-182zM726 1155l-124 149l-142 -149h-264l276 291h264l268 -291h-278zM423 -20q-153 0 -255 87.5t-102 242.5q0 172 136 263t413 91h80v44q0 97 -114 94q-121 -4 -160 -90h-315q5 118 74 196.5t174.5 112t244.5 33.5q132 0 224.5 -23t145 -67.5
t75.5 -100.5t23 -131v-732h-322l-34 164q-45 -102 -112 -143t-176 -41zM560 226q55 0 94 37t41 87v130h-62q-27 0 -58.5 -6.5t-65.5 -20t-56 -40.5t-22 -63q0 -56 38 -90t91 -34z" />
    <glyph glyph-name="uni1EA6" unicode="&#x1ea6;" horiz-adv-x="1482" 
d="M1118 2107l156 -278h-189l-241 278h274zM864 1567l-124 149l-142 -149h-264l276 291h264l268 -291h-278zM30 0l512 1446h398l512 -1446h-384l-96 280h-456l-98 -280h-388zM598 612h286l-142 462z" />
    <glyph glyph-name="uni1EA7" unicode="&#x1ea7;" horiz-adv-x="1157" 
d="M980 1695l156 -278h-189l-241 278h274zM726 1155l-124 149l-142 -149h-264l276 291h264l268 -291h-278zM423 -20q-153 0 -255 87.5t-102 242.5q0 172 136 263t413 91h80v44q0 97 -114 94q-121 -4 -160 -90h-315q5 118 74 196.5t174.5 112t244.5 33.5q132 0 224.5 -23
t145 -67.5t75.5 -100.5t23 -131v-732h-322l-34 164q-45 -102 -112 -143t-176 -41zM560 226q55 0 94 37t41 87v130h-62q-27 0 -58.5 -6.5t-65.5 -20t-56 -40.5t-22 -63q0 -56 38 -90t91 -34z" />
    <glyph glyph-name="uni1EA8" unicode="&#x1ea8;" horiz-adv-x="1482" 
d="M849 2175q99 61 195 45.5t147 -95.5q62 -92 39 -182.5t-133 -155.5l-82 130q78 49 36 118q-16 27 -52.5 31t-67.5 -17zM873 1567l-124 149l-142 -149h-264l276 291h264l268 -291h-278zM30 0l512 1446h398l512 -1446h-384l-96 280h-456l-98 -280h-388zM598 612h286
l-142 462z" />
    <glyph glyph-name="uni1EA9" unicode="&#x1ea9;" horiz-adv-x="1157" 
d="M711 1763q99 61 195 45.5t147 -95.5q62 -92 39 -182.5t-133 -155.5l-82 130q78 49 36 118q-16 27 -52.5 31t-67.5 -17zM735 1155l-124 149l-142 -149h-264l276 291h264l268 -291h-278zM423 -20q-153 0 -255 87.5t-102 242.5q0 172 136 263t413 91h80v44q0 97 -114 94
q-121 -4 -160 -90h-315q5 118 74 196.5t174.5 112t244.5 33.5q132 0 224.5 -23t145 -67.5t75.5 -100.5t23 -131v-732h-322l-34 164q-45 -102 -112 -143t-176 -41zM560 226q55 0 94 37t41 87v130h-62q-27 0 -58.5 -6.5t-65.5 -20t-56 -40.5t-22 -63q0 -56 38 -90t91 -34z" />
    <glyph glyph-name="uni1EAA" unicode="&#x1eaa;" horiz-adv-x="1482" 
d="M1124 2029q-39 -34 -100.5 -57.5t-127.5 -23.5q-58 0 -159 29.5t-157 29.5q-51 0 -88.5 -15.5t-83.5 -56.5l-54 192q45 51 94.5 79t121.5 28q66 0 174 -33.5t150 -33.5q87 0 190 82zM868 1567l-124 149l-142 -149h-264l276 291h264l268 -291h-278zM30 0l512 1446h398
l512 -1446h-384l-96 280h-456l-98 -280h-388zM598 612h286l-142 462z" />
    <glyph glyph-name="uni1EAB" unicode="&#x1eab;" horiz-adv-x="1157" 
d="M986 1617q-39 -34 -100.5 -57.5t-127.5 -23.5q-58 0 -159 29.5t-157 29.5q-51 0 -88.5 -15.5t-83.5 -56.5l-54 192q45 51 94.5 79t121.5 28q66 0 174 -33.5t150 -33.5q87 0 190 82zM730 1155l-124 149l-142 -149h-264l276 291h264l268 -291h-278zM423 -20
q-153 0 -255 87.5t-102 242.5q0 172 136 263t413 91h80v44q0 97 -114 94q-121 -4 -160 -90h-315q5 118 74 196.5t174.5 112t244.5 33.5q132 0 224.5 -23t145 -67.5t75.5 -100.5t23 -131v-732h-322l-34 164q-45 -102 -112 -143t-176 -41zM560 226q55 0 94 37t41 87v130h-62
q-27 0 -58.5 -6.5t-65.5 -20t-56 -40.5t-22 -63q0 -56 38 -90t91 -34z" />
    <glyph glyph-name="uni1EAC" unicode="&#x1eac;" horiz-adv-x="1482" 
d="M864 1567l-124 149l-142 -149h-264l276 291h264l268 -291h-278zM30 0l512 1446h398l512 -1446h-384l-96 280h-456l-98 -280h-388zM598 612h286l-142 462zM562 -433v291h362v-291h-362z" />
    <glyph glyph-name="uni1EAD" unicode="&#x1ead;" horiz-adv-x="1157" 
d="M726 1155l-124 149l-142 -149h-264l276 291h264l268 -291h-278zM423 -20q-153 0 -255 87.5t-102 242.5q0 172 136 263t413 91h80v44q0 97 -114 94q-121 -4 -160 -90h-315q5 118 74 196.5t174.5 112t244.5 33.5q132 0 224.5 -23t145 -67.5t75.5 -100.5t23 -131v-732h-322
l-34 164q-45 -102 -112 -143t-176 -41zM560 226q55 0 94 37t41 87v130h-62q-27 0 -58.5 -6.5t-65.5 -20t-56 -40.5t-22 -63q0 -56 38 -90t91 -34zM417 -433v291h362v-291h-362z" />
    <glyph glyph-name="uni1EAE" unicode="&#x1eae;" horiz-adv-x="1482" 
d="M805 2221h272l-247 -278h-182zM1136 1858q-28 -140 -138 -215t-256 -75q-147 0 -256.5 75t-137.5 215h230q15 -53 57.5 -84.5t106.5 -31.5q63 0 106 31.5t59 84.5h229zM30 0l512 1446h398l512 -1446h-384l-96 280h-456l-98 -280h-388zM598 612h286l-142 462z" />
    <glyph glyph-name="uni1EAF" unicode="&#x1eaf;" horiz-adv-x="1157" 
d="M667 1809h272l-247 -278h-182zM998 1446q-28 -140 -138 -215t-256 -75q-147 0 -256.5 75t-137.5 215h230q15 -53 57.5 -84.5t106.5 -31.5q63 0 106 31.5t59 84.5h229zM423 -20q-153 0 -255 87.5t-102 242.5q0 172 136 263t413 91h80v44q0 97 -114 94q-121 -4 -160 -90
h-315q5 118 74 196.5t174.5 112t244.5 33.5q132 0 224.5 -23t145 -67.5t75.5 -100.5t23 -131v-732h-322l-34 164q-45 -102 -112 -143t-176 -41zM560 226q55 0 94 37t41 87v130h-62q-27 0 -58.5 -6.5t-65.5 -20t-56 -40.5t-22 -63q0 -56 38 -90t91 -34z" />
    <glyph glyph-name="uni1EB0" unicode="&#x1eb0;" horiz-adv-x="1482" 
d="M692 2221l156 -278h-189l-241 278h274zM1136 1858q-28 -140 -138 -215t-256 -75q-147 0 -256.5 75t-137.5 215h230q15 -53 57.5 -84.5t106.5 -31.5q63 0 106 31.5t59 84.5h229zM30 0l512 1446h398l512 -1446h-384l-96 280h-456l-98 -280h-388zM598 612h286l-142 462z" />
    <glyph glyph-name="uni1EB1" unicode="&#x1eb1;" horiz-adv-x="1157" 
d="M554 1809l156 -278h-189l-241 278h274zM998 1446q-28 -140 -138 -215t-256 -75q-147 0 -256.5 75t-137.5 215h230q15 -53 57.5 -84.5t106.5 -31.5q63 0 106 31.5t59 84.5h229zM423 -20q-153 0 -255 87.5t-102 242.5q0 172 136 263t413 91h80v44q0 97 -114 94
q-121 -4 -160 -90h-315q5 118 74 196.5t174.5 112t244.5 33.5q132 0 224.5 -23t145 -67.5t75.5 -100.5t23 -131v-732h-322l-34 164q-45 -102 -112 -143t-176 -41zM560 226q55 0 94 37t41 87v130h-62q-27 0 -58.5 -6.5t-65.5 -20t-56 -40.5t-22 -63q0 -56 38 -90t91 -34z" />
    <glyph glyph-name="uni1EB2" unicode="&#x1eb2;" horiz-adv-x="1482" 
d="M604 2222q99 61 195 45.5t147 -95.5q62 -92 39 -182.5t-133 -155.5l-82 130q78 49 36 118q-16 27 -52.5 31t-67.5 -17zM1136 1858q-28 -140 -138 -215t-256 -75q-147 0 -256.5 75t-137.5 215h230q15 -53 57.5 -84.5t106.5 -31.5q63 0 106 31.5t59 84.5h229zM30 0
l512 1446h398l512 -1446h-384l-96 280h-456l-98 -280h-388zM598 612h286l-142 462z" />
    <glyph glyph-name="uni1EB3" unicode="&#x1eb3;" horiz-adv-x="1157" 
d="M466 1810q99 61 195 45.5t147 -95.5q62 -92 39 -182.5t-133 -155.5l-82 130q78 49 36 118q-16 27 -52.5 31t-67.5 -17zM998 1446q-28 -140 -138 -215t-256 -75q-147 0 -256.5 75t-137.5 215h230q15 -53 57.5 -84.5t106.5 -31.5q63 0 106 31.5t59 84.5h229zM423 -20
q-153 0 -255 87.5t-102 242.5q0 172 136 263t413 91h80v44q0 97 -114 94q-121 -4 -160 -90h-315q5 118 74 196.5t174.5 112t244.5 33.5q132 0 224.5 -23t145 -67.5t75.5 -100.5t23 -131v-732h-322l-34 164q-45 -102 -112 -143t-176 -41zM560 226q55 0 94 37t41 87v130h-62
q-27 0 -58.5 -6.5t-65.5 -20t-56 -40.5t-22 -63q0 -56 38 -90t91 -34z" />
    <glyph glyph-name="uni1EB4" unicode="&#x1eb4;" horiz-adv-x="1482" 
d="M1118 2029q-39 -34 -100.5 -57.5t-127.5 -23.5q-58 0 -159 29.5t-157 29.5q-51 0 -88.5 -15.5t-83.5 -56.5l-54 192q45 51 94.5 79t121.5 28q66 0 174 -33.5t150 -33.5q87 0 190 82zM1136 1858q-28 -140 -138 -215t-256 -75q-147 0 -256.5 75t-137.5 215h230
q15 -53 57.5 -84.5t106.5 -31.5q63 0 106 31.5t59 84.5h229zM30 0l512 1446h398l512 -1446h-384l-96 280h-456l-98 -280h-388zM598 612h286l-142 462z" />
    <glyph glyph-name="uni1EB5" unicode="&#x1eb5;" horiz-adv-x="1157" 
d="M980 1617q-39 -34 -100.5 -57.5t-127.5 -23.5q-58 0 -159 29.5t-157 29.5q-51 0 -88.5 -15.5t-83.5 -56.5l-54 192q45 51 94.5 79t121.5 28q66 0 174 -33.5t150 -33.5q87 0 190 82zM998 1446q-28 -140 -138 -215t-256 -75q-147 0 -256.5 75t-137.5 215h230
q15 -53 57.5 -84.5t106.5 -31.5q63 0 106 31.5t59 84.5h229zM423 -20q-153 0 -255 87.5t-102 242.5q0 172 136 263t413 91h80v44q0 97 -114 94q-121 -4 -160 -90h-315q5 118 74 196.5t174.5 112t244.5 33.5q132 0 224.5 -23t145 -67.5t75.5 -100.5t23 -131v-732h-322
l-34 164q-45 -102 -112 -143t-176 -41zM560 226q55 0 94 37t41 87v130h-62q-27 0 -58.5 -6.5t-65.5 -20t-56 -40.5t-22 -63q0 -56 38 -90t91 -34z" />
    <glyph glyph-name="uni1EB6" unicode="&#x1eb6;" horiz-adv-x="1482" 
d="M1136 1858q-28 -140 -138 -215t-256 -75q-147 0 -256.5 75t-137.5 215h230q15 -53 57.5 -84.5t106.5 -31.5q63 0 106 31.5t59 84.5h229zM30 0l512 1446h398l512 -1446h-384l-96 280h-456l-98 -280h-388zM598 612h286l-142 462zM562 -433v291h362v-291h-362z" />
    <glyph glyph-name="uni1EB7" unicode="&#x1eb7;" horiz-adv-x="1157" 
d="M998 1446q-28 -140 -138 -215t-256 -75q-147 0 -256.5 75t-137.5 215h230q15 -53 57.5 -84.5t106.5 -31.5q63 0 106 31.5t59 84.5h229zM423 -20q-153 0 -255 87.5t-102 242.5q0 172 136 263t413 91h80v44q0 97 -114 94q-121 -4 -160 -90h-315q5 118 74 196.5t174.5 112
t244.5 33.5q132 0 224.5 -23t145 -67.5t75.5 -100.5t23 -131v-732h-322l-34 164q-45 -102 -112 -143t-176 -41zM560 226q55 0 94 37t41 87v130h-62q-27 0 -58.5 -6.5t-65.5 -20t-56 -40.5t-22 -63q0 -56 38 -90t91 -34zM417 -433v291h362v-291h-362z" />
    <glyph glyph-name="uni1EB8" unicode="&#x1eb8;" horiz-adv-x="1295" 
d="M135 0v1446h1068l-2 -322h-674v-240h564v-314h-567v-246h681v-324h-1070zM489 -433v291h362v-291h-362z" />
    <glyph glyph-name="uni1EB9" unicode="&#x1eb9;" 
d="M448 428q-1 -88 40.5 -132t109.5 -44q59 0 99.5 22t62.5 78h344q-15 -111 -91 -197.5t-182.5 -130.5t-222.5 -44q-243 0 -392.5 144.5t-149.5 379.5q0 150 61 273.5t182.5 200t282.5 76.5q124 0 221.5 -40.5t159.5 -113t94.5 -169.5t32.5 -213v-90h-652zM446 646h295
q0 62 -39.5 104t-109.5 42q-60 0 -103 -43.5t-43 -102.5zM420 -433v291h362v-291h-362z" />
    <glyph glyph-name="uni1EBA" unicode="&#x1eba;" horiz-adv-x="1295" 
d="M525 1955q99 61 195 45.5t147 -95.5q62 -92 39 -182.5t-133 -155.5l-82 130q78 49 36 118q-16 27 -52.5 31t-67.5 -17zM135 0v1446h1068l-2 -322h-674v-240h564v-314h-567v-246h681v-324h-1070z" />
    <glyph glyph-name="uni1EBB" unicode="&#x1ebb;" 
d="M450 1543q99 61 195 45.5t147 -95.5q62 -92 39 -182.5t-133 -155.5l-82 130q78 49 36 118q-16 27 -52.5 31t-67.5 -17zM448 428q-1 -88 40.5 -132t109.5 -44q59 0 99.5 22t62.5 78h344q-15 -111 -91 -197.5t-182.5 -130.5t-222.5 -44q-243 0 -392.5 144.5t-149.5 379.5
q0 150 61 273.5t182.5 200t282.5 76.5q124 0 221.5 -40.5t159.5 -113t94.5 -169.5t32.5 -213v-90h-652zM446 646h295q0 62 -39.5 104t-109.5 42q-60 0 -103 -43.5t-43 -102.5z" />
    <glyph glyph-name="uni1EBC" unicode="&#x1ebc;" horiz-adv-x="1295" 
d="M1061 1671q-39 -34 -100.5 -57.5t-127.5 -23.5q-59 0 -160 29.5t-156 29.5q-51 0 -88.5 -15.5t-83.5 -56.5l-54 192q45 51 94.5 79t121.5 28q66 0 174 -33.5t150 -33.5q87 0 190 82zM135 0v1446h1068l-2 -322h-674v-240h564v-314h-567v-246h681v-324h-1070z" />
    <glyph glyph-name="uni1EBD" unicode="&#x1ebd;" 
d="M986 1259q-39 -34 -100.5 -57.5t-127.5 -23.5q-58 0 -159 29.5t-157 29.5q-51 0 -88.5 -15.5t-83.5 -56.5l-54 192q45 51 94.5 79t121.5 28q66 0 174 -33.5t150 -33.5q87 0 190 82zM448 428q-1 -88 40.5 -132t109.5 -44q59 0 99.5 22t62.5 78h344q-15 -111 -91 -197.5
t-182.5 -130.5t-222.5 -44q-243 0 -392.5 144.5t-149.5 379.5q0 150 61 273.5t182.5 200t282.5 76.5q124 0 221.5 -40.5t159.5 -113t94.5 -169.5t32.5 -213v-90h-652zM446 646h295q0 62 -39.5 104t-109.5 42q-60 0 -103 -43.5t-43 -102.5z" />
    <glyph glyph-name="uni1EBE" unicode="&#x1ebe;" horiz-adv-x="1295" 
d="M1092 2109h272l-247 -278h-182zM791 1567l-124 149l-142 -149h-264l276 291h264l268 -291h-278zM135 0v1446h1068l-2 -322h-674v-240h564v-314h-567v-246h681v-324h-1070z" />
    <glyph glyph-name="uni1EBF" unicode="&#x1ebf;" 
d="M1017 1697h272l-247 -278h-182zM716 1155l-124 149l-142 -149h-264l276 291h264l268 -291h-278zM448 428q-1 -88 40.5 -132t109.5 -44q59 0 99.5 22t62.5 78h344q-15 -111 -91 -197.5t-182.5 -130.5t-222.5 -44q-243 0 -392.5 144.5t-149.5 379.5q0 150 61 273.5
t182.5 200t282.5 76.5q124 0 221.5 -40.5t159.5 -113t94.5 -169.5t32.5 -213v-90h-652zM446 646h295q0 62 -39.5 104t-109.5 42q-60 0 -103 -43.5t-43 -102.5z" />
    <glyph glyph-name="uni1EC0" unicode="&#x1ec0;" horiz-adv-x="1295" 
d="M1045 2107l156 -278h-189l-241 278h274zM791 1567l-124 149l-142 -149h-264l276 291h264l268 -291h-278zM135 0v1446h1068l-2 -322h-674v-240h564v-314h-567v-246h681v-324h-1070z" />
    <glyph glyph-name="uni1EC1" unicode="&#x1ec1;" 
d="M970 1695l156 -278h-189l-241 278h274zM716 1155l-124 149l-142 -149h-264l276 291h264l268 -291h-278zM448 428q-1 -88 40.5 -132t109.5 -44q59 0 99.5 22t62.5 78h344q-15 -111 -91 -197.5t-182.5 -130.5t-222.5 -44q-243 0 -392.5 144.5t-149.5 379.5q0 150 61 273.5
t182.5 200t282.5 76.5q124 0 221.5 -40.5t159.5 -113t94.5 -169.5t32.5 -213v-90h-652zM446 646h295q0 62 -39.5 104t-109.5 42q-60 0 -103 -43.5t-43 -102.5z" />
    <glyph glyph-name="uni1EC2" unicode="&#x1ec2;" horiz-adv-x="1295" 
d="M776 2175q99 61 195 45.5t147 -95.5q62 -92 39 -182.5t-133 -155.5l-82 130q78 49 36 118q-16 27 -52.5 31t-67.5 -17zM800 1567l-124 149l-142 -149h-264l276 291h264l268 -291h-278zM135 0v1446h1068l-2 -322h-674v-240h564v-314h-567v-246h681v-324h-1070z" />
    <glyph glyph-name="uni1EC3" unicode="&#x1ec3;" 
d="M701 1763q99 61 195 45.5t147 -95.5q62 -92 39 -182.5t-133 -155.5l-82 130q78 49 36 118q-16 27 -52.5 31t-67.5 -17zM725 1155l-124 149l-142 -149h-264l276 291h264l268 -291h-278zM448 428q-1 -88 40.5 -132t109.5 -44q59 0 99.5 22t62.5 78h344q-15 -111 -91 -197.5
t-182.5 -130.5t-222.5 -44q-243 0 -392.5 144.5t-149.5 379.5q0 150 61 273.5t182.5 200t282.5 76.5q124 0 221.5 -40.5t159.5 -113t94.5 -169.5t32.5 -213v-90h-652zM446 646h295q0 62 -39.5 104t-109.5 42q-60 0 -103 -43.5t-43 -102.5z" />
    <glyph glyph-name="uni1EC4" unicode="&#x1ec4;" horiz-adv-x="1295" 
d="M1051 2029q-39 -34 -100.5 -57.5t-127.5 -23.5q-59 0 -160 29.5t-156 29.5q-51 0 -88.5 -15.5t-83.5 -56.5l-54 192q45 51 94.5 79t121.5 28q66 0 174 -33.5t150 -33.5q87 0 190 82zM795 1567l-124 149l-142 -149h-264l276 291h264l268 -291h-278zM135 0v1446h1068
l-2 -322h-674v-240h564v-314h-567v-246h681v-324h-1070z" />
    <glyph glyph-name="uni1EC5" unicode="&#x1ec5;" 
d="M976 1617q-39 -34 -100.5 -57.5t-127.5 -23.5q-58 0 -159.5 29.5t-156.5 29.5q-51 0 -88.5 -15.5t-83.5 -56.5l-54 192q45 51 94.5 79t121.5 28q66 0 174 -33.5t150 -33.5q87 0 190 82zM720 1155l-124 149l-142 -149h-264l276 291h264l268 -291h-278zM448 428
q-1 -88 40.5 -132t109.5 -44q59 0 99.5 22t62.5 78h344q-15 -111 -91 -197.5t-182.5 -130.5t-222.5 -44q-243 0 -392.5 144.5t-149.5 379.5q0 150 61 273.5t182.5 200t282.5 76.5q124 0 221.5 -40.5t159.5 -113t94.5 -169.5t32.5 -213v-90h-652zM446 646h295q0 62 -39.5 104
t-109.5 42q-60 0 -103 -43.5t-43 -102.5z" />
    <glyph glyph-name="uni1EC6" unicode="&#x1ec6;" horiz-adv-x="1295" 
d="M791 1567l-124 149l-142 -149h-264l276 291h264l268 -291h-278zM135 0v1446h1068l-2 -322h-674v-240h564v-314h-567v-246h681v-324h-1070zM489 -433v291h362v-291h-362z" />
    <glyph glyph-name="uni1EC7" unicode="&#x1ec7;" 
d="M716 1155l-124 149l-142 -149h-264l276 291h264l268 -291h-278zM448 428q-1 -88 40.5 -132t109.5 -44q59 0 99.5 22t62.5 78h344q-15 -111 -91 -197.5t-182.5 -130.5t-222.5 -44q-243 0 -392.5 144.5t-149.5 379.5q0 150 61 273.5t182.5 200t282.5 76.5
q124 0 221.5 -40.5t159.5 -113t94.5 -169.5t32.5 -213v-90h-652zM446 646h295q0 62 -39.5 104t-109.5 42q-60 0 -103 -43.5t-43 -102.5zM420 -433v291h362v-291h-362z" />
    <glyph glyph-name="uni1EC8" unicode="&#x1ec8;" horiz-adv-x="659" 
d="M187 1955q99 61 195 45.5t147 -95.5q62 -92 39 -182.5t-133 -155.5l-82 130q78 49 36 118q-16 27 -52.5 31t-67.5 -17zM135 1446h389v-1446h-389v1446z" />
    <glyph glyph-name="uni1EC9" unicode="&#x1ec9;" horiz-adv-x="571" 
d="M148 1543q99 61 195 45.5t147 -95.5q62 -92 39 -182.5t-133 -155.5l-82 130q78 49 36 118q-16 27 -52.5 31t-67.5 -17zM471 1034v-1034h-371v1034h371z" />
    <glyph glyph-name="uni1ECA" unicode="&#x1eca;" horiz-adv-x="659" 
d="M135 1446h389v-1446h-389v1446zM171 -433v291h362v-291h-362z" />
    <glyph glyph-name="uni1ECB" unicode="&#x1ecb;" horiz-adv-x="570" 
d="M470 1446v-328h-370v328h370zM470 1034v-1034h-370v1034h370zM105 -433v291h362v-291h-362z" />
    <glyph glyph-name="uni1ECC" unicode="&#x1ecc;" horiz-adv-x="1570" 
d="M787 -20q-322 0 -512 201t-190 539t192.5 542t509.5 204q316 0 507 -204t191 -542q0 -337 -189.5 -538.5t-508.5 -201.5zM787 292q276 0 276 422q0 230 -74 335t-202 105t-202.5 -105t-74.5 -335q0 -422 277 -422zM609 -433v291h362v-291h-362z" />
    <glyph glyph-name="uni1ECD" unicode="&#x1ecd;" 
d="M584 -20q-238 0 -381 147.5t-143 382.5q0 243 147 393.5t379 150.5q239 0 381.5 -152.5t142.5 -391.5q0 -234 -143.5 -382t-382.5 -148zM586 262q44 0 74.5 24.5t45 66.5t20.5 83t6 88q0 252 -146 252q-148 0 -148 -252q0 -47 6 -88t20.5 -83t45.5 -66.5t76 -24.5z
M399 -433v291h362v-291h-362z" />
    <glyph glyph-name="uni1ECE" unicode="&#x1ece;" horiz-adv-x="1570" 
d="M641 1955q99 61 195 45.5t147 -95.5q62 -92 39 -182.5t-133 -155.5l-82 130q78 49 36 118q-16 27 -52.5 31t-67.5 -17zM787 -20q-322 0 -512 201t-190 539t192.5 542t509.5 204q316 0 507 -204t191 -542q0 -337 -189.5 -538.5t-508.5 -201.5zM787 292q276 0 276 422
q0 230 -74 335t-202 105t-202.5 -105t-74.5 -335q0 -422 277 -422z" />
    <glyph glyph-name="uni1ECF" unicode="&#x1ecf;" 
d="M442 1543q99 61 195 45.5t147 -95.5q62 -92 39 -182.5t-133 -155.5l-82 130q78 49 36 118q-16 27 -52.5 31t-67.5 -17zM584 -20q-238 0 -381 147.5t-143 382.5q0 243 147 393.5t379 150.5q239 0 381.5 -152.5t142.5 -391.5q0 -234 -143.5 -382t-382.5 -148zM586 262
q44 0 74.5 24.5t45 66.5t20.5 83t6 88q0 252 -146 252q-148 0 -148 -252q0 -47 6 -88t20.5 -83t45.5 -66.5t76 -24.5z" />
    <glyph glyph-name="uni1ED0" unicode="&#x1ed0;" horiz-adv-x="1570" 
d="M1208 2109h272l-247 -278h-182zM907 1567l-124 149l-142 -149h-264l276 291h264l268 -291h-278zM787 -20q-322 0 -512 201t-190 539t192.5 542t509.5 204q316 0 507 -204t191 -542q0 -337 -189.5 -538.5t-508.5 -201.5zM787 292q276 0 276 422q0 230 -74 335t-202 105
t-202.5 -105t-74.5 -335q0 -422 277 -422z" />
    <glyph glyph-name="uni1ED1" unicode="&#x1ed1;" 
d="M1009 1697h272l-247 -278h-182zM708 1155l-124 149l-142 -149h-264l276 291h264l268 -291h-278zM584 -20q-238 0 -381 147.5t-143 382.5q0 243 147 393.5t379 150.5q239 0 381.5 -152.5t142.5 -391.5q0 -234 -143.5 -382t-382.5 -148zM586 262q44 0 74.5 24.5t45 66.5
t20.5 83t6 88q0 252 -146 252q-148 0 -148 -252q0 -47 6 -88t20.5 -83t45.5 -66.5t76 -24.5z" />
    <glyph glyph-name="uni1ED2" unicode="&#x1ed2;" horiz-adv-x="1570" 
d="M1161 2107l156 -278h-189l-241 278h274zM907 1567l-124 149l-142 -149h-264l276 291h264l268 -291h-278zM787 -20q-322 0 -512 201t-190 539t192.5 542t509.5 204q316 0 507 -204t191 -542q0 -337 -189.5 -538.5t-508.5 -201.5zM787 292q276 0 276 422q0 230 -74 335
t-202 105t-202.5 -105t-74.5 -335q0 -422 277 -422z" />
    <glyph glyph-name="uni1ED3" unicode="&#x1ed3;" 
d="M962 1695l156 -278h-189l-241 278h274zM708 1155l-124 149l-142 -149h-264l276 291h264l268 -291h-278zM584 -20q-238 0 -381 147.5t-143 382.5q0 243 147 393.5t379 150.5q239 0 381.5 -152.5t142.5 -391.5q0 -234 -143.5 -382t-382.5 -148zM586 262q44 0 74.5 24.5
t45 66.5t20.5 83t6 88q0 252 -146 252q-148 0 -148 -252q0 -47 6 -88t20.5 -83t45.5 -66.5t76 -24.5z" />
    <glyph glyph-name="uni1ED4" unicode="&#x1ed4;" horiz-adv-x="1570" 
d="M892 2175q99 61 195 45.5t147 -95.5q62 -92 39 -182.5t-133 -155.5l-82 130q78 49 36 118q-16 27 -52.5 31t-67.5 -17zM916 1567l-124 149l-142 -149h-264l276 291h264l268 -291h-278zM787 -20q-322 0 -512 201t-190 539t192.5 542t509.5 204q316 0 507 -204t191 -542
q0 -337 -189.5 -538.5t-508.5 -201.5zM787 292q276 0 276 422q0 230 -74 335t-202 105t-202.5 -105t-74.5 -335q0 -422 277 -422z" />
    <glyph glyph-name="uni1ED5" unicode="&#x1ed5;" 
d="M693 1763q99 61 195 45.5t147 -95.5q62 -92 39 -182.5t-133 -155.5l-82 130q78 49 36 118q-16 27 -52.5 31t-67.5 -17zM717 1155l-124 149l-142 -149h-264l276 291h264l268 -291h-278zM584 -20q-238 0 -381 147.5t-143 382.5q0 243 147 393.5t379 150.5
q239 0 381.5 -152.5t142.5 -391.5q0 -234 -143.5 -382t-382.5 -148zM586 262q44 0 74.5 24.5t45 66.5t20.5 83t6 88q0 252 -146 252q-148 0 -148 -252q0 -47 6 -88t20.5 -83t45.5 -66.5t76 -24.5z" />
    <glyph glyph-name="uni1ED6" unicode="&#x1ed6;" horiz-adv-x="1570" 
d="M1167 2029q-39 -34 -100.5 -57.5t-127.5 -23.5q-59 0 -160 29.5t-156 29.5q-51 0 -88.5 -15.5t-83.5 -56.5l-54 192q45 51 94.5 79t121.5 28q66 0 174 -33.5t150 -33.5q87 0 190 82zM911 1567l-124 149l-142 -149h-264l276 291h264l268 -291h-278zM787 -20
q-322 0 -512 201t-190 539t192.5 542t509.5 204q316 0 507 -204t191 -542q0 -337 -189.5 -538.5t-508.5 -201.5zM787 292q276 0 276 422q0 230 -74 335t-202 105t-202.5 -105t-74.5 -335q0 -422 277 -422z" />
    <glyph glyph-name="uni1ED7" unicode="&#x1ed7;" 
d="M968 1617q-39 -34 -100.5 -57.5t-127.5 -23.5q-58 0 -159 29.5t-157 29.5q-51 0 -88.5 -15.5t-83.5 -56.5l-54 192q45 51 94.5 79t121.5 28q66 0 174 -33.5t150 -33.5q87 0 190 82zM712 1155l-124 149l-142 -149h-264l276 291h264l268 -291h-278zM584 -20
q-238 0 -381 147.5t-143 382.5q0 243 147 393.5t379 150.5q239 0 381.5 -152.5t142.5 -391.5q0 -234 -143.5 -382t-382.5 -148zM586 262q44 0 74.5 24.5t45 66.5t20.5 83t6 88q0 252 -146 252q-148 0 -148 -252q0 -47 6 -88t20.5 -83t45.5 -66.5t76 -24.5z" />
    <glyph glyph-name="uni1ED8" unicode="&#x1ed8;" horiz-adv-x="1570" 
d="M907 1567l-124 149l-142 -149h-264l276 291h264l268 -291h-278zM787 -20q-322 0 -512 201t-190 539t192.5 542t509.5 204q316 0 507 -204t191 -542q0 -337 -189.5 -538.5t-508.5 -201.5zM787 292q276 0 276 422q0 230 -74 335t-202 105t-202.5 -105t-74.5 -335
q0 -422 277 -422zM609 -433v291h362v-291h-362z" />
    <glyph glyph-name="uni1ED9" unicode="&#x1ed9;" 
d="M708 1155l-124 149l-142 -149h-264l276 291h264l268 -291h-278zM584 -20q-238 0 -381 147.5t-143 382.5q0 243 147 393.5t379 150.5q239 0 381.5 -152.5t142.5 -391.5q0 -234 -143.5 -382t-382.5 -148zM586 262q44 0 74.5 24.5t45 66.5t20.5 83t6 88q0 252 -146 252
q-148 0 -148 -252q0 -47 6 -88t20.5 -83t45.5 -66.5t76 -24.5zM399 -433v291h362v-291h-362z" />
    <glyph glyph-name="uni1EDA" unicode="&#x1eda;" horiz-adv-x="1760" 
d="M856 1858h383l-317 -291h-272zM787 -20q-322 0 -512 201t-190 539t192.5 542t509.5 204q308 0 497 -194q42 -1 73.5 -0.5t55 9t40 32t27 66.5t16.5 113h234q-2 -219 -70 -312t-249 -94q74 -160 74 -366q0 -337 -189.5 -538.5t-508.5 -201.5zM787 292q276 0 276 422
q0 230 -74 335t-202 105t-202.5 -105t-74.5 -335q0 -422 277 -422z" />
    <glyph glyph-name="uni1EDB" unicode="&#x1edb;" horiz-adv-x="1354" 
d="M640 1446h383l-317 -291h-272zM584 -20q-238 0 -381 147.5t-143 382.5q0 243 147 393.5t379 150.5q246 0 391 -163q32 0 50 1.5t39 8.5t32.5 21t23 38.5t17.5 61.5t11 90h234q-2 -215 -66.5 -307.5t-236.5 -97.5q29 -93 29 -197q0 -234 -143.5 -382t-382.5 -148zM586 262
q44 0 74.5 24.5t45 66.5t20.5 83t6 88q0 252 -146 252q-148 0 -148 -252q0 -47 6 -88t20.5 -83t45.5 -66.5t76 -24.5z" />
    <glyph glyph-name="uni1EDC" unicode="&#x1edc;" horiz-adv-x="1760" 
d="M705 1858l206 -291h-272l-317 291h383zM787 -20q-322 0 -512 201t-190 539t192.5 542t509.5 204q308 0 497 -194q42 -1 73.5 -0.5t55 9t40 32t27 66.5t16.5 113h234q-2 -219 -70 -312t-249 -94q74 -160 74 -366q0 -337 -189.5 -538.5t-508.5 -201.5zM787 292
q276 0 276 422q0 230 -74 335t-202 105t-202.5 -105t-74.5 -335q0 -422 277 -422z" />
    <glyph glyph-name="uni1EDD" unicode="&#x1edd;" horiz-adv-x="1354" 
d="M494 1446l206 -291h-272l-317 291h383zM584 -20q-238 0 -381 147.5t-143 382.5q0 243 147 393.5t379 150.5q246 0 391 -163q32 0 50 1.5t39 8.5t32.5 21t23 38.5t17.5 61.5t11 90h234q-2 -215 -66.5 -307.5t-236.5 -97.5q29 -93 29 -197q0 -234 -143.5 -382t-382.5 -148z
M586 262q44 0 74.5 24.5t45 66.5t20.5 83t6 88q0 252 -146 252q-148 0 -148 -252q0 -47 6 -88t20.5 -83t45.5 -66.5t76 -24.5z" />
    <glyph glyph-name="uni1EDE" unicode="&#x1ede;" horiz-adv-x="1760" 
d="M641 1955q99 61 195 45.5t147 -95.5q62 -92 39 -182.5t-133 -155.5l-82 130q78 49 36 118q-16 27 -52.5 31t-67.5 -17zM787 -20q-322 0 -512 201t-190 539t192.5 542t509.5 204q308 0 497 -194q42 -1 73.5 -0.5t55 9t40 32t27 66.5t16.5 113h234q-2 -219 -70 -312
t-249 -94q74 -160 74 -366q0 -337 -189.5 -538.5t-508.5 -201.5zM787 292q276 0 276 422q0 230 -74 335t-202 105t-202.5 -105t-74.5 -335q0 -422 277 -422z" />
    <glyph glyph-name="uni1EDF" unicode="&#x1edf;" horiz-adv-x="1354" 
d="M422 1543q99 61 195 45.5t147 -95.5q62 -92 39 -182.5t-133 -155.5l-82 130q78 49 36 118q-16 27 -52.5 31t-67.5 -17zM584 -20q-238 0 -381 147.5t-143 382.5q0 243 147 393.5t379 150.5q246 0 391 -163q32 0 50 1.5t39 8.5t32.5 21t23 38.5t17.5 61.5t11 90h234
q-2 -215 -66.5 -307.5t-236.5 -97.5q29 -93 29 -197q0 -234 -143.5 -382t-382.5 -148zM586 262q44 0 74.5 24.5t45 66.5t20.5 83t6 88q0 252 -146 252q-148 0 -148 -252q0 -47 6 -88t20.5 -83t45.5 -66.5t76 -24.5z" />
    <glyph glyph-name="uni1EE0" unicode="&#x1ee0;" horiz-adv-x="1760" 
d="M1177 1671q-39 -34 -100.5 -57.5t-127.5 -23.5q-58 0 -159.5 29.5t-156.5 29.5q-51 0 -88.5 -15.5t-83.5 -56.5l-54 192q45 51 94.5 79t121.5 28q66 0 174 -33.5t150 -33.5q87 0 190 82zM787 -20q-322 0 -512 201t-190 539t192.5 542t509.5 204q308 0 497 -194
q42 -1 73.5 -0.5t55 9t40 32t27 66.5t16.5 113h234q-2 -219 -70 -312t-249 -94q74 -160 74 -366q0 -337 -189.5 -538.5t-508.5 -201.5zM787 292q276 0 276 422q0 230 -74 335t-202 105t-202.5 -105t-74.5 -335q0 -422 277 -422z" />
    <glyph glyph-name="uni1EE1" unicode="&#x1ee1;" horiz-adv-x="1354" 
d="M958 1259q-39 -34 -100.5 -57.5t-127.5 -23.5q-58 0 -159 29.5t-157 29.5q-51 0 -88.5 -15.5t-83.5 -56.5l-54 192q45 51 94.5 79t121.5 28q66 0 174 -33.5t150 -33.5q87 0 190 82zM584 -20q-238 0 -381 147.5t-143 382.5q0 243 147 393.5t379 150.5q246 0 391 -163
q32 0 50 1.5t39 8.5t32.5 21t23 38.5t17.5 61.5t11 90h234q-2 -215 -66.5 -307.5t-236.5 -97.5q29 -93 29 -197q0 -234 -143.5 -382t-382.5 -148zM586 262q44 0 74.5 24.5t45 66.5t20.5 83t6 88q0 252 -146 252q-148 0 -148 -252q0 -47 6 -88t20.5 -83t45.5 -66.5t76 -24.5z
" />
    <glyph glyph-name="uni1EE2" unicode="&#x1ee2;" horiz-adv-x="1760" 
d="M787 -20q-322 0 -512 201t-190 539t192.5 542t509.5 204q308 0 497 -194q42 -1 73.5 -0.5t55 9t40 32t27 66.5t16.5 113h234q-2 -219 -70 -312t-249 -94q74 -160 74 -366q0 -337 -189.5 -538.5t-508.5 -201.5zM787 292q276 0 276 422q0 230 -74 335t-202 105t-202.5 -105
t-74.5 -335q0 -422 277 -422zM609 -433v291h362v-291h-362z" />
    <glyph glyph-name="uni1EE3" unicode="&#x1ee3;" horiz-adv-x="1354" 
d="M584 -20q-238 0 -381 147.5t-143 382.5q0 243 147 393.5t379 150.5q246 0 391 -163q32 0 50 1.5t39 8.5t32.5 21t23 38.5t17.5 61.5t11 90h234q-2 -215 -66.5 -307.5t-236.5 -97.5q29 -93 29 -197q0 -234 -143.5 -382t-382.5 -148zM586 262q44 0 74.5 24.5t45 66.5
t20.5 83t6 88q0 252 -146 252q-148 0 -148 -252q0 -47 6 -88t20.5 -83t45.5 -66.5t76 -24.5zM366 -433v291h362v-291h-362z" />
    <glyph glyph-name="uni1EE4" unicode="&#x1ee4;" horiz-adv-x="1491" 
d="M1383 598q0 -143 -32.5 -252.5t-104 -193.5t-194 -128t-293.5 -44t-293.5 44t-194 128t-104 193.5t-32.5 252.5v848h394v-864q0 -141 65 -208.5t165 -67.5q99 0 164.5 67.5t65.5 208.5v864h394v-848zM579 -433v291h362v-291h-362z" />
    <glyph glyph-name="uni1EE5" unicode="&#x1ee5;" horiz-adv-x="1217" 
d="M481 -20q-64 0 -131.5 22.5t-126 62t-96 103.5t-37.5 138v728h390v-674q0 -46 33.5 -76t91.5 -30q57 0 91.5 30t34.5 76v674h386v-1034h-288l-46 212q-43 -232 -302 -232zM433 -433v291h362v-291h-362z" />
    <glyph glyph-name="uni1EE6" unicode="&#x1ee6;" horiz-adv-x="1491" 
d="M615 1955q99 61 195 45.5t147 -95.5q62 -92 39 -182.5t-133 -155.5l-82 130q78 49 36 118q-16 27 -52.5 31t-67.5 -17zM1383 598q0 -143 -32.5 -252.5t-104 -193.5t-194 -128t-293.5 -44t-293.5 44t-194 128t-104 193.5t-32.5 252.5v848h394v-864q0 -141 65 -208.5
t165 -67.5q99 0 164.5 67.5t65.5 208.5v864h394v-848z" />
    <glyph glyph-name="uni1EE7" unicode="&#x1ee7;" horiz-adv-x="1217" 
d="M462 1543q99 61 195 45.5t147 -95.5q62 -92 39 -182.5t-133 -155.5l-82 130q78 49 36 118q-16 27 -52.5 31t-67.5 -17zM481 -20q-64 0 -131.5 22.5t-126 62t-96 103.5t-37.5 138v728h390v-674q0 -46 33.5 -76t91.5 -30q57 0 91.5 30t34.5 76v674h386v-1034h-288l-46 212
q-43 -232 -302 -232z" />
    <glyph glyph-name="uni1EE8" unicode="&#x1ee8;" horiz-adv-x="1812" 
d="M830 1858h383l-317 -291h-272zM1383 598q0 -143 -32.5 -252.5t-104 -193.5t-194 -128t-293.5 -44t-293.5 44t-194 128t-104 193.5t-32.5 252.5v848h394v-864q0 -141 65 -208.5t165 -67.5q99 0 164.5 67.5t65.5 208.5v864h394v-175q38 1 60 8t41 30t29.5 66.5t16.5 116.5
h234q-2 -119 -19 -194.5t-60 -127t-116 -70.5t-186 -12v-490z" />
    <glyph glyph-name="uni1EE9" unicode="&#x1ee9;" horiz-adv-x="1526" 
d="M686 1446h383l-317 -291h-272zM481 -20q-64 0 -131.5 22.5t-126 62t-96 103.5t-37.5 138v728h390v-674q0 -46 33.5 -76t91.5 -30q57 0 91.5 30t34.5 76v674h386v-143q43 0 66.5 6t45 28t32.5 66.5t17 120.5h234q-2 -121 -19.5 -197.5t-62.5 -127.5t-120.5 -68.5
t-192.5 -9.5v-709h-288l-46 212q-43 -232 -302 -232z" />
    <glyph glyph-name="uni1EEA" unicode="&#x1eea;" horiz-adv-x="1812" 
d="M679 1858l206 -291h-272l-317 291h383zM1383 598q0 -143 -32.5 -252.5t-104 -193.5t-194 -128t-293.5 -44t-293.5 44t-194 128t-104 193.5t-32.5 252.5v848h394v-864q0 -141 65 -208.5t165 -67.5q99 0 164.5 67.5t65.5 208.5v864h394v-175q38 1 60 8t41 30t29.5 66.5
t16.5 116.5h234q-2 -119 -19 -194.5t-60 -127t-116 -70.5t-186 -12v-490z" />
    <glyph glyph-name="uni1EEB" unicode="&#x1eeb;" horiz-adv-x="1526" 
d="M540 1446l206 -291h-272l-317 291h383zM481 -20q-64 0 -131.5 22.5t-126 62t-96 103.5t-37.5 138v728h390v-674q0 -46 33.5 -76t91.5 -30q57 0 91.5 30t34.5 76v674h386v-143q43 0 66.5 6t45 28t32.5 66.5t17 120.5h234q-2 -121 -19.5 -197.5t-62.5 -127.5t-120.5 -68.5
t-192.5 -9.5v-709h-288l-46 212q-43 -232 -302 -232z" />
    <glyph glyph-name="uni1EEC" unicode="&#x1eec;" horiz-adv-x="1812" 
d="M615 1955q99 61 195 45.5t147 -95.5q62 -92 39 -182.5t-133 -155.5l-82 130q78 49 36 118q-16 27 -52.5 31t-67.5 -17zM1383 598q0 -143 -32.5 -252.5t-104 -193.5t-194 -128t-293.5 -44t-293.5 44t-194 128t-104 193.5t-32.5 252.5v848h394v-864q0 -141 65 -208.5
t165 -67.5q99 0 164.5 67.5t65.5 208.5v864h394v-175q38 1 60 8t41 30t29.5 66.5t16.5 116.5h234q-2 -119 -19 -194.5t-60 -127t-116 -70.5t-186 -12v-490z" />
    <glyph glyph-name="uni1EED" unicode="&#x1eed;" horiz-adv-x="1526" 
d="M468 1543q99 61 195 45.5t147 -95.5q62 -92 39 -182.5t-133 -155.5l-82 130q78 49 36 118q-16 27 -52.5 31t-67.5 -17zM481 -20q-64 0 -131.5 22.5t-126 62t-96 103.5t-37.5 138v728h390v-674q0 -46 33.5 -76t91.5 -30q57 0 91.5 30t34.5 76v674h386v-143q43 0 66.5 6
t45 28t32.5 66.5t17 120.5h234q-2 -121 -19.5 -197.5t-62.5 -127.5t-120.5 -68.5t-192.5 -9.5v-709h-288l-46 212q-43 -232 -302 -232z" />
    <glyph glyph-name="uni1EEE" unicode="&#x1eee;" horiz-adv-x="1800" 
d="M1151 1671q-39 -34 -100.5 -57.5t-127.5 -23.5q-59 0 -160 29.5t-156 29.5q-51 0 -88.5 -15.5t-83.5 -56.5l-54 192q45 51 94.5 79t121.5 28q66 0 174 -33.5t150 -33.5q87 0 190 82zM1383 598q0 -143 -32.5 -252.5t-104 -193.5t-194 -128t-293.5 -44t-293.5 44t-194 128
t-104 193.5t-32.5 252.5v848h394v-864q0 -141 65 -208.5t165 -67.5q99 0 164.5 67.5t65.5 208.5v864h394v-175q38 1 60 8t41 30t29.5 66.5t16.5 116.5h234q-2 -119 -19 -194.5t-60 -127t-116 -70.5t-186 -12v-490z" />
    <glyph glyph-name="uni1EEF" unicode="&#x1eef;" horiz-adv-x="1526" 
d="M1004 1259q-39 -34 -100.5 -57.5t-127.5 -23.5q-58 0 -159 29.5t-157 29.5q-51 0 -88.5 -15.5t-83.5 -56.5l-54 192q45 51 94.5 79t121.5 28q66 0 174 -33.5t150 -33.5q87 0 190 82zM481 -20q-64 0 -131.5 22.5t-126 62t-96 103.5t-37.5 138v728h390v-674q0 -46 33.5 -76
t91.5 -30q57 0 91.5 30t34.5 76v674h386v-143q43 0 66.5 6t45 28t32.5 66.5t17 120.5h234q-2 -121 -19.5 -197.5t-62.5 -127.5t-120.5 -68.5t-192.5 -9.5v-709h-288l-46 212q-43 -232 -302 -232z" />
    <glyph glyph-name="uni1EF0" unicode="&#x1ef0;" horiz-adv-x="1812" 
d="M1383 598q0 -143 -32.5 -252.5t-104 -193.5t-194 -128t-293.5 -44t-293.5 44t-194 128t-104 193.5t-32.5 252.5v848h394v-864q0 -141 65 -208.5t165 -67.5q99 0 164.5 67.5t65.5 208.5v864h394v-175q38 1 60 8t41 30t29.5 66.5t16.5 116.5h234q-2 -119 -19 -194.5
t-60 -127t-116 -70.5t-186 -12v-490zM579 -433v291h362v-291h-362z" />
    <glyph glyph-name="uni1EF1" unicode="&#x1ef1;" horiz-adv-x="1526" 
d="M481 -20q-64 0 -131.5 22.5t-126 62t-96 103.5t-37.5 138v728h390v-674q0 -46 33.5 -76t91.5 -30q57 0 91.5 30t34.5 76v674h386v-143q43 0 66.5 6t45 28t32.5 66.5t17 120.5h234q-2 -121 -19.5 -197.5t-62.5 -127.5t-120.5 -68.5t-192.5 -9.5v-709h-288l-46 212
q-43 -232 -302 -232zM420 -433v291h362v-291h-362z" />
    <glyph glyph-name="Ygrave" unicode="&#x1ef2;" horiz-adv-x="1444" 
d="M691 1858l206 -291h-272l-317 291h383zM1429 1446l-515 -844v-602h-390v602l-509 844h420l286 -514l283 514h425z" />
    <glyph glyph-name="ygrave" unicode="&#x1ef3;" horiz-adv-x="1177" 
d="M506 1446l206 -291h-272l-317 291h383zM315 -330q-71 0 -127.5 11t-77.5 22l-20 11v246l99 -6q190 -15 215 83q1 2 1 3l4 20l-401 974h382l196 -562l203 562h381l-404 -974q-49 -119 -101 -198t-109 -120t-113 -56.5t-128 -15.5z" />
    <glyph glyph-name="uni1EF4" unicode="&#x1ef4;" horiz-adv-x="1444" 
d="M1429 1446l-515 -844v-602h-390v602l-509 844h420l286 -514l283 514h425zM541 -433v291h362v-291h-362z" />
    <glyph glyph-name="uni1EF5" unicode="&#x1ef5;" horiz-adv-x="1177" 
d="M315 -330q-71 0 -127.5 11t-77.5 22l-20 11v246l99 -6q190 -15 215 83q1 2 1 3l4 20l-401 974h382l196 -562l203 562h381l-404 -974q-49 -119 -101 -198t-109 -120t-113 -56.5t-128 -15.5zM749 -368v291h362v-291h-362z" />
    <glyph glyph-name="uni1EF6" unicode="&#x1ef6;" horiz-adv-x="1444" 
d="M627 1955q99 61 195 45.5t147 -95.5q62 -92 39 -182.5t-133 -155.5l-82 130q78 49 36 118q-16 27 -52.5 31t-67.5 -17zM1429 1446l-515 -844v-602h-390v602l-509 844h420l286 -514l283 514h425z" />
    <glyph glyph-name="uni1EF7" unicode="&#x1ef7;" horiz-adv-x="1177" 
d="M442 1543q99 61 195 45.5t147 -95.5q62 -92 39 -182.5t-133 -155.5l-82 130q78 49 36 118q-16 27 -52.5 31t-67.5 -17zM315 -330q-71 0 -127.5 11t-77.5 22l-20 11v246l99 -6q190 -15 215 83q1 2 1 3l4 20l-401 974h382l196 -562l203 562h381l-404 -974
q-49 -119 -101 -198t-109 -120t-113 -56.5t-128 -15.5z" />
    <glyph glyph-name="uni1EF8" unicode="&#x1ef8;" horiz-adv-x="1444" 
d="M1163 1671q-39 -34 -100.5 -57.5t-127.5 -23.5q-59 0 -160 29.5t-156 29.5q-51 0 -88.5 -15.5t-83.5 -56.5l-54 192q45 51 94.5 79t121.5 28q66 0 174 -33.5t150 -33.5q87 0 190 82zM1429 1446l-515 -844v-602h-390v602l-509 844h420l286 -514l283 514h425z" />
    <glyph glyph-name="uni1EF9" unicode="&#x1ef9;" horiz-adv-x="1177" 
d="M978 1259q-39 -34 -100.5 -57.5t-127.5 -23.5q-58 0 -159.5 29.5t-156.5 29.5q-51 0 -88.5 -15.5t-83.5 -56.5l-54 192q45 51 94.5 79t121.5 28q66 0 174 -33.5t150 -33.5q87 0 190 82zM315 -330q-71 0 -127.5 11t-77.5 22l-20 11v246l99 -6q190 -15 215 83q1 2 1 3l4 20
l-401 974h382l196 -562l203 562h381l-404 -974q-49 -119 -101 -198t-109 -120t-113 -56.5t-128 -15.5z" />
    <glyph glyph-name="endash" unicode="&#x2013;" horiz-adv-x="1252" 
d="M1135 630v-274h-1018v274h1018z" />
    <glyph glyph-name="emdash" unicode="&#x2014;" horiz-adv-x="2356" 
d="M2005 630v-274h-1653v274h1653z" />
    <glyph glyph-name="quoteleft" unicode="&#x2018;" horiz-adv-x="568" 
d="M408 1504l-120 -294l116 -14v-336h-354v298l230 346h128z" />
    <glyph glyph-name="quoteright" unicode="&#x2019;" horiz-adv-x="578" 
d="M100 802l120 294l-116 14v336h354v-298l-230 -346h-128z" />
    <glyph glyph-name="quotesinglbase" unicode="&#x201a;" horiz-adv-x="618" 
d="M100 -302l120 294l-116 14v338h354v-300l-230 -346h-128z" />
    <glyph glyph-name="quotedblleft" unicode="&#x201c;" horiz-adv-x="1068" 
d="M550 802v298l230 346h128l-120 -294l116 -14v-336h-354zM50 802v298l230 346h128l-120 -294l116 -14v-336h-354z" />
    <glyph glyph-name="quotedblright" unicode="&#x201d;" horiz-adv-x="1078" 
d="M598 802l122 294l-118 14v336h356v-298l-230 -346h-130zM100 802l120 294l-116 14v336h354v-298l-230 -346h-128z" />
    <glyph glyph-name="quotedblbase" unicode="&#x201e;" horiz-adv-x="1130" 
d="M612 -302l120 294l-116 14v338h354v-300l-230 -346h-128zM100 -302l120 294l-116 14v338h354v-300l-230 -346h-128z" />
    <glyph glyph-name="dagger" unicode="&#x2020;" horiz-adv-x="1156" 
d="M1046 1022v-328l-370 56l72 -1072h-360l70 1072l-368 -56v328l356 -50l-62 474h366l-62 -474z" />
    <glyph glyph-name="daggerdbl" unicode="&#x2021;" horiz-adv-x="1156" 
d="M680 708v-372l366 54v-328l-360 52l64 -436h-366l64 436l-358 -52v328l364 -54v372l-364 -54v326l356 -50l-62 516h364l-60 -516l358 50v-326z" />
    <glyph glyph-name="bullet" unicode="&#x2022;" horiz-adv-x="772" 
d="M370 434q-124 0 -212 88.5t-88 213.5q0 123 88 211.5t212 88.5t213 -88.5t89 -211.5q0 -124 -89 -213t-213 -89z" />
    <glyph glyph-name="ellipsis" unicode="&#x2026;" horiz-adv-x="2020" 
d="M1490 0v392h410v-392h-410zM90 0v392h410v-392h-410zM790 0v392h410v-392h-410z" />
    <glyph glyph-name="perthousand" unicode="&#x2030;" horiz-adv-x="2792" 
d="M468 1468q104 0 193.5 -58.5t140 -154t50.5 -201.5q0 -104 -50 -196.5t-139 -149t-195 -56.5q-107 0 -197 56.5t-140.5 149t-50.5 196.5q0 163 114.5 288.5t273.5 125.5zM1593 1462l-972 -1470l-215 4l974 1466h213zM466 842q59 0 81.5 50.5t22.5 161.5
q0 115 -23.5 170.5t-80.5 55.5t-80.5 -56t-23.5 -170q0 -110 23 -161t81 -51zM1456 798q105 0 195 -59t140.5 -154.5t50.5 -200.5t-50 -197.5t-139.5 -149.5t-196.5 -57t-197 57t-140.5 150t-50.5 197q0 105 51 200.5t141.5 154.5t195.5 59zM2308 798q104 0 193.5 -59
t140 -154.5t50.5 -200.5q0 -161 -112 -282.5t-272 -121.5q-163 0 -275.5 121.5t-112.5 282.5q0 105 51 200.5t141 154.5t196 59zM1454 172q59 0 81.5 50.5t22.5 159.5q0 115 -23.5 170.5t-80.5 55.5q-56 0 -79 -55.5t-23 -170.5q0 -109 22 -159.5t80 -50.5zM2306 172
q59 0 80.5 50t21.5 160q0 116 -23 171t-79 55q-57 0 -80.5 -56t-23.5 -170q0 -108 23 -159t81 -51z" />
    <glyph glyph-name="guilsinglleft" unicode="&#x2039;" horiz-adv-x="674" 
d="M406 502l128 -384h-200l-214 384l212 400h202z" />
    <glyph glyph-name="guilsinglright" unicode="&#x203a;" horiz-adv-x="674" 
d="M268 502l-128 400h202l212 -400l-214 -384h-200z" />
    <glyph glyph-name="fraction" unicode="&#x2044;" horiz-adv-x="483" 
d="M835 1462l-972 -1470l-215 4l974 1466h213z" />
    <glyph glyph-name="uni2070" unicode="&#x2070;" horiz-adv-x="846" 
d="M425 1667q175 0 273.5 -124t98.5 -346q0 -221 -97 -342t-275 -121q-179 0 -277.5 121t-98.5 342q0 222 99.5 346t276.5 124zM423 926q68 0 94.5 60t26.5 209q0 154 -27.5 219t-93.5 65t-93.5 -65.5t-27.5 -218.5q0 -148 27 -208.5t94 -60.5z" />
    <glyph glyph-name="uni2074" unicode="&#x2074;" horiz-adv-x="852" 
d="M444 1655h238v-536h131v-199h-131v-174h-234l1 174h-410v190zM261 1119h190v253z" />
    <glyph glyph-name="uni2075" unicode="&#x2075;" horiz-adv-x="886" 
d="M152 1654h622l-10 -197h-424l-14 -151q117 32 179 32q150 0 241 -79.5t91 -217.5q0 -145 -101 -227t-275 -82q-139 0 -249.5 54.5t-162.5 140.5l183 123q34 -43 55.5 -65.5t60 -42t84.5 -19.5q66 0 108 31.5t42 77.5t-39.5 79t-106.5 33q-48 0 -124 -33q-13 -5 -18 -5
t-18 7l-166 89z" />
    <glyph glyph-name="uni2076" unicode="&#x2076;" horiz-adv-x="871" 
d="M455 1666q147 0 249.5 -77.5t102.5 -207.5h-222q-29 97 -124 97q-76 0 -115 -63t-24 -145q70 42 183 42q142 0 229.5 -75.5t87.5 -195.5q0 -131 -105.5 -217.5t-266.5 -86.5q-187 0 -294 120.5t-107 320.5q0 228 109.5 358t296.5 130zM440 1135q-40 0 -80 -24t-40 -42
q0 -77 32 -116t87 -39q50 0 88 33t38 83q0 54 -37 79.5t-88 25.5z" />
    <glyph glyph-name="uni2077" unicode="&#x2077;" horiz-adv-x="775" 
d="M39 1658h717v-197q-104 -113 -197.5 -333.5t-89.5 -379.5h-263q0 75 25.5 180.5t97 255.5t177.5 277h-467v197z" />
    <glyph glyph-name="uni2078" unicode="&#x2078;" horiz-adv-x="887" 
d="M444 1666q154 0 250 -68.5t96 -192.5q0 -63 -35 -111t-90 -77q61 -14 112 -76.5t51 -136.5q0 -125 -105 -196.5t-279 -71.5q-175 0 -280 71.5t-105 196.5q0 74 51.5 136.5t112.5 76.5q-55 29 -90 77t-35 111q0 124 96 192.5t250 68.5zM444 1307q45 0 75 28t30 74t-30 74
t-75 28t-74.5 -28t-29.5 -74t30 -74t74 -28zM444 912q59 0 92 27.5t33 73.5q0 47 -33 75t-92 28q-60 0 -93 -28t-33 -75q0 -46 33 -73.5t93 -27.5z" />
    <glyph glyph-name="uni2079" unicode="&#x2079;" horiz-adv-x="865" 
d="M410 736q-95 0 -175.5 35t-130 101t-50.5 150h230q8 -45 37.5 -71t76.5 -26q87 0 135 51t37 167q-65 -65 -193 -65q-143 0 -235.5 78t-92.5 205q0 132 103 218.5t264 86.5q187 0 293.5 -120.5t106.5 -321.5q0 -249 -107 -368.5t-299 -119.5zM425 1267q39 0 80 24.5
t41 41.5q0 78 -32 117t-87 39q-49 0 -82.5 -32.5t-33.5 -83.5q0 -50 33.5 -78t80.5 -28z" />
    <glyph glyph-name="colonmonetary" unicode="&#x20a1;" horiz-adv-x="1490" 
d="M744 1560h154l-19 -101q52 -7 87 -17l22 118h154l-33 -174q126 -68 203.5 -185t92.5 -265h-382l-110 -582q67 68 86 186h406q-12 -92 -33.5 -166t-63.5 -146.5t-102 -122t-152.5 -83t-211.5 -40.5l-20 -104h-154l20 107q-32 3 -87 15l-23 -122h-154l33 176
q-175 90 -273.5 271.5t-98.5 416.5q0 316 173 511t468 212zM661 317q36 -21 86 -24l156 819q-35 26 -83 37zM512 736q0 -147 29 -245l122 643q-151 -71 -151 -398z" />
    <glyph glyph-name="franc" unicode="&#x20a3;" horiz-adv-x="1278" 
d="M822 410v-198h-272v-212h-442v212h-168v198h168v1036h1110l-2 -318h-666v-260h430v-310h-430v-148h272z" />
    <glyph glyph-name="lira" unicode="&#x20a4;" horiz-adv-x="1360" 
d="M1290 412q-45 -198 -174.5 -305t-317.5 -107h-748v318h62q126 0 154 88q8 21 8 56q0 16 -18 16h-204v196h196l-12 96h-184v198h156l-6 96q-6 78 17.5 144.5t69.5 113t109.5 79.5t137.5 49t154 16q76 0 150.5 -19t146 -57t131 -104t94.5 -152l-338 -96q-22 61 -49 94.5
t-73 33.5q-45 0 -70.5 -31.5t-25.5 -88.5q0 -14 4 -54q3 -24 24 -24h228v-198h-218l8 -96h210v-196h-222q-37 -98 -130 -158h206q82 0 127 36t71 120z" />
    <glyph glyph-name="uni20A6" unicode="&#x20a6;" horiz-adv-x="1640" 
d="M1600 596v-176h-26v-420h-351l-295 420h-310v-420h-389v420h-209v176h209v292h-209v176h209v382h392l267 -382h297v382h389v-382h26v-176h-26v-292h26zM1185 640v248h-174zM618 862v-266h187z" />
    <glyph glyph-name="uni20A9" unicode="&#x20a9;" horiz-adv-x="2400" 
d="M2360 1006v-196h-418l-242 -810h-290l-230 786l-230 -786h-286l-244 810h-400v196h341l-35 116h-306v196h247l-39 128h376l37 -128h367l36 128h272l37 -128h367l36 128h376l-38 -128h266v-196h-325l-34 -116h359zM731 1006h191l32 116h-256zM1443 1006h191l32 116h-256z
M828 670l39 140h-79zM1540 670l39 140h-79z" />
    <glyph glyph-name="dong" unicode="&#x20ab;" horiz-adv-x="1122" 
d="M644 266v96q-55 -58 -112 -85t-138 -27q-147 0 -235.5 113t-88.5 325q0 197 100.5 321.5t239.5 124.5q116 0 198 -82q32 -21 32 12v128h-190v156h190v98h322v-98h120v-156h-120v-926h-318zM638 874q-28 33 -52.5 47.5t-59.5 14.5q-130 0 -130 -246q0 -134 32.5 -191
t97.5 -57q48 0 80 30t32 78v324zM962 174v-174h-830v174h830z" />
    <glyph glyph-name="Euro" unicode="&#x20ac;" horiz-adv-x="1398" 
d="M804 -20q-209 0 -367.5 130t-225.5 348h-191v198h153q-3 42 -3 86q0 32 1 48h-151v196h181q60 223 222.5 351.5t384.5 128.5q161 0 294.5 -65.5t215.5 -180.5l-266 -188q-27 33 -43 50t-43 40t-57 33.5t-65 10.5q-145 0 -198 -180h274v-196h-301q-1 -17 -1 -54
q0 -42 3 -80h299v-198h-259q62 -158 195 -158q70 0 141 46.5t109 105.5l206 -214q-85 -114 -219.5 -186t-288.5 -72z" />
    <glyph glyph-name="uni20B9" unicode="&#x20b9;" horiz-adv-x="1392" 
d="M60 870h456q151 0 184 106h-640v176h635q-41 104 -189 104h-446v190h1272v-176h-243q45 -55 64 -118h179v-176h-169q-18 -107 -85 -187.5t-166 -120.5q-17 -6 -6 -36l272 -632h-480l-208 598h-430v272z" />
    <glyph glyph-name="uni20BA" unicode="&#x20ba;" horiz-adv-x="1472" 
d="M616 0h-316v427l-162 -59l-68 186l230 84v114l-202 -74l-68 186l270 98v484h444v-323l216 79l68 -184l-284 -104v-115l254 93l66 -186l-320 -117v-269h46q93 5 174 82t130 210l338 -70q-34 -90 -76 -163.5t-110.5 -146t-153.5 -122t-207 -80t-269 -30.5z" />
    <glyph glyph-name="uni2113" unicode="&#x2113;" horiz-adv-x="1257" 
d="M670 -20q-194 0 -304.5 73.5t-153.5 226.5l-92 -62l-80 204l168 128v390q0 257 130 391.5t354 134.5q103 0 177.5 -28t116.5 -78.5t61 -112t19 -137.5q0 -48 -8.5 -94t-20.5 -84t-36.5 -79.5t-44.5 -71.5t-58 -69.5t-62.5 -63.5t-73 -64.5t-75 -61.5t-81.5 -64
q0 -111 31.5 -153.5t128.5 -42.5q140 0 296 168l120 -128q-13 -34 -33.5 -70.5t-63.5 -83.5t-97 -82.5t-137.5 -60.5t-180.5 -25zM606 754q107 104 159.5 192.5t52.5 179.5q0 122 -92 122q-57 0 -88.5 -60.5t-31.5 -213.5v-220z" />
    <glyph glyph-name="uni2116" unicode="&#x2116;" horiz-adv-x="2416" 
d="M2015 1466q152 0 246.5 -95t94.5 -243q0 -146 -95.5 -239t-245.5 -93t-245 93t-95 239q0 150 97 244t243 94zM1091 1446h389v-1446h-351l-605 862v-862h-389v1446h392l564 -806v806zM2015 1314q-48 0 -71 -43.5t-23 -138.5q0 -94 23 -137t71 -43q50 0 72.5 43t22.5 137
q0 96 -22.5 139t-72.5 43z" />
    <glyph glyph-name="uni2117" unicode="&#x2117;" horiz-adv-x="1686" 
d="M832 -20q-202 0 -372.5 99t-270 270t-99.5 375q0 150 58.5 287.5t158 237t237 158.5t288.5 59t289 -59t237.5 -158.5t158.5 -237t59 -287.5q0 -203 -100 -374.5t-271 -270.5t-373 -99zM832 178q239 0 382.5 148t143.5 398q0 248 -144 398t-382 150q-240 0 -382 -149.5
t-142 -398.5q0 -251 141.5 -398.5t382.5 -147.5zM1220 842q0 -122 -78 -189t-208 -67h-166v-246h-236v768h376q136 0 224 -67.5t88 -198.5zM980 846q0 47 -24.5 70.5t-61.5 23.5h-126v-190h132q38 0 59 25.5t21 70.5z" />
    <glyph glyph-name="uni2120" unicode="&#x2120;" horiz-adv-x="2074" 
d="M454 -12q-97 0 -183 30t-148 97t-70 160h248q10 -48 49.5 -74.5t102.5 -26.5t104.5 19t41.5 63q0 20 -11.5 34t-36.5 22.5t-45 13t-56 10.5l-138 24q-107 18 -169 86t-64 180q-2 133 104.5 211t266.5 78q182 0 283 -78t103 -207h-241q-10 98 -140 98q-64 0 -92.5 -21.5
t-28.5 -50.5q0 -33 20.5 -51t76.5 -27l138 -24q74 -13 127.5 -40.5t80.5 -57t42.5 -70.5t19 -68.5t3.5 -61.5q0 -115 -111 -191.5t-277 -76.5zM974 0v904h362l146 -551l147 551h360v-904h-243v655l-177 -655h-175l-176 655v-655h-244z" />
    <glyph glyph-name="trademark" unicode="&#x2122;" horiz-adv-x="1980" 
d="M19 690v214h759v-214h-259v-690h-244v690h-256zM880 0v904h362l146 -551l147 551h360v-904h-243v655l-177 -655h-175l-176 655v-655h-244z" />
    <glyph glyph-name="uni2126" unicode="&#x2126;" horiz-adv-x="1538" 
d="M776 1196q-41 0 -78 -12.5t-72 -43t-60 -77t-40.5 -119t-15.5 -164.5q0 -172 61 -303.5t153 -196.5v-280h-642v328h242q-109 91 -181.5 220.5t-72.5 287.5q0 99 30 195.5t90 181.5t143.5 150t198 103t244.5 38q135 0 250.5 -41t195 -108.5t136.5 -154.5t83.5 -179
t26.5 -183q0 -150 -65 -272.5t-199 -237.5h252v-328h-640v280q91 67 151.5 194.5t60.5 315.5q0 208 -70.5 307t-181.5 99z" />
    <glyph glyph-name="uni2153" unicode="&#x2153;" horiz-adv-x="1929" 
d="M1428 1462l-972 -1470l-215 4l974 1466h213zM190 536v643h-151v128q109 0 169 37.5t70 101.5h158v-910h-246zM1095 616q0 152 103 228.5t273 76.5q112 0 195 -24.5t134.5 -82.5t51.5 -145q0 -70 -37.5 -118t-122.5 -76q75 -20 126.5 -72t51.5 -140q0 -91 -57 -155.5
t-146.5 -93t-200.5 -28.5q-182 0 -276.5 81t-94.5 231h231q24 -120 140 -120q68 0 106.5 26.5t38.5 68.5q0 37 -34 62.5t-92 28.5l-92 5v189l80 6q120 9 120 93q0 40 -37.5 60t-91.5 20q-63 0 -97.5 -26.5t-41.5 -94.5h-230z" />
    <glyph glyph-name="uni2154" unicode="&#x2154;" horiz-adv-x="2266" 
d="M1765 1462l-972 -1470l-215 4l974 1466h213zM53 538v163q0 65 26 118t67.5 88t92 63.5t101 50.5t92 43t67.5 47t26 57q0 41 -29 68t-78 27q-55 0 -95 -32.5t-53 -103.5h-231q0 149 98 241t286 92q166 0 262 -79t96 -210q0 -65 -25 -116t-65 -83.5t-88.5 -57.5t-97.5 -44
t-89 -36.5t-65 -41t-25 -52.5h449v-202h-722zM1432 616q0 152 103 228.5t273 76.5q112 0 195 -24.5t134.5 -82.5t51.5 -145q0 -70 -37.5 -118t-122.5 -76q75 -20 126.5 -72t51.5 -140q0 -91 -57 -155.5t-146.5 -93t-200.5 -28.5q-182 0 -276.5 81t-94.5 231h231
q24 -120 140 -120q68 0 106.5 26.5t38.5 68.5q0 37 -34 62.5t-92 28.5l-92 5v189l80 6q120 9 120 93q0 40 -37.5 60t-91.5 20q-63 0 -97.5 -26.5t-41.5 -94.5h-230z" />
    <glyph glyph-name="oneeighth" unicode="&#x215b;" horiz-adv-x="1923" 
d="M1428 1462l-972 -1470l-215 4l974 1466h213zM190 536v643h-151v128q109 0 169 37.5t70 101.5h158v-910h-246zM1480 921q154 0 250 -68.5t96 -192.5q0 -63 -35 -111t-90 -77q61 -14 112 -76.5t51 -136.5q0 -125 -105 -196.5t-279 -71.5q-175 0 -280 71.5t-105 196.5
q0 74 51.5 136.5t112.5 76.5q-55 29 -90 77t-35 111q0 124 96 192.5t250 68.5zM1480 562q45 0 75 28t30 74t-30 74t-75 28t-74.5 -28t-29.5 -74t30 -74t74 -28zM1480 167q59 0 92 27.5t33 73.5q0 47 -33 75t-92 28q-60 0 -93 -28t-33 -75q0 -46 33 -73.5t93 -27.5z" />
    <glyph glyph-name="threeeighths" unicode="&#x215c;" horiz-adv-x="2183" 
d="M1688 1462l-972 -1470l-215 4l974 1466h213zM59 1156q0 152 103 228.5t273 76.5q112 0 195 -24.5t134.5 -82.5t51.5 -145q0 -70 -37.5 -118t-122.5 -76q75 -20 126.5 -72t51.5 -140q0 -91 -57 -155.5t-146.5 -93t-200.5 -28.5q-182 0 -276.5 81t-94.5 231h231
q24 -120 140 -120q68 0 106.5 26.5t38.5 68.5q0 37 -34 62.5t-92 28.5l-92 5v189l80 6q120 9 120 93q0 40 -37.5 60t-91.5 20q-63 0 -97.5 -26.5t-41.5 -94.5h-230zM1740 921q154 0 250 -68.5t96 -192.5q0 -63 -35 -111t-90 -77q61 -14 112 -76.5t51 -136.5
q0 -125 -105 -196.5t-279 -71.5q-175 0 -280 71.5t-105 196.5q0 74 51.5 136.5t112.5 76.5q-55 29 -90 77t-35 111q0 124 96 192.5t250 68.5zM1740 562q45 0 75 28t30 74t-30 74t-75 28t-74.5 -28t-29.5 -74t30 -74t74 -28zM1740 167q59 0 92 27.5t33 73.5q0 47 -33 75
t-92 28q-60 0 -93 -28t-33 -75q0 -46 33 -73.5t93 -27.5z" />
    <glyph glyph-name="fiveeighths" unicode="&#x215d;" horiz-adv-x="2176" 
d="M1681 1462l-972 -1470l-215 4l974 1466h213zM152 1446h622l-10 -197h-424l-14 -151q117 32 179 32q150 0 241 -79.5t91 -217.5q0 -145 -101 -227t-275 -82q-139 0 -249.5 54.5t-162.5 140.5l183 123q34 -43 55.5 -65.5t60 -42t84.5 -19.5q66 0 108 31.5t42 77.5t-39.5 79
t-106.5 33q-48 0 -124 -33q-13 -5 -18 -5t-18 7l-166 89zM1733 921q154 0 250 -68.5t96 -192.5q0 -63 -35 -111t-90 -77q61 -14 112 -76.5t51 -136.5q0 -125 -105 -196.5t-279 -71.5q-175 0 -280 71.5t-105 196.5q0 74 51.5 136.5t112.5 76.5q-55 29 -90 77t-35 111
q0 124 96 192.5t250 68.5zM1733 562q45 0 75 28t30 74t-30 74t-75 28t-74.5 -28t-29.5 -74t30 -74t74 -28zM1733 167q59 0 92 27.5t33 73.5q0 47 -33 75t-92 28q-60 0 -93 -28t-33 -75q0 -46 33 -73.5t93 -27.5z" />
    <glyph glyph-name="seveneighths" unicode="&#x215e;" horiz-adv-x="2015" 
d="M1520 1462l-972 -1470l-215 4l974 1466h213zM39 1448h717v-197q-104 -113 -197.5 -333.5t-89.5 -379.5h-263q0 75 25.5 180.5t97 255.5t177.5 277h-467v197zM1572 921q154 0 250 -68.5t96 -192.5q0 -63 -35 -111t-90 -77q61 -14 112 -76.5t51 -136.5q0 -125 -105 -196.5
t-279 -71.5q-175 0 -280 71.5t-105 196.5q0 74 51.5 136.5t112.5 76.5q-55 29 -90 77t-35 111q0 124 96 192.5t250 68.5zM1572 562q45 0 75 28t30 74t-30 74t-75 28t-74.5 -28t-29.5 -74t30 -74t74 -28zM1572 167q59 0 92 27.5t33 73.5q0 47 -33 75t-92 28q-60 0 -93 -28
t-33 -75q0 -46 33 -73.5t93 -27.5z" />
    <glyph glyph-name="partialdiff" unicode="&#x2202;" horiz-adv-x="1238" 
d="M202 1106l-102 224q35 28 85 55.5t145 54t196 26.5q110 0 205.5 -29t174.5 -89t134.5 -149t86.5 -214t31 -277q0 -164 -35.5 -296.5t-105 -229.5t-180.5 -149.5t-255 -52.5q-240 0 -376 136t-136 348q0 209 126 348.5t336 139.5q62 0 112 -15t75.5 -31t60.5 -44
q15 -12 23.5 -11.5t10.5 7.5t2 20q0 33 -11 71.5t-37.5 82t-65 78t-101 57.5t-137.5 23q-59 0 -113.5 -15t-82.5 -30t-66 -39zM576 246h2q85 0 136.5 76t65.5 206q3 29 1 41t-13 29q-24 44 -65.5 75t-94.5 31q-78 0 -127 -73t-49 -183q0 -99 39.5 -150.5t104.5 -51.5z" />
    <glyph glyph-name="emptyset" unicode="&#x2205;" horiz-adv-x="1228" 
d="M606 246q-157 0 -287 96l-141 -132l-118 124l143 132q-77 119 -77 262q0 130 64.5 240.5t175 175t240.5 64.5q163 0 292 -99l126 117l114 -122l-126 -117q76 -119 76 -259q0 -131 -64.5 -242t-175.5 -175.5t-242 -64.5zM290 728q0 -79 36 -148l449 415q-77 49 -169 49
q-130 0 -223 -93.5t-93 -222.5zM606 410q132 0 225 93t93 225q0 74 -35 144l-447 -416q76 -46 164 -46z" />
    <glyph glyph-name="uni2206" unicode="&#x2206;" horiz-adv-x="1664" 
d="M30 0l822 1446l782 -1446h-1604zM592 318h498l-238 454z" />
    <glyph glyph-name="product" unicode="&#x220f;" horiz-adv-x="1472" 
d="M1412 1446v-314h-164v-1132h-398v1132h-250v-1132h-398v1132h-162v314h1372z" />
    <glyph glyph-name="summation" unicode="&#x2211;" horiz-adv-x="1224" 
d="M1144 0h-1084v228l404 486l-384 476v256h1028v-306h-500l338 -380l-380 -436h578v-324z" />
    <glyph glyph-name="minus" unicode="&#x2212;" horiz-adv-x="1238" 
d="M1128 866v-276h-1018v276h1018z" />
    <glyph glyph-name="uni2215" unicode="&#x2215;" horiz-adv-x="1247" 
d="M1167 1462l-872 -1470l-215 4l874 1466h213z" />
    <glyph glyph-name="uni2219" unicode="&#x2219;" horiz-adv-x="774" 
d="M372 550q-75 0 -128.5 53.5t-53.5 128.5t53.5 128.5t128.5 53.5t128.5 -53.5t53.5 -128.5t-53.5 -128.5t-128.5 -53.5z" />
    <glyph glyph-name="radical" unicode="&#x221a;" horiz-adv-x="1466" 
d="M1456 1652l-520 -1974h-388l-278 764l-164 -60l-76 208l446 158l260 -724l400 1628h320z" />
    <glyph glyph-name="infinity" unicode="&#x221e;" horiz-adv-x="1694" 
d="M1584 550v-4q0 -180 -109 -286t-267 -106q-60 0 -109 15t-93.5 49t-73 63t-74.5 83q-13 14 -19.5 15t-20.5 -15q-2 -2 -31.5 -36t-55.5 -56.5t-69 -53.5t-97 -47.5t-113 -16.5q-150 0 -256 106.5t-106 275.5q0 171 109.5 277.5t278.5 106.5q49 0 92 -11t73 -25t66.5 -44
t57 -51t59.5 -63q17 -19 26 -18.5t26 18.5q38 43 64 68.5t71 59t98 50t115 16.5q156 0 257 -101.5t101 -268.5zM476 380h4q52 0 101.5 36.5t84.5 83.5q15 22 14 32t-16 36q-90 132 -190 132q-66 0 -107 -44.5t-41 -113.5q0 -71 43 -116.5t107 -45.5zM1206 700h-2
q-36 0 -74 -21.5t-60.5 -44t-55.5 -60.5q-27 -32 0 -66q94 -128 198 -128q62 0 99 49t37 111q0 66 -39 113t-103 47z" />
    <glyph glyph-name="integral" unicode="&#x222b;" horiz-adv-x="990" 
d="M292 1102q0 290 100.5 430t323.5 140q145 0 224 -50l-72 -312q-73 34 -130 34q-52 0 -74 -43t-22 -153q0 -170 16 -494.5t16 -411.5q0 -299 -101.5 -442.5t-322.5 -143.5q-136 0 -220 48l76 312q59 -32 124 -32q52 0 74 43t22 159q0 160 -17 494t-17 422z" />
    <glyph glyph-name="approxequal" unicode="&#x2248;" horiz-adv-x="1284" 
d="M1174 922q-60 -110 -148.5 -167t-179.5 -57q-55 0 -110.5 22t-93.5 48t-87 48t-93 22q-36 0 -68 -12t-66.5 -43t-51.5 -49t-56 -64l-110 184q104 111 183 164.5t175 53.5q58 0 113 -21.5t91 -47.5t81 -47.5t85 -21.5q66 0 124 46.5t100 121.5zM1174 480
q-60 -110 -148.5 -167t-179.5 -57q-55 0 -110.5 22t-93.5 48t-87 48t-93 22q-36 0 -69 -13t-66 -42.5t-51.5 -50t-53.5 -62.5l-112 184q104 111 183 164.5t175 53.5q58 0 113 -21.5t91 -47.5t81 -47.5t85 -21.5q66 0 124 46.5t100 121.5z" />
    <glyph glyph-name="notequal" unicode="&#x2260;" horiz-adv-x="1238" 
d="M1128 584v-276h-630l-124 -286h-182l125 286h-207v276h328l85 194h-413v276h534l122 278h174l-120 -278h308v-276h-427l-84 -194h511z" />
    <glyph glyph-name="lessequal" unicode="&#x2264;" horiz-adv-x="1238" 
d="M1104 678v-324l-992 384v310l992 382v-322l-580 -218zM1128 290v-274h-1018v274h1018z" />
    <glyph glyph-name="greaterequal" unicode="&#x2265;" horiz-adv-x="1238" 
d="M132 678l582 212l-582 218v322l994 -382v-310l-994 -384v324zM110 290h1018v-274h-1018v274z" />
    <glyph glyph-name="lozenge" unicode="&#x25ca;" horiz-adv-x="1234" 
d="M756 0h-238l-378 724l386 722h240l378 -718zM644 1174l-220 -446l220 -464l222 460z" />
    <glyph glyph-name="i.loclTRK" horiz-adv-x="571" 
d="M110 1155v291h362v-291h-362zM471 1034v-1034h-371v1034h371z" />
    <glyph glyph-name="g.ss01" horiz-adv-x="1232" 
d="M1140 238q0 -258 -158.5 -416t-409.5 -158q-80 0 -152 18.5t-123 48.5t-92 67t-65.5 76.5t-37 73.5t-12.5 60h354q0 -19 36 -42.5t88 -23.5q99 0 155.5 59.5t56.5 144.5v34q-41 -67 -115.5 -92.5t-184.5 -25.5q-74 0 -148 37t-133 100.5t-96 157.5t-37 199
q0 87 26.5 172.5t76 159t131 119t180.5 45.5q85 0 162.5 -41.5t113.5 -98.5v120h386zM608 332q72 0 110 62.5t38 161.5q0 91 -42 161.5t-106 70.5q-72 0 -111.5 -68.5t-39.5 -163.5q0 -90 42.5 -157t108.5 -67z" />
    <glyph glyph-name="l.ss01" horiz-adv-x="670" 
d="M140 0v1486h390v-1486h-390z" />
    <glyph glyph-name="zero.osf" horiz-adv-x="1349" 
d="M677 1466q279 0 435.5 -197t156.5 -549t-154.5 -547t-437.5 -195q-284 0 -440.5 195t-156.5 547t158 549t439 197zM675 288q107 0 149 96t42 334q0 245 -43 347.5t-148 102.5t-149 -103t-44 -347q0 -236 43 -333t150 -97z" />
    <glyph glyph-name="one.osf" horiz-adv-x="895" 
d="M319 0v1022h-239v204q172 0 268 59.5t112 160.5h250v-1446h-391z" />
    <glyph glyph-name="two.osf" horiz-adv-x="1340" 
d="M102 0v260q0 81 25.5 150.5t69 120t100 93t118.5 74.5t124 60.5t118.5 55t100 54t69 61.5t25.5 73q0 66 -46 108t-124 42q-87 0 -151 -51.5t-85 -164.5h-366q0 114 37.5 209.5t111.5 167.5t192 112.5t269 40.5q264 0 417 -126t153 -334q0 -81 -25 -149t-66.5 -115.5
t-96 -86.5t-114.5 -67t-120 -52.5t-114.5 -47t-96 -46t-66.5 -54.5t-25 -68h714v-320h-1148z" />
    <glyph glyph-name="three.osf" horiz-adv-x="1393" 
d="M80 980q0 124 45 218t126.5 152t188.5 87t237 29q133 0 240.5 -23t191 -69.5t129.5 -125.5t46 -184q0 -111 -59.5 -187t-194.5 -121q54 -15 101.5 -40t90 -65t67 -99.5t24.5 -131.5q0 -110 -52 -196t-142 -139t-204 -80t-245 -27q-290 0 -440 129.5t-150 368.5h368
q37 -192 222 -192q108 0 169 42t61 110q0 59 -54 99.5t-146 44.5l-145 8v300l126 10q191 15 191 148q0 63 -60 95.5t-146 32.5q-99 0 -154 -42.5t-66 -151.5h-366z" />
    <glyph glyph-name="four.osf" horiz-adv-x="1363" 
d="M726 1446h376v-852h208v-318h-208v-276h-371l1 276h-652v304zM434 594h302v402z" />
    <glyph glyph-name="five.osf" horiz-adv-x="1412" 
d="M244 1446h988l-16 -312h-674l-21 -240q102 28 158.5 39t125.5 11q238 0 382.5 -126t144.5 -346q0 -232 -160 -363t-438 -131q-220 0 -395.5 87t-258.5 225l290 196q40 -52 65.5 -80t65.5 -60.5t86 -47t102 -14.5q105 0 171.5 50t66.5 124q0 72 -62.5 125t-170.5 53
q-45 0 -86.5 -11.5t-109.5 -40.5q-20 -9 -28 -8.5t-30 10.5l-263 142z" />
    <glyph glyph-name="six.osf" horiz-adv-x="1389" 
d="M725 1466q151 0 277 -53t204 -158t78 -243h-351q-25 80 -73 117t-126 37q-119 0 -181 -100t-38 -230q107 66 290 66q225 0 364.5 -119.5t139.5 -310.5q0 -103 -45 -194.5t-122.5 -157t-188 -104t-236.5 -38.5q-296 0 -466.5 196t-170.5 516q0 362 174 569t471 207z
M702 622q-64 0 -127.5 -38.5t-63.5 -67.5q0 -122 51.5 -186t137.5 -64q79 0 139.5 54.5t60.5 133.5q0 44 -17.5 78t-47 53t-63 28t-70.5 9z" />
    <glyph glyph-name="seven.osf" horiz-adv-x="1299" 
d="M80 1446h1139v-312q-103 -115 -209 -310.5t-178.5 -425t-68.5 -398.5h-418q0 86 25 206.5t76.5 271.5t149.5 326t226 330h-742v312z" />
    <glyph glyph-name="eight.osf" horiz-adv-x="1384" 
d="M692 1466q159 0 282 -47t195.5 -143t72.5 -228q0 -100 -55.5 -177t-142.5 -123q97 -22 178.5 -121t81.5 -217q0 -198 -167.5 -314.5t-444.5 -116.5t-444.5 116.5t-167.5 314.5q0 118 81.5 217t178.5 121q-87 46 -142.5 123t-55.5 177q0 132 72.5 228t195.5 143t282 47z
M692 892q71 0 118.5 44.5t47.5 117.5t-47.5 117.5t-118.5 44.5t-118.5 -44.5t-47.5 -117.5t47.5 -117.5t118.5 -44.5zM692 264q95 0 147.5 43.5t52.5 116.5q0 75 -53 119.5t-147 44.5t-147 -44.5t-53 -119.5q0 -73 53 -116.5t147 -43.5z" />
    <glyph glyph-name="nine.osf" horiz-adv-x="1380" 
d="M653 -22q-150 0 -278 57t-207 163.5t-80 239.5h366q12 -73 59.5 -116.5t122.5 -43.5q136 0 213 83.5t59 268.5q-99 -102 -306 -102q-229 0 -375.5 124t-146.5 326q0 211 164 349.5t420 138.5q296 0 466 -192.5t170 -513.5q0 -201 -45.5 -352t-131 -244.5t-203 -139.5
t-267.5 -46zM678 828q64 0 128 38.5t64 67.5q0 123 -51.5 185.5t-138.5 62.5q-78 0 -131 -52.5t-53 -133.5q0 -79 54 -123.5t128 -44.5z" />
    <glyph glyph-name="zero.tf" horiz-adv-x="1400" 
d="M702 1466q279 0 435.5 -197t156.5 -549t-154.5 -547t-437.5 -195q-284 0 -440.5 195t-156.5 547t158 549t439 197zM700 288q107 0 149 96t42 334q0 245 -43 347.5t-148 102.5t-149 -103t-44 -347q0 -236 43 -333t150 -97z" />
    <glyph glyph-name="one.tf" horiz-adv-x="1400" 
d="M170 320h374v712l-354 -78v328l592 164h136v-1126h312v-320h-1060v320z" />
    <glyph glyph-name="two.tf" horiz-adv-x="1400" 
d="M145 0v260q0 81 25.5 150.5t69 120t100 93t118.5 74.5t124 60.5t118.5 55t100 54t69 61.5t25.5 73q0 66 -46 108t-124 42q-87 0 -151 -51.5t-85 -164.5h-366q0 114 37.5 209.5t111.5 167.5t192 112.5t269 40.5q264 0 417 -126t153 -334q0 -81 -25 -149t-66.5 -115.5
t-96 -86.5t-114.5 -67t-120 -52.5t-114.5 -47t-96 -46t-66.5 -54.5t-25 -68h714v-320h-1148z" />
    <glyph glyph-name="three.tf" horiz-adv-x="1400" 
d="M94 980q0 124 45 218t126.5 152t188.5 87t237 29q133 0 240.5 -23t191 -69.5t129.5 -125.5t46 -184q0 -111 -59.5 -187t-194.5 -121q54 -15 101.5 -40t90 -65t67 -99.5t24.5 -131.5q0 -110 -52 -196t-142 -139t-204 -80t-245 -27q-290 0 -440 129.5t-150 368.5h368
q37 -192 222 -192q108 0 169 42t61 110q0 59 -54 99.5t-146 44.5l-145 8v300l126 10q191 15 191 148q0 63 -60 95.5t-146 32.5q-99 0 -154 -42.5t-66 -151.5h-366z" />
    <glyph glyph-name="four.tf" horiz-adv-x="1400" 
d="M729 1446h376v-852h208v-318h-208v-276h-371l1 276h-652v304zM437 594h302v402z" />
    <glyph glyph-name="five.tf" horiz-adv-x="1400" 
d="M286 1446h988l-16 -312h-674l-21 -240q102 28 158.5 39t125.5 11q238 0 382.5 -126t144.5 -346q0 -232 -160 -363t-438 -131q-220 0 -395.5 87t-258.5 225l290 196q40 -52 65.5 -80t65.5 -60.5t86 -47t102 -14.5q105 0 171.5 50t66.5 124q0 72 -62.5 125t-170.5 53
q-45 0 -86.5 -11.5t-109.5 -40.5q-20 -9 -28 -8.5t-30 10.5l-263 142z" />
    <glyph glyph-name="six.tf" horiz-adv-x="1400" 
d="M731 1466q151 0 277 -53t204 -158t78 -243h-351q-25 80 -73 117t-126 37q-119 0 -181 -100t-38 -230q107 66 290 66q225 0 364.5 -119.5t139.5 -310.5q0 -103 -45 -194.5t-122.5 -157t-188 -104t-236.5 -38.5q-296 0 -466.5 196t-170.5 516q0 362 174 569t471 207z
M708 622q-64 0 -127.5 -38.5t-63.5 -67.5q0 -122 51.5 -186t137.5 -64q79 0 139.5 54.5t60.5 133.5q0 44 -17.5 78t-47 53t-63 28t-70.5 9z" />
    <glyph glyph-name="seven.tf" horiz-adv-x="1400" 
d="M101 1446h1198v-312q-79 -87 -167.5 -223t-168.5 -292.5t-131.5 -324t-48.5 -294.5h-418q0 81 34 205t98 274t170.5 324t235.5 331h-802v312z" />
    <glyph glyph-name="eight.tf" horiz-adv-x="1400" 
d="M700 1466q159 0 282 -47t195.5 -143t72.5 -228q0 -100 -55.5 -177t-142.5 -123q97 -22 178.5 -121t81.5 -217q0 -198 -167.5 -314.5t-444.5 -116.5t-444.5 116.5t-167.5 314.5q0 118 81.5 217t178.5 121q-87 46 -142.5 123t-55.5 177q0 132 72.5 228t195.5 143t282 47z
M700 892q71 0 118.5 44.5t47.5 117.5t-47.5 117.5t-118.5 44.5t-118.5 -44.5t-47.5 -117.5t47.5 -117.5t118.5 -44.5zM700 264q95 0 147.5 43.5t52.5 116.5q0 75 -53 119.5t-147 44.5t-147 -44.5t-53 -119.5q0 -73 53 -116.5t147 -43.5z" />
    <glyph glyph-name="nine.tf" horiz-adv-x="1400" 
d="M670 -22q-150 0 -278 57t-207 163.5t-80 239.5h366q12 -73 59.5 -116.5t122.5 -43.5q136 0 213 83.5t59 268.5q-99 -102 -306 -102q-229 0 -375.5 124t-146.5 326q0 211 164 349.5t420 138.5q296 0 466 -192.5t170 -513.5q0 -201 -45.5 -352t-131 -244.5t-203 -139.5
t-267.5 -46zM695 828q64 0 128 38.5t64 67.5q0 123 -51.5 185.5t-138.5 62.5q-78 0 -131 -52.5t-53 -133.5q0 -79 53.5 -123.5t128.5 -44.5z" />
    <glyph glyph-name="zero.subs" horiz-adv-x="846" 
d="M425 591q175 0 273.5 -124t98.5 -346q0 -221 -97 -342t-275 -121q-179 0 -277.5 121t-98.5 342q0 222 99.5 346t276.5 124zM423 -150q68 0 94.5 60t26.5 209q0 154 -27.5 219t-93.5 65t-93.5 -65.5t-27.5 -218.5q0 -148 27 -208.5t94 -60.5z" />
    <glyph glyph-name="one.subs" horiz-adv-x="543" 
d="M190 -331v643h-151v128q109 0 169 37.5t70 101.5h158v-910h-246z" />
    <glyph glyph-name="two.subs" horiz-adv-x="830" 
d="M53 -330v163q0 65 26 118t67.5 88t92 63.5t101 50.5t92 43t67.5 47t26 57q0 41 -29 68t-78 27q-55 0 -95 -32.5t-53 -103.5h-231q0 149 98 241t286 92q166 0 262 -79t96 -210q0 -65 -25 -116t-65 -83.5t-88.5 -57.5t-97.5 -44t-89 -36.5t-65 -41t-25 -52.5h449v-202h-722
z" />
    <glyph glyph-name="three.subs" horiz-adv-x="893" 
d="M59 286q0 152 103 228.5t273 76.5q112 0 195 -24.5t134.5 -82.5t51.5 -145q0 -70 -37.5 -118t-122.5 -76q75 -20 126.5 -72t51.5 -140q0 -91 -57 -155.5t-146.5 -93t-200.5 -28.5q-182 0 -276.5 81t-94.5 231h231q24 -120 140 -120q68 0 106.5 26.5t38.5 68.5
q0 37 -34 62.5t-92 28.5l-92 5v189l80 6q120 9 120 93q0 40 -37.5 60t-91.5 20q-63 0 -97.5 -26.5t-41.5 -94.5h-230z" />
    <glyph glyph-name="four.subs" horiz-adv-x="852" 
d="M444 582h238v-536h131v-199h-131v-174h-234l1 174h-410v190zM261 46h190v253z" />
    <glyph glyph-name="five.subs" horiz-adv-x="886" 
d="M152 580h622l-10 -197h-424l-14 -151q117 32 179 32q150 0 241 -79.5t91 -217.5q0 -145 -101 -227t-275 -82q-139 0 -249.5 54.5t-162.5 140.5l183 123q34 -43 55.5 -65.5t60 -42t84.5 -19.5q66 0 108 31.5t42 77.5t-39.5 79t-106.5 33q-48 0 -124 -33q-13 -5 -18 -5
t-18 7l-166 89z" />
    <glyph glyph-name="six.subs" horiz-adv-x="871" 
d="M455 591q147 0 249.5 -77.5t102.5 -207.5h-222q-29 97 -124 97q-76 0 -115 -63t-24 -145q70 42 183 42q142 0 229.5 -75.5t87.5 -195.5q0 -131 -105.5 -217.5t-266.5 -86.5q-187 0 -294 120.5t-107 320.5q0 228 109.5 358t296.5 130zM440 60q-40 0 -80 -24t-40 -42
q0 -77 32 -116t87 -39q50 0 88 33t38 83q0 54 -37 79.5t-88 25.5z" />
    <glyph glyph-name="seven.subs" horiz-adv-x="775" 
d="M39 580h717v-197q-104 -113 -197.5 -333.5t-89.5 -379.5h-263q0 75 25.5 180.5t97 255.5t177.5 277h-467v197z" />
    <glyph glyph-name="eight.subs" horiz-adv-x="887" 
d="M444 593q154 0 250 -68.5t96 -192.5q0 -63 -35 -111t-90 -77q61 -14 112 -76.5t51 -136.5q0 -125 -105 -196.5t-279 -71.5q-175 0 -280 71.5t-105 196.5q0 74 51.5 136.5t112.5 76.5q-55 29 -90 77t-35 111q0 124 96 192.5t250 68.5zM444 234q45 0 75 28t30 74t-30 74
t-75 28t-74.5 -28t-29.5 -74t30 -74t74 -28zM444 -161q59 0 92 27.5t33 73.5q0 47 -33 75t-92 28q-60 0 -93 -28t-33 -75q0 -46 33 -73.5t93 -27.5z" />
    <glyph glyph-name="nine.subs" horiz-adv-x="865" 
d="M410 -342q-95 0 -175.5 35t-130 101t-50.5 150h230q8 -45 37.5 -71t76.5 -26q87 0 135 51t37 167q-65 -65 -193 -65q-143 0 -235.5 78t-92.5 205q0 132 103 218.5t264 86.5q187 0 293.5 -120.5t106.5 -321.5q0 -249 -107 -368.5t-299 -119.5zM425 189q39 0 80 24.5
t41 41.5q0 78 -32 117t-87 39q-49 0 -82.5 -32.5t-33.5 -83.5q0 -50 33.5 -78t80.5 -28z" />
    <glyph glyph-name="zero.dnom" horiz-adv-x="846" 
d="M425 921q175 0 273.5 -124t98.5 -346q0 -221 -97 -342t-275 -121q-179 0 -277.5 121t-98.5 342q0 222 99.5 346t276.5 124zM423 180q68 0 94.5 60t26.5 209q0 154 -27.5 219t-93.5 65t-93.5 -65.5t-27.5 -218.5q0 -148 27 -208.5t94 -60.5z" />
    <glyph glyph-name="one.dnom" horiz-adv-x="543" 
d="M190 -1v643h-151v128q109 0 169 37.5t70 101.5h158v-910h-246z" />
    <glyph glyph-name="two.dnom" horiz-adv-x="830" 
d="M53 0v163q0 65 26 118t67.5 88t92 63.5t101 50.5t92 43t67.5 47t26 57q0 41 -29 68t-78 27q-55 0 -95 -32.5t-53 -103.5h-231q0 149 98 241t286 92q166 0 262 -79t96 -210q0 -65 -25 -116t-65 -83.5t-88.5 -57.5t-97.5 -44t-89 -36.5t-65 -41t-25 -52.5h449v-202h-722z
" />
    <glyph glyph-name="three.dnom" horiz-adv-x="893" 
d="M59 616q0 152 103 228.5t273 76.5q112 0 195 -24.5t134.5 -82.5t51.5 -145q0 -70 -37.5 -118t-122.5 -76q75 -20 126.5 -72t51.5 -140q0 -91 -57 -155.5t-146.5 -93t-200.5 -28.5q-182 0 -276.5 81t-94.5 231h231q24 -120 140 -120q68 0 106.5 26.5t38.5 68.5
q0 37 -34 62.5t-92 28.5l-92 5v189l80 6q120 9 120 93q0 40 -37.5 60t-91.5 20q-63 0 -97.5 -26.5t-41.5 -94.5h-230z" />
    <glyph glyph-name="four.dnom" horiz-adv-x="852" 
d="M444 912h238v-536h131v-199h-131v-174h-234l1 174h-410v190zM261 376h190v253z" />
    <glyph glyph-name="five.dnom" horiz-adv-x="886" 
d="M152 910h622l-10 -197h-424l-14 -151q117 32 179 32q150 0 241 -79.5t91 -217.5q0 -145 -101 -227t-275 -82q-139 0 -249.5 54.5t-162.5 140.5l183 123q34 -43 55.5 -65.5t60 -42t84.5 -19.5q66 0 108 31.5t42 77.5t-39.5 79t-106.5 33q-48 0 -124 -33q-13 -5 -18 -5
t-18 7l-166 89z" />
    <glyph glyph-name="six.dnom" horiz-adv-x="871" 
d="M455 921q147 0 249.5 -77.5t102.5 -207.5h-222q-29 97 -124 97q-76 0 -115 -63t-24 -145q70 42 183 42q142 0 229.5 -75.5t87.5 -195.5q0 -131 -105.5 -217.5t-266.5 -86.5q-187 0 -294 120.5t-107 320.5q0 228 109.5 358t296.5 130zM440 390q-40 0 -80 -24t-40 -42
q0 -77 32 -116t87 -39q50 0 88 33t38 83q0 54 -37 79.5t-88 25.5z" />
    <glyph glyph-name="seven.dnom" horiz-adv-x="775" 
d="M39 910h717v-197q-104 -113 -197.5 -333.5t-89.5 -379.5h-263q0 75 25.5 180.5t97 255.5t177.5 277h-467v197z" />
    <glyph glyph-name="eight.dnom" horiz-adv-x="887" 
d="M444 921q154 0 250 -68.5t96 -192.5q0 -63 -35 -111t-90 -77q61 -14 112 -76.5t51 -136.5q0 -125 -105 -196.5t-279 -71.5q-175 0 -280 71.5t-105 196.5q0 74 51.5 136.5t112.5 76.5q-55 29 -90 77t-35 111q0 124 96 192.5t250 68.5zM444 562q45 0 75 28t30 74t-30 74
t-75 28t-74.5 -28t-29.5 -74t30 -74t74 -28zM444 167q59 0 92 27.5t33 73.5q0 47 -33 75t-92 28q-60 0 -93 -28t-33 -75q0 -46 33 -73.5t93 -27.5z" />
    <glyph glyph-name="nine.dnom" horiz-adv-x="865" 
d="M410 -12q-95 0 -175.5 35t-130 101t-50.5 150h230q8 -45 37.5 -71t76.5 -26q87 0 135 51t37 167q-65 -65 -193 -65q-143 0 -235.5 78t-92.5 205q0 132 103 218.5t264 86.5q187 0 293.5 -120.5t106.5 -321.5q0 -249 -107 -368.5t-299 -119.5zM425 519q39 0 80 24.5
t41 41.5q0 78 -32 117t-87 39q-49 0 -82.5 -32.5t-33.5 -83.5q0 -50 33.5 -78t80.5 -28z" />
    <glyph glyph-name="zero.numr" horiz-adv-x="846" 
d="M425 1459q175 0 273.5 -124t98.5 -346q0 -221 -97 -342t-275 -121q-179 0 -277.5 121t-98.5 342q0 222 99.5 346t276.5 124zM423 718q68 0 94.5 60t26.5 209q0 154 -27.5 219t-93.5 65t-93.5 -65.5t-27.5 -218.5q0 -148 27 -208.5t94 -60.5z" />
    <glyph glyph-name="one.numr" horiz-adv-x="543" 
d="M190 536v643h-151v128q109 0 169 37.5t70 101.5h158v-910h-246z" />
    <glyph glyph-name="two.numr" horiz-adv-x="830" 
d="M53 538v163q0 65 26 118t67.5 88t92 63.5t101 50.5t92 43t67.5 47t26 57q0 41 -29 68t-78 27q-55 0 -95 -32.5t-53 -103.5h-231q0 149 98 241t286 92q166 0 262 -79t96 -210q0 -65 -25 -116t-65 -83.5t-88.5 -57.5t-97.5 -44t-89 -36.5t-65 -41t-25 -52.5h449v-202h-722z
" />
    <glyph glyph-name="three.numr" horiz-adv-x="893" 
d="M59 1156q0 152 103 228.5t273 76.5q112 0 195 -24.5t134.5 -82.5t51.5 -145q0 -70 -37.5 -118t-122.5 -76q75 -20 126.5 -72t51.5 -140q0 -91 -57 -155.5t-146.5 -93t-200.5 -28.5q-182 0 -276.5 81t-94.5 231h231q24 -120 140 -120q68 0 106.5 26.5t38.5 68.5
q0 37 -34 62.5t-92 28.5l-92 5v189l80 6q120 9 120 93q0 40 -37.5 60t-91.5 20q-63 0 -97.5 -26.5t-41.5 -94.5h-230z" />
    <glyph glyph-name="four.numr" horiz-adv-x="852" 
d="M444 1447h238v-536h131v-199h-131v-174h-234l1 174h-410v190zM261 911h190v253z" />
    <glyph glyph-name="five.numr" horiz-adv-x="886" 
d="M152 1446h622l-10 -197h-424l-14 -151q117 32 179 32q150 0 241 -79.5t91 -217.5q0 -145 -101 -227t-275 -82q-139 0 -249.5 54.5t-162.5 140.5l183 123q34 -43 55.5 -65.5t60 -42t84.5 -19.5q66 0 108 31.5t42 77.5t-39.5 79t-106.5 33q-48 0 -124 -33q-13 -5 -18 -5
t-18 7l-166 89z" />
    <glyph glyph-name="six.numr" horiz-adv-x="871" 
d="M455 1456q147 0 249.5 -77.5t102.5 -207.5h-222q-29 97 -124 97q-76 0 -115 -63t-24 -145q70 42 183 42q142 0 229.5 -75.5t87.5 -195.5q0 -131 -105.5 -217.5t-266.5 -86.5q-187 0 -294 120.5t-107 320.5q0 228 109.5 358t296.5 130zM440 925q-40 0 -80 -24t-40 -42
q0 -77 32 -116t87 -39q50 0 88 33t38 83q0 54 -37 79.5t-88 25.5z" />
    <glyph glyph-name="seven.numr" horiz-adv-x="775" 
d="M39 1448h717v-197q-104 -113 -197.5 -333.5t-89.5 -379.5h-263q0 75 25.5 180.5t97 255.5t177.5 277h-467v197z" />
    <glyph glyph-name="eight.numr" horiz-adv-x="887" 
d="M444 1456q154 0 250 -68.5t96 -192.5q0 -63 -35 -111t-90 -77q61 -14 112 -76.5t51 -136.5q0 -125 -105 -196.5t-279 -71.5q-175 0 -280 71.5t-105 196.5q0 74 51.5 136.5t112.5 76.5q-55 29 -90 77t-35 111q0 124 96 192.5t250 68.5zM444 1097q45 0 75 28t30 74t-30 74
t-75 28t-74.5 -28t-29.5 -74t30 -74t74 -28zM444 702q59 0 92 27.5t33 73.5q0 47 -33 75t-92 28q-60 0 -93 -28t-33 -75q0 -46 33 -73.5t93 -27.5z" />
    <glyph glyph-name="nine.numr" horiz-adv-x="865" 
d="M410 526q-95 0 -175.5 35t-130 101t-50.5 150h230q8 -45 37.5 -71t76.5 -26q87 0 135 51t37 167q-65 -65 -193 -65q-143 0 -235.5 78t-92.5 205q0 132 103 218.5t264 86.5q187 0 293.5 -120.5t106.5 -321.5q0 -249 -107 -368.5t-299 -119.5zM425 1057q39 0 80 24.5
t41 41.5q0 78 -32 117t-87 39q-49 0 -82.5 -32.5t-33.5 -83.5q0 -50 33.5 -78t80.5 -28z" />
    <glyph glyph-name="fraction.alt" horiz-adv-x="1407" 
d="M1297 1462l-972 -1470l-215 4l974 1466h213z" />
    <glyph glyph-name="period.tf" horiz-adv-x="600" 
d="M95 0v392h410v-392h-410z" />
    <glyph glyph-name="comma.tf" horiz-adv-x="600" 
d="M121 -306l120 294l-116 14v338h354v-300l-230 -346h-128z" />
    <glyph glyph-name="emdash.alt" horiz-adv-x="1653" 
d="M1653 630v-274h-1653v274h1653z" />
    <glyph glyph-name="cent.tf" horiz-adv-x="1400" 
d="M866 0h-244v215q-178 38 -289 178.5t-111 340.5q0 204 110.5 347t289.5 182v183h244v-184q154 -36 241 -155t90 -273h-315q-4 26 -11 49t-22 49t-41.5 41t-61.5 15q-77 0 -121.5 -64t-44.5 -186q0 -125 48.5 -196.5t125.5 -71.5q34 0 60.5 17t40.5 44t21 48.5t10 42.5
h306q0 -144 -87.5 -257.5t-238.5 -148.5v-216z" />
    <glyph glyph-name="colonmonetary.tf" horiz-adv-x="1400" 
d="M691 1560h154l-19 -101q52 -7 87 -17l22 118h154l-33 -174q126 -68 203.5 -185t92.5 -265h-382l-110 -582q67 68 86 186h406q-12 -92 -33.5 -166t-63.5 -146.5t-102 -122t-152.5 -83t-211.5 -40.5l-20 -104h-154l20 107q-32 3 -87 15l-23 -122h-154l33 176
q-175 90 -273.5 271.5t-98.5 416.5q0 316 173 511t468 212zM608 317q36 -21 86 -24l156 819q-35 26 -83 37zM459 736q0 -147 29 -245l122 643q-151 -71 -151 -398z" />
    <glyph glyph-name="dollar.tf" horiz-adv-x="1400" 
d="M565 1644h326v-195q194 -39 304.5 -159t101.5 -282h-394q-3 37 -10.5 62t-25 48t-50.5 34.5t-82 11.5q-104 0 -151 -34t-47 -80q0 -51 33 -79t125 -47l226 -46q400 -83 400 -468q0 -168 -113.5 -277.5t-316.5 -140.5v-166h-326v164q-454 59 -486 450h404
q17 -77 81.5 -119.5t166.5 -42.5q87 0 132.5 38t45.5 94q0 62 -40.5 86.5t-141.5 41.5l-226 38q-174 28 -275.5 137t-104.5 289q-2 177 121 294.5t323 153.5v194z" />
    </font>
</defs>
</svg>
