<svg xmlns="http://www.w3.org/2000/svg" width="76.923" height="97.182" viewBox="0 0 76.923 97.182"><path d="M62.629,2.539H55.537a1.424,1.424,0,1,0,0,2.847h.88V83.992H3.272V5.386H9.2V8.62a4.5,4.5,0,0,0,4.5,4.5h6.73a7.977,7.977,0,0,0,7.836,6.54H31.43a7.977,7.977,0,0,0,7.835-6.54H46a4.5,4.5,0,0,0,4.5-4.5V2.476a4.5,4.5,0,0,0-4.5-4.5h-32.3a4.5,4.5,0,0,0-4.5,4.5v.063H-2.94A5.684,5.684,0,0,0-8.618,8.216V65.362a1.423,1.423,0,0,0,1.424,1.424,1.424,1.424,0,0,0,1.424-1.424V8.216a2.834,2.834,0,0,1,2.83-2.83H.425V85.414a1.424,1.424,0,0,0,1.424,1.423H57.84a1.423,1.423,0,0,0,1.424-1.423V5.386h3.365a2.833,2.833,0,0,1,2.83,2.83V89.485a2.833,2.833,0,0,1-2.83,2.831H-2.94a2.834,2.834,0,0,1-2.83-2.831V72.072a1.424,1.424,0,0,0-1.424-1.423,1.424,1.424,0,0,0-1.424,1.423V89.485A5.684,5.684,0,0,0-2.94,95.163H62.629a5.684,5.684,0,0,0,5.677-5.678V8.216a5.684,5.684,0,0,0-5.677-5.677ZM12.044,2.476A1.65,1.65,0,0,1,13.692.828H46a1.65,1.65,0,0,1,1.648,1.648V8.62A1.65,1.65,0,0,1,46,10.268H37.97a1.423,1.423,0,0,0-1.424,1.424,5.122,5.122,0,0,1-5.117,5.116H28.258a5.122,5.122,0,0,1-5.116-5.116,1.424,1.424,0,0,0-1.424-1.424H13.692A1.65,1.65,0,0,1,12.044,8.62Zm0,0" transform="translate(8.618 2.019)"/><path d="M223.3,267.7h-7.527l-4.811-13.137a1.425,1.425,0,0,0-2.716.139l-5.167,20.346L198.09,260.54a1.425,1.425,0,0,0-2.588-.233l-4.15,7.4h-4.318a1.423,1.423,0,1,0,0,2.847h5.152a1.425,1.425,0,0,0,1.242-.727l3-5.354,5.507,16.02a1.425,1.425,0,0,0,2.726-.112l5.209-20.508,3.569,9.747a1.423,1.423,0,0,0,1.337.934H223.3a1.423,1.423,0,0,0,0-2.847Zm0,0" transform="translate(-166.705 -228.753)"/><path d="M223.3,639.355H187.033a1.424,1.424,0,1,0,0,2.847H223.3a1.424,1.424,0,1,0,0-2.847Zm0,0" transform="translate(-166.704 -576.927)"/><path d="M223.3,768.207H187.033a1.424,1.424,0,1,0,0,2.847H223.3a1.424,1.424,0,1,0,0-2.847Zm0,0" transform="translate(-166.704 -693.238)"/></svg>