<svg xmlns="http://www.w3.org/2000/svg" width="18.596" height="18.723" viewBox="0 0 18.596 18.723"><defs><style>.a{fill:#db9a60;stroke:#db9a60;}</style></defs><g transform="translate(18.022 0.627) rotate(90)"><path class="a" d="M99.653,140.333a.408.408,0,1,0-.577.577l3.09,3.09h-8.21a.409.409,0,1,0,0,.819h8.205l-3.09,3.09a.408.408,0,0,0,0,.577.4.4,0,0,0,.291.119.419.419,0,0,0,.29-.119l3.786-3.785a.406.406,0,0,0,.119-.291.422.422,0,0,0-.119-.29Zm0,0" transform="translate(-90.478 -135.684)"/><path class="a" d="M8.8-.074A8.8,8.8,0,1,0,15.02,2.5,8.8,8.8,0,0,0,8.8-.074ZM8.8,16.7a7.98,7.98,0,1,1,7.98-7.98A7.991,7.991,0,0,1,8.8,16.7Zm0,0" transform="translate(0 0)"/></g></svg>