<svg xmlns="http://www.w3.org/2000/svg" viewBox="0 0 648.85 264.77"><defs><style>.cls-1{fill:#fff;}</style></defs><title>sanus blanco</title><g id="Capa_2" data-name="Capa 2"><g id="Capa_1-2" data-name="Capa 1"><path class="cls-1" d="M100.88,71.41a8.77,8.77,0,0,0-8.77,8.77v30.69a8.77,8.77,0,0,0,17.53,0V80.18A8.77,8.77,0,0,0,100.88,71.41Z"/><path class="cls-1" d="M204.17,132.39a16.81,16.81,0,1,0-27.6,12.89v24.81a77.88,77.88,0,0,1-7.82,34.1l.06,0a76,76,0,0,1-57,42.19h0c-1.62.24-3.26.41-4.91.55L106,247c-1.68.12-3.37.19-5.08.19C67,247.24,38.2,224.39,28.6,193a77.89,77.89,0,0,1-3-15q-.39-3.89-.39-7.88V147a16.81,16.81,0,1,0-17.53-.48v23.61c0,52.21,41.82,94.68,93.23,94.68q2.44,0,4.84-.13h.16c47.08-2.53,85-40.6,88-88.13,0-.08,0-.16,0-.24.12-1.95.2-3.9.2-5.88v-.29h0v-22.3A16.81,16.81,0,0,0,204.17,132.39Z"/><path class="cls-1" d="M25.19,108.62V94.69A77.88,77.88,0,0,1,33,60.59l-.06,0a76,76,0,0,1,57-42.19h0c1.62-.24,3.26-.41,4.91-.55l.94-.07c1.68-.12,3.37-.19,5.08-.19,33.91,0,62.68,22.85,72.28,54.23a77.9,77.9,0,0,1,3,15q.39,3.89.39,7.88v14.93a24.87,24.87,0,0,1,17.53-1.51V94.68C194.11,42.47,152.29,0,100.88,0Q98.44,0,96,.13h-.16c-47.08,2.53-85,40.6-88,88.13,0,.08,0,.16,0,.24-.12,1.95-.2,3.9-.2,5.88v.29h0v14.22a24.91,24.91,0,0,1,17.53-.29Z"/><path class="cls-1" d="M263.85,108.47l-18.75-6.61q-10.39-3.77-14.84-10.25t-4.45-17q0-15.38,7.49-20.57t26.37-5.19q17.81,0,30.62,3.64l-1.35,14q-11.74-.41-29.14-.41-8.09,0-10.79,1.42t-2.7,7.08q0,4.59,2,6.61T256,85.13L273.7,91.2q10.79,3.78,15.24,10.32t4.45,17.07q0,15.65-7.55,21.25t-27,5.6a150.74,150.74,0,0,1-32-3.51l1.21-14.84q28.73.68,30.76.68,8.23,0,11-1.75t2.77-7.28q0-4.72-1.89-6.68T263.85,108.47Z"/><path class="cls-1" d="M358.41,119.26h-32l-6.75,24.42h-21L325.5,56a6.43,6.43,0,0,1,2.56-3.91,7.57,7.57,0,0,1,4.59-1.48h19.43q5.8,0,7.15,5.4l26.84,87.68H365.16ZM354,103.34l-7.82-28.46q-1.62-6.74-1.89-8.77h-3.64q-.27,1.35-.94,4.32t-1.08,4.45l-7.82,28.46Z"/><path class="cls-1" d="M474.16,50.6v85.66q0,7.42-7.28,7.42H454.06a7.53,7.53,0,0,1-4.86-1.42,14,14,0,0,1-3.37-4.65L421.41,88q-4.59-9.85-5.67-14.43h-1.48a107.72,107.72,0,0,1,.94,14.84v55.31H395.64V58q0-7.42,7.42-7.42h12.55A7.53,7.53,0,0,1,420.47,52a14,14,0,0,1,3.37,4.65l23.61,48.16q3.37,6.75,6.75,15h1.35q-.81-10.52-.81-15.65V50.6Z"/><path class="cls-1" d="M566.83,50.6v56q0,21.32-8.16,30.08t-28.13,8.77q-21,0-29.61-8.77t-8.57-30.08v-56h20.5v56q0,12.82,3.58,17.54t13.15,4.72q9.44,0,13-4.72t3.58-17.54v-56Z"/><path class="cls-1" d="M619.3,108.47l-18.75-6.61q-10.39-3.77-14.84-10.25t-4.45-17q0-15.38,7.49-20.57t26.37-5.19q17.81,0,30.62,3.64l-1.35,14q-11.74-.41-29.14-.41-8.09,0-10.79,1.42t-2.7,7.08q0,4.59,2,6.61t7.69,3.91l17.67,6.07q10.79,3.78,15.24,10.32t4.45,17.07q0,15.65-7.55,21.25t-27,5.6a150.75,150.75,0,0,1-32-3.51l1.21-14.84q28.73.68,30.76.68,8.23,0,11-1.75t2.77-7.28q0-4.72-1.89-6.68T619.3,108.47Z"/><path class="cls-1" d="M274,183.54c.65,0,.77.18.71,1l-5.22,25.1c-.65,2.91-1.36,4.81-2.14,5.58s-2.37,1.13-4.81,1.13-4.15-.36-4.81-1-1.36-2.61-2.08-5.7L251.82,193,248,209.59c-.71,3.09-1.42,5-2.08,5.7s-2.25,1-4.81,1c-2.37,0-4-.36-4.81-1.13s-1.48-2.67-2.14-5.58l-5.22-25.1c-.06-.77.06-1,.71-1H234c.3,0,.53.3.71,1l4.87,24.39c.47,2,.71,2.25,1.6,2.25s1.13-.18,1.6-2.25l5.75-23.44c.18-.65.42-.95.83-.95h5c.42,0,.65.3.83.95l5.75,23.44c.47,2.08.59,2.25,1.6,2.25s1.13-.3,1.6-2.25L269,184.49c.18-.77.3-1,.77-1Z"/><path class="cls-1" d="M306.71,186.39c1.72,2.08,2.67,6.23,2.73,12.52v1.72c0,1.25-.42,1.66-2.14,1.66H288.44c.06,3.62.59,6.05,1.6,7.24s3.14,1.78,6.29,1.78h9.73a.79.79,0,0,1,.89.89v2.61a.88.88,0,0,1-.83.95,75.86,75.86,0,0,1-9.91.54c-5.52,0-9.2-1.07-10.92-3.2s-2.61-6.59-2.61-13.29.89-11.09,2.61-13.29,5.4-3.26,10.92-3.26C301.49,183.24,305,184.31,306.71,186.39ZM290,190.13c-1,1.25-1.54,3.74-1.6,7.54h15.37c-.06-3.86-.59-6.35-1.54-7.59s-3-1.84-6-1.84S291,188.88,290,190.13Z"/><path class="cls-1" d="M323.74,171.14a.79.79,0,0,1,.89.89v11.63a58.94,58.94,0,0,1,7.89-.42c5.52,0,9.2,1.13,10.92,3.32s2.61,6.59,2.61,13.29-.89,11-2.67,13.23-5.46,3.2-11.15,3.2a81.28,81.28,0,0,1-12.34-1c-.65-.06-.95-.42-.95-1V172a.79.79,0,0,1,.89-.89Zm.89,17.09v22.61a66.5,66.5,0,0,0,7.65.47c3.5,0,5.75-.71,6.7-2.2s1.42-4.57,1.42-9.31-.48-8-1.42-9.37-3.2-2.2-6.76-2.2Z"/><path class="cls-1" d="M414.23,171.14a.79.79,0,0,1,.89.89v42.3c0,.54-.3.89-1,1a81.28,81.28,0,0,1-12.34,1c-4.75,0-7.65-.6-9.85-2-3.2-2.37-3.92-6.47-4-14.48,0-6.71.89-11.1,2.61-13.29s5.4-3.32,10.92-3.32a57.77,57.77,0,0,1,7.89.42V172a.79.79,0,0,1,.89-.89Zm-4.81,17.09h-7.53c-3.56,0-5.81.71-6.76,2.2s-1.42,4.57-1.42,9.37.47,7.83,1.36,9.31,3.2,2.2,6.76,2.2a65.5,65.5,0,0,0,7.59-.47Z"/><path class="cls-1" d="M449.3,186.39c1.72,2.08,2.67,6.23,2.73,12.52v1.72c0,1.25-.42,1.66-2.14,1.66H431c.06,3.62.59,6.05,1.6,7.24s3.14,1.78,6.29,1.78h9.73a.79.79,0,0,1,.89.89v2.61a.88.88,0,0,1-.83.95,75.86,75.86,0,0,1-9.91.54c-5.52,0-9.2-1.07-10.92-3.2s-2.61-6.59-2.61-13.29.89-11.09,2.61-13.29,5.4-3.26,10.92-3.26C444.08,183.24,447.58,184.31,449.3,186.39Zm-16.73,3.74c-1,1.25-1.54,3.74-1.6,7.54h15.37c-.06-3.86-.59-6.35-1.54-7.59s-3-1.84-6-1.84S433.58,188.88,432.57,190.13Z"/><path class="cls-1" d="M513.8,183.54c.59.12.89.42.89,1V188c0,.59-.3.89-.95.89H502.83c-2.61,0-3.92.89-3.92,2.61v.71c0,1.48,1.07,2.67,3.26,3.5l7.77,2.85c4.81,1.84,6.05,4.45,6.05,8.66V208c0,6.41-3.92,8.31-12.28,8.31q-5.7,0-11.57-.54-.89-.09-.89-.89v-3.68a.82.82,0,0,1,.95-.95h11.51c4,0,5.22-.48,5.22-2.55v-.59c0-1.48-.77-2.43-3.38-3.38l-7.83-3c-4-1.42-5.93-4.33-5.93-8.72v-1.19c0-6,4.51-8,12.76-8A62.85,62.85,0,0,1,513.8,183.54Z"/><path class="cls-1" d="M550.18,192.62v20.65A1.68,1.68,0,0,1,549,215c-3,.89-7.48,1.31-13.35,1.31-4.57,0-7.77-.65-9.67-1.9s-2.85-4-2.85-8c0-7.18,3.5-9.43,11.27-9.43H543v-3.08c0-3.32-2-4.75-6.71-4.75h-9.73c-.71,0-.89-.18-.89-.89v-3.62c0-.71.18-.77.83-.95a52.7,52.7,0,0,1,9.79-.77C546.44,182.89,550.18,186,550.18,192.62ZM543,202.11h-8.19c-3.26,0-4.57,1.07-4.57,4,0,3.32,1.48,4.21,6,4.21a28.82,28.82,0,0,0,6.76-.65Z"/><path class="cls-1" d="M566.85,170.61a.79.79,0,0,1,.89.89v43.61a.79.79,0,0,1-.89.89h-5.4a.79.79,0,0,1-.89-.89V171.5a.79.79,0,0,1,.89-.89Z"/><path class="cls-1" d="M605.48,183.18a.79.79,0,0,1,.89.89v30.26c0,.77-.3.83-.89,1a71,71,0,0,1-13.23,1c-5.93,0-8.72-.36-11.1-2.43s-3-5.34-3-11.69v-18.1c0-.59.36-.89,1-.89h5.34c.53,0,.83.3.83.89v16.79c0,4.51.18,6.64,1.42,7.89s2.37,1.31,5.52,1.31h6.82v-26a.79.79,0,0,1,.89-.89Z"/><path class="cls-1" d="M643.4,170.67a.78.78,0,0,1,.89.89V214a1.14,1.14,0,0,1-1.07,1.25,78.13,78.13,0,0,1-12.7,1.07c-6.17,0-9.49-.77-11.81-3.38s-2.79-6.35-2.79-13.29q0-10,2.67-13.35c1.84-2.26,5.46-3.38,10.92-3.38a65.63,65.63,0,0,1,7.59.36V171.55a.79.79,0,0,1,.89-.89Zm-6.29,18.45h-6.47q-4.89,0-6.23,2c-.89,1.3-1.31,4.15-1.31,8.54s.42,7.06,1.25,8.43,2.91,2,6.11,2a49.88,49.88,0,0,0,6.65-.48Z"/></g></g></svg>