<?xml version="1.0" encoding="UTF-8"?>
<!DOCTYPE svg PUBLIC "-//W3C//DTD SVG 1.1//EN" "http://www.w3.org/Graphics/SVG/1.1/DTD/svg11.dtd">
<!-- Creator: CorelDRAW X7 -->
<svg xmlns="http://www.w3.org/2000/svg" xml:space="preserve" width="225.552mm" height="98.552mm" version="1.1" style="shape-rendering:geometricPrecision; text-rendering:geometricPrecision; image-rendering:optimizeQuality; fill-rule:evenodd; clip-rule:evenodd"
viewBox="0 0 22555 9855"
 xmlns:xlink="http://www.w3.org/1999/xlink">
 <defs>
  <style type="text/css">
   <![CDATA[
    .str1 {stroke:#8D8D8D;stroke-width:7.62}
    .str0 {stroke:#8D8D8D;stroke-width:7.62}
    .fil8 {fill:#373435}
    .fil9 {fill:#8D8D8D}
    .fil3 {fill:#FFE071}
    .fil7 {fill:#373435;fill-rule:nonzero}
    .fil0 {fill:#2A8BBB;fill-rule:nonzero}
    .fil5 {fill:#8D8D8D;fill-rule:nonzero}
    .fil4 {fill:#8E8E8E;fill-rule:nonzero}
    .fil1 {fill:#BB5724;fill-rule:nonzero}
    .fil10 {fill:url(#id0)}
    .fil6 {fill:url(#id1)}
    .fil2 {fill:url(#id2)}
   ]]>
  </style>
  <linearGradient id="id0" gradientUnits="userSpaceOnUse" x1="38516.8" y1="-2617.51" x2="38516.8" y2="-5599.43">
   <stop offset="0" style="stop-opacity:1; stop-color:#BB5724"/>
   <stop offset="0.219608" style="stop-opacity:1; stop-color:#DD9B4A"/>
   <stop offset="0.45098" style="stop-opacity:1; stop-color:#DB9A60"/>
   <stop offset="1" style="stop-opacity:1; stop-color:#FFE071"/>
  </linearGradient>
  <linearGradient id="id1" gradientUnits="userSpaceOnUse" xlink:href="#id0" x1="4861.76" y1="3838.32" x2="4861.76" y2="856.4">
  </linearGradient>
  <linearGradient id="id2" gradientUnits="userSpaceOnUse" x1="15598.9" y1="3540.08" x2="17597.1" y2="3540.08">
   <stop offset="0" style="stop-opacity:1; stop-color:#BB5724"/>
   <stop offset="0.219608" style="stop-opacity:1; stop-color:#DD9B4A"/>
   <stop offset="1" style="stop-opacity:1; stop-color:#FFE071"/>
  </linearGradient>
 </defs>
 <g id="finales">
  <metadata id="CorelCorpID_0Corel-Layer"/>
  <g id="_1994208299312">
   <path class="fil0" d="M9322 3826l-514 -181c-189,-69 -325,-162 -406,-280 -81,-119 -122,-274 -122,-466 0,-280 68,-468 205,-563 137,-95 377,-142 722,-142 325,0 605,33 839,100l-37 384c-215,-8 -480,-11 -798,-11 -148,0 -246,12 -296,38 -49,26 -73,91 -73,194 0,84 18,144 55,181 37,37 107,73 210,107l484 167c197,69 336,163 418,282 81,120 122,275 122,467 0,286 -69,480 -207,582 -138,102 -384,153 -739,153 -288,0 -580,-32 -875,-96l33 -406c524,12 805,19 842,19 150,0 251,-16 301,-48 50,-32 76,-99 76,-200 0,-86 -18,-147 -52,-183 -34,-35 -97,-68 -188,-98z"/>
   <path class="fil0" d="M11789 3686l-214 -779c-30,-123 -47,-204 -52,-240l-100 0c-5,24 -13,64 -26,118 -12,54 -22,95 -29,122l-214 779 635 0zm122 436l-876 0 -184 668 -576 0 735 -2400c9,-45 33,-80 70,-108 37,-27 79,-40 125,-40l532 0c106,0 171,49 196,148l735 2400 -572 0 -185 -668z"/>
   <path class="fil1" d="M15080 2242l0 2345c0,136 -67,203 -199,203l-351 0c-57,0 -101,-13 -133,-38 -32,-26 -63,-69 -93,-128l-668 -1359c-84,-180 -136,-312 -155,-395l-41 0c17,123 26,258 26,406l0 1514 -536 0 0 -2345c0,-135 68,-203 203,-203l344 0c57,0 101,13 133,39 32,25 63,68 92,127l647 1319c61,123 123,259 184,410l37 0c-15,-192 -22,-335 -22,-429l0 -1466 532 0z"/>
   <path class="fil2" d="M17617 3775l0 -1533 -565 0 0 1533c0,234 -32,394 -98,480l0 0c-65,86 -184,129 -356,129l0 0c-175,0 -295,-43 -360,-129l0 0c-65,-86 -98,-246 -98,-480l0 0 0 -1533 -561 0 0 1533c0,389 78,663 234,823l0 0c156,160 427,240 811,240 364,0 621,-80 770,-240l0 0c149,-160 223,-434 223,-823z"/>
   <path class="fil3" d="M18218 2336c-137,95 -205,283 -205,563 0,192 40,347 122,466l0 0c81,118 216,211 406,280l0 0 513 181c91,30 154,63 189,98l0 0c34,36 51,97 51,183l0 0c0,101 -25,168 -75,200l0 0c-51,32 -151,48 -301,48l0 0c-37,0 -318,-7 -843,-19l0 0 -33 406c296,64 587,96 876,96 354,0 600,-51 738,-153l0 0c138,-102 207,-296 207,-582l0 0c0,-192 -40,-347 -122,-467l0 0c-81,-119 -220,-213 -417,-282l0 0 -484 -167c-103,-34 -174,-70 -211,-107l0 0c-36,-37 -55,-97 -55,-181l0 0c0,-103 25,-168 74,-194l0 0c49,-26 148,-38 295,-38l0 0c318,0 584,3 798,11l0 0 37 -385c-234,-66 -513,-99 -838,-99l0 0c-345,0 -586,47 -722,142l0 0z"/>
   <path class="fil4" d="M9600 5882c18,0 21,5 19,26l-143 687c-17,80 -37,132 -58,153 -21,21 -65,31 -132,31 -70,0 -113,-10 -131,-28 -18,-19 -38,-71 -57,-156l-106 -455 -105 455c-20,85 -39,137 -57,156 -18,18 -62,28 -132,28 -65,0 -109,-10 -131,-31 -21,-21 -41,-73 -59,-153l-143 -687c-1,-21 2,-26 20,-26l118 0c8,0 15,8 20,26l133 668c13,53 20,61 44,61 27,0 31,-5 44,-61l157 -642c5,-18 12,-26 23,-26l137 0c11,0 17,8 22,26l158 642c13,56 16,61 44,61 24,0 31,-8 44,-61l133 -668c5,-21 8,-26 21,-26l117 0z"/>
   <path class="fil4" d="M10037 6062c-28,34 -42,103 -44,207l421 0c-2,-106 -16,-174 -42,-208 -26,-34 -82,-51 -164,-51 -86,0 -143,18 -171,52zm458 -102c47,57 73,171 75,343l0 47c0,34 -11,45 -59,45l-516 0c1,99 16,166 44,198 27,33 86,49 172,49l266 0c17,0 25,8 25,25l0 71c0,15 -8,24 -23,26 -72,10 -163,15 -271,15 -151,0 -252,-30 -299,-88 -47,-60 -72,-180 -72,-364 0,-183 25,-304 72,-364 47,-60 148,-89 299,-89 144,0 240,29 287,86z"/>
   <path class="fil4" d="M10986 6010l0 619c70,8 140,13 209,13 96,0 158,-19 184,-60 26,-40 39,-125 39,-255 0,-132 -13,-218 -39,-257 -26,-40 -88,-60 -185,-60l-208 0zm-24 -468c16,0 24,9 24,25l0 318c58,-8 130,-11 216,-11 151,0 252,31 299,91 47,60 71,180 71,364 0,182 -24,302 -73,362 -47,58 -149,88 -305,88 -109,0 -223,-10 -338,-28 -18,-2 -26,-11 -26,-26l0 -1158c0,-16 8,-25 24,-25l108 0z"/>
   <path class="fil5 str0" d="M13308 6010l-207 0c-97,0 -159,20 -185,60 -26,39 -39,125 -39,257 0,130 13,215 38,255 25,41 87,60 185,60 70,0 138,-5 208,-13l0 -619zm131 -468c17,0 25,9 25,25l0 1158c0,15 -8,24 -26,26 -116,18 -229,28 -338,28 -130,0 -210,-17 -270,-54 -88,-65 -107,-177 -109,-396 0,-184 25,-304 72,-364 47,-60 147,-91 299,-91 87,0 159,3 216,11l0 -318c0,-16 8,-25 24,-25l107 0z"/>
   <path class="fil5 str0" d="M13941 6062c-27,34 -42,103 -44,207l421 0c-1,-106 -16,-174 -42,-208 -26,-34 -81,-51 -164,-51 -86,0 -143,18 -171,52zm458 -102c48,57 74,171 75,343l0 47c0,34 -11,45 -58,45l-517 0c2,99 16,166 44,198 28,33 86,49 172,49l267 0c16,0 24,8 24,25l0 71c0,15 -8,24 -23,26 -71,10 -162,15 -271,15 -151,0 -252,-30 -299,-88 -47,-60 -71,-180 -71,-364 0,-183 24,-304 71,-364 47,-60 148,-89 299,-89 144,0 240,29 287,86z"/>
   <path class="fil4 str1" d="M16166 5882c16,3 24,11 24,26l0 96c0,16 -8,24 -26,24l-299 0c-71,0 -107,24 -107,72l0 19c0,41 29,73 89,96l213 78c132,50 166,122 166,237l0 21c0,176 -108,228 -337,228 -104,0 -209,-5 -316,-15 -17,-2 -25,-10 -25,-24l0 -101c0,-18 8,-26 26,-26l315 0c111,0 143,-13 143,-70l0 -16c0,-41 -21,-67 -92,-93l-215 -81c-109,-39 -162,-119 -162,-239l0 -32c0,-164 123,-218 349,-218 93,0 177,7 254,18z"/>
   <path class="fil4 str1" d="M16965 6390l-224 0c-90,0 -125,30 -125,109 0,91 40,116 164,116 78,0 139,-7 185,-18l0 -207zm197 -259l0 565c0,24 -12,39 -33,47 -83,24 -205,36 -365,36 -126,0 -213,-18 -265,-52 -52,-36 -78,-109 -78,-220 0,-196 96,-258 308,-258l236 0 0 -84c0,-91 -54,-130 -184,-130l-266 0c-20,0 -24,-5 -24,-25l0 -99c0,-19 4,-21 22,-26 77,-14 166,-21 268,-21 278,0 381,85 381,267z"/>
   <path class="fil4 str1" d="M17618 5528c16,0 25,8 25,24l0 1194c0,16 -9,25 -25,25l-148 0c-16,0 -24,-9 -24,-25l0 -1194c0,-16 8,-24 24,-24l148 0z"/>
   <path class="fil4 str1" d="M18676 5872c16,0 24,8 24,25l0 828c0,21 -8,23 -24,26 -91,18 -211,28 -362,28 -163,0 -239,-10 -304,-67 -65,-57 -82,-146 -82,-320l0 -495c0,-17 10,-25 28,-25l146 0c15,0 23,8 23,25l0 459c0,124 5,182 39,216 34,35 65,36 151,36l187 0 0 -711c0,-17 8,-25 24,-25l150 0z"/>
   <path class="fil4 str1" d="M19542 6035l-177 0c-90,0 -146,18 -171,53 -24,36 -36,114 -36,234 0,117 12,194 35,231 24,37 79,55 167,55 60,0 122,-5 182,-13l0 -560zm172 -506c16,0 24,8 24,25l0 1161c0,20 -9,31 -29,34 -118,20 -234,30 -348,30 -168,0 -259,-21 -323,-93 -60,-73 -76,-174 -76,-364 0,-182 24,-304 73,-365 50,-62 149,-93 299,-93 84,0 154,3 208,10l0 -320c0,-17 8,-25 24,-25l148 0z"/>
   <path class="fil0" d="M4862 2812c-133,0 -240,107 -240,240l0 840c0,133 107,240 240,240 132,0 240,-107 240,-240l0 -840c0,-133 -108,-240 -240,-240z"/>
   <path class="fil0" d="M7635 4481c0,-254 -206,-460 -461,-460 -254,0 -460,206 -460,460 0,167 88,312 220,393l0 639c0,335 -77,652 -214,934 1,1 1,1 2,1 -296,610 -874,1054 -1561,1156l0 0c-44,6 -89,11 -134,15 -9,0 -17,1 -26,2 -46,3 -92,5 -139,5 -929,0 -1717,-626 -1979,-1485 -41,-132 -69,-270 -83,-412 -7,-71 -11,-143 -11,-216l0 -639c132,-81 221,-226 221,-393 0,-254 -207,-460 -461,-460 -254,0 -460,206 -460,460 0,167 88,312 220,393l0 640c0,1429 1145,2592 2553,2592 44,0 88,-1 132,-3 2,0 3,-1 5,-1 1289,-69 2327,-1111 2409,-2413 1,-2 1,-4 1,-7 3,-53 5,-106 5,-161l0 -7 0 0 0 -640c132,-81 221,-226 221,-393z"/>
   <path class="fil6" d="M7414 3838l0 -389 0 -9c0,-5 0,-10 0,-14l0 0c0,-20 0,-39 -1,-58l0 0c0,-7 0,-14 -1,-21l0 0c-1,-19 -2,-39 -3,-59l0 0c0,-3 0,-5 0,-8l0 0c0,-2 0,-4 -1,-7l0 0 0 -1c-1,-15 -2,-30 -3,-44l0 0c-1,-11 -2,-22 -3,-32l0 0c-1,-7 -1,-14 -2,-20l0 0c-107,-1062 -851,-1935 -1838,-2220l0 0c-2,-1 -4,-2 -7,-2l0 0c-16,-5 -33,-10 -50,-14l0 0c-4,-1 -9,-3 -14,-4l0 0c-14,-3 -28,-7 -43,-10l0 0c-7,-2 -13,-4 -20,-5l0 0c-12,-3 -25,-6 -37,-8l0 0c-9,-2 -17,-4 -26,-6l0 0c-10,-2 -21,-4 -31,-6l0 0c-11,-2 -21,-4 -31,-6l0 0c-9,-1 -17,-3 -26,-4l0 0c-12,-2 -24,-4 -36,-6l0 0c-6,-1 -12,-2 -18,-2l0 0c-15,-3 -30,-5 -45,-7l0 0c0,0 0,0 -1,0l0 0c-103,-13 -208,-20 -315,-20 -107,0 -212,7 -316,20l0 0c0,0 0,0 -1,0l0 0c-15,2 -30,4 -45,7l0 0c-5,0 -11,1 -17,2l0 0c-12,2 -25,4 -37,6l0 0c-8,1 -17,3 -25,4l0 0c-11,2 -21,4 -31,6l0 0c-11,2 -21,4 -32,6l0 0c-8,2 -17,4 -25,6l0 0c-13,2 -25,5 -37,8l0 0c-7,1 -14,3 -21,5l0 0c-14,3 -28,7 -42,10l0 0c-5,1 -10,3 -15,4l0 0c-17,4 -33,9 -50,14l0 0c-2,0 -5,1 -7,2l0 0c-986,285 -1730,1158 -1838,2220l0 0c0,6 -1,13 -2,20l0 0c-1,10 -2,21 -2,32l0 0c-2,14 -3,29 -4,44l0 0c0,0 0,1 0,1l0 0c0,3 0,5 0,7l0 0c-1,3 -1,5 -1,8l0 0c-1,20 -2,40 -3,59l0 0c0,7 0,14 0,21l0 0c-1,19 -1,38 -2,57l0 0c0,6 0,11 0,16l0 0 0 8c0,0 0,0 0,0l0 0 0 0 0 270 0 119c78,-30 162,-47 251,-47l0 0c80,0 157,14 229,39l0 0 0 -86 0 -295c0,-20 1,-39 1,-59l0 0c0,-6 1,-12 1,-18l0 0c0,-14 1,-27 2,-41l0 0c0,-7 0,-13 1,-20l0 0c1,-13 2,-26 3,-40l0 0c0,-6 1,-12 1,-18l0 0c2,-14 3,-29 5,-43l0 0c0,-5 1,-10 1,-14l0 0c2,-17 4,-34 7,-51l0 0c0,-2 0,-4 1,-6l0 0c32,-221 97,-430 191,-624l0 0c0,0 0,0 0,0l0 0c234,-483 645,-861 1145,-1049l0 0c8,-3 17,-6 25,-10l0 0c8,-2 15,-5 22,-7l0 0c16,-6 33,-11 49,-17l0 0c4,-1 8,-2 12,-3l0 0c99,-31 201,-55 306,-70l0 0c0,0 0,0 0,0l0 0c45,-7 90,-12 135,-15l0 0c8,-1 17,-2 26,-2l0 0c46,-3 92,-5 139,-5l0 0c47,0 93,2 139,5l0 0c9,0 17,1 26,2l0 0c45,3 90,8 134,15l0 0c0,0 0,0 0,0l0 0c105,15 207,39 307,70l0 0c3,1 7,2 11,3l0 0c17,6 33,11 49,17l0 0c8,2 15,5 22,7l0 0c9,4 17,7 26,10l0 0c500,188 910,566 1144,1049l0 0c0,0 0,0 0,0l0 0c94,194 160,403 192,624l0 0c0,2 0,4 1,6l0 0c2,17 4,34 6,51l0 0c1,4 1,9 2,14l0 0c1,14 3,29 4,43l0 0c1,6 1,12 2,18l0 0c1,14 2,27 3,40l0 0c0,7 1,13 1,20l0 0c1,14 1,27 2,41l0 0c0,6 0,12 0,18l0 0c1,20 1,39 1,59l0 0 0 289 0 92c72,-25 149,-39 230,-39l0 0c88,0 173,17 250,47z"/>
  </g>
  <path class="fil7" d="M42977 7446l-514 -181c-189,-69 -325,-163 -406,-281 -81,-118 -122,-273 -122,-465 0,-281 68,-469 205,-564 137,-94 377,-142 722,-142 325,0 605,34 839,100l-37 384c-215,-7 -480,-11 -798,-11 -148,0 -246,13 -296,39 -49,26 -74,90 -74,194 0,84 19,144 56,181 37,37 107,72 210,107l484 166c197,69 336,163 418,283 81,119 122,275 122,467 0,286 -69,480 -207,582 -138,102 -384,153 -739,153 -288,0 -580,-32 -875,-96l33 -406c524,12 805,18 842,18 150,0 251,-16 301,-48 50,-32 76,-98 76,-199 0,-87 -18,-148 -52,-183 -34,-36 -97,-69 -188,-98z"/>
  <path class="fil7" d="M45444 7305l-214 -779c-30,-123 -47,-203 -52,-240l-100 0c-5,25 -13,64 -26,118 -12,54 -22,95 -29,122l-214 779 635 0zm122 436l-876 0 -184 669 -576 0 735 -2401c9,-44 33,-80 70,-107 37,-27 79,-41 125,-41l532 0c106,0 171,50 196,148l735 2401 -572 0 -185 -669z"/>
  <path class="fil7" d="M48735 5861l0 2346c0,135 -67,203 -199,203l-351 0c-57,0 -101,-13 -133,-39 -32,-26 -63,-68 -93,-127l-668 -1360c-84,-179 -136,-311 -155,-395l-41 0c17,123 26,259 26,407l0 1514 -536 0 0 -2346c0,-135 68,-203 203,-203l344 0c57,0 101,13 133,39 32,26 63,68 92,127l647 1319c61,123 123,260 184,410l37 0c-15,-192 -22,-335 -22,-428l0 -1467 532 0z"/>
  <path class="fil8" d="M51272 7394l0 -1533 -565 0 0 1533c0,234 -32,394 -98,480l0 0c-65,87 -184,130 -356,130l0 0c-175,0 -295,-43 -360,-130l0 0c-65,-86 -98,-246 -98,-480l0 0 0 -1533 -561 0 0 1533c0,389 78,664 234,824l0 0c156,160 427,240 811,240 364,0 621,-80 770,-240l0 0c149,-160 223,-435 223,-824z"/>
  <path class="fil8" d="M51873 5955c-137,95 -205,283 -205,564 0,192 40,347 122,465l0 0c81,118 216,212 406,281l0 0 513 181c91,29 154,62 189,98l0 0c34,35 51,96 51,183l0 0c0,101 -25,167 -75,199l0 0c-51,32 -151,48 -301,48l0 0c-37,0 -318,-6 -843,-18l0 0 -33 406c296,64 587,96 876,96 354,0 600,-51 738,-153l0 0c138,-103 207,-296 207,-582l0 0c0,-192 -40,-348 -122,-467l0 0c-81,-120 -220,-214 -417,-283l0 0 -484 -166c-103,-35 -174,-70 -211,-107l0 0c-36,-37 -55,-98 -55,-181l0 0c0,-104 25,-168 74,-194l0 0c49,-26 148,-39 295,-39l0 0c318,0 584,4 798,11l0 0 37 -384c-234,-66 -513,-100 -838,-100l0 0c-345,0 -586,48 -722,142l0 0z"/>
  <path class="fil5" d="M43255 9501c18,0 21,5 19,26l-143 688c-17,79 -37,131 -58,152 -21,21 -65,31 -132,31 -70,0 -113,-10 -131,-27 -18,-20 -38,-72 -57,-156l-106 -455 -105 455c-20,84 -39,136 -57,156 -18,17 -62,27 -132,27 -65,0 -109,-10 -131,-31 -21,-21 -41,-73 -59,-152l-143 -688c-1,-21 2,-26 20,-26l118 0c8,0 15,9 20,26l133 668c13,54 19,62 44,62 27,0 31,-5 44,-62l157 -642c5,-17 12,-26 23,-26l137 0c11,0 17,9 22,26l158 642c13,57 16,62 44,62 24,0 31,-8 44,-62l133 -668c5,-21 8,-26 21,-26l117 0z"/>
  <path class="fil5" d="M43692 9682c-28,34 -42,102 -44,206l421 0c-2,-105 -16,-174 -42,-208 -26,-34 -82,-50 -164,-50 -86,0 -143,18 -171,52zm458 -103c47,57 73,171 75,343l0 47c0,34 -11,46 -59,46l-516 0c1,99 16,166 44,198 27,32 86,49 172,49l266 0c17,0 25,8 25,24l0 72c0,14 -8,24 -23,26 -72,9 -163,14 -271,14 -151,0 -252,-29 -299,-87 -47,-61 -72,-181 -72,-364 0,-184 25,-304 72,-364 47,-60 148,-90 299,-90 144,0 240,30 287,86z"/>
  <path class="fil5" d="M44641 9630l0 619c70,8 140,13 209,13 96,0 158,-20 184,-60 26,-41 39,-125 39,-255 0,-132 -13,-218 -39,-257 -26,-41 -88,-60 -185,-60l-208 0zm-24 -468c16,0 24,8 24,24l0 319c58,-8 130,-12 216,-12 151,0 252,31 299,91 47,60 71,181 71,364 0,182 -24,302 -73,363 -47,58 -149,87 -305,87 -109,0 -223,-10 -338,-27 -18,-2 -26,-12 -26,-26l0 -1159c0,-16 8,-24 24,-24l108 0z"/>
  <path class="fil5 str1" d="M46963 9630l-207 0c-97,0 -159,19 -185,60 -26,39 -39,125 -39,257 0,130 13,214 38,255 25,40 87,60 185,60 70,0 138,-5 208,-13l0 -619zm131 -468c17,0 25,8 25,24l0 1159c0,14 -8,24 -26,26 -116,17 -229,27 -338,27 -130,0 -210,-16 -270,-53 -88,-65 -107,-177 -109,-397 0,-183 25,-304 72,-364 47,-60 147,-91 299,-91 87,0 159,4 216,12l0 -319c0,-16 8,-24 24,-24l107 0z"/>
  <path class="fil5 str1" d="M47596 9682c-27,34 -42,102 -44,206l421 0c-1,-105 -16,-174 -42,-208 -26,-34 -81,-50 -164,-50 -86,0 -143,18 -171,52zm458 -103c48,57 74,171 75,343l0 47c0,34 -11,46 -58,46l-517 0c2,99 16,166 44,198 28,32 86,49 172,49l267 0c16,0 24,8 24,24l0 72c0,14 -8,24 -23,26 -71,9 -162,14 -271,14 -151,0 -252,-29 -299,-87 -47,-61 -71,-181 -71,-364 0,-184 24,-304 71,-364 47,-60 148,-90 299,-90 144,0 240,30 287,86z"/>
  <path class="fil5 str1" d="M49821 9501c16,4 24,12 24,26l0 96c0,17 -8,25 -26,25l-299 0c-71,0 -107,24 -107,71l0 20c0,40 29,73 89,96l213 77c132,51 166,122 166,238l0 21c0,175 -108,227 -337,227 -104,0 -209,-5 -316,-14 -17,-2 -25,-10 -25,-25l0 -100c0,-18 8,-26 26,-26l315 0c111,0 143,-13 143,-70l0 -17c0,-40 -21,-66 -92,-92l-215 -81c-109,-39 -162,-119 -162,-239l0 -33c0,-164 123,-217 349,-217 93,0 177,6 254,17z"/>
  <path class="fil5 str1" d="M50620 10010l-224 0c-90,0 -125,29 -125,109 0,91 40,115 164,115 78,0 139,-6 185,-18l0 -206zm197 -260l0 565c0,25 -12,39 -33,47 -83,25 -205,36 -365,36 -126,0 -213,-18 -265,-52 -52,-35 -78,-109 -78,-219 0,-197 96,-258 308,-258l236 0 0 -85c0,-91 -54,-130 -184,-130l-266 0c-20,0 -24,-5 -24,-24l0 -99c0,-20 4,-21 22,-26 77,-15 166,-21 268,-21 278,0 381,84 381,266z"/>
  <path class="fil5 str1" d="M51273 9147c16,0 25,8 25,25l0 1194c0,16 -9,24 -25,24l-148 0c-16,0 -24,-8 -24,-24l0 -1194c0,-17 8,-25 24,-25l148 0z"/>
  <path class="fil5 str1" d="M52331 9492c16,0 24,8 24,24l0 829c0,21 -8,22 -24,26 -91,17 -211,27 -362,27 -163,0 -239,-10 -304,-66 -65,-57 -82,-147 -82,-320l0 -496c0,-16 10,-24 28,-24l146 0c15,0 23,8 23,24l0 460c0,123 5,182 39,216 34,34 65,36 151,36l187 0 0 -712c0,-16 8,-24 24,-24l150 0z"/>
  <path class="fil5 str1" d="M53197 9654l-177 0c-90,0 -146,18 -171,54 -24,36 -36,114 -36,234 0,117 12,193 35,230 24,38 79,56 167,56 60,0 122,-5 182,-13l0 -561zm172 -505c16,0 24,8 24,24l0 1162c0,19 -9,31 -29,34 -118,19 -234,29 -348,29 -168,0 -259,-21 -323,-92 -60,-73 -76,-174 -76,-364 0,-182 24,-304 73,-366 50,-62 149,-92 299,-92 84,0 154,3 208,9l0 -320c0,-16 8,-24 24,-24l148 0z"/>
  <path class="fil5" d="M38517 6431c-133,0 -240,108 -240,240l0 841c0,132 107,240 240,240 132,0 240,-108 240,-240l0 -841c0,-132 -108,-240 -240,-240z"/>
  <path class="fil5" d="M41290 8101c0,-254 -206,-461 -461,-461 -254,0 -460,207 -460,461 0,166 88,312 220,393l0 639c0,335 -77,652 -214,934 1,0 1,1 2,1 -296,610 -874,1054 -1561,1155l0 0c-44,7 -89,11 -134,15 -9,1 -17,2 -26,2 -46,3 -92,5 -139,5 -929,0 -1717,-625 -1979,-1485 -41,-132 -69,-269 -83,-411 -7,-71 -11,-143 -11,-216l0 -639c132,-81 221,-227 221,-393 0,-254 -207,-461 -461,-461 -254,0 -460,207 -460,461 0,166 88,312 220,393l0 639c0,1430 1145,2593 2553,2593 44,0 88,-2 132,-4 2,0 3,0 5,0 1289,-70 2327,-1112 2409,-2413 1,-3 1,-5 1,-7 3,-53 5,-107 5,-161l0 -8 0 0 0 -639c132,-81 221,-227 221,-393z"/>
  <path class="fil9" d="M41069 7458l0 -390 0 -8c0,-5 0,-10 0,-15l0 0c0,-19 0,-38 -1,-57l0 0c0,-7 0,-14 -1,-21l0 0c-1,-20 -2,-40 -3,-59l0 0c0,-3 0,-6 0,-9l0 0c0,-2 0,-4 -1,-6l0 0 0 -2c-1,-15 -2,-29 -3,-44l0 0c-1,-11 -2,-21 -3,-32l0 0c-1,-7 -1,-13 -2,-20l0 0c-107,-1061 -851,-1934 -1838,-2220l0 0c-2,0 -4,-1 -7,-2l0 0c-16,-5 -33,-9 -50,-14l0 0c-4,-1 -9,-2 -14,-3l0 0c-14,-4 -28,-7 -43,-11l0 0c-7,-2 -13,-3 -20,-5l0 0c-12,-3 -25,-5 -37,-8l0 0c-9,-2 -17,-4 -26,-5l0 0c-10,-2 -21,-4 -31,-6l0 0c-11,-2 -21,-4 -31,-6l0 0c-9,-2 -17,-3 -26,-5l0 0c-12,-2 -24,-4 -36,-5l0 0c-6,-1 -12,-2 -18,-3l0 0c-15,-2 -30,-4 -45,-6l0 0c0,0 0,0 -1,0l0 0c-103,-13 -208,-20 -315,-20 -107,0 -212,7 -316,20l0 0c0,0 0,0 -1,0l0 0c-15,2 -30,4 -45,6l0 0c-5,1 -11,2 -17,3l0 0c-12,1 -25,3 -37,5l0 0c-8,2 -17,3 -25,5l0 0c-11,2 -21,4 -31,6l0 0c-11,2 -21,4 -32,6l0 0c-8,1 -17,3 -25,5l0 0c-13,3 -25,5 -37,8l0 0c-7,2 -14,3 -21,5l0 0c-14,4 -28,7 -42,11l0 0c-5,1 -10,2 -15,3l0 0c-17,5 -33,9 -50,14l0 0c-2,1 -5,2 -7,2l0 0c-986,286 -1730,1159 -1838,2220l0 0c0,7 -1,13 -2,20l0 0c-1,11 -2,21 -2,32l0 0c-2,15 -3,29 -4,44l0 0c0,1 0,1 0,2l0 0c0,2 0,4 0,6l0 0c-1,3 -1,6 -1,9l0 0c-1,19 -2,39 -3,59l0 0c0,7 0,14 0,21l0 0c-1,19 -1,38 -2,57l0 0c0,5 0,10 0,16l0 0 0 7c0,0 0,0 0,0l0 0 0 0 0 270 0 120c78,-31 162,-48 251,-48l0 0c80,0 157,15 229,40l0 0 0 -87 0 -294c0,-20 1,-40 1,-60l0 0c0,-5 1,-11 1,-17l0 0c0,-14 1,-28 2,-42l0 0c0,-6 0,-13 1,-19l0 0c1,-14 2,-27 3,-40l0 0c0,-6 1,-12 1,-19l0 0c2,-14 3,-28 5,-42l0 0c0,-5 1,-10 1,-15l0 0c2,-17 4,-33 7,-50l0 0c0,-2 0,-4 1,-6l0 0c32,-221 97,-431 191,-624l0 0c0,0 0,0 0,0l0 0c234,-483 645,-862 1145,-1050l0 0c8,-3 17,-6 25,-9l0 0c8,-3 15,-5 22,-8l0 0c16,-5 33,-11 49,-16l0 0c4,-1 8,-3 12,-4l0 0c99,-31 201,-54 306,-70l0 0c0,0 0,0 0,0l0 0c45,-6 90,-11 135,-15l0 0c8,0 17,-1 26,-2l0 0c46,-3 92,-5 139,-5l0 0c47,0 93,2 139,5l0 0c9,1 17,2 26,2l0 0c45,4 90,9 134,15l0 0c0,0 0,0 0,0l0 0c105,16 207,39 307,70l0 0c3,1 7,3 11,4l0 0c17,5 33,11 49,16l0 0c8,3 15,5 22,8l0 0c9,3 17,6 26,9l0 0c500,188 910,567 1144,1050l0 0c0,0 0,0 0,0l0 0c94,193 160,403 192,624l0 0c0,2 0,4 1,6l0 0c2,17 4,33 6,50l0 0c1,5 1,10 2,15l0 0c1,14 3,28 4,42l0 0c1,6 1,13 2,19l0 0c1,13 2,26 3,40l0 0c0,6 1,13 1,19l0 0c1,14 1,28 2,42l0 0c0,6 0,12 0,17l0 0c1,20 1,40 1,60l0 0 0 289 0 92c72,-25 149,-40 230,-40l0 0c88,0 173,17 250,48z"/>
  <path class="fil5" d="M42977 16759l-514 -181c-189,-69 -325,-162 -406,-280 -81,-119 -122,-274 -122,-466 0,-281 68,-468 205,-563 137,-95 377,-142 722,-142 325,0 605,33 839,99l-37 385c-215,-8 -480,-12 -798,-12 -148,0 -246,13 -296,39 -49,26 -74,91 -74,194 0,84 19,144 56,181 37,37 107,73 210,107l484 166c197,69 336,164 418,283 81,119 122,275 122,467 0,286 -69,480 -207,582 -138,102 -384,153 -739,153 -288,0 -580,-32 -875,-96l33 -406c524,12 805,18 842,18 150,0 251,-16 301,-48 50,-32 76,-98 76,-199 0,-86 -18,-147 -52,-183 -34,-36 -97,-68 -188,-98z"/>
  <path class="fil5" d="M45444 16619l-214 -780c-30,-123 -47,-203 -52,-240l-100 0c-5,25 -13,64 -26,119 -12,54 -22,94 -29,121l-214 780 635 0zm122 436l-876 0 -184 668 -576 0 735 -2401c9,-44 33,-80 70,-107 37,-27 79,-40 125,-40l532 0c106,0 171,49 196,147l735 2401 -572 0 -185 -668z"/>
  <path class="fil5" d="M48735 15175l0 2345c0,136 -67,203 -199,203l-351 0c-57,0 -101,-13 -133,-39 -32,-25 -63,-68 -93,-127l-668 -1359c-84,-180 -136,-312 -155,-395l-41 0c17,123 26,258 26,406l0 1514 -536 0 0 -2345c0,-136 68,-203 203,-203l344 0c57,0 101,13 133,38 32,26 63,69 92,128l647 1318c61,124 123,260 184,410l37 0c-15,-192 -22,-334 -22,-428l0 -1466 532 0z"/>
  <path class="fil9" d="M51272 16707l0 -1532 -565 0 0 1532c0,234 -32,395 -98,481l0 0c-65,86 -184,129 -356,129l0 0c-175,0 -295,-43 -360,-129l0 0c-65,-86 -98,-247 -98,-481l0 0 0 -1532 -561 0 0 1532c0,390 78,664 234,824l0 0c156,160 427,240 811,240 364,0 621,-80 770,-240l0 0c149,-160 223,-434 223,-824z"/>
  <path class="fil9" d="M51873 15269c-137,95 -205,282 -205,563 0,192 40,347 122,466l0 0c81,118 216,211 406,280l0 0 513 181c91,30 154,62 189,98l0 0c34,36 51,97 51,183l0 0c0,101 -25,167 -75,199l0 0c-51,32 -151,48 -301,48l0 0c-37,0 -318,-6 -843,-18l0 0 -33 406c296,64 587,96 876,96 354,0 600,-51 738,-153l0 0c138,-102 207,-296 207,-582l0 0c0,-192 -40,-348 -122,-467l0 0c-81,-119 -220,-214 -417,-283l0 0 -484 -166c-103,-34 -174,-70 -211,-107l0 0c-36,-37 -55,-97 -55,-181l0 0c0,-103 25,-168 74,-194l0 0c49,-26 148,-39 295,-39l0 0c318,0 584,4 798,12l0 0 37 -385c-234,-66 -513,-99 -838,-99l0 0c-345,0 -586,47 -722,142l0 0z"/>
  <path class="fil7" d="M43255 18815c18,0 21,5 19,26l-143 687c-17,80 -37,132 -58,153 -21,21 -65,31 -132,31 -70,0 -113,-10 -131,-28 -18,-20 -38,-71 -57,-156l-106 -455 -105 455c-20,85 -39,136 -57,156 -18,18 -62,28 -132,28 -65,0 -109,-10 -131,-31 -21,-21 -41,-73 -59,-153l-143 -687c-1,-21 2,-26 20,-26l118 0c8,0 15,8 20,26l133 668c13,53 19,61 44,61 27,0 31,-5 44,-61l157 -642c5,-18 12,-26 23,-26l137 0c11,0 17,8 22,26l158 642c13,56 16,61 44,61 24,0 31,-8 44,-61l133 -668c5,-21 8,-26 21,-26l117 0z"/>
  <path class="fil7" d="M43692 18995c-28,34 -42,102 -44,206l421 0c-2,-105 -16,-173 -42,-207 -26,-35 -82,-51 -164,-51 -86,0 -143,18 -171,52zm458 -102c47,57 73,170 75,343l0 47c0,34 -11,45 -59,45l-516 0c1,99 16,166 44,198 27,33 86,49 172,49l266 0c17,0 25,8 25,24l0 72c0,15 -8,24 -23,26 -72,10 -163,15 -271,15 -151,0 -252,-30 -299,-88 -47,-60 -72,-181 -72,-364 0,-184 25,-304 72,-364 47,-60 148,-89 299,-89 144,0 240,29 287,86z"/>
  <path class="fil7" d="M44641 18943l0 619c70,8 140,13 209,13 96,0 158,-19 184,-60 26,-41 39,-125 39,-255 0,-132 -13,-218 -39,-257 -26,-40 -88,-60 -185,-60l-208 0zm-24 -468c16,0 24,8 24,25l0 318c58,-8 130,-11 216,-11 151,0 252,31 299,91 47,60 71,180 71,364 0,181 -24,302 -73,362 -47,58 -149,88 -305,88 -109,0 -223,-10 -338,-28 -18,-2 -26,-11 -26,-26l0 -1158c0,-17 8,-25 24,-25l108 0z"/>
  <path class="fil7 str1" d="M46963 18943l-207 0c-97,0 -159,20 -185,60 -26,39 -39,125 -39,257 0,130 13,214 38,255 25,41 87,60 185,60 70,0 138,-5 208,-13l0 -619zm131 -468c17,0 25,8 25,25l0 1158c0,15 -8,24 -26,26 -116,18 -229,28 -338,28 -130,0 -210,-17 -270,-54 -88,-65 -107,-177 -109,-396 0,-184 25,-304 72,-364 47,-60 147,-91 299,-91 87,0 159,3 216,11l0 -318c0,-17 8,-25 24,-25l107 0z"/>
  <path class="fil7 str1" d="M47596 18995c-27,34 -42,102 -44,206l421 0c-1,-105 -16,-173 -42,-207 -26,-35 -81,-51 -164,-51 -86,0 -143,18 -171,52zm458 -102c48,57 74,170 75,343l0 47c0,34 -11,45 -58,45l-517 0c2,99 16,166 44,198 28,33 86,49 172,49l267 0c16,0 24,8 24,24l0 72c0,15 -8,24 -23,26 -71,10 -162,15 -271,15 -151,0 -252,-30 -299,-88 -47,-60 -71,-181 -71,-364 0,-184 24,-304 71,-364 47,-60 148,-89 299,-89 144,0 240,29 287,86z"/>
  <path class="fil7 str1" d="M49821 18815c16,3 24,11 24,26l0 96c0,16 -8,24 -26,24l-299 0c-71,0 -107,24 -107,72l0 19c0,41 29,73 89,96l213 78c132,50 166,122 166,237l0 21c0,176 -108,228 -337,228 -104,0 -209,-5 -316,-15 -17,-2 -25,-10 -25,-24l0 -101c0,-18 8,-26 26,-26l315 0c111,0 143,-13 143,-70l0 -16c0,-41 -21,-67 -92,-93l-215 -81c-109,-39 -162,-119 -162,-239l0 -32c0,-164 123,-218 349,-218 93,0 177,6 254,18z"/>
  <path class="fil7 str1" d="M50620 19323l-224 0c-90,0 -125,30 -125,109 0,91 40,116 164,116 78,0 139,-7 185,-18l0 -207zm197 -260l0 566c0,24 -12,39 -33,47 -83,24 -205,36 -365,36 -126,0 -213,-18 -265,-52 -52,-36 -78,-109 -78,-220 0,-196 96,-258 308,-258l236 0 0 -85c0,-91 -54,-130 -184,-130l-266 0c-20,0 -24,-4 -24,-24l0 -99c0,-19 4,-21 22,-26 77,-15 166,-21 268,-21 278,0 381,84 381,266z"/>
  <path class="fil7 str1" d="M51273 18461c16,0 25,8 25,24l0 1194c0,16 -9,24 -25,24l-148 0c-16,0 -24,-8 -24,-24l0 -1194c0,-16 8,-24 24,-24l148 0z"/>
  <path class="fil7 str1" d="M52331 18805c16,0 24,8 24,24l0 829c0,21 -8,23 -24,26 -91,18 -211,28 -362,28 -163,0 -239,-10 -304,-67 -65,-57 -82,-146 -82,-320l0 -496c0,-16 10,-24 28,-24l146 0c15,0 23,8 23,24l0 460c0,124 5,182 39,216 34,34 65,36 151,36l187 0 0 -712c0,-16 8,-24 24,-24l150 0z"/>
  <path class="fil7 str1" d="M53197 18967l-177 0c-90,0 -146,18 -171,54 -24,36 -36,114 -36,234 0,117 12,193 35,231 24,37 79,55 167,55 60,0 122,-5 182,-13l0 -561zm172 -505c16,0 24,8 24,25l0 1161c0,20 -9,31 -29,34 -118,20 -234,30 -348,30 -168,0 -259,-22 -323,-93 -60,-73 -76,-174 -76,-364 0,-182 24,-304 73,-365 50,-62 149,-93 299,-93 84,0 154,3 208,10l0 -320c0,-17 8,-25 24,-25l148 0z"/>
  <path class="fil7" d="M38517 15745c-133,0 -240,107 -240,240l0 840c0,132 107,240 240,240 132,0 240,-108 240,-240l0 -840c0,-133 -108,-240 -240,-240z"/>
  <path class="fil7" d="M41290 17414c0,-254 -206,-460 -461,-460 -254,0 -460,206 -460,460 0,166 88,312 220,393l0 639c0,335 -77,652 -214,934 1,0 1,1 2,1 -296,610 -874,1054 -1561,1156l0 -1c-44,7 -89,12 -134,16 -9,0 -17,1 -26,2 -46,3 -92,5 -139,5 -929,0 -1717,-626 -1979,-1485 -41,-132 -69,-270 -83,-412 -7,-71 -11,-143 -11,-216l0 -639c132,-81 221,-227 221,-393 0,-254 -207,-460 -461,-460 -254,0 -460,206 -460,460 0,166 88,312 220,393l0 639c0,1430 1145,2593 2553,2593 44,0 88,-1 132,-4 2,0 3,0 5,0 1289,-69 2327,-1112 2409,-2413 1,-2 1,-4 1,-7 3,-53 5,-107 5,-161l0 -8 0 0 0 -639c132,-81 221,-227 221,-393z"/>
  <path class="fil8" d="M41069 16771l0 -390 0 -8c0,-5 0,-10 0,-15l0 0c0,-19 0,-38 -1,-57l0 0c0,-7 0,-14 -1,-21l0 0c-1,-20 -2,-39 -3,-59l0 0c0,-3 0,-5 0,-8l0 0c0,-2 0,-5 -1,-7l0 0 0 -1c-1,-15 -2,-30 -3,-45l0 0c-1,-10 -2,-21 -3,-32l0 0c-1,-6 -1,-13 -2,-20l0 0c-107,-1061 -851,-1934 -1838,-2219l0 0c-2,-1 -4,-2 -7,-2l0 0c-16,-5 -33,-10 -50,-14l0 0c-4,-1 -9,-3 -14,-4l0 0c-14,-4 -28,-7 -43,-11l0 0c-7,-1 -13,-3 -20,-4l0 0c-12,-3 -25,-6 -37,-9l0 0c-9,-1 -17,-3 -26,-5l0 0c-10,-2 -21,-4 -31,-6l0 0c-11,-2 -21,-4 -31,-6l0 0c-9,-1 -17,-3 -26,-4l0 0c-12,-2 -24,-4 -36,-6l0 0c-6,-1 -12,-2 -18,-3l0 0c-15,-2 -30,-4 -45,-6l0 0c0,0 0,0 -1,0l0 0c-103,-13 -208,-20 -315,-20 -107,0 -212,7 -316,20l0 0c0,0 0,0 -1,0l0 0c-15,2 -30,4 -45,6l0 0c-5,1 -11,2 -17,3l0 0c-12,2 -25,4 -37,6l0 0c-8,1 -17,3 -25,4l0 0c-11,2 -21,4 -31,6l0 0c-11,2 -21,4 -32,6l0 0c-8,2 -17,4 -25,5l0 0c-13,3 -25,6 -37,9l0 0c-7,1 -14,3 -21,4l0 0c-14,4 -28,7 -42,11l0 0c-5,1 -10,3 -15,4l0 0c-17,4 -33,9 -50,14l0 0c-2,0 -5,1 -7,2l0 0c-986,285 -1730,1158 -1838,2219l0 0c0,7 -1,14 -2,20l0 0c-1,11 -2,22 -2,32l0 0c-2,15 -3,30 -4,44l0 0c0,1 0,2 0,2l0 0c0,2 0,5 0,7l0 0c-1,3 -1,5 -1,8l0 0c-1,20 -2,39 -3,59l0 0c0,7 0,14 0,21l0 0c-1,19 -1,38 -2,57l0 0c0,5 0,11 0,16l0 0 0 7c0,1 0,1 0,1l0 0 0 0 0 270 0 119c78,-30 162,-47 251,-47l0 0c80,0 157,14 229,39l0 0 0 -87 0 -294c0,-20 1,-40 1,-59l0 0c0,-6 1,-12 1,-18l0 0c0,-14 1,-28 2,-41l0 0c0,-7 0,-13 1,-20l0 0c1,-13 2,-27 3,-40l0 0c0,-6 1,-12 1,-18l0 0c2,-14 3,-29 5,-43l0 0c0,-5 1,-10 1,-14l0 0c2,-17 4,-34 7,-51l0 0c0,-2 0,-4 1,-6l0 0c32,-221 97,-431 191,-624l0 0c0,0 0,0 0,0l0 0c234,-483 645,-862 1145,-1049l0 0c8,-3 17,-7 25,-10l0 0c8,-2 15,-5 22,-7l0 0c16,-6 33,-12 49,-17l0 0c4,-1 8,-2 12,-3l0 0c99,-31 201,-55 306,-70l0 0c0,0 0,0 0,0l0 0c45,-7 90,-12 135,-15l0 0c8,-1 17,-2 26,-2l0 0c46,-4 92,-6 139,-6l0 0c47,0 93,2 139,6l0 0c9,0 17,1 26,2l0 0c45,3 90,8 134,15l0 0c0,0 0,0 0,0l0 0c105,15 207,39 307,70l0 0c3,1 7,2 11,3l0 0c17,5 33,11 49,17l0 0c8,2 15,5 22,7l0 0c9,3 17,7 26,10l0 0c500,187 910,566 1144,1049l0 0c0,0 0,0 0,0l0 0c94,193 160,403 192,624l0 0c0,2 0,4 1,6l0 0c2,17 4,34 6,50l0 0c1,5 1,10 2,15l0 0c1,14 3,28 4,43l0 0c1,6 1,12 2,18l0 0c1,13 2,27 3,40l0 0c0,7 1,13 1,20l0 0c1,13 1,27 2,41l0 0c0,6 0,12 0,18l0 0c1,19 1,39 1,59l0 0 0 289 0 92c72,-25 149,-39 230,-39l0 0c88,0 173,17 250,47z"/>
  <path class="fil7" d="M42977 -2629l-514 -181c-189,-69 -325,-163 -406,-281 -81,-118 -122,-274 -122,-466 0,-280 68,-468 205,-563 137,-95 377,-142 722,-142 325,0 605,33 839,100l-37 384c-215,-8 -480,-11 -798,-11 -148,0 -246,13 -296,39 -49,25 -74,90 -74,193 0,84 19,144 56,181 37,37 107,73 210,108l484 166c197,69 336,163 418,282 81,120 122,275 122,468 0,285 -69,479 -207,581 -138,103 -384,154 -739,154 -288,0 -580,-32 -875,-96l33 -407c524,13 805,19 842,19 150,0 251,-16 301,-48 50,-32 76,-99 76,-200 0,-86 -18,-147 -52,-183 -34,-35 -97,-68 -188,-97z"/>
  <path class="fil7" d="M45444 -2770l-214 -779c-30,-123 -47,-203 -52,-240l-100 0c-5,24 -13,64 -26,118 -12,54 -22,95 -29,122l-214 779 635 0zm122 436l-876 0 -184 669 -576 0 735 -2401c9,-45 33,-80 70,-107 37,-27 79,-41 125,-41l532 0c106,0 171,49 196,148l735 2401 -572 0 -185 -669z"/>
  <path class="fil7" d="M48735 -4214l0 2345c0,136 -67,204 -199,204l-351 0c-57,0 -101,-13 -133,-39 -32,-26 -63,-69 -93,-128l-668 -1359c-84,-180 -136,-311 -155,-395l-41 0c17,123 26,258 26,406l0 1515 -536 0 0 -2346c0,-135 68,-203 203,-203l344 0c57,0 101,13 133,39 32,26 63,68 92,127l647 1319c61,123 123,260 184,410l37 0c-15,-192 -22,-335 -22,-429l0 -1466 532 0z"/>
  <path class="fil8" d="M51272 -2681l0 -1533 -565 0 0 1533c0,234 -32,394 -98,480l0 0c-65,86 -184,129 -356,129l0 0c-175,0 -295,-43 -360,-129l0 0c-65,-86 -98,-246 -98,-480l0 0 0 -1533 -561 0 0 1533c0,389 78,663 234,824l0 0c156,160 427,240 811,240 364,0 621,-80 770,-240l0 0c149,-161 223,-435 223,-824z"/>
  <path class="fil8" d="M51873 -4120c-137,95 -205,283 -205,563 0,192 40,348 122,466l0 0c81,118 216,212 406,281l0 0 513 181c91,29 154,62 189,97l0 0c34,36 51,97 51,183l0 0c0,101 -25,168 -75,200l0 0c-51,32 -151,48 -301,48l0 0c-37,0 -318,-6 -843,-19l0 0 -33 407c296,64 587,96 876,96 354,0 600,-51 738,-154l0 0c138,-102 207,-296 207,-581l0 0c0,-193 -40,-348 -122,-468l0 0c-81,-119 -220,-213 -417,-282l0 0 -484 -166c-103,-35 -174,-71 -211,-108l0 0c-36,-37 -55,-97 -55,-181l0 0c0,-103 25,-168 74,-193l0 0c49,-26 148,-39 295,-39l0 0c318,0 584,3 798,11l0 0 37 -384c-234,-67 -513,-100 -838,-100l0 0c-345,0 -586,47 -722,142l0 0z"/>
  <path class="fil4" d="M43255 -574c18,0 21,5 19,26l-143 687c-17,80 -37,132 -58,153 -21,21 -65,31 -132,31 -70,0 -113,-10 -131,-28 -18,-19 -38,-71 -57,-156l-106 -455 -105 455c-20,85 -39,137 -57,156 -18,18 -62,28 -132,28 -65,0 -109,-10 -131,-31 -21,-21 -41,-73 -59,-153l-143 -687c-1,-21 2,-26 20,-26l118 0c8,0 15,8 20,26l133 668c13,53 19,62 44,62 27,0 31,-5 44,-62l157 -642c5,-18 12,-26 23,-26l137 0c11,0 17,8 22,26l158 642c13,57 16,62 44,62 24,0 31,-9 44,-62l133 -668c5,-21 8,-26 21,-26l117 0z"/>
  <path class="fil4" d="M43692 -394c-28,35 -42,103 -44,207l421 0c-2,-106 -16,-174 -42,-208 -26,-34 -82,-51 -164,-51 -86,0 -143,18 -171,52zm458 -102c47,57 73,171 75,343l0 47c0,34 -11,45 -59,45l-516 0c1,100 16,166 44,199 27,32 86,48 172,48l266 0c17,0 25,9 25,25l0 71c0,15 -8,25 -23,26 -72,10 -163,15 -271,15 -151,0 -252,-29 -299,-88 -47,-60 -72,-180 -72,-364 0,-183 25,-304 72,-364 47,-60 148,-89 299,-89 144,0 240,29 287,86z"/>
  <path class="fil4" d="M44641 -446l0 619c70,9 140,13 209,13 96,0 158,-19 184,-60 26,-40 39,-125 39,-255 0,-131 -13,-217 -39,-256 -26,-41 -88,-61 -185,-61l-208 0zm-24 -467c16,0 24,8 24,24l0 318c58,-8 130,-11 216,-11 151,0 252,31 299,91 47,60 71,180 71,364 0,182 -24,302 -73,362 -47,59 -149,88 -305,88 -109,0 -223,-10 -338,-28 -18,-1 -26,-11 -26,-26l0 -1158c0,-16 8,-24 24,-24l108 0z"/>
  <path class="fil5 str0" d="M46963 -446l-207 0c-97,0 -159,20 -185,61 -26,39 -39,125 -39,256 0,130 13,215 38,255 25,41 87,60 185,60 70,0 138,-4 208,-13l0 -619zm131 -467c17,0 25,8 25,24l0 1158c0,15 -8,25 -26,26 -116,18 -229,28 -338,28 -130,0 -210,-16 -270,-54 -88,-65 -107,-177 -109,-396 0,-184 25,-304 72,-364 47,-60 147,-91 299,-91 87,0 159,3 216,11l0 -318c0,-16 8,-24 24,-24l107 0z"/>
  <path class="fil5 str0" d="M47596 -394c-27,35 -42,103 -44,207l421 0c-1,-106 -16,-174 -42,-208 -26,-34 -81,-51 -164,-51 -86,0 -143,18 -171,52zm458 -102c48,57 74,171 75,343l0 47c0,34 -11,45 -58,45l-517 0c2,100 16,166 44,199 28,32 86,48 172,48l267 0c16,0 24,9 24,25l0 71c0,15 -8,25 -23,26 -71,10 -162,15 -271,15 -151,0 -252,-29 -299,-88 -47,-60 -71,-180 -71,-364 0,-183 24,-304 71,-364 47,-60 148,-89 299,-89 144,0 240,29 287,86z"/>
  <path class="fil4 str1" d="M49821 -574c16,3 24,11 24,26l0 96c0,16 -8,24 -26,24l-299 0c-71,0 -107,25 -107,72l0 19c0,41 29,73 89,96l213 78c132,50 166,122 166,237l0 21c0,176 -108,228 -337,228 -104,0 -209,-5 -316,-15 -17,-1 -25,-9 -25,-24l0 -101c0,-18 8,-26 26,-26l315 0c111,0 143,-13 143,-70l0 -16c0,-41 -21,-66 -92,-93l-215 -81c-109,-39 -162,-118 -162,-239l0 -32c0,-164 123,-218 349,-218 93,0 177,7 254,18z"/>
  <path class="fil4 str1" d="M50620 -65l-224 0c-90,0 -125,29 -125,108 0,91 40,116 164,116 78,0 139,-7 185,-18l0 -206zm197 -260l0 565c0,24 -12,39 -33,47 -83,25 -205,36 -365,36 -126,0 -213,-18 -265,-52 -52,-36 -78,-109 -78,-219 0,-197 96,-259 308,-259l236 0 0 -84c0,-91 -54,-130 -184,-130l-266 0c-20,0 -24,-5 -24,-25l0 -99c0,-19 4,-21 22,-26 77,-14 166,-21 268,-21 278,0 381,85 381,267z"/>
  <path class="fil4 str1" d="M51273 -928c16,0 25,8 25,24l0 1194c0,17 -9,25 -25,25l-148 0c-16,0 -24,-8 -24,-25l0 -1194c0,-16 8,-24 24,-24l148 0z"/>
  <path class="fil4 str1" d="M52331 -584c16,0 24,9 24,25l0 828c0,21 -8,23 -24,26 -91,18 -211,28 -362,28 -163,0 -239,-10 -304,-67 -65,-57 -82,-146 -82,-320l0 -495c0,-16 10,-25 28,-25l146 0c15,0 23,9 23,25l0 460c0,123 5,181 39,216 34,34 65,35 151,35l187 0 0 -711c0,-16 8,-25 24,-25l150 0z"/>
  <path class="fil4 str1" d="M53197 -421l-177 0c-90,0 -146,18 -171,53 -24,36 -36,114 -36,234 0,117 12,194 35,231 24,37 79,55 167,55 60,0 122,-5 182,-13l0 -560zm172 -505c16,0 24,8 24,24l0 1162c0,19 -9,30 -29,34 -118,19 -234,29 -348,29 -168,0 -259,-21 -323,-93 -60,-73 -76,-174 -76,-364 0,-182 24,-303 73,-365 50,-62 149,-93 299,-93 84,0 154,3 208,10l0 -320c0,-16 8,-24 24,-24l148 0z"/>
  <path class="fil0" d="M38517 -3644c-133,0 -240,107 -240,240l0 840c0,133 107,240 240,240 132,0 240,-107 240,-240l0 -840c0,-133 -108,-240 -240,-240z"/>
  <path class="fil0" d="M41290 -1975c0,-254 -206,-460 -461,-460 -254,0 -460,206 -460,460 0,167 88,312 220,393l0 640c0,335 -77,652 -214,933 1,1 1,1 2,2 -296,609 -874,1054 -1561,1155l0 0c-44,6 -89,11 -134,15 -9,1 -17,1 -26,2 -46,3 -92,5 -139,5 -929,0 -1717,-625 -1979,-1485 -41,-132 -69,-270 -83,-412 -7,-71 -11,-143 -11,-215l0 -640c132,-81 221,-226 221,-393 0,-254 -207,-460 -461,-460 -254,0 -460,206 -460,460 0,167 88,312 220,393l0 640c0,1429 1145,2592 2553,2592 44,0 88,-1 132,-3 2,0 3,0 5,-1 1289,-69 2327,-1111 2409,-2413 1,-2 1,-4 1,-6 3,-54 5,-107 5,-161l0 -8 0 0 0 -640c132,-81 221,-226 221,-393z"/>
  <path class="fil10" d="M41069 -2618l0 -389 0 -9c0,-5 0,-9 0,-14l0 0c0,-19 0,-39 -1,-58l0 0c0,-7 0,-14 -1,-20l0 0c-1,-20 -2,-40 -3,-60l0 0c0,-2 0,-5 0,-8l0 0c0,-2 0,-4 -1,-6l0 0 0 -2c-1,-15 -2,-30 -3,-44l0 0c-1,-11 -2,-22 -3,-32l0 0c-1,-7 -1,-14 -2,-20l0 0c-107,-1061 -851,-1934 -1838,-2220l0 0c-2,-1 -4,-1 -7,-2l0 0c-16,-5 -33,-9 -50,-14l0 0c-4,-1 -9,-2 -14,-4l0 0c-14,-3 -28,-7 -43,-10l0 0c-7,-2 -13,-4 -20,-5l0 0c-12,-3 -25,-6 -37,-8l0 0c-9,-2 -17,-4 -26,-6l0 0c-10,-2 -21,-4 -31,-6l0 0c-11,-2 -21,-4 -31,-6l0 0c-9,-1 -17,-2 -26,-4l0 0c-12,-2 -24,-4 -36,-6l0 0c-6,-1 -12,-1 -18,-2l0 0c-15,-2 -30,-5 -45,-6l0 0c0,-1 0,-1 -1,-1l0 0c-103,-13 -208,-19 -315,-19 -107,0 -212,6 -316,19l0 0c0,0 0,0 -1,1l0 0c-15,1 -30,4 -45,6l0 0c-5,1 -11,1 -17,2l0 0c-12,2 -25,4 -37,6l0 0c-8,2 -17,3 -25,4l0 0c-11,2 -21,4 -31,6l0 0c-11,2 -21,4 -32,6l0 0c-8,2 -17,4 -25,6l0 0c-13,2 -25,5 -37,8l0 0c-7,1 -14,3 -21,5l0 0c-14,3 -28,7 -42,10l0 0c-5,2 -10,3 -15,4l0 0c-17,5 -33,9 -50,14l0 0c-2,1 -5,1 -7,2l0 0c-986,286 -1730,1159 -1838,2220l0 0c0,6 -1,13 -2,20l0 0c-1,10 -2,21 -2,32l0 0c-2,14 -3,29 -4,44l0 0c0,0 0,1 0,2l0 0c0,2 0,4 0,6l0 0c-1,3 -1,6 -1,8l0 0c-1,20 -2,40 -3,60l0 0c0,6 0,13 0,20l0 0c-1,19 -1,38 -2,58l0 0c0,5 0,10 0,15l0 0 0 8c0,0 0,0 0,0l0 0 0 0 0 270 0 119c78,-30 162,-47 251,-47l0 0c80,0 157,14 229,40l0 0 0 -87 0 -295c0,-20 1,-39 1,-59l0 0c0,-6 1,-12 1,-17l0 0c0,-14 1,-28 2,-42l0 0c0,-7 0,-13 1,-19l0 0c1,-14 2,-27 3,-41l0 0c0,-6 1,-12 1,-18l0 0c2,-14 3,-28 5,-43l0 0c0,-5 1,-9 1,-14l0 0c2,-17 4,-34 7,-50l0 0c0,-3 0,-5 1,-7l0 0c32,-221 97,-430 191,-623l0 0c0,-1 0,-1 0,-1l0 0c234,-482 645,-861 1145,-1049l0 0c8,-3 17,-6 25,-9l0 0c8,-3 15,-6 22,-8l0 0c16,-6 33,-11 49,-17l0 0c4,-1 8,-2 12,-3l0 0c99,-31 201,-55 306,-70l0 0c0,0 0,0 0,0l0 0c45,-7 90,-11 135,-15l0 0c8,-1 17,-1 26,-2l0 0c46,-3 92,-5 139,-5l0 0c47,0 93,2 139,5l0 0c9,1 17,1 26,2l0 0c45,4 90,8 134,15l0 0c0,0 0,0 0,0l0 0c105,15 207,39 307,70l0 0c3,1 7,2 11,3l0 0c17,6 33,11 49,17l0 0c8,2 15,5 22,8l0 0c9,3 17,6 26,9l0 0c500,188 910,567 1144,1049l0 0c0,0 0,0 0,1l0 0c94,193 160,402 192,623l0 0c0,2 0,4 1,7l0 0c2,16 4,33 6,50l0 0c1,5 1,9 2,14l0 0c1,15 3,29 4,43l0 0c1,6 1,12 2,18l0 0c1,14 2,27 3,41l0 0c0,6 1,12 1,19l0 0c1,14 1,28 2,42l0 0c0,5 0,11 0,17l0 0c1,20 1,39 1,59l0 0 0 289 0 93c72,-26 149,-40 230,-40l0 0c88,0 173,17 250,47z"/>
 </g>
</svg>
